<svg width="238" height="22" viewBox="0 0 238 22" fill="none" xmlns="http://www.w3.org/2000/svg"><path d="M237.095 5.567a5.567 5.567 0 1 1-11.134-.002 5.567 5.567 0 0 1 11.134.002Z" fill="#00F500"/><path d="M171.208 18.714c-2.84 0-5.073-2.233-5.073-5.138 0-2.902 2.233-5.136 5.073-5.136 2.839 0 5.137 2.234 5.137 5.136 0 2.904-2.298 5.138-5.137 5.138Zm5.137-10.402h-.606c-1.116-2.01-3.19-3.159-5.583-3.159-3.926 0-7.562 3.669-7.562 8.423 0 4.755 3.541 8.393 7.562 8.393 2.393 0 4.467-1.148 5.583-3.159h.606v2.744h3.51V5.536h-3.51v2.776ZM8.614 18.714c-2.84 0-5.073-2.233-5.073-5.138 0-2.902 2.233-5.136 5.073-5.136 2.84 0 5.138 2.234 5.138 5.136 0 2.904-2.298 5.138-5.138 5.138Zm5.138-10.402h-.606c-1.116-2.01-3.191-3.159-5.584-3.159C3.637 5.153 0 8.822 0 13.576c0 4.755 3.541 8.393 7.562 8.393 2.393 0 4.468-1.148 5.584-3.159h.606v2.744h3.51V5.536h-3.51v2.776Zm182.726 3.574h-8.2v-6.35h-3.51v16.018h3.51v-6.35h8.2v6.35h3.51V5.536h-3.51v6.35Zm15.855 1.5 8.295-7.85h-4.786l-7.432 7.339V5.536h-3.51v16.018h3.51v-7.371l7.495 7.371h5.139l-8.711-8.168Zm-58.067 5.041h-5.647v-4.02h5.647c1.595 0 2.36.828 2.36 2.009 0 1.182-.733 2.011-2.36 2.011Zm.415-7.148h-6.062V8.663h10.274V5.536h-13.784v16.018h9.572c3.286 0 5.52-2.17 5.52-5.138-.001-2.967-2.266-5.137-5.52-5.137Zm-42.499 7.404c-2.903 0-5.041-2.234-5.041-5.106 0-2.902 2.138-5.136 5.041-5.136 2.808 0 5.041 2.234 5.041 5.136 0 2.871-2.169 5.106-5.041 5.106Zm0-13.53c-4.212 0-7.626 2.904-8.392 6.764h-2.967V5.536h-3.51v16.018h3.51v-6.382h2.967c.733 3.894 4.18 6.797 8.392 6.797 4.722 0 8.551-3.733 8.551-8.393 0-4.689-3.861-8.423-8.551-8.423Zm9.827 3.702h5.871v12.699h3.509V8.855h5.871V5.536h-15.251v3.319ZM83.37 5.536l-6.859 16.018h3.701L85.54 8.759l5.328 12.795h3.861L87.87 5.536h-4.5ZM48.178 8.44c3.446 0 4.403 2.648 4.403 2.648h3.701s-1.468-5.935-8.104-5.935c-4.753 0-8.487 3.733-8.487 8.423 0 4.723 3.734 8.424 8.487 8.424 6.637 0 8.104-5.935 8.104-5.935h-3.7s-.958 2.648-4.404 2.648c-2.808 0-4.913-2.233-4.913-5.138 0-2.901 2.105-5.135 4.913-5.135Zm-16.782 9.955h-5.68v-3.987h5.68c1.596 0 2.361.828 2.361 2.009s-.734 1.978-2.361 1.978Zm.415-7.116h-6.095V8.695h10.307V5.536H22.207v16.018h9.604c3.254 0 5.52-2.17 5.52-5.138-.002-2.967-2.299-5.137-5.52-5.137Zm35.13 7.404c-2.969 0-5.139-2.234-5.139-5.106 0-2.902 2.17-5.136 5.138-5.136 2.87 0 5.136 2.234 5.136 5.136 0 2.871-2.202 5.106-5.136 5.106Zm0-13.53c-4.852 0-8.68 3.733-8.68 8.423 0 4.659 3.828 8.393 8.68 8.393 4.816 0 8.709-3.733 8.709-8.393 0-4.689-3.956-8.423-8.71-8.423Z" fill="#FF5000"/></svg>