<svg width="91" height="32" viewBox="0 0 91 32" fill="none" xmlns="http://www.w3.org/2000/svg"><path d="M29.177 0v.006L26.353 2.83V0H23.53l-4.705 4.706v12.235h1.882V5.647l3.765-3.764v15.058h1.882V5.647l3.765-3.764v15.058H32V0h-2.823ZM5.648 1.883v13.176H1.884V5.647l3.764-3.764ZM.001 16.941h7.53V0H4.707L0 4.706l.001.001v12.234ZM11.296 1.883h3.764v13.176h-3.764V1.883ZM16.943 0H9.414v16.941h7.53V0Zm15.06 18.824h-32v1.882h32v-1.882Zm-20.708 9.411H1.883V24.47h9.412v3.765ZM0 22.588V32h1.883v-1.883h11.294v-7.529H0Zm30.118 5.647H24.47V24.47h5.647v3.765ZM16.94 24.471h5.647v3.765H16.94v-3.765Zm-1.882-1.883v7.529h7.529V32h1.882v-1.883H32v-7.529H15.059Zm46.6-5.219H60.01v2.332h1.65c.734 0 1.174-.464 1.174-1.166 0-.689-.44-1.166-1.175-1.166Zm.083 3.807H58.36v-8.469h5.59v1.475h-3.94v1.712h1.732c1.697 0 2.74 1.096 2.74 2.642 0 1.546-1.03 2.64-2.74 2.64Zm7.825-5.971-1.067 3.08h2.1l-1.033-3.08Zm1.97 5.971-.498-1.498h-3.002l-.511 1.498h-1.72l3.073-8.469h1.293l3.085 8.469h-1.72Zm7.957 0v-3.545h-2.859v3.545h-1.65v-8.469h1.65v3.461h2.86v-3.461h1.65v8.469h-1.65Zm4.234 0v-8.469h1.65v4.021l2.729-4.021h1.97L87.24 16.68l3.12 4.496h-2.016l-2.967-4.426v4.426h-1.65Z" fill="#304048"/><path d="M47.062.004H45.18v31.992h1.882V.004Z" fill="#82C451"/></svg>