<svg width="152" height="32" viewBox="0 0 152 32" fill="none" xmlns="http://www.w3.org/2000/svg"><path d="M31.722 16.01c0 8.684-7.043 15.731-15.72 15.731S.282 24.694.282 16.01C.281 7.327 7.323.281 16.001.281c8.677.001 15.72 7.047 15.72 15.729Z" fill="#fff"/><path d="M.546 16.01C.546 7.481 7.477.543 16.004.543c8.508 0 15.438 6.938 15.438 15.467 0 8.514-6.93 15.446-15.438 15.446C7.477 31.456.546 24.524.546 16.01Zm-.546 0c0 8.815 7.176 15.991 16.003 15.991 8.807 0 15.981-7.176 15.981-15.991C31.984 7.177 24.81 0 16.003 0 7.176.001 0 7.177 0 16.01Z" fill="#1E3262"/><path d="M26.185 14.376c-.13.113-.263.205-.393.32-.884.674-2.293 1.221-4.227 1.729-4.019 1.09-6.933 1.239-10.239 2.049a13.65 13.65 0 0 0-1.95.639 20.86 20.86 0 0 0 1.97.865c1.352-.395 1.993-.564 3.943-.883.751-.135 3.043-.547 4.696-.883 2.99-.641 7.365-2.032 6.2-3.836Zm-1.934-3.76a16.356 16.356 0 0 0-2.273-.787c-.378.301-.808.562-1.449.81 1.055.185 1.844.485 2.743.731.15.076.863-.58.98-.754ZM9.618 14.62c3.907-1.146 8.002-1.502 12.153-2.611-1.615-.432-2.52-.621-4.225-.412-2.48.301-5.223.824-7.57 1.521-.922.282-5.749 1.653-4.357 3.569.001.019.824-1.145 4-2.067Zm-2.686 6.576c-.019.357.208.678.677 1.072.056-.189.151-.338.282-.525-.32-.172-.64-.338-.959-.547Zm1.823-.166a5.992 5.992 0 0 1 1.05-.51c-.544-.246-1.126-.486-1.69-.75a5.75 5.75 0 0 0-.693.504 45 45 0 0 0 1.333.756Zm15.005-8.307c-.787.376-1.913.75-3.529 1.146-1.333.337-4.564.807-8.039 1.558-1.089.245-4.078.938-5.543 2.179.414.342.676.414 1.127.678.601-.395 1.428-.77 2.65-1.092 2.12-.561 3.718-.805 5.635-1.124 1.896-.285 5.482-1.035 7.455-1.751.66-.224 1.26-.524 1.69-.884-.13-.147-1.408-.767-1.446-.71Zm1.147-.697c.393.189.753.32 1.09.565.242-.472.091-.772-.413-1.203-.207.245-.434.45-.677.638ZM6.745 19.073c-.358-.186-.583-.336-.884-.525-.15.34.153.713.452.883.13-.131.301-.244.432-.358ZM23.347 8.29c-.075.263-.354.582-.543.789.583.15 1.184.373 1.746.581-.075-.527-.676-1.034-1.203-1.37ZM4.978 11.612c4.095-2.668 8.623-4.244 16.285-2.91.414-.246.657-.49.772-.979-1.917-.693-4-.938-6.686-.902-2.406.076-6.745.977-9.07 2.352l.71-.884c1.615-.961 5.841-2.218 9.017-2.276 2.233-.055 3.38.076 6.047.789-.246-.447-.79-.675-1.598-1.05-2.572-1.147-7.362-1.261-11.286.486.486-.337.975-.64 1.615-.917 1.293-.604 3.417-1.186 6.065-1.13 2.124.038 4.641.771 6.18 2.293.261.317.413.638.47.884 1.22.619 1.933 1.201 2.327 1.877.17.357.227.732.15 1.165.507.3.753.563 1.017.905.166.281.298.598.337.885.055.373.092.805-.302 1.312.414.209.75.788.791 1.035.206.917-.396 1.82-1.165 2.516-.903.789-2.894 1.729-4.509 2.145-3.19.805-6.028 1.146-8.28 1.559 1.013.244 2.384.564 4.62.564 4.788 0 9.014-2.256 9.014-2.256s-.092.283-.188.547c-3.043 1.84-7.868 2.609-9.936 2.516-2.085-.096-3.849-.414-5.577-.939-.526.15-1.052.32-1.558.525 2.63 1.203 4.62 1.467 6.855 1.635 2.29.17 6.086-.377 9.276-1.539-.15.152-.225.375-.374.508-1.636.863-5.089 1.729-6.836 1.803-1.729.076-3.832 0-5.673-.34-1.578-.316-2.875-.809-4.227-1.406-.243.184-.355.412-.413.676 5.28 2.762 10.2 2.818 15.817 1.07l-.51.488c-6.179 2.52-11.005 1.541-14.744-.262-.13-.059-.28-.115-.392-.189.357.604 3.21 2.688 6.403 2.951 2.2.188 4.884-.189 6.481-.826l-.938.486c-.77.377-2.817 1.242-5.674 1.055-3.812-.264-5.955-1.955-6.912-2.838-.452-.416-.656-.883-.789-1.467-.864-.449-1.409-.922-1.858-1.635-.263-.395-.208-.861-.15-1.26l.114-.336c-.415-.303-.847-.621-1.015-.938-.377-.678-.149-1.264.112-1.713-.227-.264-.434-.525-.525-.79-.112-.301-.13-.604-.096-.939.075-.563.377-1.09.772-1.542.825-.958 2.143-1.71 4.375-2.442 2.2-.733 3.082-.848 4.735-1.224 1.934-.448 4.244-.599 6.18-1.274-5.394-.939-10.989-.076-15.553 3.06l.297-.884Zm47.162 1.599.62 4.284h-1.241l.62-4.284Zm-4.828 9.79H50.6l.414-2.424h2.272l.396 2.424h3.286l-2.78-14.018h-4.093l-2.782 14.018Zm12.772-8.586c.525 0 1.484-.339 1.484-1.372 0-1.22-1.107-1.298-1.429-1.298-.374 0-1.087.058-1.783.396l-.038-3.047a10.577 10.577 0 0 1 2.835-.356c2.67 0 3.852 1.86 3.852 3.683 0 1.768-1.016 2.836-2.01 3.251v.132c.958.303 2.234 1.221 2.234 3.364 0 2.652-1.84 4.115-4.207 4.115-1.259-.018-2.085-.186-3.08-.73l.056-2.914c.921.395 1.54.432 2.16.432 1.053 0 1.464-.771 1.464-1.332 0-.791-.505-1.316-1.614-1.316h-1.314v-3.006h1.39v-.002Zm6.666-5.432h8.866v14.018h-3.25V12.365H70v10.636h-3.25V8.983Zm13.975 3.081h.772c.734 0 1.203.452 1.203 1.617 0 1.503-.79 1.614-1.204 1.614h-.77v-3.231Zm-3.248 10.937h3.248V18.38h1.092c3.21 0 4.207-2.895 4.207-4.739 0-1.803-1.148-4.658-4.207-4.658h-4.34v14.018Zm14.556-3.232c-1.147 0-1.728-1.332-1.728-3.795s.58-3.795 1.728-3.795c1.148 0 1.727 1.332 1.727 3.795s-.58 3.795-1.727 3.795Zm0 3.402c3.85 0 5.145-3.609 5.145-7.198 0-3.587-1.294-7.195-5.145-7.195-3.85 0-5.146 3.608-5.146 7.195 0 3.589 1.297 7.198 5.146 7.198Zm22.482-2.988v-3.174h.47c.394 0 1.408.018 1.408 1.465 0 1.467-1.015 1.709-1.408 1.709h-.47Zm-3.175 2.818h3.869c.844 0 4.357-.357 4.376-4.605 0-3.567-2.723-4.188-4.488-4.188h-.582v-1.86h4.301V8.985h-7.476v14.016Zm19.93-14.018h3.173v5.055h2.274V8.983h3.173v14.018h-3.173v-5.617h-2.274v5.617h-3.173V8.983Zm10.757 0h3.195l-.02 5.035h.694l1.823-5.035h3.456l-2.481 6.654 2.838 7.364h-3.738l-1.84-5.637h-.752l.02 5.637h-3.195V8.983Zm-101.004 0h6.664v3.494h-3.36v10.524h-3.304V8.983Zm57.715 0h2.762l2.438 3.308 2.463-3.308h2.743v14.018h-3.252V14.45l-1.954 2.443-1.951-2.443v8.551h-3.249V8.983Zm26.314 4.266.601 4.266h-1.222l.621-4.266Zm-4.845 9.77h3.306l.396-2.422h2.271l.395 2.422h3.306l-2.779-14.016h-4.096l-2.799 14.016Z" fill="#1E3262"/></svg>