<svg width="138" height="32" viewBox="0 0 138 32" fill="none" xmlns="http://www.w3.org/2000/svg"><path d="M77.686 0 60.41 2.257v5.112l17.276-1.541V0Z" fill="#E4003A"/><path d="M24.895 18.619c0 3.104.927 4.178 3.896 4.178 2.97 0 3.88-1.08 3.88-4.178 0-3.097-.895-4.176-3.88-4.176-2.983 0-3.896 1.059-3.896 4.176Zm-5.22-.045c0-5.686 3.16-8.286 9.117-8.286 5.957 0 9.13 2.601 9.13 8.286s-3.138 8.378-9.13 8.378c-5.991 0-9.116-2.692-9.116-8.378Zm54.737-6.857L60.406 2.262v5.102l4.367 2.957.86.502c-1.57.02-2.322.338-3.076.793-2.157 1.301-3.276 3.587-3.276 6.961 0 5.686 3.14 8.377 9.116 8.377 5.98 0 9.132-2.691 9.132-8.377 0-3.292-1.066-5.542-3.117-6.86Zm-6.015 11.08c-2.964 0-3.896-1.08-3.896-4.178 0-3.097.926-4.176 3.896-4.176 2.97 0 3.881 1.059 3.881 4.176 0 3.119-.894 4.178-3.88 4.178ZM10.688 10.268c-2.821 0-5.113 1.74-5.682 2.46v-2.089H0V32h4.975v-7.598c.584.736 2.86 2.444 5.697 2.444 4.707 0 7.299-2.554 7.299-8.302 0-5.748-2.588-8.276-7.283-8.276ZM8.906 22.709c-2.964 0-3.896-1.076-3.896-4.176s.926-4.177 3.896-4.177c2.97 0 3.879 1.062 3.879 4.177 0 3.115-.895 4.169-3.88 4.169v.007Zm102.852-12.063v5.8h-6.604v-5.8h-5.006v15.696h5.006v-5.88h6.604v5.88h5.007V10.646h-5.007Zm-32.504 7.899c0 5.743 2.589 8.302 7.3 8.302 2.835 0 5.11-1.708 5.695-2.444v1.942h4.976V10.629H92.22v2.088c-.572-.709-2.864-2.449-5.684-2.449-4.695 0-7.282 2.544-7.282 8.277Zm5.184-.023c0-3.118.895-4.177 3.88-4.177 2.988 0 3.896 1.062 3.896 4.177 0 3.115-.926 4.177-3.895 4.177-2.97 0-3.883-1.074-3.883-4.177h.002Zm-31.992 2.021c-.39 1.641-1.437 2.254-3.703 2.254-2.963 0-3.895-1.08-3.895-4.178 0-3.097.932-4.176 3.895-4.176 2.267 0 3.313.611 3.705 2.262l5.22-.395c-.78-4.106-3.836-6.016-8.925-6.016-5.956 0-9.114 2.602-9.114 8.287 0 5.685 3.139 8.377 9.114 8.377 5.086 0 8.11-1.949 8.909-6.016l-5.206-.399Zm85.504 5.798-7.922-8.241 7.497-7.453h-6.192l-6.718 6.818v-6.818h-4.916v15.694h4.916v-7.227l6.9 7.228h6.435v-.001Z" fill="#00274F"/></svg>