<svg width="167" height="32" viewBox="0 0 167 32" fill="none" xmlns="http://www.w3.org/2000/svg"><path d="M1.738 12.418c.68 2.496 1.806 3.422 3.527 5.148 1.721 1.725 3.317 1.772 3.317 9.389 0-2.408-1.752-4.012-3.317-5.453-3.648-3.357-3.325-3.881-3.527-9.084Z" fill="#fff"/><path d="M13.392 31.799c7.262 0 13.188-6.029 13.188-13.405 0-7.386-5.927-13.404-13.188-13.404C6.132 4.99.203 11.009.203 18.394c0 7.375 5.925 13.405 13.19 13.405Zm22.611-6.897h-2.241V11.678h5.093c1.452 0 2.528.391 3.23 1.168a3.982 3.982 0 0 1 1.05 2.754c0 1.211-.378 2.189-1.136 2.938-.76.75-1.723 1.123-2.89 1.123h-3.106v5.241Zm0-7.285h2.652c.69 0 1.22-.182 1.584-.542.367-.364.547-.844.547-1.446 0-.541-.168-1.004-.504-1.395-.34-.387-.95-.579-1.828-.579h-2.451v3.962Zm12.156 7.49c-1.361 0-2.4-.522-3.116-1.562-.718-1.042-1.075-2.231-1.075-3.575 0-1.447.396-2.652 1.188-3.613.794-.963 1.84-1.445 3.142-1.445 1.23 0 2.244.47 3.037 1.405.79.937 1.188 2.155 1.188 3.653 0 1.545-.41 2.785-1.233 3.725-.828.939-1.87 1.412-3.131 1.412Zm.07-1.823c1.397 0 2.097-1.107 2.097-3.322 0-1.003-.168-1.792-.501-2.368-.335-.579-.85-.87-1.54-.87-.718 0-1.25.302-1.594.897-.346.598-.52 1.392-.52 2.381 0 1.064.184 1.878.55 2.439.368.563.87.843 1.509.843Zm11.506-1.976 1.788.195c-.233 1.227-.678 2.133-1.341 2.722-.662.589-1.461.883-2.397.883-1.268 0-2.244-.493-2.926-1.479-.684-.985-1.026-2.192-1.026-3.621 0-1.471.374-2.689 1.12-3.65.748-.963 1.744-1.445 2.988-1.445 2.005 0 3.199 1.125 3.58 3.373l-1.787.262c-.154-1.213-.718-1.822-1.686-1.822-.702 0-1.215.327-1.532.984-.32.655-.48 1.449-.48 2.379 0 .988.167 1.749.499 2.284.329.536.793.808 1.387.808.91-.002 1.517-.626 1.813-1.873Zm8.69 0 1.787.195c-.232 1.227-.678 2.133-1.34 2.722s-1.461.883-2.396.883c-1.27 0-2.246-.493-2.927-1.479-.685-.985-1.026-2.192-1.026-3.621 0-1.471.373-2.689 1.119-3.65.75-.963 1.744-1.445 2.988-1.445 2.006 0 3.199 1.125 3.582 3.373l-1.787.262c-.156-1.213-.72-1.822-1.687-1.822-.702 0-1.215.327-1.532.984-.32.655-.48 1.449-.48 2.379 0 .988.166 1.749.498 2.284.33.536.793.808 1.388.808.91-.002 1.517-.626 1.813-1.873Zm9.229.475 1.877.271a4.197 4.197 0 0 1-1.421 2.189c-.706.575-1.59.862-2.652.862-1.274 0-2.301-.456-3.078-1.369-.777-.909-1.166-2.143-1.166-3.7 0-1.479.392-2.701 1.175-3.671.783-.97 1.848-1.455 3.188-1.455 1.312 0 2.325.479 3.043 1.435.716.957 1.073 2.184 1.073 3.682l-.006.255h-6.313c0 .665.059 1.196.176 1.597.119.4.355.748.706 1.045.354.298.793.446 1.32.446 1.027.001 1.72-.528 2.078-1.587Zm-.128-2.926c-.007-.705-.204-1.279-.597-1.727-.392-.443-.874-.668-1.453-.668-.571 0-1.047.209-1.43.625-.383.416-.606 1.005-.675 1.77h4.155Zm2.652 6.045 2.94-9.785h2.452l2.859 9.785h-2.166l-2.078-8.069-2.323 8.069h-1.684Zm9.418 0v-9.785h2.077v3.574h2.426c1.05 0 1.82.303 2.316.902.494.6.743 1.348.743 2.236 0 .982-.268 1.74-.806 2.271-.538.533-1.29.801-2.254.801h-4.502v.001Zm2.077-1.715h2.015c.51 0 .877-.107 1.098-.325.22-.215.332-.565.332-1.052 0-1.005-.478-1.511-1.43-1.511h-2.015v2.888Zm14.039 1.715h-2.366l-1.95-3.564-2.133 3.564h-1.785l3.06-5.037-2.648-4.748h2.376l1.514 2.877 1.723-2.877h1.738l-2.596 4.242 3.067 5.543Zm4.602.205c-1.362 0-2.4-.522-3.115-1.562-.719-1.042-1.076-2.231-1.076-3.575 0-1.447.396-2.652 1.188-3.613.792-.963 1.841-1.445 3.14-1.445 1.232 0 2.246.47 3.038 1.405.79.937 1.188 2.155 1.188 3.653 0 1.545-.411 2.785-1.235 3.725-.824.939-1.866 1.412-3.128 1.412Zm.071-1.823c1.396 0 2.096-1.107 2.096-3.322 0-1.003-.167-1.792-.5-2.368-.337-.579-.849-.87-1.54-.87-.718 0-1.249.302-1.596.897-.344.598-.518 1.392-.518 2.381 0 1.064.183 1.878.55 2.439.368.563.871.843 1.508.843Zm8.181-2.665V19.1c.995 0 1.623-.131 1.878-.395.254-.262.382-.564.382-.913 0-.37-.121-.671-.367-.902-.242-.231-.584-.347-1.029-.347-.951 0-1.52.482-1.701 1.451l-1.896-.357c.407-1.815 1.657-2.725 3.753-2.725 1.13 0 1.987.254 2.568.757.585.503.877 1.141.877 1.909 0 .98-.569 1.689-1.704 2.122 1.318.374 1.975 1.157 1.975 2.354 0 .869-.318 1.597-.952 2.18-.634.581-1.546.873-2.736.873-2.186 0-3.52-1-3.998-2.996l1.912-.357c.249 1.161.883 1.742 1.902 1.742.523 0 .933-.136 1.226-.41.295-.274.443-.645.443-1.11 0-.348-.103-.639-.301-.866a1.255 1.255 0 0 0-.771-.417c-.311-.05-.799-.074-1.461-.074Zm6.639 4.283V11.678h8.326v2.375h-5.467v2.887h2.096c1.088 0 1.95.109 2.584.333.635.222 1.15.649 1.552 1.274.4.627.603 1.398.603 2.314 0 1.272-.367 2.265-1.097 2.976-.733.711-1.753 1.065-3.065 1.065h-5.532Zm2.859-2.5h2.243c.528 0 .936-.146 1.223-.439.282-.295.425-.682.425-1.158 0-1.028-.628-1.541-1.884-1.541h-2.005v3.139h-.002v-.001Zm16.58 2.5h-2.631c-.087-.387-.128-.896-.128-1.531-.464.697-.923 1.16-1.38 1.393-.461.229-.98.344-1.564.344-.861 0-1.558-.251-2.09-.747-.531-.496-.796-1.168-.796-2.008 0-.611.152-1.177.464-1.692.311-.517.808-.924 1.495-1.218.685-.294 1.938-.513 3.753-.655v-.562c0-.949-.447-1.422-1.34-1.422-.955 0-1.486.473-1.595 1.422l-2.504-.251c.162-1.111.657-1.898 1.483-2.364.828-.463 1.761-.698 2.805-.698.629 0 1.217.08 1.77.235.554.155.982.388 1.293.698.308.307.52.638.628.981.109.348.165.948.165 1.806v4.438c0 .853.057 1.464.172 1.831Zm-2.876-4.689c-1.903.201-2.852.811-2.852 1.832 0 .341.1.639.298.886.202.248.486.374.858.374.479 0 .88-.212 1.207-.635.323-.424.487-.946.487-1.564l.002-.893Zm4.943 4.689v-9.785h2.715v3.525h2.826v-3.525h2.714v9.785h-2.714v-4.156h-2.826v4.156h-2.715Zm16.399-6.422 3.169 6.422h-2.842l-2.14-4.368-1.387 1.558v2.811h-2.715v-9.785h2.715v2.439c0 .394-.01.971-.034 1.728.211-.331.47-.665.773-1.009l2.777-3.158h2.516l-2.832 3.362Z" fill="#008952"/><path d="M13.39 4.787C6.016 4.789 0 10.898 0 18.393c0 7.485 6.014 13.605 13.39 13.606 7.378-.001 13.392-6.121 13.393-13.606-.001-7.495-6.015-13.604-13.392-13.606Zm-2.453 22.656v3.914c-.461-.09-.914-.205-1.356-.344V19.186h1.94c.504 0 .854.103 1.059.298.205.194.298.544.298 1.048v5.566c0 .503-.093.853-.298 1.048-.308.308-.873.308-1.346.308-.103-.011-.205-.011-.297-.011Zm2.454 4.153c-.635 0-1.26-.047-1.87-.137V28.02c.896 0 1.481-.307 1.758-.919v3.435c0 .421.064.777.197 1.061-.028-.002-.056-.001-.085-.001Zm3.698-8.107h-1.335v-3.051h-.575V30.73h.575v-6.666h1.335v6.471c0 .2-.016.374-.046.526a12.66 12.66 0 0 1-2.935.515c-.231-.274-.266-.693-.266-1.041v-9.902c0-.514.104-.873.299-1.078.194-.205.544-.308 1.037-.308.503 0 1.242-.072 1.623.308.195.205.287.564.287 1.078v2.856Zm4.273 5.313c-.452.359-.93.688-1.427.986v-5.663h-.606v6.003a13.12 13.12 0 0 1-1.429.644V24.29c0-.596.145-1.048.75-1.254l-.668-3.667h1.347l.226 4.006h.164l.227-4.006h1.417l-.76 3.667c.637.227.76.617.76 1.254v4.512h-.001Zm-3.697-5.779v-2.277l.4 2.045a1.15 1.15 0 0 0-.4.232Zm4.171.373a1.037 1.037 0 0 0-.637-.604l.637-3.295v3.899Zm4.416-3.169a8.698 8.698 0 0 1-.025.18h-2.184v.535h.33c.626-.019 1.33-.027 1.671.432a13.257 13.257 0 0 1-1.343 3.493V22.01h-.657v3.916c-.44.642-.936 1.242-1.478 1.794l-.073.072v-8.453h3.759v.888Zm-8.967-1.422.13.663c-.294-.537-.847-.806-1.661-.806h-.574c-.979 0-1.574.39-1.798 1.165-.21-.812-.829-1.217-1.858-1.217H8.997v12.204a12.994 12.994 0 0 1-4.777-3.093 13.272 13.272 0 0 1-3.813-9.327c0-3.638 1.459-6.938 3.813-9.33 2.354-2.392 5.599-3.871 9.174-3.871 3.574 0 6.819 1.48 9.174 3.871a13.27 13.27 0 0 1 3.806 9.742h-9.088v-.001h-.001Zm-6.348 7.488h.584v-5.958h-.584v5.958Z" fill="#fff"/><path d="m2.204 11.225.02.43.063.411.102.391.113.38.155.359.174.35.185.339.216.318.226.308.256.308.535.596.564.556.586.564.575.555.575.564.524.586.258.309.235.306.216.32.185.339.185.348.143.37.114.37.103.401.05.4.032.432-.021 3.605-.02-.43-.062-.411-.104-.392-.111-.38-.145-.358-.185-.36-.184-.329-.217-.329-.225-.308-.257-.308-.534-.585-.566-.576-.574-.544-.586-.555L4.228 19l-.524-.596-.256-.287-.238-.329-.205-.318-.184-.339-.174-.35-.166-.359-.112-.38-.093-.391-.062-.411-.03-.43.02-3.585Zm-.595 4.56.03.458.062.429.113.418.124.399.174.389.185.368.205.359.237.338.246.329.277.33.586.617.615.597.649.6.627.588.615.598.586.617.277.329.246.329.237.338.206.358.205.37.154.388.122.399.115.418.06.429.032.458-.021 3.818-.031-.459-.061-.428-.104-.419-.132-.4-.155-.387-.205-.369-.195-.359-.236-.339-.257-.328-.278-.33-.575-.617-.627-.607-.627-.589-.636-.588-.627-.609-.575-.627-.288-.309-.246-.338-.237-.35-.205-.347-.185-.379-.174-.379-.123-.408-.103-.409-.062-.428-.031-.469.01-3.797Z" fill="#fff"/><path d="M26.212 13.699h-8.44c-.083-.211-.215-.347-.362-.347s-.279.136-.362.347h-.304c-.084-.211-.215-.347-.362-.347-.148 0-.279.136-.363.347h-.235c.182-.246.288-.543.288-.861 0-.852-.609-1.542-1.532-1.542-.925 0-1.673.69-1.673 1.542 0 .389.292.745.39 1.01a.343.343 0 0 0 .028.676c-.092.327-.418.571-.418 1.093 0 .851.748 1.541 1.673 1.541.923 0 1.532-.69 1.532-1.541 0-.32-.106-.616-.288-.862h.235c.084.211.215.346.363.346.147 0 .278-.135.362-.346h.304c.082.211.215.346.362.346s.28-.135.362-.346h6.197v.348h-.29v.695h.29l.273.381-.564-.084v.931h.564v-.421h.836v.421h.564v-.931l-.564.084.275-.381h.29v-.695h-.29v-.348h.858a.401.401 0 0 0 .397-.404v-.246a.4.4 0 0 0-.396-.406Zm-11.396-.109c.264.009.476.283.476.623 0 .339-.212.613-.476.623l-.143.338c.368 0 .788.047.788.479 0 .52-.336.941-.923.941s-1.063-.422-1.063-.941c0-.407.15-.467.557-.6l-.119-.24.263-.238a.41.41 0 0 1 0-.754l-.227-.174.083-.248c-.407-.133-.556-.193-.556-.6 0-.521.476-.942 1.063-.942.586 0 .922.422.922.942 0 .432-.359.478-.788.478l.143.313Z" fill="#FFCA38"/><path d="M12.797 15.616c.002-.51.293-.774.399-1.042a.412.412 0 0 1-.278-.391c0-.17.102-.314.246-.38-.111-.243-.365-.581-.367-.966 0-.896.786-1.611 1.745-1.613.962.002 1.603.727 1.604 1.613 0 .287-.083.557-.227.789h.055c.09-.197.227-.342.41-.346.184.004.32.148.409.346h.21c.088-.197.227-.342.409-.346.183.004.32.148.409.346h8.394v.142h-8.49l-.017-.044c-.078-.199-.197-.305-.296-.301-.101-.004-.218.102-.296.301l-.02.044h-.4l-.017-.044c-.077-.199-.196-.305-.296-.301-.1-.004-.218.102-.296.301l-.02.044h-.424l.083-.113c.174-.234.275-.516.275-.818-.003-.817-.576-1.469-1.461-1.471-.89.001-1.602.664-1.603 1.471-.003.354.277.702.386.985l.027.076-.08.017a.273.273 0 0 0 .023.537l.082.011-.021.08c-.11.36-.42.583-.417 1.072 0 .807.712 1.469 1.603 1.469.885-.002 1.457-.652 1.46-1.469 0-.305-.101-.584-.274-.818l-.083-.115h.425l.018.046c.079.199.197.305.297.302.1.003.218-.103.296-.302l.018-.046h.4l.019.046c.078.198.196.305.296.302.099.003.218-.103.296-.302l.018-.046h6.316v.49h-.29v.553h.255l.395.547-.648-.096v.777h.42v-.422h.979v.422h.422v-.777l-.65.096.395-.547h.256v-.553h-.29v-.49h.93a.33.33 0 0 0 .327-.332v-.247a.33.33 0 0 0-.326-.333v-.142c.259 0 .469.215.469.475v.247c0 .262-.21.476-.47.476h-.787v.205h.29v.838h-.324l-.154.213.479-.07v1.084h-.707v-.421h-.692v.421h-.707V16.01l.479.07-.153-.213h-.325v-.838h.29v-.205h-6.08c-.088.198-.225.343-.408.346-.184-.003-.32-.147-.41-.346H16.8c-.09.198-.227.343-.41.346-.183-.003-.32-.147-.41-.346h-.054a1.5 1.5 0 0 1 .225.791c-.001.885-.642 1.61-1.604 1.612-.964 0-1.75-.716-1.75-1.611Zm1.745 1.05c-.62 0-1.134-.447-1.135-1.013-.001-.21.04-.354.147-.455.094-.085.216-.132.38-.187l-.106-.215.229-.209a.482.482 0 0 1-.008-.776l-.183-.139.078-.229c-.17-.056-.295-.103-.39-.189-.108-.101-.15-.245-.147-.454 0-.566.514-1.013 1.135-1.014a.97.97 0 0 1 .733.299c.17.186.26.439.26.715.004.235-.108.394-.274.466-.135.061-.3.077-.474.082l.079.175c.293.041.5.342.5.689 0 .35-.207.648-.498.689l-.085.203c.156.006.316.022.454.082a.47.47 0 0 1 .298.467c0 .275-.09.528-.26.714a.97.97 0 0 1-.731.299h-.002Zm-.993-3.866c0 .197.034.286.103.351.068.066.2.115.404.18l.068.021-.09.27.283.216-.113.049a.34.34 0 0 0 0 .624l.103.044-.305.276.132.267-.078.025c-.204.064-.336.115-.404.181-.068.063-.102.153-.103.351 0 .475.438.87.99.871.55-.004.849-.381.853-.871-.003-.191-.08-.274-.213-.336-.133-.058-.322-.072-.503-.072h-.108l.203-.479.045-.001c.21-.004.406-.24.406-.553 0-.312-.195-.547-.406-.551l.002-.071.065-.03-.065.03-.002.071-.044-.002-.207-.453h.11c.21 0 .4-.014.525-.071.12-.06.188-.14.19-.335-.004-.491-.302-.869-.851-.872-.551-.001-.99.396-.99.87Z" fill="#fff"/><path d="M8.809 16.166v2.111l3.145-3.088v-2.095l-3.145 3.072Z" fill="#FFCA38"/><path d="M8.734 16.165v-.03l3.287-3.211v2.295l-3.287 3.229v-2.283Zm.142 1.942 3.002-2.948v-1.896l-3.002 2.933v1.911Z" fill="#fff"/><path d="M8.809 8.447v2.114l3.145-3.088V5.377l-3.145 3.07Z" fill="#FFCA38"/><path d="M8.734 8.447v-.029l3.287-3.212v2.295L8.734 10.73V8.447Zm.142 1.944 3.002-2.949V5.545L8.876 8.478v1.913ZM6.285 4.447V0h.338v.115V0h.141v4.447h-.479Z" fill="#fff"/><path d="M8.809 11.021v2.112l3.145-3.088V7.949l-3.145 3.072Z" fill="#FFCA38"/><path d="M8.734 11.021v-.03l3.287-3.211v2.295l-3.287 3.229v-2.283Zm.142 1.942 3.002-2.949V8.119l-3.002 2.932v1.912ZM7.348 5.279V0h.338v.115V0h.143v5.279h-.481Z" fill="#fff"/><path d="M6.626.115H6.43v4.218h.196V.115Zm1.061 0h-.195v5.049h.195V.115Z" fill="#FFCA38"/><path d="M8.414 5.828V0h.338v.115V0h.142v5.828h-.48Z" fill="#fff"/><path d="M8.809 13.593v2.112l3.145-3.088v-2.096l-3.145 3.072Z" fill="#FFCA38"/><path d="M8.734 13.593v-.03l3.287-3.211v2.295l-3.287 3.229v-2.283Zm.142 1.942 3.002-2.948v-1.896l-3.002 2.932v1.912Z" fill="#fff"/><path d="M8.752.115h-.197v5.598h.197V.115Z" fill="#FFCA38"/><path d="M9.477 5.381V0h.337v.115V0h.144v5.381h-.481Z" fill="#fff"/><path d="M8.5 16.166v2.111l-3.145-3.088v-2.095L8.5 16.166Z" fill="#FFCA38"/><path d="M5.285 15.22v-2.295l3.267 3.189-.05.052.05-.052.021.021v2.312L5.285 15.22Zm.142-.061 3.002 2.948v-1.912l-3.002-2.933v1.897ZM10.54 4.557V0h.346v.115V0h.143v4.557h-.49Z" fill="#fff"/><path d="M9.815.115h-.194v5.152h.194V.115Z" fill="#FFCA38"/><path d="M11.543 3.781V0h.337v.115V0h.143v3.781h-.48Z" fill="#fff"/><path d="M10.889.115h-.205v4.326h.205V.115Zm.99 0h-.195v3.551h.195V.115ZM8.5 8.447v2.114L5.355 7.473V5.377L8.5 8.447Z" fill="#FFCA38"/><path d="M5.285 7.502V5.207l3.267 3.189-.05.052.05-.052.021.021v2.312L5.285 7.502Zm.142-.061L8.43 10.39V8.477L5.427 5.544v1.897Z" fill="#fff"/><path d="M8.5 11.021v2.112l-3.145-3.088V7.949L8.5 11.021Z" fill="#FFCA38"/><path d="M5.285 10.074V7.779l3.267 3.189-.05.052.05-.052.021.021v2.312l-3.288-3.227Zm.142-.06 3.002 2.949v-1.912L5.427 8.118v1.896Z" fill="#fff"/><path d="M8.5 13.593v2.112l-3.145-3.088v-2.096L8.5 13.593Z" fill="#FFCA38"/><path d="M5.285 12.646v-2.295l3.267 3.189-.05.052.05-.052.021.021v2.312l-3.288-3.227Zm.142-.06 3.002 2.949v-1.912L5.427 10.69v1.896Zm-.142-8.829V0h.348v.115V0h.143v3.757h-.49Z" fill="#fff"/><path d="M5.63.115h-.204v3.528h.205V.115Zm3.179 5.76v2.112l3.145-3.088V2.805l-3.145 3.07Z" fill="#FFCA38"/><path d="M8.734 5.875v-.029l3.287-3.212v2.295L8.734 8.158V5.875Zm.142 1.942 3.002-2.948V2.974L8.876 5.905v1.912Z" fill="#fff"/><path d="M8.5 5.875v2.112L5.355 4.899V2.805L8.5 5.875Z" fill="#FFCA38"/><path d="M5.285 4.93V2.635l3.266 3.189-.05.051.05-.051.021.021v2.312L5.285 4.93Zm.142-.061L8.43 7.817V5.906L5.427 2.973v1.896Z" fill="#fff"/></svg>