<svg width="209" height="32" viewBox="0 0 209 32" fill="none" xmlns="http://www.w3.org/2000/svg"><path d="m93.376 9.584 4.358-3.215h-14.59v19.264h14.59v-3.218H87.313v-4.917h8.903v-3.216h-8.903V9.584h6.063Zm-21.253 4.289H67.07V9.584h8.084l4.357-3.216H62.902v19.264h8.684c4.863 0 7.674-2.207 7.674-6.055 0-3.686-2.527-5.704-7.137-5.704Zm-.695 8.542H67.07v-5.327h4.358c2.652 0 3.884.884 3.884 2.681 0 1.795-1.326 2.646-3.884 2.646Zm38.115-16.046h-7.926v19.264h4.168v-5.455h3.79c5.053 0 8.21-2.648 8.21-6.905 0-4.255-3.157-6.904-8.242-6.904Zm-.094 10.593h-3.695V9.585h3.695c2.683 0 4.136 1.325 4.136 3.688 0 2.365-1.454 3.689-4.136 3.689Zm-53.68 4.508a7.54 7.54 0 0 1-3.6.915c-3.758 0-6.473-2.68-6.473-6.368s2.715-6.369 6.473-6.369c1.358-.031 2.685.41 3.79 1.198l3-2.207-.19-.188c-1.736-1.545-4.073-2.333-6.725-2.333-2.874 0-5.495.978-7.39 2.743a9.487 9.487 0 0 0-2.905 7.031 9.942 9.942 0 0 0 2.906 7.156c1.989 1.859 4.642 2.9 7.357 2.837 3 0 5.62-1.039 7.389-2.931l-2.684-1.987-.948.503ZM167.901 6.4v19.265h4.168v-7.883h8.874v7.883h4.168V6.4h-4.168v7.915h-8.874V6.4h-4.168Zm-7.169 19.265h4.39L156.974 6.4h-4.23l-8.306 19.265h4.198l1.675-3.879h8.843l1.578 3.879Zm-9.157-7.095 3.221-7.725 3.031 7.725h-6.252Zm42.883-.694h2.589l6.38 7.757h5.367l-8.524-9.964 7.451-9.3h-4.769l-6.189 8.26h-2.305v-8.26h-4.168v19.264h4.168v-7.757Zm-63.787-3.972V9.616h10.895V6.4h-15.062v19.265h8.685c4.862 0 7.672-2.209 7.672-6.055 0-3.688-2.526-5.706-7.136-5.706h-5.054Zm0 8.543v-5.328h4.356c2.654 0 3.886.883 3.886 2.68 0 1.798-1.297 2.681-3.886 2.681h-4.356v-.033ZM28.703 6.243a17.157 17.157 0 0 1 1.927 3.185l-14.59 10.75-6.126-3.846v-4.604l6.095 3.814 12.694-9.299Z" fill="#21A038"/><path d="M3.694 16.016c0-.22 0-.41.032-.63l-3.695-.19c0 .253-.031.536-.031.788 0 4.413 1.8 8.418 4.706 11.318l2.621-2.616a12.101 12.101 0 0 1-3.633-8.67Z" fill="url(#a)"/><path d="M16.008 3.72c.221 0 .411 0 .632.031l.19-3.689c-.253 0-.538-.032-.79-.032-4.42 0-8.432 1.797-11.337 4.698l2.621 2.616a12.211 12.211 0 0 1 8.684-3.624Z" fill="url(#b)"/><path d="M16.008 28.311c-.221 0-.41 0-.631-.03l-.19 3.688c.253 0 .538.03.79.03a16.01 16.01 0 0 0 11.337-4.697l-2.622-2.616c-2.21 2.27-5.273 3.625-8.684 3.625Z" fill="url(#c)"/><path d="m22.959 5.864 3.127-2.301A16.058 16.058 0 0 0 16.012 0v3.689c2.59.032 4.99.82 6.947 2.175Z" fill="url(#d)"/><path d="M32.053 16.017c0-.978-.094-1.924-.252-2.869L28.36 15.7v.316c0 3.626-1.58 6.872-4.074 9.11l2.494 2.742a15.944 15.944 0 0 0 5.274-11.851Z" fill="#21A038"/><path d="M16.01 28.312a12.244 12.244 0 0 1-9.126-4.065l-2.747 2.49A15.953 15.953 0 0 0 16.01 32v-3.688Z" fill="url(#e)"/><path d="M7.769 6.905 5.274 4.162A15.894 15.894 0 0 0 0 16.016h3.695c0-3.594 1.579-6.873 4.074-9.111Z" fill="url(#f)"/><defs><linearGradient id="a" x1="4.395" y1="26.812" x2=".625" y2="15.932" gradientUnits="userSpaceOnUse"><stop offset=".144" stop-color="#F2E913"/><stop offset=".304" stop-color="#E7E518"/><stop offset=".582" stop-color="#CADB26"/><stop offset=".891" stop-color="#A3CD39"/></linearGradient><linearGradient id="b" x1="5.771" y1="4.423" x2="15.354" y2=".778" gradientUnits="userSpaceOnUse"><stop offset=".059" stop-color="#0FA8E0"/><stop offset=".538" stop-color="#0099F9"/><stop offset=".923" stop-color="#0291EB"/></linearGradient><linearGradient id="c" x1="14.934" y1="28.81" x2="26.357" y2="26.233" gradientUnits="userSpaceOnUse"><stop offset=".123" stop-color="#A3CD39"/><stop offset=".285" stop-color="#86C339"/><stop offset=".869" stop-color="#21A038"/></linearGradient><linearGradient id="d" x1="15.253" y1="2.444" x2="24.753" y2="5.371" gradientUnits="userSpaceOnUse"><stop offset=".057" stop-color="#0291EB"/><stop offset=".79" stop-color="#0C8ACB"/></linearGradient><linearGradient id="e" x1="5.114" y1="27.221" x2="15.31" y2="31.024" gradientUnits="userSpaceOnUse"><stop offset=".132" stop-color="#F2E913"/><stop offset=".298" stop-color="#EBE716"/><stop offset=".531" stop-color="#D9E01F"/><stop offset=".802" stop-color="#BBD62D"/><stop offset=".983" stop-color="#A3CD39"/></linearGradient><linearGradient id="f" x1="2.929" y1="16.505" x2="7.007" y2="5.915" gradientUnits="userSpaceOnUse"><stop offset=".07" stop-color="#A3CD39"/><stop offset=".26" stop-color="#81C55F"/><stop offset=".922" stop-color="#0FA8E0"/></linearGradient></defs></svg>