<svg width="91" height="32" viewBox="0 0 91 32" fill="none" xmlns="http://www.w3.org/2000/svg"><path d="M26.177 4.263H4.66L6.209 0h21.518l-1.55 4.263Zm-.775 2.132H3.875l-1.55 4.263h21.517l1.56-4.263Zm-2.325 6.375H1.55L0 17.032h21.498l1.579-4.262Z" fill="#009FDF"/><path d="M77.448 27.698h3.876a3.38 3.38 0 0 0 2.965-1.153c.53-.695.799-1.557.756-2.432a3.372 3.372 0 0 0-1.328-2.906 3.87 3.87 0 0 0-2.433-.619h-3.836v7.11Zm-5.086 4.292V6.395h16.654l-1.463 4.291H77.448v5.668h4.118c3.322 0 5.047.795 6.239 1.812a7.534 7.534 0 0 1 2.528 6.064 7.355 7.355 0 0 1-3.013 6.336c-1.6 1.104-3.274 1.414-6.685 1.414l-8.273.01Zm-14.745 0V10.676h-7.401V6.395h20.547L69.3 10.686h-6.548V32l-5.136-.01Zm-20.51-15.345h2.906a6.176 6.176 0 0 0 1.773-.136 2.8 2.8 0 0 0 1.938-2.907 2.586 2.586 0 0 0-1.938-2.838 7.057 7.057 0 0 0-1.939-.174h-2.742v6.055h.002Zm0 4.427v6.713h3.546a3.8 3.8 0 0 0 2.742-.756 3.339 3.339 0 0 0 1.066-2.635 3.651 3.651 0 0 0-.678-2.189c-.757-.969-1.687-1.152-3.276-1.152l-3.4.019Zm8.196-2.703v.087a8.968 8.968 0 0 1 2.393 1.376 6.035 6.035 0 0 1 2.17 5.008c0 3.498-1.86 6.027-4.912 6.782a13.02 13.02 0 0 1-3.721.358H32.02V6.395h8.195a15.156 15.156 0 0 1 3.875.357c2.964.795 4.912 2.84 4.912 6.065a5.667 5.667 0 0 1-1.637 4.166 6.21 6.21 0 0 1-2.014 1.366l-.048.02Z" fill="#0A2973"/></svg>