<svg xmlns="http://www.w3.org/2000/svg" x="0px" y="0px" viewBox="0 0 89 39.2">
<path d="M5.6,33.6C1.9,29.9,0,25.2,0,19.6C0,14,1.9,9.4,5.6,5.6C9.4,1.9,14,0,19.6,0c5.6,0,10.3,1.9,14,5.6c3.7,3.7,5.6,8.4,5.6,14c0,5.6-1.9,10.3-5.6,14c-3.7,3.7-8.4,5.6-14,5.6C14,39.2,9.4,37.4,5.6,33.6z M9.5,9.5c-2.7,2.7-4.1,6.1-4.1,10.2c0,4,1.4,7.4,4.1,10.2c2.7,2.7,6.1,4.1,10.2,4.1s7.4-1.4,10.2-4.1c2.7-2.7,4.1-6.1,4.1-10.2c0-4-1.4-7.4-4.1-10.2c-2.7-2.7-6.1-4.1-10.2-4.1S12.2,6.7,9.5,9.5z"/>
<path d="M49.3,39.2h-5.6V0h11.4l11.2,39.2L77.6,0H89v39.2h-5.6V0L72.2,39.2H60.5L49.3,0V39.2z"/>
</svg>