<svg width="448" height="471" viewBox="0 0 448 471" fill="none" xmlns="http://www.w3.org/2000/svg"><g clip-path="url(#a)"><path d="m17.248 17.343 422.636 280.51H17.411l-.163-280.51Zm422.636 0H17.248l422.636 280.51V17.343ZM17.412 297.853l280.346 165.216H17.412V297.853Zm280.346 0H17.412l280.346 165.216V297.853Z" fill="#F9ECE5"/><path d="m61.48 301.593 53.826 3.903H61.481v-3.903Zm53.826 0H61.481l53.825 3.903v-3.903Z" fill="#8E8E8D"/><path d="M305.4 9.7h-61.468v7.644H305.4V9.7Z" stroke="#2C2C2C" stroke-width=".96" stroke-miterlimit="10" stroke-linecap="round" stroke-linejoin="round"/><path d="m236.291 340.457-3.902-31.059v31.059h3.902Zm0-31.058v31.059l-3.902-31.059h3.902Z" fill="#fff"/><path d="M236.291 309.4h-3.902v31.058h3.902V309.4Z" stroke="#fff" stroke-width=".84" stroke-miterlimit="10" stroke-linecap="round" stroke-linejoin="round"/><path d="M232.389 340.457h3.902m-3.902-31.058h3.902" stroke="#2C2C2C" stroke-width=".48" stroke-miterlimit="10" stroke-linecap="round" stroke-linejoin="round"/><path d="M232.389 309.399v3.252m0 2.439v4.877m0 2.441v4.878m0 2.438v4.879m0 2.44v3.415m3.902-31.059v3.252m0 2.439v4.877m0 2.441v4.878m0 2.438v4.879m0 2.44v3.415" stroke="#2C2C2C" stroke-width=".36" stroke-miterlimit="10" stroke-linecap="round" stroke-linejoin="round"/><path d="M439.885 297.853v-94.154" stroke="#2C2C2C" stroke-width=".48" stroke-miterlimit="10" stroke-linecap="round" stroke-linejoin="round"/><path d="M.012 136.376h47.971V24.986H.013" stroke="#2C2C2C" stroke-width=".36" stroke-miterlimit="10" stroke-linecap="round" stroke-linejoin="round"/><path d="M178.725 147.922H63.432v3.903h115.293v-3.903Zm0 149.931H17.248v3.74h161.477v-3.74Z" stroke="#2C2C2C" stroke-width=".48" stroke-miterlimit="10" stroke-linecap="round" stroke-linejoin="round"/><path d="m246.209 372.655 27.156-3.739h-27.156v3.739Zm27.156 0h-27.156l27.156-3.739v3.739Z" fill="#fff"/><path d="M273.367 368.917h-27.156v3.739h27.156v-3.739Z" stroke="#fff" stroke-width=".84" stroke-miterlimit="10" stroke-linecap="round" stroke-linejoin="round"/><path d="M246.209 368.917v3.738m27.156-3.738v3.738" stroke="#2C2C2C" stroke-width=".48" stroke-miterlimit="10" stroke-linecap="round" stroke-linejoin="round"/><path d="M273.365 368.917h-5.041m-2.438 0h-4.878m-2.439 0h-4.878m-2.441 0h-5.041m27.156 3.738h-5.041m-2.438 0h-4.878m-2.439 0h-4.878m-2.441 0h-5.041" stroke="#2C2C2C" stroke-width=".36" stroke-miterlimit="10" stroke-linecap="round" stroke-linejoin="round"/><path d="m173.359 146.134-57.728-3.902h57.728v3.902Zm-57.727 0h57.728l-57.728-3.902v3.902Z" fill="#8E8E8D"/><path d="m176.612 441.604-7.805-11.546m-6.019 20.814-7.643-11.544m7.48 11.707 14.147-9.594m-21.952-1.952 14.311-9.593m-.815-1.301 2.441-1.626m-19.351 13.009 2.601-1.789m17.239-10.732-.976.487m-18.538 12.522.976-.488m29.757 4.391-.815.487m-18.535 12.523.814-.652m17.724-11.871-11.383-16.912m-6.343 28.783-11.22-16.749m27.643 6.504-12.034-17.887m-2.276 27.481-12.032-17.886m28.783 6.666-12.033-17.887m12.033 17.887-19.351 13.009-12.034-17.887 19.351-13.009 12.034 17.887Zm0 0-19.351 13.009-12.034-17.887" stroke="#2C2C2C" stroke-width=".12" stroke-miterlimit="10" stroke-linecap="round" stroke-linejoin="round"/><path d="M236.291 305.497h-3.902v63.42h3.902v-63.42Zm0-149.769h-3.902v142.125h3.902V155.728Z" stroke="#2C2C2C" stroke-width=".48" stroke-miterlimit="10" stroke-linecap="round" stroke-linejoin="round"/><path d="m245.561 151.825 31.059-3.903h-31.059v3.903Zm31.059 0h-31.059l31.059-3.903v3.903Z" fill="#fff"/><path d="M276.62 147.922h-31.059v3.903h31.059v-3.903Z" stroke="#fff" stroke-width=".84" stroke-miterlimit="10" stroke-linecap="round" stroke-linejoin="round"/><path d="M245.561 147.922v3.903m31.058-3.903v3.903" stroke="#2C2C2C" stroke-width=".48" stroke-miterlimit="10" stroke-linecap="round" stroke-linejoin="round"/><path d="M276.62 147.922h-3.415m-2.439 0h-4.879m-2.439 0h-4.878m-2.441 0h-4.879m-2.437 0h-3.252m31.059 3.903h-3.415m-2.439 0h-4.879m-2.439 0h-4.878m-2.441 0h-4.879m-2.437 0h-3.252" stroke="#2C2C2C" stroke-width=".36" stroke-miterlimit="10" stroke-linecap="round" stroke-linejoin="round"/><path d="m236.291 240.45-3.902-31.222v31.222h3.902Zm0-31.222v31.222l-3.902-31.222h3.902Z" fill="#fff"/><path d="M236.291 209.228h-3.902v31.222h3.902v-31.222Z" stroke="#fff" stroke-width=".84" stroke-miterlimit="10" stroke-linecap="round" stroke-linejoin="round"/><path d="M232.389 240.45h3.902m-3.902-31.222h3.902" stroke="#2C2C2C" stroke-width=".48" stroke-miterlimit="10" stroke-linecap="round" stroke-linejoin="round"/><path d="M232.389 209.228v3.415m0 2.439v4.878m0 2.44v4.878m0 2.439v4.878m0 2.44v3.415m3.902-31.222v3.415m0 2.439v4.878m0 2.44v4.878m0 2.439v4.878m0 2.44v3.415" stroke="#2C2C2C" stroke-width=".36" stroke-miterlimit="10" stroke-linecap="round" stroke-linejoin="round"/><path d="M186.367 368.917v3.738h23.091v67.323h3.741v-67.323h84.558v-3.738h-111.39Z" stroke="#2C2C2C" stroke-width=".48" stroke-miterlimit="10" stroke-linecap="round" stroke-linejoin="round"/><path d="m74.49 354.93 7.318-11.708m-21.466 2.927 7.317-11.706m-7.643 11.544 14.635 9.106m-7.317-20.815 14.636 9.106m.813-1.3 2.602 1.626m-19.838-12.359 2.601 1.626m16.912 11.221-.814-.487M65.22 331.839l.814.489m8.293 29.107-.813-.489m-19.026-11.868.976.485m18.05 11.383 10.732-17.236m-28.783 5.853 10.57-17.236m5.367 27.97 11.383-18.213m-26.019 9.106 11.383-18.213m5.855 28.946 11.383-18.213m-11.382 18.213-19.839-12.359 11.383-18.213 19.839 12.359-11.383 18.213Zm0 0-19.839-12.359 11.383-18.213" stroke="#2C2C2C" stroke-width=".12" stroke-miterlimit="10" stroke-linecap="round" stroke-linejoin="round"/><path d="m336.624 186.462-31.222-3.903h31.222v3.903Zm-31.222 0h31.222l-31.222-3.903v3.903Z" fill="#fff"/><path d="M336.624 182.559h-31.222v3.903h31.222v-3.903Z" stroke="#fff" stroke-width=".84" stroke-miterlimit="10" stroke-linecap="round" stroke-linejoin="round"/><path d="M336.623 182.559v3.903m-31.221-3.903v3.903" stroke="#2C2C2C" stroke-width=".48" stroke-miterlimit="10" stroke-linecap="round" stroke-linejoin="round"/><path d="M305.402 182.559h3.416m2.438 0h4.878m2.44 0h4.879m2.438 0h4.878m2.44 0h3.414m-31.221 3.903h3.416m2.438 0h4.878m2.44 0h4.879m2.438 0h4.878m2.44 0h3.414" stroke="#2C2C2C" stroke-width=".36" stroke-miterlimit="10" stroke-linecap="round" stroke-linejoin="round"/><path d="m363.131 216.708 3.74 27.32v-27.32h-3.74Zm0 27.32v-27.32l3.74 27.32h-3.74Z" fill="#fff"/><path d="M366.872 216.708h-3.741v27.32h3.741v-27.32Z" stroke="#fff" stroke-width=".84" stroke-miterlimit="10" stroke-linecap="round" stroke-linejoin="round"/><path d="M366.871 216.708h-3.74m3.74 27.32h-3.74" stroke="#2C2C2C" stroke-width=".48" stroke-miterlimit="10" stroke-linecap="round" stroke-linejoin="round"/><path d="M366.871 244.028v-5.042m0-2.439v-4.878m0-2.439v-4.878m0-2.44v-5.204m-3.74 27.32v-5.042m0-2.439v-4.878m0-2.439v-4.878m0-2.44v-5.204" stroke="#2C2C2C" stroke-width=".36" stroke-miterlimit="10" stroke-linecap="round" stroke-linejoin="round"/><path d="m363.131 278.99 3.74-27.319v27.319h-3.74Zm0-27.319v27.319l3.74-27.319h-3.74Z" fill="#fff"/><path d="M366.872 251.671h-3.741v27.318h3.741v-27.318Z" stroke="#fff" stroke-width=".84" stroke-miterlimit="10" stroke-linecap="round" stroke-linejoin="round"/><path d="M366.871 278.99h-3.74m3.74-27.319h-3.74" stroke="#2C2C2C" stroke-width=".48" stroke-miterlimit="10" stroke-linecap="round" stroke-linejoin="round"/><path d="M366.871 251.671v5.204m0 2.438v4.878m0 2.44v4.879m0 2.438v5.042m-3.74-27.319v5.204m0 2.438v4.878m0 2.44v4.879m0 2.438v5.042" stroke="#2C2C2C" stroke-width=".36" stroke-miterlimit="10" stroke-linecap="round" stroke-linejoin="round"/><path d="m63.43 105.643-7.643-61.468v61.468h7.644Zm0-61.468v61.468l-7.643-61.468h7.644Z" fill="#fff"/><path d="m47.984 103.853 7.806-57.727v57.727h-7.806Zm0-57.726v57.727l7.806-57.727h-7.806Z" fill="#fff"/><path d="M63.431 105.643h-7.643v-1.789h-7.806V46.127h7.806v-1.952h7.643v61.468Z" stroke="#fff" stroke-width=".84" stroke-miterlimit="10" stroke-linecap="round" stroke-linejoin="round"/><path d="M47.984 103.854v-5.691m0-2.44v-4.878m0-2.439v-4.878m0-2.44V76.21m0-2.44v-4.878m0-2.439v-4.878m0-2.439v-4.88m0-2.439v-5.691m15.448 59.517v-3.902m0-2.44v-4.878m0-2.44v-4.879m0-2.438v-4.88m0-2.439v-4.876m0-2.441v-4.878m0-2.44v-4.878m0-2.439v-4.878m0-2.44v-3.902m-7.642 59.679h-7.806m7.806-57.727h-7.806" stroke="#2C2C2C" stroke-width=".36" stroke-miterlimit="10" stroke-linecap="round" stroke-linejoin="round"/><path d="m112.867 70.68 7.318-11.87M98.719 61.9l7.317-11.708m-7.479 11.545 14.473 9.106m-7.319-20.815 14.635 8.945m.814-1.302 2.602 1.626m-19.84-12.195 2.601 1.626m16.913 11.22-.815-.65M103.598 47.59l.975.487m8.293 29.109-.975-.651M93.027 64.827l.814.487m18.05 11.221 10.732-17.237m-28.781 6.016 10.732-17.237m5.365 27.97 11.221-18.376M95.305 66.94l11.22-18.212m6.016 28.945 11.22-18.376m-11.219 18.376L92.703 65.315l11.22-18.213 19.839 12.196-11.22 18.375Zm0 0L92.703 65.315l11.22-18.213" stroke="#2C2C2C" stroke-width=".12" stroke-miterlimit="10" stroke-linecap="round" stroke-linejoin="round"/><path d="M17.249 144.183H9.605v73.013h7.644v-73.013ZM9.605 17.343h46.183M9.605 9.701h122.936v7.643H9.605V9.701ZM236.29 147.922h-57.565v7.806h57.565v-7.806Zm0 149.931h-57.565v7.643h57.565v-7.643Z" stroke="#2C2C2C" stroke-width=".96" stroke-miterlimit="10" stroke-linecap="round" stroke-linejoin="round"/><path d="M17.249 366.964H9.605v96.105h7.644v-96.105Zm-.001-215.139v-7.642h38.54V17.343h7.644v134.482H17.248Z" stroke="#2C2C2C" stroke-width=".84" stroke-miterlimit="10" stroke-linecap="round" stroke-linejoin="round"/><path d="M363.131 186.462h3.739v59.517h73.015v3.903l-73.015-.163v48.134h-3.739V186.462Zm-65.373-38.54V17.343h3.902V182.56h61.47v3.903h-65.372v-34.637h-61.469v-3.903h61.469Z" stroke="#2C2C2C" stroke-width=".48" stroke-miterlimit="10" stroke-linecap="round" stroke-linejoin="round"/><path d="m359.226 297.853-38.376 7.643h38.376v-7.643Zm-38.376 0h38.376l-38.376 7.643v-7.643Z" fill="#fff"/><path d="M359.226 297.853H320.85v7.643h38.376v-7.643Z" stroke="#fff" stroke-width=".84" stroke-miterlimit="10" stroke-linecap="round" stroke-linejoin="round"/><path d="M359.227 305.496v-7.644m-38.377 7.644v-7.644" stroke="#2C2C2C" stroke-width=".96" stroke-miterlimit="10" stroke-linecap="round" stroke-linejoin="round"/><path d="M320.85 305.496h3.252m2.439 0h4.878m2.44 0h4.879m2.438 0h4.878m2.442 0h4.877m2.439 0h3.416m-38.378-7.643h3.252m2.439 0h4.878m2.44 0h4.879m2.438 0h4.878m2.442 0h4.877m2.439 0h3.416" stroke="#2C2C2C" stroke-width=".36" stroke-miterlimit="10" stroke-linecap="round" stroke-linejoin="round"/><path d="M243.934 9.7H132.543v7.644h111.391V9.701Zm195.95 0H305.402v7.643h134.482V9.7Z" stroke="#2C2C2C" stroke-width=".84" stroke-miterlimit="10" stroke-linecap="round" stroke-linejoin="round"/><path d="M17.249 286.307H9.605v80.657h7.644v-80.657Z" stroke="#2C2C2C" stroke-width=".96" stroke-miterlimit="10" stroke-linecap="round" stroke-linejoin="round"/><path d="M17.249 217.196H9.605v69.111h7.644v-69.111Z" stroke="#2C2C2C" stroke-width=".84" stroke-miterlimit="10" stroke-linecap="round" stroke-linejoin="round"/><path d="M237.998 115.644c6.332 0 11.465-5.132 11.465-11.464 0-6.332-5.133-11.465-11.465-11.465m0 0c-6.33 0-11.463 5.132-11.463 11.464 0 6.332 5.133 11.465 11.463 11.465M31.396 95.155c6.332 0 11.465-5.133 11.465-11.464 0-6.332-5.133-11.465-11.464-11.465" stroke="#2C2C2C" stroke-width=".48" stroke-miterlimit="10" stroke-linecap="round" stroke-linejoin="round"/><path d="M31.398 72.226c-6.332 0-11.464 5.132-11.464 11.464 0 6.331 5.132 11.465 11.464 11.465m345.635 46.02c6.331 0 11.463-5.133 11.463-11.464 0-6.332-5.132-11.466-11.463-11.466m0 0c-6.331 0-11.465 5.133-11.465 11.464 0 6.332 5.134 11.466 11.465 11.466m-190.896 94.959c6.331 0 11.464-5.132 11.464-11.464 0-6.331-5.133-11.465-11.464-11.465m-.001.001c-6.332 0-11.464 5.133-11.464 11.464 0 6.332 5.132 11.464 11.464 11.464m-31.7 137.764c6.331 0 11.464-5.133 11.464-11.464s-5.133-11.465-11.464-11.465m-.001-.002c-6.332 0-11.464 5.134-11.464 11.466 0 6.33 5.132 11.463 11.464 11.463m105.028 40.226c6.332 0 11.464-5.132 11.464-11.464 0-6.332-5.132-11.464-11.464-11.464" stroke="#2C2C2C" stroke-width=".48" stroke-miterlimit="10" stroke-linecap="round" stroke-linejoin="round"/><path d="M259.464 391.194c-6.332 0-11.464 5.132-11.464 11.464 0 6.332 5.132 11.464 11.464 11.464m134.97-202.942c6.331 0 11.464-5.133 11.464-11.464 0-6.332-5.133-11.465-11.464-11.465m-.001 0c-6.332 0-11.464 5.132-11.464 11.464 0 6.331 5.132 11.465 11.464 11.465m.001 68.786c6.331 0 11.464-5.133 11.464-11.464 0-6.332-5.133-11.464-11.464-11.464m-.001-.001c-6.332 0-11.464 5.132-11.464 11.463 0 6.331 5.132 11.465 11.464 11.465m-104.478-36.75c6.331 0 11.463-5.132 11.463-11.464 0-6.331-5.132-11.465-11.463-11.465m-.001 0c-6.33 0-11.464 5.133-11.464 11.464 0 6.332 5.134 11.465 11.464 11.465" stroke="#2C2C2C" stroke-width=".48" stroke-miterlimit="10" stroke-linecap="round" stroke-linejoin="round"/><path d="M17.25 436.076.011 366.964v69.112h17.237Zm0-69.112v69.112L.011 366.964h17.237Z" fill="#fff"/><path d="M17.25 366.965H.011v69.111h17.237v-69.111Z" stroke="#fff" stroke-width=".84" stroke-miterlimit="10" stroke-linecap="round" stroke-linejoin="round"/><path d="M9.605 436.076h7.644m-7.644-69.112h7.644" stroke="#2C2C2C" stroke-width=".84" stroke-miterlimit="10" stroke-linecap="round" stroke-linejoin="round"/><path d="M9.606 436.076H.012m9.594-69.112H.012m0 0v4.065m0 2.44v4.878m0 2.438v4.879m0 2.44v4.878m0 2.439v4.879m0 2.439v4.878m0 2.44v4.878m0 2.439v4.879m0 2.439v4.878m0 2.44v4.066m17.236-69.112v4.065m0 2.44v4.878m0 2.438v4.879m0 2.44v4.878m0 2.439v4.879m0 2.439v4.878m0 2.44v4.878m0 2.439v4.879m0 2.439v4.878m0 2.44v4.066" stroke="#2C2C2C" stroke-width=".36" stroke-miterlimit="10" stroke-linecap="round" stroke-linejoin="round"/><path d="M17.25 286.307.011 217.196v69.111h17.237Zm0-69.111v69.111L.011 217.196h17.237Z" fill="#fff"/><path d="M17.25 217.196H.011v69.111h17.237v-69.111Z" stroke="#fff" stroke-width=".84" stroke-miterlimit="10" stroke-linecap="round" stroke-linejoin="round"/><path d="M9.605 286.307h7.644m-7.644-69.111h7.644" stroke="#2C2C2C" stroke-width=".84" stroke-miterlimit="10" stroke-linecap="round" stroke-linejoin="round"/><path d="M9.606 286.307H.012m9.594-69.111H.012m0 0v4.066m0 2.439v4.878m0 2.44v4.878m0 2.439v4.878m0 2.44v4.878m0 2.439v4.879m0 2.439v4.879m0 2.439v4.877m0 2.441v4.877m0 2.44v4.066m17.236-69.112v4.066m0 2.439v4.878m0 2.44v4.878m0 2.439v4.878m0 2.44v4.878m0 2.439v4.879m0 2.439v4.879m0 2.439v4.877m0 2.441v4.877m0 2.44v4.066" stroke="#2C2C2C" stroke-width=".36" stroke-miterlimit="10" stroke-linecap="round" stroke-linejoin="round"/><path d="M132.544 17.343 167.181.106h-34.637v17.237Zm34.636 0h-34.636L167.18.106v17.237Z" fill="#fff"/><path d="M167.18.106h-34.637v17.237h34.637V.106Z" stroke="#fff" stroke-width=".84" stroke-miterlimit="10" stroke-linecap="round" stroke-linejoin="round"/><path d="M132.543 9.7v7.644M167.18 9.7v7.644" stroke="#2C2C2C" stroke-width=".84" stroke-miterlimit="10" stroke-linecap="round" stroke-linejoin="round"/><path d="M132.543 9.7V.108M167.18 9.7V.108m-.001-.002h-5.202m-2.441 0h-4.878m-2.438 0h-4.878m-2.441 0h-4.878m-2.439 0h-5.041m34.636 17.237h-5.202m-2.441 0h-4.878m-2.438 0h-4.878m-2.441 0h-4.878m-2.439 0h-5.041" stroke="#2C2C2C" stroke-width=".36" stroke-miterlimit="10" stroke-linecap="round" stroke-linejoin="round"/><path d="M209.46 17.343 243.934.106H209.46v17.237Zm34.473 0h-34.474L243.933.106v17.237Z" fill="#fff"/><path d="M243.932.106h-34.473v17.237h34.473V.106Z" stroke="#fff" stroke-width=".84" stroke-miterlimit="10" stroke-linecap="round" stroke-linejoin="round"/><path d="M209.459 9.7v7.644M243.934 9.7v7.644" stroke="#2C2C2C" stroke-width=".84" stroke-miterlimit="10" stroke-linecap="round" stroke-linejoin="round"/><path d="M209.459 9.7V.108M243.934 9.7V.108m-.001-.002h-5.04m-2.439 0h-4.878m-2.441 0h-4.877m-2.441 0h-4.878m-2.438 0h-5.04m34.472 17.237h-5.04m-2.439 0h-4.878m-2.441 0h-4.877m-2.441 0h-4.878m-2.438 0h-5.04" stroke="#2C2C2C" stroke-width=".36" stroke-miterlimit="10" stroke-linecap="round" stroke-linejoin="round"/><path d="M305.402 17.343 340.039.106h-34.637v17.237Zm34.637 0h-34.637L340.039.106v17.237Z" fill="#fff"/><path d="M340.039.106h-34.637v17.237h34.637V.106Z" stroke="#fff" stroke-width=".84" stroke-miterlimit="10" stroke-linecap="round" stroke-linejoin="round"/><path d="M305.402 9.7v7.644M340.039 9.7v7.644" stroke="#2C2C2C" stroke-width=".84" stroke-miterlimit="10" stroke-linecap="round" stroke-linejoin="round"/><path d="M305.402 9.7V.108M340.039 9.7V.108m0-.002h-5.041m-2.438 0h-5.042m-2.44 0h-4.877m-2.439 0h-4.879m-2.439 0h-5.042m34.637 17.237h-5.041m-2.438 0h-5.042m-2.44 0h-4.877m-2.439 0h-4.879m-2.439 0h-5.042" stroke="#2C2C2C" stroke-width=".36" stroke-miterlimit="10" stroke-linecap="round" stroke-linejoin="round"/><path d="M382.318 17.343 416.792.106h-34.474v17.237Zm34.474 0h-34.474L416.792.106v17.237Z" fill="#fff"/><path d="M416.792.106h-34.474v17.237h34.474V.106Z" stroke="#fff" stroke-width=".84" stroke-miterlimit="10" stroke-linecap="round" stroke-linejoin="round"/><path d="M382.318 9.7v7.644M416.791 9.7v7.644" stroke="#2C2C2C" stroke-width=".84" stroke-miterlimit="10" stroke-linecap="round" stroke-linejoin="round"/><path d="M382.318 9.7V.108M416.791 9.7V.108m.001-.002h-5.04m-2.439 0h-4.879m-2.44 0h-4.877m-2.441 0h-4.877m-2.439 0h-5.042m34.474 17.237h-5.04m-2.439 0h-4.879m-2.44 0h-4.877m-2.441 0h-4.877m-2.439 0h-5.042" stroke="#2C2C2C" stroke-width=".36" stroke-miterlimit="10" stroke-linecap="round" stroke-linejoin="round"/><path d="M439.885 186.462h-76.754v-23.091h76.754v3.089h-73.827v16.912h73.827v3.09ZM297.759 439.978h-88.298v23.091h3.088v-20.002h85.21v-3.089Z" stroke="#2C2C2C" stroke-width=".96" stroke-miterlimit="10" stroke-linecap="round" stroke-linejoin="round"/><path d="M439.883 17.343h-23.092v99.845h23.092V17.343Z" stroke="#8E8E8D" stroke-width=".5" stroke-miterlimit="10" stroke-linecap="round" stroke-linejoin="round"/><path d="M439.883 78.811h-23.092v23.091h23.092v-23.09Z" stroke="#8E8E8D" stroke-width=".5" stroke-miterlimit="10" stroke-linecap="round" stroke-linejoin="round"/><path d="M434.274 88.243a3.822 3.822 0 1 0 0-7.645 3.822 3.822 0 0 0 0 7.645Zm-11.546 9.594a1.87 1.87 0 1 0 0-3.74 1.87 1.87 0 0 0 0 3.74Zm11.547.976a2.846 2.846 0 1 0-.002-5.692 2.846 2.846 0 0 0 .002 5.692Zm-11.548-11.545a2.845 2.845 0 1 0 0-5.693 2.845 2.845 0 0 0 0 5.693Zm17.156-69.925h-23.092v23.09h23.092v-23.09ZM421.51 28.89h13.822m-10.408 6.015 6.83-12.033m-6.83 0 6.83 12.033" stroke="#8E8E8D" stroke-width=".5" stroke-miterlimit="10" stroke-linecap="round" stroke-linejoin="round"/><path d="M423.621 32.792h2.441l1.3 2.114m6.669-8.132-1.302 2.115 1.302 2.114m-6.668-8.131-1.301 2.113h-2.439m9.432 7.807h-2.44l-1.301 2.114m-6.668-8.132 1.302 2.115-1.302 2.114m6.668-8.131 1.302 2.113h2.438M173.359 142.231h-57.728v3.903h57.728v-3.903Z" stroke="#8E8E8D" stroke-width=".5" stroke-miterlimit="10" stroke-linecap="round" stroke-linejoin="round"/><path d="M96.441 147.922h96.106v-3.739m.002-.082a7.725 7.725 0 0 0-7.725-7.725m-.081 0h-80.657m-7.645 7.807v3.739m7.725-11.546a7.724 7.724 0 0 0-7.725 7.725m201.317-69.192h-17.237v73.013h17.237V74.909Zm-17.237 73.013 17.237-73.013m.001 73.013-17.238-73.013M114.979 446.157H61.967m59.844-58.866v51.874m-59.844 0h-6.992l6.992 6.992v-6.992Zm-6.992 0v-51.874m66.835 51.874h-6.83m-60.005-51.874h66.834m-1.137 57.24v16.261m-5.692-21.627v6.992m1.463-1.626h4.229m0 16.262h-29.92m24.228-14.636 6.83-6.992m-35.775 6.992v14.635m4.715 0v-14.635" stroke="#8E8E8D" stroke-width=".5" stroke-miterlimit="10" stroke-linecap="round" stroke-linejoin="round"/><path d="M86.035 460.792h-29.92v-16.261h4.227m-6.505 3.089h-23.09v15.448h23.09V447.62Zm92.203 0h-23.091v15.448h23.091V447.62Z" stroke="#8E8E8D" stroke-width=".5" stroke-miterlimit="10" stroke-linecap="round" stroke-linejoin="round"/><path d="M122.949 386.152H53.838v76.917h69.111v-76.917Zm23.091-84.559v28.945H30.746v-28.945" stroke="#8E8E8D" stroke-width=".5" stroke-miterlimit="10" stroke-linecap="round" stroke-linejoin="round"/><path d="M115.306 301.592H61.481v3.903h53.825v-3.903Zm82.608 161.477v-90.414m-7.318 82.283h14.635m-14.635-14.148h14.635m-14.635 2.766h14.635m-14.635 10.082 14.635-7.319m-14.635-10.569h14.635m-14.635-14.148h14.635m-14.635 2.764h14.635m-14.635 10.084 14.635-7.319m-14.635-10.57h14.635m-14.635-14.146h14.635m-14.635 2.601h14.635m-14.635 10.244 14.635-7.317m-14.635-10.57h14.635m-14.635-14.147h14.635m-14.635 2.601h14.635m-14.635 10.082 14.635-7.154m4.227-16.1h-23.091v90.414h23.091v-90.414ZM315.565 72.5a20.732 20.732 0 0 0 0 15.711" stroke="#8E8E8D" stroke-width=".5" stroke-miterlimit="10" stroke-linecap="round" stroke-linejoin="round"/><path d="M317.367 73.254a18.788 18.788 0 0 0 0 14.205m-.849-15.411a.733.733 0 0 0-.981.389m1.68.716a.733.733 0 0 0-.373-.943m-.06.096-.325-.162m-.922 15.969a.732.732 0 0 0 .982.39m.325-.163a.73.73 0 0 0 .373-.942m-.433 1.17-.325.163m-.894-38.996a20.732 20.732 0 0 0 0 15.71" stroke="#8E8E8D" stroke-width=".5" stroke-miterlimit="10" stroke-linecap="round" stroke-linejoin="round"/><path d="M317.367 50.487a18.788 18.788 0 0 0 0 14.206m-.849-15.249a.733.733 0 0 0-.981.389m1.68.717a.732.732 0 0 0-.373-.943m-.06.096-.325-.163m-.922 15.97c.076.184.223.33.408.404a.74.74 0 0 0 .574-.015m.325-.163a.73.73 0 0 0 .373-.943m-.433 1.009-.325.163m1.951 21.303 11.708.487M318.41 73.608l11.708-.651m1.952 13.009V74.908m0-.081a1.872 1.872 0 0 0-1.97-1.868m0 14.794a1.873 1.873 0 0 0 1.97-1.868m-13.66-21.384 11.708.65M318.41 51.005l11.708-.651m1.952 1.951V63.2m0-10.976a1.872 1.872 0 0 0-1.97-1.868m0 14.631a1.87 1.87 0 0 0 1.97-1.868" stroke="#8E8E8D" stroke-width=".5" stroke-miterlimit="10" stroke-linecap="round" stroke-linejoin="round"/><path d="M318.392 50.845a1.866 1.866 0 0 0-1.689 1.328m-.002 10.835a1.87 1.87 0 0 0 1.69 1.328m.001 9.274a1.865 1.865 0 0 0-1.689 1.33m-.002 10.834a1.87 1.87 0 0 0 1.69 1.328m26.444 7.646a1.873 1.873 0 0 0-1.867 1.97m.651 11.708a1.87 1.87 0 0 0 1.33 1.691m-2.797-.084-.164.488m1.465-1.952-.65-11.706m.359 12.738a.73.73 0 0 0-.943.374m-.164.487a.735.735 0 0 0 .389.981m15.317-14.725a1.868 1.868 0 0 0-1.866-1.97m-.112 15.369a1.872 1.872 0 0 0 1.329-1.691m1.302 1.607.163.488m-1.464-1.952.651-11.706m.585 13.112a.73.73 0 0 0-.943-.374m.715 1.842a.742.742 0 0 0 .404-.408.74.74 0 0 0-.015-.573" stroke="#8E8E8D" stroke-width=".5" stroke-miterlimit="10" stroke-linecap="round" stroke-linejoin="round"/><path d="M342.508 111.414a20.722 20.722 0 0 0 15.71 0" stroke="#8E8E8D" stroke-width=".5" stroke-miterlimit="10" stroke-linecap="round" stroke-linejoin="round"/><path d="M343.262 109.614a18.788 18.788 0 0 0 14.205 0M344.754 94.91h11.058m12.522-8.944V74.908m1.97-1.948a1.87 1.87 0 0 0-1.97 1.868m0 11.057a1.872 1.872 0 0 0 1.969 1.868m-1.969-35.448V63.2m1.97-12.844a1.872 1.872 0 0 0-1.97 1.868m0 10.896a1.872 1.872 0 0 0 1.969 1.867m14.699 23.224a20.732 20.732 0 0 0 0-15.71" stroke="#8E8E8D" stroke-width=".5" stroke-miterlimit="10" stroke-linecap="round" stroke-linejoin="round"/><path d="M383.201 87.459a18.779 18.779 0 0 0 0-14.205m1.827-.818a.732.732 0 0 0-.981-.389m-.488.163a.73.73 0 0 0-.373.943m.269-.847.488-.162" stroke="#8E8E8D" stroke-width=".5" stroke-miterlimit="10" stroke-linecap="round" stroke-linejoin="round"/><path d="M383.703 74.938a1.869 1.869 0 0 0-1.689-1.328m2.035 14.892a.733.733 0 0 0 .979-.389m-3.016-1.011a1.868 1.868 0 0 0 1.689-1.328m-.513 1.624a.73.73 0 0 0 .373.943m-.106.227.488.163m1.059-23.286a20.732 20.732 0 0 0 0-15.71" stroke="#8E8E8D" stroke-width=".5" stroke-miterlimit="10" stroke-linecap="round" stroke-linejoin="round"/><path d="M383.201 64.693a18.779 18.779 0 0 0 0-14.206m1.827-.654a.732.732 0 0 0-.981-.39" stroke="#8E8E8D" stroke-width=".5" stroke-miterlimit="10" stroke-linecap="round" stroke-linejoin="round"/><path d="M383.703 52.173a1.867 1.867 0 0 0-1.689-1.328m1.545-1.238a.73.73 0 0 0-.373.943m.269-.847.488-.163m.106 16.36a.73.73 0 0 0 .979-.389m-1.84-.718a.73.73 0 0 0 .373.943m-1.549-1.4a1.868 1.868 0 0 0 1.689-1.328m-.246 2.794.488.163m-1.949-1.464-11.709.65m11.709-14.146-11.709-.651m11.709 36.914-11.709.487m11.709-14.147-11.709-.651m-35.449 19.188h30.733m-22.6-50.917a1.87 1.87 0 0 0 1.867 1.97m.112-15.368a1.87 1.87 0 0 0-1.329 1.69m-1.467-1.444-.164-.325m.456-1.084a.73.73 0 0 0-.389.98m1.398 1.893-.65 11.707m-.584-13.274a.732.732 0 0 0 .943.374m12.733 14.851a1.87 1.87 0 0 0 1.867-1.97m-.651-11.708a1.872 1.872 0 0 0-1.33-1.69m2.633.246.163-.325m-.067-.103a.735.735 0 0 0-.389-.981m-1.008 2.873.651 11.707m-.36-12.9a.733.733 0 0 0 .943-.374m-13.593 15.388h11.058m2.408-16.829a20.73 20.73 0 0 0-15.71 0" stroke="#8E8E8D" stroke-width=".5" stroke-miterlimit="10" stroke-linecap="round" stroke-linejoin="round"/><path d="M357.467 28.332a18.785 18.785 0 0 0-14.205 0m-8.426 63.813V45.962h30.733v46.183M60.992 260.614l.162.163.489-.975-.326.649" stroke="#8E8E8D" stroke-width=".5" stroke-miterlimit="10" stroke-linecap="round" stroke-linejoin="round"/><path d="M60.83 260.613h.325l.163-.323-.325-1.139m.323 1.463-.162.163m-.648-.163h.324m.488-.162.651-1.302-.326.651m-1.139.488-.324-.162h-.164.164m-.164 0-.325-.164.325-.649-.325.649" stroke="#8E8E8D" stroke-width=".5" stroke-miterlimit="10" stroke-linecap="round" stroke-linejoin="round"/><path d="m57.902 257.361-3.578.326.163 2.115h.325l9.27-.814h-.976m-8.13.813h-.488m5.367 0 .162-.487m-3.904.324 3.09-.324m.813 0 .487 1.301m1.466-1.464h.162" stroke="#8E8E8D" stroke-width=".5" stroke-miterlimit="10" stroke-linecap="round" stroke-linejoin="round"/><path d="m64.082 258.989-.163-2.114-9.269.811m-.325.164-2.765.324 2.765-.161m-.001-.326h.488" stroke="#8E8E8D" stroke-width=".5" stroke-miterlimit="10" stroke-linecap="round" stroke-linejoin="round"/><path d="m50.261 257.362 1.3.813-1.464-.813v-.325l-.65-1.788v-1.79l-.324-2.114.324 3.904m16.262 1.95 1.3-1.951.489-.813-1.79 2.764Zm0 0h-.488l-.488-.162h-.163v-.162l.163.162m-15.612-.162-.65-.164 1.464.326" stroke="#8E8E8D" stroke-width=".5" stroke-miterlimit="10" stroke-linecap="round" stroke-linejoin="round"/><path d="m64.569 257.037-.325-.324.325.161.488-.813-.162-.487.65-.326.162-.812h1.789l.488-2.441v-4.553l-.488-2.276h-.487l-1.302-.163.326 2.439v4.553l-.326 2.441m-3.577 2.601.814-.651v.162l-.651.489m-12.683-.162.324.162m12.686-.162h1.137m-15.286-.163h-.324v-.326" stroke="#8E8E8D" stroke-width=".5" stroke-miterlimit="10" stroke-linecap="round" stroke-linejoin="round"/><path d="M48.634 256.712h-.325l-.162-.488v-.163l1.3-.975m14.797 1.626v-13.824l.325-.162.489.651-.163.651.65.163.162.812" stroke="#8E8E8D" stroke-width=".5" stroke-miterlimit="10" stroke-linecap="round" stroke-linejoin="round"/><path d="m62.943 256.548.976-1.951.326-4.064-.163 1.627" stroke="#8E8E8D" stroke-width=".5" stroke-miterlimit="10" stroke-linecap="round" stroke-linejoin="round"/><path d="M62.943 256.386v-.162l.814-1.79.488-4.064-.488 2.601.488-2.926v-.813l-.488-2.603.488 2.277-.488-3.74-.814-1.789v-.326l.976 1.79.326 4.065v1.626m-14.635 5.529-.975.651m-.326-.814.163-.488h-.163l.163-.325.812.163-.488-.163.488.163m.163.163.65 1.951h.164m-1.466-2.276h-.324m.652-4.228v.65l.324 3.903m18.537-4.716.163-.163v-.162l.325-.163m-19.349.162v.488m18.861-.65h.651l.325-.163v-.487l-.325-.162h-.65" stroke="#8E8E8D" stroke-width=".5" stroke-miterlimit="10" stroke-linecap="round" stroke-linejoin="round"/><path d="m68.96 249.882.163-.325-1.139-1.138m1.139 1.137h-.162m-19.838-.325v1.138m.325-6.016.65-1.788v-.325l-.65 1.788-.325 4.064v.489l.325-4.228Zm0 0v1.627l-.325 2.601v.649" stroke="#8E8E8D" stroke-width=".5" stroke-miterlimit="10" stroke-linecap="round" stroke-linejoin="round"/><path d="m48.309 245.165.487-.162h-.163l.814-.162m18.049.324-.487-.811-1.302-2.115h-.488l-.487.163-.163.163-.325.323m-16.097 1.628.162.325v.325m1.139-.65-1.301-.977v-.325l.162-.324h.325l.977.649m17.399.813.487.813m-19.352-1.137-.163-.651.163.651Zm0 0v.488" stroke="#8E8E8D" stroke-width=".5" stroke-miterlimit="10" stroke-linecap="round" stroke-linejoin="round"/><path d="M47.984 243.377v-.325h.324m1.465.325-.162-.488v-.163l-.326.163-.326.163m13.335-.487.65.486-.813-.486" stroke="#8E8E8D" stroke-width=".5" stroke-miterlimit="10" stroke-linecap="round" stroke-linejoin="round"/><path d="m63.918 242.726-1.138-.162.977.162-9.433-.812.164-2.115h.487m-4.877 2.44.163-.163 1.3-.813 2.765.325m1.463.325h-.162" stroke="#8E8E8D" stroke-width=".5" stroke-miterlimit="10" stroke-linecap="round" stroke-linejoin="round"/><path d="m54.324 241.589-2.764-.164-1.464.814m13.009-1.789.976.163-.162 2.113" stroke="#8E8E8D" stroke-width=".5" stroke-miterlimit="10" stroke-linecap="round" stroke-linejoin="round"/><path d="m62.943 240.45.976.163h.163m-2.764-.325h.163l.162-.164-.162-.325-.163-.325m-.326.814.325-1.138-.163-.164-.326-.162-.324.162-.488 1.302m.652 0 2.277.162m-3.577-.325v-.163h-.164l-.161-.326.974-.486-.65.325m-.164.65-3.09-.325" stroke="#8E8E8D" stroke-width=".5" stroke-miterlimit="10" stroke-linecap="round" stroke-linejoin="round"/><path d="M54.488 239.799h1.463l2.44.325 2.276.164m-.651-1.138.975-.488v.162m-.323-.001.162-.161m-43.582 36.099h28.946v-99.844H17.248m42.932 41.628h.325l.488-.813-.326.488" stroke="#8E8E8D" stroke-width=".5" stroke-miterlimit="10" stroke-linecap="round" stroke-linejoin="round"/><path d="m60.016 216.546.487-.163v-.325l-.325-.975m-.487 1.3.325.163m.652-.325.65-1.302-.325.814m-1.301.325-.325-.163v.163-.163" stroke="#8E8E8D" stroke-width=".5" stroke-miterlimit="10" stroke-linecap="round" stroke-linejoin="round"/><path d="m59.368 216.058-.49-.163.49-.812-.325.65" stroke="#8E8E8D" stroke-width=".5" stroke-miterlimit="10" stroke-linecap="round" stroke-linejoin="round"/><path d="m57.09 213.131-3.578.325.325 2.114h.326l9.107-.812-.977.162m-8.129.65h-.326m5.203 0 .325-.487m-4.066.324 3.09-.163m.977-.161.324 1.301" stroke="#8E8E8D" stroke-width=".5" stroke-miterlimit="10" stroke-linecap="round" stroke-linejoin="round"/><path d="m63.27 214.757-.164-2.114-9.268.812m-3.09.651 2.927-.324-2.927.162m2.764-.488h.487m-4.552-.163 1.301.814m-2.115-3.09-.324-3.903.324 2.114v1.789Zm0 0 .651 1.789v.325l1.464.813m14.31-.813 1.138-2.114.489-.813-1.627 2.927Zm0 0h-.65l-.488-.163-.162-.162v-.163l.162.325" stroke="#8E8E8D" stroke-width=".5" stroke-miterlimit="10" stroke-linecap="round" stroke-linejoin="round"/><path d="M49.284 212.806h-.163l-1.463-.163h.814m15.284.163-.324-.325.324.162.488-.813-.163-.487.65-.326.327-.651 1.138-.162h.488l.487-2.439v-4.391l-.487-2.439h-.488l-1.138-.163.161 2.44v4.716l-.161 2.438m-3.74 2.44.814-.488h.162l-.813.488m-12.522 0h.325m12.521 0h.163l.975-.163m-15.284 0-.163-.163h-.162l.162-.162" stroke="#8E8E8D" stroke-width=".5" stroke-miterlimit="10" stroke-linecap="round" stroke-linejoin="round"/><path d="M47.822 212.481h-.325l-.163-.326v-.325l1.301-.975m14.797 1.626v-.652l.163-3.089v-6.342l-.163-3.09v-.65l.325-.163.488.813-.163.488.65.325.326.651m-2.765 11.546.813-1.952.325-3.902-.163 1.464" stroke="#8E8E8D" stroke-width=".5" stroke-miterlimit="10" stroke-linecap="round" stroke-linejoin="round"/><path d="M62.13 212.318v-.325l.975-1.789.326-4.065-.326 2.601.326-2.927v-.812l-.326-2.603.326 2.44-.326-3.903-.974-1.789v-.325h.162l.812 1.951.326 3.903v1.789m-14.635 5.365-.976.652m-.163-.813v-.325h-.163l.163-.488.814.162-.49-.162.49.162m.162.163.65 1.952.163.162m-1.463-2.44h-.325m.651-4.227v.65l.324 3.903m14.799-4.553h.162m3.578 0 .325-.325h-.162l.325-.326m-19.351.162v.488m18.863-.65h.813l.162-.163v-.488l-.162-.161h-.813" stroke="#8E8E8D" stroke-width=".5" stroke-miterlimit="10" stroke-linecap="round" stroke-linejoin="round"/><path d="m68.147 205.651.163-.163-1.138-1.301m1.138 1.3v-.162m-20.001-.326v1.139m15.123-1.625h.162m-14.961-4.391.651-1.789v-.325l-.65 1.951-.325 3.902v.652l.324-4.391Zm0 0v1.788l-.324 2.603V205" stroke="#8E8E8D" stroke-width=".5" stroke-miterlimit="10" stroke-linecap="round" stroke-linejoin="round"/><path d="M47.494 200.935h.488v-.163l.65-.163m18.053.326-.488-.813-1.138-2.114h-.651l-.488.163-.163.163-.325.324m-15.938 2.277v-.651m1.14.001-1.3-.976v-.326l.162-.324h.325l.977.65m17.397.812.49.814m-19.352-.976-.163-.813.163.813Zm0 0 .163.325" stroke="#8E8E8D" stroke-width=".5" stroke-miterlimit="10" stroke-linecap="round" stroke-linejoin="round"/><path d="M47.17 199.146v-.325h.325m1.465.325v-.487h-.488v.162h-.325m13.985-.001-.814-.486m.976.486-.813-.486m-7.318-2.766h-.325l-.326 2.114 9.594.814h-1.139.978" stroke="#8E8E8D" stroke-width=".5" stroke-miterlimit="10" stroke-linecap="round" stroke-linejoin="round"/><path d="M49.283 198.008h.163l1.3-.976 2.927.325m1.467.488h-.325" stroke="#8E8E8D" stroke-width=".5" stroke-miterlimit="10" stroke-linecap="round" stroke-linejoin="round"/><path d="m53.675 197.357-2.928-.163-1.464.814m13.01-1.626h.975l-.162 2.114m.164-2.114h-1.14m-1.624-.163.163-.163h.325l-.325-.488-.163-.324m-.327.813.325-.976v-.326l-.488-.162-.325.162-.326 1.302m.49 0 2.277.325m-3.416-.325-.163-.326h-.162l-.163-.326.975-.486-.65.325m-.163.813-3.09-.326" stroke="#8E8E8D" stroke-width=".5" stroke-miterlimit="10" stroke-linecap="round" stroke-linejoin="round"/><path d="M53.838 195.568h.325l1.138.163 2.44.162 2.113.163m-.651-1.137.975-.489.163.325m-.486-.163.162-.162m18.7 103.423v-34.637m0 0h73.013v34.637H78.717" stroke="#8E8E8D" stroke-width=".5" stroke-miterlimit="10" stroke-linecap="round" stroke-linejoin="round"/><path d="M89.775 297.853v-20.814l14.148-13.823v13.823H89.775" stroke="#8E8E8D" stroke-width=".5" stroke-miterlimit="10" stroke-linecap="round" stroke-linejoin="round"/><path d="M89.776 291.349h-8.782v-21.465h16.262m-18.539-83.422v-34.636m0-.001h73.013v34.637H78.717" stroke="#8E8E8D" stroke-width=".5" stroke-miterlimit="10" stroke-linecap="round" stroke-linejoin="round"/><path d="M89.775 186.462v-20.814l14.148-13.822v13.822H89.775" stroke="#8E8E8D" stroke-width=".5" stroke-miterlimit="10" stroke-linecap="round" stroke-linejoin="round"/><path d="M89.776 179.795h-8.782v-21.302h16.262m44.23 41.466v50.41m-.894 1.138c.583 0 1.057-.545 1.057-1.218m-1.138 1.218h-41.79m-.977-1.219c0 .675.473 1.219 1.058 1.219m-1.222-1.138v-50.41m1.22-1.3c-.584 0-1.058.545-1.058 1.219m.977-1.058h41.791m1.139 1.058c0-.674-.473-1.219-1.057-1.219m-94.398-23.742-28.946-23.091v23.091h28.946Zm0 0v-23.091H17.248m0 23.091 28.946-23.091m0 146.027-28.946-23.091v23.091h28.946Zm0 0v-23.091H17.248m0 23.091 28.946-23.091m99.846 55.776-23.091-28.945v28.945h23.091Zm0 0v-28.945h-23.091m-.002 28.945 23.092-28.945m-92.202 28.945-23.09-28.945v28.945h23.09Zm0 0v-28.945h-23.09m-.001 28.945 23.091-28.945m178.55-26.832h-78.705v23.092h78.705v-23.092Zm.001-119.033h-53.663v22.929h53.663v-22.929Zm.001 130.579h-78.705m75.777 7.318V278.99m-14.147 14.635V278.99m2.764 14.635V278.99m10.082 14.635-7.318-14.635m-10.571 14.635V278.99m-14.146 14.635V278.99m2.602 14.635V278.99m10.245 14.635-7.318-14.635m-10.57 14.635V278.99m-14.148 14.635V278.99m2.603 14.635V278.99m10.243 14.635-7.317-14.635m-10.57 14.635V278.99m-14.147 14.635V278.99m2.602 14.635V278.99m10.082 14.635-7.155-14.635m69.111-111.878h-53.663m41.466 7.316v-14.473m-14.146 14.473v-14.473m2.601 14.473v-14.473m10.083 14.473-7.155-14.473m-10.57 14.473v-14.473m-14.149 14.473v-14.473m2.602 14.473v-14.473m10.083 14.473-7.155-14.473m174.486 129.279h64.396v-39.353" stroke="#8E8E8D" stroke-width=".5" stroke-miterlimit="10" stroke-linecap="round" stroke-linejoin="round"/><path d="M366.871 280.452h55.777v-30.57m5.526 46.508v-14.473m-13.983 14.473v-14.473m2.6 14.473v-14.473m10.084 14.473-7.154-14.473m-10.733 14.473v-14.473m-13.986 14.473v-14.473m2.602 14.473v-14.473m10.082 14.473-7.155-14.473m-10.732 14.473v-14.473m-13.985 14.473v-14.473m2.602 14.473v-14.473m10.08 14.473-7.316-14.473m57.404-24.067h-14.635m14.635 13.983h-14.635m14.635-2.599h-14.635m14.635-10.083-14.635 7.155M249.788 55.72h-38.54v19.19h38.54V55.721Zm-6.261-30.41c.494 0 .895-.4.895-.893m0 .081v-5.04m-24.719 0v5.04m.164-.082c0 .494.401.895.895.895m22.684-6.83H220.68m.082 0c-.494 0-.895.4-.895.895m24.555 0a.895.895 0 0 0-.895-.895m.894-1.138h-24.716m-24.393 7.073c0 .494.401.895.895.895m-1.059-.813v-5.04m24.555 0v5.04" stroke="#8E8E8D" stroke-width=".5" stroke-miterlimit="10" stroke-linecap="round" stroke-linejoin="round"/><path d="M218.973 25.31c.494 0 .894-.4.894-.893m-23.742-5.936h22.766m.976.895c0-.494-.4-.895-.894-.895m-22.766 0c-.494 0-.895.4-.895.895" stroke="#8E8E8D" stroke-width=".5" stroke-miterlimit="10" stroke-linecap="round" stroke-linejoin="round"/><path d="M195.148 43.036h-4.228V17.343h28.784m70.087 52.443c0 .494.4.894.894.894m-.08 0h5.04m.001-24.553h-5.041m.08 0c-.494 0-.894.4-.894.894m6.83 22.847V47.102m-.001-.082a.895.895 0 0 0-.895-.894m.002 24.554c.494 0 .895-.4.895-.894" stroke="#8E8E8D" stroke-width=".5" stroke-miterlimit="10" stroke-linecap="round" stroke-linejoin="round"/><path d="M272.066 70.68v4.23h25.693V46.125m-53.337-21.709c0 .494.4.895.895.895m-.895-.813v-5.04m24.555 0v5.04m-.895.812c.493 0 .895-.4.895-.893m-23.743-5.936H268m.977.895a.896.896 0 0 0-.895-.895m-22.765 0c-.495 0-.895.4-.895.895m0-2.033h24.556m.163 7.073c0 .494.4.895.893.895m-1.057-.813v-5.04m.976-.977h26.669m-26.591 0c-.493 0-.894.4-.894.895m-.16-2.033h28.781m-2.112 28.784h-5.041m-.814-1.057c0 .493.4.894.894.894m5.936-27.483V45.15m-.894.814c.494 0 .895-.4.895-.895m1.136-27.726v28.782m-8.129-.975V25.474h-19.676" stroke="#8E8E8D" stroke-width=".5" stroke-miterlimit="10" stroke-linecap="round" stroke-linejoin="round"/><path d="M270.031 25.474c-.493 0-.894.4-.894.895m-.16.081v18.7m.164-.08c0 .493.4.894.893.894m-.081.163h18.7m.081-.163c.494 0 .895-.4.895-.895M268 25.474h-22.766m.083 0c-.495 0-.895.4-.895.895m0 .081v18.7m0-.08c0 .493.4.894.895.894m-.083.163H268m.082-.163c.493 0 .895-.4.895-.895m0 .081v-18.7m0-.081a.896.896 0 0 0-.895-.895m21.547 21.628v22.766m-.895.812c.494 0 .895-.4.895-.894m-.976.894h-18.7m-.812-.894c0 .494.4.894.893.894m-1.057-.812V47.102m1.054-.975c-.493 0-.894.4-.894.894m.816-.894h18.7m.976.893a.895.895 0 0 0-.895-.894m-69.843-20.652h-22.766m.082 0c-.494 0-.895.4-.895.895m-.164.081v18.7m.164-.08c0 .493.401.894.895.894m-.082.163h22.766m.082-.163c.494 0 .894-.4.894-.895m-.164.081v-18.7m.164-.081c0-.494-.4-.895-.894-.895m1.707 0h22.766m.976.895a.895.895 0 0 0-.895-.895m.895.976v18.7m-.895.814c.494 0 .895-.4.895-.895m-.976 1.058H220.68m-.813-1.057c0 .493.401.894.895.894m-1.059-.814v-18.7m1.059-.976c-.494 0-.895.4-.895.895m-35.45-9.026v28.782H69.123V17.343" stroke="#8E8E8D" stroke-width=".5" stroke-miterlimit="10" stroke-linecap="round" stroke-linejoin="round"/><path d="m184.417 46.126-23.091-28.783v28.783h23.091Zm0 0V17.343h-23.091m0 28.783 23.091-28.783M92.215 46.126 69.123 17.343v28.783h23.092Zm0 0V17.343H69.123m0 28.783 23.09-28.783" stroke="#8E8E8D" stroke-width=".5" stroke-miterlimit="10" stroke-linecap="round" stroke-linejoin="round"/><path d="M237.998 115.644c6.332 0 11.465-5.132 11.465-11.464 0-6.332-5.133-11.465-11.465-11.465m0 0c-6.33 0-11.463 5.132-11.463 11.464 0 6.331 5.133 11.465 11.463 11.465M31.396 95.155c6.332 0 11.465-5.133 11.465-11.464 0-6.332-5.133-11.465-11.464-11.465" stroke="#2C2C2C" stroke-width=".48" stroke-miterlimit="10" stroke-linecap="round" stroke-linejoin="round"/><path d="M31.398 72.226c-6.332 0-11.464 5.132-11.464 11.464 0 6.331 5.132 11.465 11.464 11.465m345.635 46.019c6.331 0 11.463-5.132 11.463-11.464 0-6.331-5.132-11.465-11.463-11.465m0 0c-6.331 0-11.465 5.133-11.465 11.464 0 6.332 5.134 11.465 11.465 11.465m-190.896 94.96c6.331 0 11.464-5.132 11.464-11.464 0-6.331-5.133-11.465-11.464-11.465m-.001.001c-6.332 0-11.464 5.133-11.464 11.464 0 6.332 5.132 11.464 11.464 11.464m-31.7 137.763c6.331 0 11.464-5.132 11.464-11.464 0-6.33-5.133-11.465-11.464-11.465m-.001-.001c-6.332 0-11.464 5.134-11.464 11.465 0 6.331 5.132 11.464 11.464 11.464m105.028 40.226c6.332 0 11.464-5.133 11.464-11.464 0-6.332-5.132-11.464-11.464-11.464" stroke="#2C2C2C" stroke-width=".48" stroke-miterlimit="10" stroke-linecap="round" stroke-linejoin="round"/><path d="M259.464 391.194c-6.332 0-11.464 5.132-11.464 11.464 0 6.331 5.132 11.464 11.464 11.464m134.97-202.942c6.331 0 11.464-5.133 11.464-11.464 0-6.332-5.133-11.465-11.464-11.465m-.001 0c-6.332 0-11.464 5.132-11.464 11.464 0 6.331 5.132 11.465 11.464 11.465m.001 68.786c6.331 0 11.464-5.132 11.464-11.464 0-6.332-5.133-11.464-11.464-11.464m-.001-.001c-6.332 0-11.464 5.132-11.464 11.463 0 6.331 5.132 11.465 11.464 11.465m-104.478-36.75c6.331 0 11.463-5.132 11.463-11.464 0-6.332-5.132-11.465-11.463-11.465m-.001 0c-6.33 0-11.464 5.132-11.464 11.464 0 6.332 5.134 11.465 11.464 11.465" stroke="#2C2C2C" stroke-width=".48" stroke-miterlimit="10" stroke-linecap="round" stroke-linejoin="round"/><path d="M191.124 119.934h-58.299a7.506 7.506 0 0 1-7.505-7.505V89.427a7.505 7.505 0 0 1 7.505-7.505h58.299a7.504 7.504 0 0 1 7.505 7.505v23.002a7.504 7.504 0 0 1-7.505 7.505Zm-36.708-37.617v36.961" stroke="#2C2C2C" stroke-width="1.679" stroke-miterlimit="10" stroke-linecap="round" stroke-linejoin="round"/><path d="M231.047 106.306h3v.606h-4.002v-.555l1.943-2.01c.236-.241.399-.413.491-.517a7.09 7.09 0 0 0 .341-.416c.135-.174.226-.33.273-.471.048-.14.071-.289.071-.446 0-.313-.094-.553-.284-.719-.191-.166-.441-.248-.75-.248-.353 0-.636.122-.853.366-.216.244-.344.615-.383 1.114l-.715-.059c.046-.672.244-1.178.597-1.517.354-.34.806-.509 1.353-.509.528 0 .955.136 1.284.412.327.275.491.661.491 1.16 0 .348-.093.677-.281.988-.188.311-.512.697-.972 1.156l-1.604 1.665Zm4.237-.105c-.375-.541-.563-1.285-.563-2.232 0-.947.188-1.692.563-2.233.374-.541.908-.811 1.599-.811.683 0 1.213.27 1.589.811.376.541.562 1.286.562 2.233 0 .947-.187 1.691-.562 2.232-.375.541-.905.812-1.589.812-.691 0-1.225-.271-1.599-.812Zm.551-4.023c-.25.432-.374 1.029-.374 1.791s.124 1.359.374 1.791c.248.432.597.647 1.047.647.441 0 .788-.215 1.037-.647.249-.432.374-1.029.374-1.791 0-.763-.125-1.359-.374-1.791-.249-.432-.596-.648-1.037-.648-.449 0-.798.217-1.047.648Zm4.149 4.734v-.967h.85v.967h-.85Zm1.649-5.886h3.976v.521c-1.12 1.761-1.874 3.548-2.262 5.365h-.799c.387-1.761 1.166-3.52 2.339-5.281h-3.254v-.605ZM27.654 80.972h.588v5.886h-.74v-5.029l-1.244.866v-.74l1.396-.983Zm2.051 5.886v-.967h.85v.967h-.85Zm4.153-3.818c.55 0 1.003.174 1.358.522.357.347.534.822.534 1.42 0 .618-.185 1.101-.555 1.451-.37.35-.871.526-1.505.526-1.458 0-2.186-.973-2.186-2.918 0-1.031.192-1.817.576-2.359.384-.541.929-.811 1.635-.811.527 0 .951.146 1.274.437.323.291.506.686.551 1.186l-.715.05c-.027-.32-.14-.577-.336-.773-.197-.197-.454-.295-.774-.295-.566 0-.972.308-1.219.925-.157.387-.239.922-.244 1.606.135-.308.345-.546.63-.715.287-.168.613-.252.976-.252Zm-1.122 2.939c.238.25.556.374.954.374.397 0 .718-.125.959-.374.24-.25.361-.581.361-.996 0-.41-.12-.74-.361-.988-.241-.25-.56-.375-.959-.375-.398 0-.717.126-.954.375-.238.249-.358.579-.358.988 0 .415.12.747.358.996Zm337.925 40.399h.59v5.886h-.741v-5.029l-1.244.866v-.74l1.395-.983Zm5.391 3.901h.892v.606h-.892v1.379h-.74v-1.379h-2.925v-.555l2.455-3.952h1.21v3.901Zm-2.935 0h2.195v-3.498l-2.195 3.498Zm4.615 1.985v-.967h.849v.967h-.849Zm3.901-3.885c.555 0 1.004.173 1.346.521.341.348.513.828.513 1.438 0 .639-.192 1.137-.572 1.493-.382.356-.881.534-1.497.534-.555 0-1.024-.143-1.404-.429-.382-.286-.609-.687-.681-1.203l.723-.05c.057.348.209.614.459.799.249.185.551.277.904.277.381 0 .696-.122.945-.366.249-.243.374-.594.374-1.055 0-.459-.125-.807-.374-1.042-.249-.236-.561-.354-.937-.354-.264 0-.511.058-.745.173a1.303 1.303 0 0 0-.55.5l-.655-.05.243-3.187h3.456v.605h-2.893l-.152 2.018c.371-.415.869-.622 1.497-.622Zm-201.097 98.464h3.002v.605h-4.003v-.555l1.943-2.009c.235-.241.399-.413.491-.518.093-.104.206-.241.341-.416.134-.173.225-.33.273-.471a1.34 1.34 0 0 0 .072-.445c0-.314-.096-.553-.286-.719-.191-.165-.441-.248-.749-.248-.353 0-.636.122-.853.366-.215.243-.344.614-.383 1.114l-.714-.059c.045-.673.244-1.178.597-1.518.353-.339.804-.509 1.353-.509.527 0 .955.137 1.283.412.328.276.492.661.492 1.161 0 .348-.094.677-.282.988-.188.311-.512.697-.971 1.156l-1.606 1.665Zm4.946-5.281h.588v5.886h-.74v-5.028l-1.244.866v-.74l1.396-.984Zm2.051 5.886v-.967h.849v.967h-.849Zm3.068-5.886h.588v5.886h-.739v-5.028l-1.245.866v-.74l1.396-.984ZM148.18 365.028h3.002v.605h-4.002v-.554l1.942-2.009c.235-.241.399-.414.492-.518.092-.104.206-.241.34-.416a1.69 1.69 0 0 0 .274-.47 1.36 1.36 0 0 0 .071-.445c0-.315-.095-.554-.286-.719-.191-.166-.44-.248-.748-.248-.353 0-.637.121-.853.366-.216.243-.344.615-.383 1.115l-.715-.06c.045-.674.244-1.178.597-1.517.353-.339.804-.509 1.354-.509.527 0 .954.138 1.282.412.328.276.492.663.492 1.161 0 .347-.093.677-.281.987-.189.312-.512.697-.972 1.156l-1.606 1.663Zm4.944-5.28h.589v5.886h-.74v-5.027l-1.244.866v-.741l1.395-.984Zm2.052 5.885v-.967h.849v.967h-.849Zm3.758-5.986c1.469 0 2.204.974 2.204 2.917 0 1.043-.189 1.832-.564 2.367-.375.536-.92.804-1.631.804-.538 0-.968-.145-1.291-.433-.322-.288-.509-.684-.559-1.19l.715-.051c.033.32.148.578.345.773.196.198.459.295.79.295.555 0 .958-.315 1.211-.942.156-.41.235-.953.235-1.632-.14.308-.353.546-.639.71a1.908 1.908 0 0 1-.975.248c-.545 0-.996-.172-1.354-.517-.358-.345-.538-.81-.538-1.4 0-.605.186-1.081.559-1.428.373-.347.87-.521 1.492-.521Zm.01 3.288c.397 0 .718-.123.959-.371.24-.246.361-.569.361-.967 0-.403-.121-.728-.361-.975-.241-.246-.561-.37-.959-.37-.393 0-.71.123-.95.37-.241.246-.362.572-.362.975 0 .398.121.721.362.967.24.248.557.371.95.371Zm98.824 39.167c.37.291.554.733.554 1.329 0 .593-.193 1.057-.579 1.387-.388.331-.889.496-1.506.496-.572 0-1.042-.147-1.409-.442-.368-.293-.579-.732-.635-1.316l.715-.05c.045.41.186.712.421.908.236.197.538.293.908.293.403 0 .728-.11.976-.335.246-.225.37-.539.37-.942 0-.371-.112-.667-.336-.892-.224-.225-.552-.335-.984-.335-.259 0-.542.032-.85.101v-.522l1.8-1.85h-2.751v-.605h3.709v.547l-1.901 1.824c.657-.017 1.156.117 1.498.404Zm1.388 3.111v-.967h.848v.967h-.848Zm3.757-5.987c1.468 0 2.204.972 2.204 2.917 0 1.042-.189 1.831-.564 2.367-.376.536-.919.803-1.631.803-.539 0-.969-.144-1.291-.433-.323-.288-.509-.684-.559-1.19l.715-.05c.033.32.149.577.345.773.196.197.459.293.79.293.554 0 .958-.314 1.21-.941.157-.41.236-.954.236-1.632-.14.308-.353.546-.638.711a1.92 1.92 0 0 1-.976.248c-.544 0-.995-.172-1.355-.517-.358-.345-.538-.811-.538-1.4 0-.606.187-1.082.56-1.43.372-.348.87-.519 1.492-.519Zm.009 3.287c.398 0 .717-.123.958-.37s.363-.569.363-.967c0-.405-.121-.729-.363-.976s-.56-.371-.958-.371c-.393 0-.71.124-.95.371-.24.246-.361.571-.361.976 0 .398.12.721.361.967.24.247.557.37.95.37ZM390.019 202.08h3.001v.605h-4.002v-.555l1.943-2.01c.235-.24.398-.413.491-.517.093-.104.207-.241.34-.416.136-.173.226-.33.274-.471.048-.14.071-.289.071-.445 0-.314-.094-.553-.285-.719-.19-.166-.44-.248-.749-.248-.353 0-.636.121-.854.365-.215.244-.343.615-.382 1.114l-.715-.058c.045-.673.244-1.179.597-1.518.353-.34.805-.509 1.353-.509.527 0 .954.137 1.283.412.328.276.492.661.492 1.161 0 .347-.093.676-.282.988-.188.311-.511.696-.972 1.156l-1.604 1.665Zm3.801.605v-.967h.85v.967h-.85Zm3.758-5.987c1.468 0 2.203.972 2.203 2.918 0 1.043-.187 1.832-.562 2.367-.376.535-.92.803-1.633.803-.538 0-.968-.144-1.29-.433-.323-.289-.509-.685-.56-1.19l.715-.05c.034.319.149.577.345.773.198.197.46.294.79.294.555 0 .959-.314 1.211-.941.157-.409.237-.954.237-1.632a1.535 1.535 0 0 1-.639.711 1.918 1.918 0 0 1-.977.248c-.544 0-.994-.172-1.353-.517-.359-.345-.538-.811-.538-1.4 0-.605.186-1.082.558-1.43.374-.347.871-.521 1.493-.521Zm.008 3.288c.399 0 .719-.123.959-.37.241-.247.361-.57.361-.967 0-.404-.119-.728-.361-.975-.241-.246-.56-.37-.959-.37-.392 0-.708.124-.95.37-.24.247-.361.571-.361.975 0 .397.121.72.361.967.242.247.558.37.95.37Zm-7.651 70.564h3.001v.606h-4.002v-.555l1.943-2.01c.235-.241.398-.413.491-.517.093-.103.207-.242.34-.416.136-.174.226-.33.274-.471.048-.14.071-.288.071-.446 0-.314-.094-.553-.285-.719-.19-.166-.44-.248-.749-.248-.353 0-.636.122-.854.366-.215.244-.343.616-.382 1.115l-.715-.06c.045-.672.244-1.178.597-1.516.353-.339.805-.509 1.353-.509.527 0 .954.138 1.283.413.329.275.492.661.492 1.16 0 .348-.093.678-.282.988-.188.31-.511.697-.972 1.156l-1.604 1.663Zm3.801.606v-.967h.85v.967h-.85Zm5.263-1.985h.892v.606h-.892v1.379h-.739v-1.379h-2.926v-.555l2.455-3.953h1.21v3.902Zm-2.933 0h2.194v-3.498l-2.194 3.498Zm-112.307-40.142h.589v5.886h-.74v-5.028l-1.245.866v-.74l1.396-.984Zm5.254 2.775c.37.291.554.734.554 1.328 0 .594-.193 1.057-.58 1.388-.387.331-.889.496-1.506.496-.571 0-1.041-.147-1.409-.442-.368-.294-.579-.732-.634-1.316l.714-.05c.045.409.185.712.421.908.235.197.538.294.907.294.404 0 .728-.111.976-.336.246-.224.37-.538.37-.942 0-.37-.111-.667-.335-.891-.225-.224-.552-.336-.985-.336-.257 0-.541.033-.849.101v-.522l1.799-1.85h-2.749v-.605h3.707v.547l-1.9 1.824c.657-.017 1.157.118 1.499.404Zm1.387 3.111v-.967h.85v.967h-.85Zm3.758-5.987c1.469 0 2.204.972 2.204 2.918 0 1.043-.188 1.832-.563 2.367-.376.535-.92.803-1.631.803-.54 0-.969-.144-1.291-.433-.323-.289-.509-.685-.56-1.19l.715-.05c.034.319.15.577.345.773.197.197.459.294.791.294.554 0 .957-.314 1.209-.941.158-.409.237-.954.237-1.632-.14.308-.353.546-.638.711a1.923 1.923 0 0 1-.977.248c-.544 0-.994-.172-1.353-.517-.36-.345-.539-.812-.539-1.4 0-.606.188-1.082.559-1.43.374-.347.871-.521 1.492-.521Zm.01 3.288c.397 0 .717-.123.957-.37.242-.247.363-.57.363-.967 0-.404-.12-.728-.363-.975-.241-.246-.56-.37-.957-.37-.394 0-.71.124-.951.37-.24.247-.361.571-.361.975 0 .397.12.72.361.967.242.247.557.37.951.37ZM162.85 96.447h1.375v8.829h-1.716v-6.95l-2.03 1.3v-1.678l2.371-1.5Zm4.099 7.77c-.605-.807-.908-1.926-.908-3.355 0-1.43.303-2.548.908-3.355.606-.807 1.472-1.21 2.598-1.21 1.127 0 1.993.403 2.599 1.21.605.807.908 1.925.908 3.355 0 1.429-.303 2.548-.908 3.355-.606.807-1.472 1.211-2.599 1.211-1.126 0-1.992-.404-2.598-1.211Zm1.287-5.714c-.32.547-.48 1.333-.48 2.359 0 1.027.16 1.812.48 2.358.319.547.756.82 1.311.82.555 0 .995-.273 1.318-.82.324-.546.486-1.332.486-2.358s-.162-1.812-.486-2.359c-.323-.546-.763-.82-1.318-.82s-.992.274-1.311.82Zm7.906 5.386h4.2v1.387h-6.533v-1.273l2.787-2.611c.345-.32.591-.551.738-.694.147-.143.324-.334.53-.574.206-.24.346-.458.422-.656a1.69 1.69 0 0 0 .114-.612c0-.37-.112-.657-.335-.863-.222-.206-.519-.31-.889-.31-.42 0-.763.154-1.028.46-.265.308-.422.78-.473 1.42l-1.639-.126c.075-1.051.399-1.838.971-2.359.572-.521 1.295-.782 2.169-.782.849 0 1.552.22 2.107.662.554.442.832 1.074.832 1.898 0 .513-.141.997-.423 1.451-.281.454-.775 1.005-1.482 1.652l-2.068 1.93Zm5.311 1.387v-1.904h1.867v1.904h-1.867Zm6.407-8.98c1.194 0 2.09.364 2.687 1.091s.895 1.844.895 3.349c0 1.564-.309 2.737-.927 3.519-.618.782-1.499 1.173-2.642 1.173-.858 0-1.554-.217-2.088-.65-.534-.433-.843-1.045-.927-1.835l1.64-.126c.05.37.195.668.435.895.24.227.553.341.94.341.698 0 1.211-.383 1.539-1.148.21-.504.319-1.127.327-1.867-.487.749-1.248 1.123-2.282 1.123-.85 0-1.548-.259-2.094-.776-.548-.517-.82-1.225-.82-2.125 0-.916.303-1.64.908-2.17.606-.53 1.409-.794 2.409-.794Zm-1.154 4.118c.299.29.696.435 1.192.435s.891-.145 1.186-.435c.294-.29.441-.675.441-1.154 0-.48-.147-.864-.441-1.154-.295-.29-.69-.435-1.186-.435-.488 0-.883.147-1.186.441-.302.295-.454.677-.454 1.148 0 .48.15.864.448 1.154Zm-46.949.158c.521.446.782 1.097.782 1.955 0 .95-.322 1.671-.965 2.163-.643.492-1.457.738-2.44.738-.934 0-1.697-.231-2.29-.694-.592-.462-.935-1.143-1.028-2.043l1.653-.114c.134.976.689 1.463 1.665 1.463.521 0 .935-.132 1.242-.397.307-.265.46-.637.46-1.116 0-.454-.138-.816-.416-1.085-.277-.269-.694-.403-1.249-.403-.37 0-.815.054-1.337.164v-1.173l2.258-2.195h-3.822v-1.387h6.017v1.236l-2.523 2.207c.875.059 1.538.286 1.993.681Zm9.788 4.704h-2.106l-2.813-3.771h-.921v3.771h-1.766v-8.829h1.766v3.709h.883l2.624-3.709h2.055l-3.279 4.276 3.557 4.553Zm155.759 192.577h-7.546V470.54h7.546V297.853ZM447.618 3.842h-7.546V304.76h7.546V3.842ZM17.313 436.068H3.986v34.472h13.327v-34.472Zm0-150.039H3.986v80.981h13.327v-80.981Zm0-150.04H3.986v80.981h13.327v-80.981ZM132.527 3.842H3.984V17.17h128.543V3.842Zm76.729 0h-42.092V17.17h42.092V3.842Zm96.172 0h-61.799V17.17h61.799V3.842Zm76.991 0h-42.355V17.17h42.355V3.842Z" fill="#2C2C2C"/><path d="M447.617 3.842h-31.318V17.17h31.318V3.842Zm-430.304 0H3.986v18.969h13.327V3.842Zm287.991 459.151H3.861v7.547h301.443v-7.547Zm142.315-165.14h-88.076v7.547h88.076v-7.547Zm-126.688 0h-23.173v7.547h23.173v-7.547Z" fill="#2C2C2C"/><path d="M447.617.105H-.293V470.54" stroke="#2C2C2C" stroke-miterlimit="10"/></g><defs><clipPath id="a"><path fill="#fff" d="M0 0h448v471H0z"/></clipPath></defs></svg>