<svg width="277" height="209" viewBox="0 0 277 209" fill="none" xmlns="http://www.w3.org/2000/svg"><path d="M147.432 12.514h-.459v.263h.459v-.263Zm-42.067 0h-.525v.263h.525v-.263Zm42.591-.85h-1.377v.46h1.377v-.46Zm0-1.244h-1.377v.522h1.377v-.522Zm0-1.246h-1.377v.524h1.377v-.524Zm0-1.246h-1.377v.523h1.377v-.523Zm0-1.246h-1.377v.527h1.377v-.527Zm0-1.244h-1.377v.524h1.377v-.524Zm0-1.179h-1.377v.458h1.377v-.458Zm0-1.244h-1.377v.456h1.377v-.456Zm0-1.247h-1.377v.46h1.377v-.46Zm0-1.245h-1.507v.459h1.507V.523ZM146.185 0h-.458v1.507h.458V0Zm-1.245 0h-.458v1.507h.458V0Zm-1.244 0h-.458v1.507h.458V0Zm-1.178 0h-.525v1.507h.525V0Zm-1.247 0h-.522v1.507h.522V0Zm-1.243 0h-.525v1.507h.525V0Zm-1.245 0h-.524v1.507h.524V0Zm-1.245 0h-.524v1.507h.524V0Zm-1.247 0h-.458v1.507h.458V0Zm-1.243 0h-.461v1.507h.461V0Zm-1.245 0h-.458v1.507h.458V0Zm-1.245 0h-.458v1.507h.458V0Zm-1.178 0h-.524v1.507h.524V0Zm-1.246 0h-.524v1.507h.524V0Zm-1.243 0h-.524v1.507h.524V0Zm-1.246 0h-.524v1.507h.524V0ZM126.4 0h-.526v1.507h.526V0Zm-1.244 0h-.524v1.507h.524V0Zm-1.247 0h-.46v1.507h.46V0Zm-1.245 0h-.458v1.507h.458V0Zm-1.243 0h-.46v1.507h.46V0Zm-1.249 0h-.456v1.507h.456V0Zm-1.177 0h-.524v1.507h.524V0Zm-1.244 0h-.526v1.507h.526V0Zm-1.246 0h-.524v1.507h.524V0Zm-1.245 0h-.524v1.507h.524V0Zm-1.246 0h-.522v1.507h.522V0Zm-1.243 0h-.459v1.507h.459V0Zm-1.248 0h-.458v1.507h.458V0Zm-1.242 0h-.461v1.507h.461V0Zm-1.248 0h-.457v1.507h.457V0Zm-1.244 0h-.458v1.507h.458V0Zm-1.18 0h-.524v1.507h.524V0Zm-1.244 0h-.525v1.507h.525V0Zm.457 1.768h-1.439v.46h1.439v-.46Zm0 1.247h-1.439v.456h1.439v-.456Zm0 1.244h-1.439v.458h1.439v-.458Zm0 1.179h-1.439v.524h1.439v-.524Zm0 1.244h-1.439v.527h1.439v-.527Zm0 1.246h-1.439v.523h1.439v-.523Zm0 1.246h-1.439v.524h1.439v-.524Zm0 1.246h-1.439v.522h1.439v-.522Zm0 1.244h-1.439v.46h1.439v-.46Zm158.375 64.411h-.261v.456h.261v-.456Zm0-42.133h-.261v.524h.261v-.524Zm.851 41.607h-.456v1.507h.456V75.55Zm1.245 0h-.458v1.507h.458V75.55Zm1.246 0h-.458v1.507h.458V75.55Zm1.244 0h-.458v1.507h.458V75.55Zm1.245 0h-.524v1.507h.524V75.55Zm1.247 0h-.524v1.507h.524V75.55Zm1.245 0h-.527v1.507h.527V75.55Zm1.244 0h-.524v1.507h.524V75.55Zm1.246 0h-.524v1.507h.524V75.55Zm1.178 0h-.457v1.507h.457V75.55Zm.526-.72h-1.507v.456h1.507v-.456Zm0-1.245h-1.507v.458h1.507v-.458Zm0-1.246h-1.507v.458h1.507v-.458Zm0-1.244h-1.507v.524h1.507v-.524Zm0-1.244h-1.507v.524h1.507v-.523Zm0-1.245h-1.507v.524h1.507v-.524Zm0-1.245h-1.507v.523h1.507v-.523Zm0-1.248h-1.507v.524h1.507v-.524Zm0-1.242h-1.507v.524h1.507v-.524Zm0-1.18h-1.507v.459h1.507v-.46Zm0-1.246h-1.507v.46h1.507v-.46Zm0-1.244h-1.507v.46h1.507v-.46Zm0-1.245h-1.507v.458h1.507v-.458Zm0-1.246h-1.507v.524h1.507v-.524Zm0-1.242h-1.507v.524h1.507v-.524Zm0-1.247h-1.507v.524h1.507v-.524Zm0-1.246h-1.507v.524h1.507v-.524Zm0-1.245h-1.507v.522h1.507v-.522Zm0-1.179h-1.507v.459h1.507v-.458Zm0-1.244h-1.507v.46h1.507v-.46Zm0-1.244h-1.507v.456h1.507v-.456Zm0-1.246h-1.507v.458h1.507v-.458Zm0-1.246h-1.507v.459h1.507v-.458Zm0-1.246h-1.507v.527h1.507v-.527Zm0-1.244h-1.507v.525h1.507v-.525Zm0-1.245h-1.507v.523h1.507v-.523Zm0-1.245h-1.507v.523h1.507v-.523Zm0-1.246h-1.507v.523h1.507v-.523Zm0-1.178h-1.507v.458h1.507v-.459Zm0-1.246h-1.507v.458h1.507v-.458Zm0-1.243h-1.507v.458h1.507v-.458Zm0-1.247h-1.507v.459h1.507v-.458Zm0-1.246h-1.507v.525h1.507v-.525Zm0-1.242h-1.507v.524h1.507v-.524Zm-1.704-.522h-.524v1.505h.524V33.42Zm-1.246 0h-.524v1.505h.524V33.42Zm-1.244 0h-.527v1.505h.527V33.42Zm-1.245 0h-.524v1.505h.524V33.42Zm-1.247 0h-.524v1.505h.524V33.42Zm-1.245 0h-.458v1.505h.458V33.42Zm-1.244 0h-.458v1.505h.458V33.42Zm-1.246 0h-.458v1.505h.458V33.42Zm-1.245 0h-.456v1.505h.456V33.42Z" fill="#2C2C2C"/><path d="M225.266 87.613h-.043" stroke="#2C2C2C" stroke-width=".272" stroke-miterlimit="10" stroke-linecap="round"/><path d="M223.9 87.613h-10.807c-2.033 0-2.033 0-2.033-2.679v-44.63c0-2.677 0-2.677 2.033-2.677h11.468" stroke="#2C2C2C" stroke-width=".272" stroke-miterlimit="10" stroke-linecap="round" stroke-dasharray="0.05 0.82"/><path d="M225.223 37.627h.041" stroke="#2C2C2C" stroke-width=".272" stroke-miterlimit="10" stroke-linecap="round"/><path d="M248.175 87.158V71.581a.56.56 0 0 0-.56-.559h-21.089a.56.56 0 0 0-.563.56v15.576c0 .309.251.56.563.56h3.747V86.7c0-.474.439-.86.984-.86h3.598c-.087-.03-.103-.109-.053-.247.061-.172.137-.347.235-.502.334-.533.459-1.126.576-1.729.137-.688.557-2.593.728-3.273.174-.672.092-1.344.671-1.786.164-.122.474-.194.752-.343.358-.195.291-.504.009-.325-.202.13-.57.318-.84.47-.005-.375-.027-.801-.015-1.226.012-.388.092-.429.444-.234.403.223.824.345 1.289.376.406.029.815.087 1.216.16.947.174 1.749.563 2.154 1.506.082.246.239.115.164-.14-.068-.22-.431-.596-.52-.79.365-.01 1.174.238 1.519.238.211 0 .272.082.204.28a2.712 2.712 0 0 1-.241.52c-.299.484-.45 1.017-.54 1.569-.185 1.147-.752 3.493-1.101 4.602-.167.534-.268 1.077-.228 1.64.015.19-.001.386-.025.575-.007.022-.015.038-.02.056.206.283.555.48.968.48h5.414a.56.56 0 0 0 .56-.559Z" stroke="#2C2C2C" stroke-width=".272" stroke-miterlimit="10"/><path d="M248.176 71.581v15.577a.561.561 0 0 1-.561.561h-3.595a.561.561 0 0 1-.562-.56V71.58c0-.308.25-.562.562-.562h3.595c.308 0 .561.252.561.562Zm-8.517 5.509v-6.068" stroke="#2C2C2C" stroke-width=".272" stroke-miterlimit="10"/><path d="M245.2 87.719h-2.999c-.414 0-.76-.198-.969-.482-.035.106-.122.147-.252.067-.167-.101-.338-.2-.495-.318-.293-.22-.569-.455-.863-.675-.09-.068-.183-.158-.281-.227-.187-.128-.479-.019.196.423.062.039.392.29.49.368-.94-.06-2.178-.219-3-.548-.658-.262-1.307-.535-2.041-.476a.312.312 0 0 1-.13-.01h-3.6c-.543 0-.982.383-.982.857v2.356c0 .476.439.86.982.86H245.2v-2.195Zm2.976-33.956V38.188a.56.56 0 0 0-.561-.561h-2.417v.003h-2.997c-.411 0-.755.194-.964.474.005.016.011.026.016.044.024.188.038.382.026.572-.041.567.061 1.105.228 1.642.348 1.109.914 3.452 1.101 4.6.09.554.241 1.084.539 1.57.099.165.182.34.242.522.067.194.001.311-.205.28a2.83 2.83 0 0 0-1.171.055 35.969 35.969 0 0 0-.505-1.854c-.167-.537-.268-1.077-.228-1.642a2.734 2.734 0 0 0-.026-.573c-.022-.15-.118-.22-.274-.125-.168.103-.338.2-.494.32-.291.22-.569.453-.863.675-.09.066-.184.157-.279.223-.188.129-.481.021.194-.42.063-.041.392-.293.49-.369-.94.058-2.177.217-3.002.547-.286.114-.57.226-.861.315a118.41 118.41 0 0 1-.55-2.522c-.117-.6-.241-1.195-.576-1.726a2.616 2.616 0 0 1-.235-.503c-.04-.114-.032-.188.022-.228h-3.567c-.545 0-.984-.384-.984-.858v-1.022h-3.747a.561.561 0 0 0-.563.56v15.576c0 .308.251.56.563.56h21.089a.563.563 0 0 0 .559-.56Z" stroke="#2C2C2C" stroke-width=".272" stroke-miterlimit="10"/><path d="M248.176 38.184v15.577c0 .31-.251.563-.561.563h-3.595a.562.562 0 0 1-.562-.563V38.184c0-.307.25-.56.562-.56h3.595a.565.565 0 0 1 .561.56Zm-8.517 16.138v-.886" stroke="#2C2C2C" stroke-width=".272" stroke-miterlimit="10"/><path d="M234.987 39.473c.735.06 1.384-.212 2.04-.475.826-.33 2.061-.49 3.002-.547-.099.077-.428.326-.491.368-.675.442-.382.55-.194.421.095-.066.19-.156.281-.223.291-.22.571-.457.862-.677.157-.116.326-.215.493-.318.136-.084.228-.034.259.082a1.19 1.19 0 0 1 .964-.474h2.997v-2.197h-13.941c-.545 0-.985.383-.985.857v2.357c0 .474.44.86.985.86h3.566c.035-.026.085-.04.162-.034Zm13.188 15.41v15.576a.56.56 0 0 1-.56.561h-21.089a.562.562 0 0 1-.563-.56V54.882a.56.56 0 0 1 .563-.56h21.089c.308 0 .56.251.56.56Z" stroke="#2C2C2C" stroke-width=".272" stroke-miterlimit="10"/><path d="M248.176 54.883v15.576a.561.561 0 0 1-.561.561h-3.595a.561.561 0 0 1-.562-.56V54.882c0-.309.25-.56.562-.56h3.595c.308 0 .561.251.561.56Zm-8.517 16.137V54.323m-2.725 23.779c.269-.152.637-.339.838-.47.281-.177.348.131-.008.322-.278.152-.59.224-.752.346-.581.442-.497 1.114-.669 1.785a95.748 95.748 0 0 0-.73 3.276c-.118.599-.244 1.197-.576 1.727-.099.156-.171.33-.233.502-.07.19-.018.28.181.26.735-.06 1.382.214 2.039.477.825.33 2.062.49 3.002.547a15.652 15.652 0 0 0-.49-.368c-.675-.442-.381-.552-.194-.425.096.07.189.158.281.227.291.22.569.455.863.675.154.117.325.217.493.318.153.096.251.027.272-.124a2.9 2.9 0 0 0 .029-.574c-.042-.565.061-1.105.228-1.64.345-1.11.914-3.455 1.099-4.603.09-.553.243-1.083.54-1.57.1-.162.18-.34.243-.52.066-.195.005-.277-.206-.278-.344 0-1.154-.248-1.52-.238.091.194.455.569.52.79.078.254-.081.388-.163.139-.407-.942-1.207-1.328-2.154-1.505a10.067 10.067 0 0 0-1.218-.16 3.027 3.027 0 0 1-1.287-.376c-.354-.196-.432-.155-.444.234-.013.423.01.85.016 1.226Zm.091-33.932c.824-.33 2.061-.488 3.002-.546-.1.075-.428.326-.491.368-.673.442-.382.55-.194.421.096-.066.19-.154.281-.223.291-.222.569-.455.862-.675.157-.12.326-.219.495-.32.152-.095.25-.027.271.125.026.187.04.383.029.572-.042.568.061 1.106.227 1.643a35.3 35.3 0 0 1 .504 1.854 2.867 2.867 0 0 1 1.172-.056c.207.034.271-.085.204-.28a2.643 2.643 0 0 0-.241-.52c-.297-.487-.45-1.017-.54-1.57-.183-1.148-.754-3.492-1.101-4.601-.165-.537-.268-1.079-.227-1.641a2.841 2.841 0 0 0-.029-.575c-.02-.151-.118-.217-.271-.124-.167.101-.338.2-.495.318-.293.222-.571.457-.861.677-.092.067-.185.157-.282.223-.188.129-.478.023.195-.42.063-.041.39-.292.49-.369-.94.056-2.178.215-3.002.546-.656.264-1.305.536-2.039.476-.199-.017-.251.07-.183.26.062.174.136.348.234.504.334.53.458 1.126.577 1.727.101.503.354 1.67.548 2.52.294-.087.58-.2.865-.314Z" stroke="#2C2C2C" stroke-width=".272" stroke-miterlimit="10"/><path d="M236.934 52.397c.269.15.637.339.838.467.281.182.348-.128-.008-.321-.278-.153-.59-.222-.752-.347-.581-.44-.497-1.112-.669-1.784a95.743 95.743 0 0 1-.73-3.275c-.118-.6-.244-1.196-.576-1.727a2.427 2.427 0 0 1-.233-.504c-.07-.188-.018-.276.181-.258.735.058 1.382-.212 2.039-.476.825-.33 2.062-.49 3.002-.546-.099.075-.427.326-.49.368-.675.442-.381.55-.194.42.096-.065.189-.155.281-.224.291-.219.569-.455.863-.674.154-.118.325-.217.493-.32.153-.094.251-.027.272.124.027.19.04.384.029.576-.042.564.061 1.105.228 1.64.345 1.11.914 3.454 1.099 4.603.09.553.243 1.085.54 1.57.1.164.18.342.243.52.066.195.005.277-.206.279-.344 0-1.154.247-1.52.237.091-.194.455-.568.52-.79.078-.254-.081-.386-.163-.138-.407.943-1.207 1.329-2.154 1.505a10.65 10.65 0 0 1-1.218.158 3.031 3.031 0 0 0-1.287.38c-.354.194-.432.153-.444-.236-.013-.427.01-.851.016-1.227Z" stroke="#2C2C2C" stroke-width=".272" stroke-miterlimit="10"/><path d="M180.586 49.08h-7.401V29.262h7.401V49.08Z" stroke="#2C2C2C" stroke-width=".272" stroke-miterlimit="10" stroke-linejoin="round"/><path d="M180.612 49.08h-.736V29.262h.736V49.08Zm0 0v-6.014 6.014Zm-.736 0h.736-.736Zm0 0h.736-.736Zm0-9.909h.736-.736Zm0-9.907h.736-.736Z" stroke="#2C2C2C" stroke-width=".272" stroke-miterlimit="10" stroke-linejoin="round"/><path d="M180.614 49.078h-11.145v44.579h11.145V49.078Z" stroke="#2C2C2C" stroke-width=".272" stroke-miterlimit="10" stroke-linejoin="round"/><path d="M171.854 52.634h-1.112V77.4h1.112V52.634Z" stroke="#2C2C2C" stroke-width=".272" stroke-miterlimit="10" stroke-linejoin="round"/><path d="M169.647 69.328V60.64l1.117-6.642v22.036l-1.117-6.705ZM171.3 59.27v-4.845m-69.933-28.936H76.602v1.113h24.765V25.49Z" stroke="#2C2C2C" stroke-width=".272" stroke-miterlimit="10" stroke-linejoin="round"/><path d="M84.672 24.393h8.69l6.641 1.118H77.969l6.703-1.118Zm10.058 1.654h4.845m-72.799 99.276h14.858v49.531H26.776v-49.531Z" stroke="#2C2C2C" stroke-width=".272" stroke-miterlimit="10" stroke-linejoin="round"/><path d="M40.956 125.323h.678v12.382h-.678v-12.382Zm0 24.764h.678v-12.382h-.678v12.382Zm0 12.382h.678v-12.382h-.678v12.382Zm0 12.382h.678v-12.382h-.678v12.382Zm-5.336-25.484c.431 0 .782.342.782.766a.775.775 0 0 1-.783.764.795.795 0 0 1-.713-.449c-.12-.241-.277-.316-.405-.326-.179-.013-.32.122-.376.241a4.61 4.61 0 0 0-.065.142l-1.81 4.798c-.203.395-.815.254-.815-.188v-10.057c0-.441.612-.583.816-.188l1.67 4.552m1.641 3.553v4.93m0-15.636v4.933m1.119-52.091h-9.905v29.719h9.905V95.111Zm.353 4.583v.677m-.352-.338h.353m-.001 9.546v.678m-.352-.339h.353m-.001 9.548v.678m-.352-.34h.353" stroke="#2C2C2C" stroke-width=".272" stroke-miterlimit="10" stroke-linejoin="round"/><path d="M33.194 103.861c-.122.474.007 1.172-.53 1.778-.638.723-1.507 1.002-1.94.618-.432-.381-.266-1.277.373-2 .53-.602 1.235-.568 1.686-.749.3-.123.415-.64.734-1.002.639-.723 1.034-1.419 1.442-1.055.408.363-.231.839-.871 1.562-.315.36-.815.535-.894.848Zm31.662-22.493H52.47v11.145h12.385V81.368Z" stroke="#2C2C2C" stroke-width=".272" stroke-miterlimit="10" stroke-linejoin="round"/><path d="m58.202 87.801 3.779 1.447 1.887-4.93-3.779-1.447-1.887 4.93Zm.819-4.852-3.098.894m67.134-2.475h-12.385v11.145h12.385V81.368Z" stroke="#2C2C2C" stroke-width=".272" stroke-miterlimit="10" stroke-linejoin="round"/><path d="m112.378 83.34 1.327-.395a.121.121 0 0 1 .151.082l.842 2.83a.124.124 0 0 1-.083.152l-1.326.394a.117.117 0 0 1-.149-.082l-.844-2.83a.123.123 0 0 1 .082-.151Zm6.06 8.149a3.422 3.422 0 1 0 0-6.843 3.422 3.422 0 0 0 0 6.843Z" stroke="#2C2C2C" stroke-width=".272" stroke-miterlimit="10" stroke-linejoin="round"/><path d="M118.439 89.774a1.706 1.706 0 1 0 0-3.413 1.706 1.706 0 0 0 0 3.413Z" stroke="#2C2C2C" stroke-width=".272" stroke-miterlimit="10" stroke-linejoin="round"/><path d="M118.438 88.532a.464.464 0 1 0 0-.928.464.464 0 0 0 0 .928Zm-1.207.741 2.414-2.412m-2.414-.001 2.414 2.413M57.094 91.49a3.423 3.423 0 1 0 0-6.845 3.423 3.423 0 0 0 0 6.846Z" stroke="#2C2C2C" stroke-width=".272" stroke-miterlimit="10" stroke-linejoin="round"/><path d="M57.094 89.774a1.707 1.707 0 1 0 0-3.413 1.707 1.707 0 0 0 0 3.413Z" stroke="#2C2C2C" stroke-width=".272" stroke-miterlimit="10" stroke-linejoin="round"/><path d="M57.094 88.532a.464.464 0 1 0 0-.93.464.464 0 0 0 0 .93Zm-1.207.741 2.414-2.412m-2.414-.001 2.414 2.413m49.338-47.481H67.891c-1.676 0-3.032 1.35-3.032 3.01v45.55a.86.86 0 0 0 .863.856h44.087a.86.86 0 0 0 .866-.857V44.802c-.002-1.662-1.36-3.01-3.036-3.01Z" stroke="#2C2C2C" stroke-width=".272" stroke-miterlimit="10" stroke-linejoin="round"/><path d="M109.449 91.208h-43.36a.608.608 0 0 1-.611-.603v-46.02c0-1.196.983-2.166 2.2-2.166h40.178c1.212 0 2.198.97 2.198 2.166v46.026a.601.601 0 0 1-.605.597Z" stroke="#2C2C2C" stroke-width=".272" stroke-miterlimit="10" stroke-linejoin="round"/><path d="M110.4 92.56H65.128c-.151 0-.272-.18-.272-.403v-.618c0-.224.12-.405.272-.405H110.4c.15 0 .272.181.272.405v.618c0 .222-.122.404-.272.404ZM89.051 80.696l.124 6.118c-.588 2.133-.01 3.237 2.377 2.735l11.821.114c2.51.309 3.942-.085 4.122-1.295-.01-2.557-.023-5.115-.034-7.672h-18.41Zm-21.004 0c.073 2.747.148 5.516.224 8.264-.405 1.02 1.666 1.067 3.863 1.063 2.96-.062 8.305-.127 11.265-.19 3.242-.226 3.007-.671 3.01-1.102 0-2.7.003-5.337.003-8.035H68.047Zm-2.56-1.128c0 .65.989 1.065 1.685 1.065h41.71a1.19 1.19 0 0 0 1.171-1.182v-9.123c0 1.096-.919 2.135-2.025 1.986-11.829-1.577-26.858-1.736-40.069 0-2.148.284-2.484-1.63-2.484-1.63l.013 8.884Z" stroke="#2C2C2C" stroke-width=".272" stroke-miterlimit="10" stroke-linejoin="round"/><path d="M105.5 74.472s-2.11 2.886-5.221 2.997M82.36 72.767s-11.375 2.96-14.263 6.406m22.446-5.985s7.887-1.274-5.183 5.658m81.665 13.804h-14.86V49.079h14.86v43.572Z" stroke="#2C2C2C" stroke-width=".272" stroke-miterlimit="10" stroke-linejoin="round"/><path d="M152.841 92.65h-.674V81.759h.674v10.893Z" stroke="#2C2C2C" stroke-width=".272" stroke-miterlimit="10" stroke-linejoin="round"/><path d="M152.841 70.864h-.674V81.76h.674V70.864Z" stroke="#2C2C2C" stroke-width=".272" stroke-miterlimit="10" stroke-linejoin="round"/><path d="M152.841 59.97h-.674v10.895h.674V59.97Zm0-10.89h-.674v10.89h.674V49.08Zm8.741 20.978c.432 0 .781.342.781.766 0 .421-.35.763-.781.763a.798.798 0 0 1-.713-.448c-.121-.243-.278-.32-.405-.326-.182-.013-.32.122-.378.24-.029.057-.064.142-.064.142l-1.81 4.799c-.204.395-.815.254-.815-.19V65.75c0-.442.611-.583.815-.188l1.668 4.55m1.642 3.552v4.932m0-15.638v4.932m-14.954-30.445h-.001.001Zm-.825-1.435a8.973 8.973 0 0 1 2.554-3.016 5.093 5.093 0 0 0-.857-.484 4.819 4.819 0 0 0-1.135-.342 26.276 26.276 0 0 1-.562 3.842Zm1.34 1.425a13.27 13.27 0 0 1 2.743 1.945c.053-.102.106-.204.154-.309a4.937 4.937 0 0 0 .394-2.53 8.65 8.65 0 0 1-3.291.894Zm-1.957.85.002-.006a25.541 25.541 0 0 1-1.387 3.452 4.964 4.964 0 0 0 2.697.196 9.567 9.567 0 0 1-1.312-3.642Zm1.779.305c.251 1.02.368 2.06.331 3.107a5.004 5.004 0 0 0 1.961-1.385 10.101 10.101 0 0 1-2.292-1.721Zm-3.91.332a16.23 16.23 0 0 1-1.767.794c.265.424.601.806.988 1.137.246-.908.582-1.513.779-1.931Zm4.381-3.072a15.698 15.698 0 0 1 2.876.009 4.941 4.941 0 0 0-1.15-2.154 24.036 24.036 0 0 0-1.726 2.144Zm-5.094-1.093a14.426 14.426 0 0 1-.614-.953 4.998 4.998 0 0 0-.565.808c.385.022.774.067 1.179.145Zm-1.191 2.151c-.203-.054-.41-.127-.617-.196-.01.132-.016.264-.015.396.209-.073.42-.139.632-.2Zm.558.809a29.99 29.99 0 0 1-1.146-.034c.034.275.09.544.169.808a4.29 4.29 0 0 1 .977-.774Zm2.661-3.09-.074-.148a8.173 8.173 0 0 1-.235-2.178c-.339.1-.665.24-.977.415.497.583.923 1.23 1.276 1.91h.01Z" stroke="#2C2C2C" stroke-width=".272" stroke-miterlimit="10" stroke-linejoin="round"/><path d="m145.743 36.01-.013.056a17.54 17.54 0 0 1 1.643-.218 24.422 24.422 0 0 1 4.021-4.386 9.018 9.018 0 0 0-5.651 4.548Zm.826 1.435c.134.376.238.762.336 1.146a10.05 10.05 0 0 0 4.583 2.64c-1.145-1.615-2.656-2.865-4.403-3.794-.172.008-.344.01-.516.008Z" stroke="#2C2C2C" stroke-width=".272" stroke-miterlimit="10" stroke-linejoin="round"/><path d="m145.404 37.365.027-.105c-.094.343-.194.688-.302 1.027.233 1.667.931 3.324 2.003 4.62.287-1.836.061-3.712-.561-5.459a8.11 8.11 0 0 1-1.167-.083Z" stroke="#2C2C2C" stroke-width=".272" stroke-miterlimit="10" stroke-linejoin="round"/><path d="M145.404 37.365c2.073.318 4.188-.219 5.938-1.373a15.895 15.895 0 0 0-5.61.079 27.23 27.23 0 0 1-.328 1.294Zm-2.409 1.557a9.36 9.36 0 0 1 .937-1.318c-.755.086-1.52.114-2.284.111-1.002.564-1.676 1.461-2.097 2.542a16.295 16.295 0 0 0 3.444-1.335Z" stroke="#2C2C2C" stroke-width=".272" stroke-miterlimit="10" stroke-linejoin="round"/><path d="M145.057 36.532c-2.475 1.948-3.614 5.122-2.931 8.055a26.148 26.148 0 0 0 4.051-17.557c-1.896 1.993-2.611 4.784-1.941 7.447a10.588 10.588 0 0 1 .821 2.055Z" stroke="#2C2C2C" stroke-width=".272" stroke-miterlimit="10" stroke-linejoin="round"/><path d="M143.765 36.521c-.339-.349-1.057-1.125-1.483-1.768-1.755-.33-3.291-.157-4.802.355.98.84 2.357 1.466 3.611 1.799a9.462 9.462 0 0 1 2.674-.386Z" stroke="#2C2C2C" stroke-width=".272" stroke-miterlimit="10" stroke-linejoin="round"/><path d="M145.057 36.532c-.738-2.622-2.488-4.856-4.881-6.161.746 2.578 2.197 4.977 4.22 6.743 0 0 .235-.23.314-.299.086-.074.347-.283.347-.283Z" stroke="#2C2C2C" stroke-width=".272" stroke-miterlimit="10" stroke-linejoin="round"/><path d="M144.397 37.114a13.682 13.682 0 0 1-.632-.593c-1.895.005-3.148.508-4.607 1.067 1.579.151 3.198.191 4.774.014.179-.2.465-.488.465-.488Zm.66-.582s.191.33.455.444" stroke="#2C2C2C" stroke-width=".272" stroke-miterlimit="10" stroke-linejoin="round"/><path d="M242.262 106.719a7.607 7.607 0 0 0-2.234-5.307 7.602 7.602 0 0 0-5.306-2.234m3.259 2.883 1.347-1.346m.057 2.751 1.349-1.349m-34.429 25.482a7.602 7.602 0 0 0 2.236 5.304 7.593 7.593 0 0 0 5.304 2.236m-3.259-2.883-1.347 1.346m-.057-2.75-1.347 1.347" stroke="#2C2C2C" stroke-width=".272" stroke-miterlimit="22.926" stroke-linecap="round" stroke-linejoin="round"/><path d="M238.746 110.577c-.257.26-.537.483-.831.681a14.905 14.905 0 0 0-7.731-7.731c.197-.293.422-.571.679-.831a5.573 5.573 0 0 1 7.883 7.881Zm-20.361 20.213a5.572 5.572 0 1 1-8.561-7.052c.259-.257.537-.484.831-.678a14.895 14.895 0 0 0 7.73 7.73Z" stroke="#2C2C2C" stroke-width=".272" stroke-miterlimit="10"/><path d="M213.845 99.18a7.607 7.607 0 0 0-5.308 2.235 7.602 7.602 0 0 0-2.233 5.305m2.882-3.259-1.346-1.348m2.751-.058-1.347-1.347m25.48 34.429a7.601 7.601 0 0 0 5.306-2.236 7.609 7.609 0 0 0 2.235-5.308m-2.883 3.263 1.347 1.346m-2.751.057 1.346 1.346" stroke="#2C2C2C" stroke-width=".272" stroke-miterlimit="22.926" stroke-linecap="round" stroke-linejoin="round"/><path d="M217.704 102.697c.258.258.483.537.681.83a14.916 14.916 0 0 0-7.733 7.731 5.906 5.906 0 0 1-.831-.681 5.572 5.572 0 1 1 7.883-7.88Zm20.213 20.361c.292.198.569.421.829.679a5.572 5.572 0 0 1 0 7.88 5.57 5.57 0 0 1-8.56-.829 14.918 14.918 0 0 0 7.731-7.73Z" stroke="#2C2C2C" stroke-width=".272" stroke-miterlimit="10"/><path d="M224.285 132.016c8.205 0 14.856-6.652 14.856-14.857 0-8.205-6.651-14.857-14.856-14.857-8.206 0-14.857 6.652-14.857 14.857 0 8.205 6.651 14.857 14.857 14.857Zm-24.676-79.02h18.966c.233 0 .422.19.422.424v18.966a.423.423 0 0 1-.422.425h-18.966a.423.423 0 0 1-.424-.425V53.42c0-.234.189-.424.424-.424Z" stroke="#2C2C2C" stroke-width=".272" stroke-miterlimit="10"/><path d="M215.037 68.417a1.858 1.858 0 1 0 0-3.716 1.858 1.858 0 0 0 0 3.716Z" stroke="#2C2C2C" stroke-width=".272" stroke-miterlimit="10"/><path d="M215.036 67.393a.834.834 0 1 0 0-1.667.834.834 0 0 0 0 1.667Zm-.446-.095-.169.266M39.012 24.597H26.638v43.11h12.374v-43.11Z" stroke="#2C2C2C" stroke-width=".272" stroke-miterlimit="10"/><path d="M29.567 44.963a2.682 2.682 0 0 0 .003 5.255l-.003-5.255Zm1.033 5.26a2.683 2.683 0 0 0 2.19-2.634 2.685 2.685 0 0 0-2.194-2.633l.003 5.267Z" stroke="#2C2C2C" stroke-width=".272" stroke-miterlimit="10"/><path d="m29.574 54.087-.012-12.994c0-.262 1.03-1.478 1.03-1.218l.013 15.429c0 .26-1.031-.955-1.031-1.217Z" stroke="#2C2C2C" stroke-width=".272" stroke-miterlimit="10"/><path d="M29.569 46.276h-.514v2.63h.514v-2.63Zm5.453-3.452 1.875-.003a.2.2 0 0 1 .198.197l.006 9.23a.2.2 0 0 1-.197.199h-1.876a.198.198 0 0 1-.196-.195l-.006-9.23c0-.11.09-.198.196-.198Zm.229-2.507h1.415c.156 0 .282.129.284.283v.569a.286.286 0 0 1-.284.284l-1.413.003a.287.287 0 0 1-.288-.286v-.569a.29.29 0 0 1 .286-.284Zm10.949.096a.56.56 0 0 1 .558-.557h5.374a.559.559 0 0 1 0 1.116h-5.374a.558.558 0 0 1-.558-.559Zm0 14.614a.56.56 0 0 1 .558-.559h5.374a.558.558 0 0 1 0 1.115h-5.374a.559.559 0 0 1-.558-.556Zm4.754-2.132v-10.35c0-.424.168-.806.441-1.089a2.137 2.137 0 0 0-1.353-.484h-5.266a3.885 3.885 0 0 0-3.884 3.885v5.729a3.885 3.885 0 0 0 3.884 3.882h5.266c.515 0 .98-.183 1.353-.48a1.58 1.58 0 0 1-.441-1.093Z" stroke="#2C2C2C" stroke-width=".272" stroke-miterlimit="10"/><path d="M50.954 52.895v-10.35c0-.869.705-1.573 1.575-1.573h.752c.413 0 .747.333.747.746v12.004a.746.746 0 0 1-.747.748h-.752a1.577 1.577 0 0 1-1.575-1.575Z" stroke="#2C2C2C" stroke-width=".272" stroke-miterlimit="10"/><path d="M39.02 67.745H26.638V92.51H39.02V67.745Z" stroke="#2C2C2C" stroke-width=".272" stroke-miterlimit="10" stroke-linejoin="round"/><path d="M39.012 67.745h-.7V92.51h.7V67.745Zm0 0v7.516-7.516Zm-.7 0h.737-.737Zm0 0h.737-.737Zm0 12.382h.737-.737Zm0 12.383h.737-.737Z" stroke="#2C2C2C" stroke-width=".272" stroke-miterlimit="10" stroke-linejoin="round"/><path d="M221.522 154.286h-14.86v14.859h14.86v-14.859Z" stroke="#2C2C2C" stroke-width=".272" stroke-miterlimit="10" stroke-linecap="round" stroke-linejoin="round"/><path d="M221.268 155.596h-14.352v12.187h14.352v-12.187Z" stroke="#2C2C2C" stroke-width=".272" stroke-miterlimit="10" stroke-linecap="round" stroke-linejoin="round"/><path d="M210.848 166.408a2.555 2.555 0 1 0 0-5.11 2.555 2.555 0 0 0 0 5.11Z" stroke="#2C2C2C" stroke-width=".272" stroke-miterlimit="10" stroke-linecap="round" stroke-linejoin="round"/><path d="M210.848 165.292a1.44 1.44 0 1 0 0-2.882 1.44 1.44 0 0 0 0 2.882Zm6.88 1.116a2.163 2.163 0 1 0 0-4.326 2.163 2.163 0 0 0 0 4.326Zm-.72-6.096a1.704 1.704 0 1 0-.001-3.407 1.704 1.704 0 0 0 .001 3.407Zm-6.979 0a1.704 1.704 0 1 0-.001-3.407 1.704 1.704 0 0 0 .001 3.407Zm4.816-3.405h-.722v3.471h.722m4.324-3.471h.722v3.471h-.722m32.079-7.337H236.39v16.104h14.858v-16.104Zm-.041 1.857H236.43m8.601 5.556-2.425 2.529m2.425 0-2.425-2.529m1.213 3.056v-3.583m-1.74 1.792h3.479" stroke="#2C2C2C" stroke-width=".272" stroke-miterlimit="10" stroke-linecap="round" stroke-linejoin="round"/><path d="M238.088 146.484s-.006.013-.019.033" stroke="#2C2C2C" stroke-width=".272" stroke-miterlimit="10" stroke-linecap="round"/><path d="M237.536 147.68c-.442 1.079-1.008 2.786-1.125 4.669" stroke="#2C2C2C" stroke-width=".272" stroke-miterlimit="10" stroke-linecap="round" stroke-dasharray="0.05 0.8"/><path d="M236.39 152.996v.044m14.858.001-.04-.02" stroke="#2C2C2C" stroke-width=".272" stroke-miterlimit="10" stroke-linecap="round"/><path d="m250.088 152.462-11.4-5.681" stroke="#2C2C2C" stroke-width=".272" stroke-miterlimit="10" stroke-linecap="round" stroke-dasharray="0.05 0.78"/><path d="m238.129 146.502-.041-.018" stroke="#2C2C2C" stroke-width=".272" stroke-miterlimit="10" stroke-linecap="round"/><path d="M191.803 169.363h-14.86a.219.219 0 0 1-.218-.218v-14.859c0-.12.098-.218.218-.218h14.86c.121 0 .219.098.219.218v14.859a.22.22 0 0 1-.219.218Zm-14.643-.437h14.425v-14.423H177.16v14.423Z" fill="#2C2C2C"/><path d="M190.584 168.722h-12.421a.824.824 0 0 1-.823-.825v-11.173c0-.455.368-.825.823-.825h12.421c.453 0 .822.368.822.825v11.173a.823.823 0 0 1-.822.825Zm-12.421-12.385a.387.387 0 0 0-.386.387v11.173c0 .214.174.388.386.388h12.421a.387.387 0 0 0 .385-.388v-11.173a.386.386 0 0 0-.385-.387h-12.421Z" fill="#2C2C2C"/><path d="M189.451 166.234h-4.521a.219.219 0 0 1 0-.437h4.521a.276.276 0 0 0 .275-.275v-7.665a.276.276 0 0 0-.275-.275h-10.155a.274.274 0 0 0-.273.275v7.665c0 .151.122.275.273.275h4.607a.219.219 0 1 1 0 .437h-4.607a.71.71 0 0 1-.709-.71v-7.665a.71.71 0 0 1 .709-.711h10.155a.71.71 0 0 1 .71.711v7.665a.71.71 0 0 1-.71.71Z" fill="#2C2C2C"/><path d="M184.887 168.327h-.984a.219.219 0 0 1-.218-.219v-2.489c0-.121.098-.219.218-.219h.196a.219.219 0 0 1 .023.437v2.052h.548v-2.052a.218.218 0 0 1 .004-.437h.214c.121 0 .219.098.219.219v2.489a.221.221 0 0 1-.22.219Z" fill="#2C2C2C"/><path d="M184.393 168.102a.447.447 0 0 1-.445-.447v-4.752a.447.447 0 0 1 .894 0v4.752a.447.447 0 0 1-.449.447Zm.013-5.201-.022 4.752.009.011c.007 0 .013-.006.013-.011v-4.752Zm-7.461 6.462h-7.43a.219.219 0 0 1-.218-.218v-14.859c0-.12.098-.218.218-.218h7.43c.12 0 .218.098.218.218v14.859a.22.22 0 0 1-.218.218Zm-7.213-.437h6.994v-14.423h-6.994v14.423Zm36.932.437h-14.86a.219.219 0 0 1-.219-.218v-14.859c0-.12.098-.218.219-.218h14.86c.12 0 .218.098.218.218v14.859a.22.22 0 0 1-.218.218Zm-14.644-.437h14.425v-14.423H192.02v14.423Zm44.36.437h-14.858a.219.219 0 0 1-.219-.218v-14.859c0-.12.098-.218.219-.218h14.858c.121 0 .219.098.219.218v14.859c0 .12-.098.218-.219.218Zm-14.64-.437h14.423v-14.423H221.74v14.423Zm-97.598-2.539h-17.335a.219.219 0 0 1-.219-.219v-39.622c0-.121.098-.219.219-.219h17.335c.12 0 .218.098.218.219v39.622a.217.217 0 0 1-.218.219Zm-17.117-.436h16.898v-39.187h-16.898v39.187Z" fill="#2C2C2C"/><path d="M115.475 161.158a.839.839 0 1 1 0-1.677.839.839 0 0 1 0 1.677Zm0-1.236a.402.402 0 0 0-.402.4.402.402 0 0 0 .802 0c0-.22-.18-.4-.4-.4Z" fill="#2C2C2C"/><path d="M121.665 165.217h-12.38c-.78 0-1.414-.633-1.414-1.411v-27.497c0-4.193 3.413-7.603 7.606-7.603 4.191 0 7.601 3.41 7.601 7.603v27.497a1.416 1.416 0 0 1-1.413 1.411Zm-6.188-36.076c-3.952 0-7.168 3.216-7.168 7.168v27.497c0 .537.437.974.977.974h12.381a.975.975 0 0 0 .974-.974v-27.497c-.002-3.952-3.214-7.168-7.164-7.168Zm38.709 9.785h-4.575c-3.842 0-6.423-2.706-6.423-6.733v-.596c0-4.029 2.581-6.734 6.423-6.734h4.575c.121 0 .219.098.219.219v13.627a.216.216 0 0 1-.219.217Zm-4.573-13.627c-4.135 0-5.988 3.164-5.988 6.298v.596c0 3.133 1.851 6.298 5.988 6.298h4.356v-13.192h-4.356Z" fill="#2C2C2C"/><path d="M151.277 137.74h-1.725c-3.253 0-5.275-2.24-5.275-5.846 0-3.491 2.17-5.927 5.275-5.927h1.725c.121 0 .219.098.219.219v5.186a.219.219 0 0 1-.437 0v-4.968h-1.507c-2.895 0-4.839 2.207-4.839 5.491 0 3.386 1.809 5.41 4.839 5.41h1.507v-4.892a.219.219 0 1 1 .437 0v5.11a.217.217 0 0 1-.219.217Z" fill="#2C2C2C"/><path d="M151.551 132.63h-2.102c-.359 0-.619-.299-.619-.71 0-.372.227-.749.657-.749h3.089a.218.218 0 0 1 .121.4c-.462.308-.773.619-.957.946a.211.211 0 0 1-.189.113Zm-2.062-1.022c-.174 0-.22.204-.22.312 0 .029.005.274.18.274h1.976c.127-.202.298-.397.507-.586h-2.443Z" fill="#2C2C2C"/><path d="M151.949 133.173a.624.624 0 0 1-.522-.238.577.577 0 0 1-.116-.451c.071-.468.654-.926 1.156-1.275.295-.209.647-.112.845.145l.244.312a.63.63 0 0 1 .129.471.525.525 0 0 1-.222.355c-.648.459-1.144.681-1.514.681Zm.852-1.641a.102.102 0 0 0-.064.02c-.633.44-.961.771-.995.998a.139.139 0 0 0 .03.117c.068.088.323.255 1.442-.534a.08.08 0 0 0 .037-.062.182.182 0 0 0-.04-.137l-.245-.312a.217.217 0 0 0-.165-.09ZM96.06 169.466h-9.893a.219.219 0 0 1-.219-.219v-14.796a2.722 2.722 0 0 1 2.72-2.719h4.891c1.5 0 2.72 1.22 2.72 2.719v14.796a.219.219 0 0 1-.22.219Zm-9.675-.436h9.456v-14.577a2.286 2.286 0 0 0-2.282-2.284h-4.89a2.286 2.286 0 0 0-2.282 2.284v14.577h-.002Z" fill="#2C2C2C"/><path d="M95.16 163.898h-8.088a1.123 1.123 0 0 1-1.124-1.119.219.219 0 0 1 .437 0c0 .376.307.683.685.683h8.088a.682.682 0 0 0 .681-.683.219.219 0 0 1 .438 0c.003.617-.5 1.119-1.117 1.119Zm.9 2.031h-9.893a.219.219 0 0 1 0-.437h9.893a.219.219 0 0 1 0 .437Zm49.772.458h-9.893a.219.219 0 0 1-.219-.219v-14.796c0-1.5 1.22-2.719 2.719-2.719h4.892a2.721 2.721 0 0 1 2.719 2.719v14.796a.218.218 0 0 1-.218.219Zm-9.675-.436h9.456v-14.577a2.287 2.287 0 0 0-2.284-2.283h-4.891a2.284 2.284 0 0 0-2.281 2.283v14.577Z" fill="#2C2C2C"/><path d="M144.93 160.819h-8.088a1.123 1.123 0 0 1-1.122-1.122.219.219 0 1 1 .437 0c0 .377.306.686.683.686h8.088a.687.687 0 0 0 .685-.686.219.219 0 1 1 .437 0c0 .619-.503 1.122-1.12 1.122Zm.902 2.031h-9.895a.22.22 0 0 1 0-.438h9.895a.219.219 0 0 1 0 .438Zm-74.146 35.21a.438.438 0 0 1-.438-.437v-28.437a.438.438 0 0 1 .875 0v28.437a.439.439 0 0 1-.437.437Zm72.274-78.958a.438.438 0 0 1-.438-.437V98.81a.438.438 0 0 1 .875 0v19.855a.436.436 0 0 1-.437.437Zm-43.313 0a.437.437 0 0 1-.437-.437V98.81a.437.437 0 0 1 .874 0v19.855a.437.437 0 0 1-.437.437Zm45.54-26.014a.437.437 0 0 1-.437-.438V72.338a.437.437 0 0 1 .874 0V92.65a.437.437 0 0 1-.437.437Zm43.574 24.245h-20.249a.437.437 0 0 1 0-.874h20.249a.437.437 0 0 1 0 .874Z" fill="#2C2C2C"/><path d="M43.086 197.937a.219.219 0 0 1-.219-.218c0-15.801 12.885-28.655 28.722-28.655a.219.219 0 0 1 0 .437c-15.596 0-28.283 12.658-28.283 28.219a.22.22 0 0 1-.22.217Zm146.675-80.824a.219.219 0 0 1-.219-.219c0-11.043-8.986-20.026-20.029-20.026a.219.219 0 1 1 0-.438c11.284 0 20.465 9.181 20.465 20.464a.217.217 0 0 1-.217.219Zm-65.523 1.735a.219.219 0 0 1-.218-.218c0-11.031 8.975-20.006 20.007-20.006a.219.219 0 0 1 0 .437c-10.791 0-19.569 8.778-19.569 19.569a.219.219 0 0 1-.22.218Zm-43.378 0a.219.219 0 0 1-.218-.218c0-11.031 8.975-20.006 20.007-20.006a.219.219 0 0 1 0 .437c-10.791 0-19.569 8.778-19.569 19.569a.22.22 0 0 1-.22.218Zm45.014-25.978a.219.219 0 0 1-.219-.22c0-11.32 9.21-20.53 20.531-20.53a.219.219 0 1 1 0 .436c-11.08 0-20.092 9.014-20.092 20.093a.222.222 0 0 1-.22.22Zm111.937-68.34h-44.994v-3.914h44.994v3.914Zm-44.557-.44h44.121v-3.036h-44.121v3.037Zm-44.622.44h-44.994v-3.914h44.994v3.914Zm-44.556-.44h44.121v-3.036h-44.121v3.037Zm-29.746.44H29.332v-3.914h44.996v3.914Zm-44.56-.44h44.12v-3.036H29.77v3.037Zm226.388 127.951h-3.91v-44.996h3.91v44.996Zm-3.473-.437h3.037V107.48h-3.037v44.124Zm3.473-73.87h-3.91V32.74h3.91v44.994Zm-3.473-.437h3.037V33.178h-3.037v44.12Z" fill="#2C2C2C"/><path d="M237.811 21.057h-44.994V19.11h44.994v1.946Zm-44.557-.439h44.121v-1.07h-44.121v1.07Z" fill="#2C2C2C"/><path d="M235.913 21.057h-19.898V19.11h19.898v1.946Zm-19.463-.439h19.026v-1.07H216.45v1.07Zm-1.9.439h-19.898V19.11h19.898v1.946Zm-19.461-.439h19.026v-1.07h-19.026v1.07Zm-46.457.439h-44.994V19.11h44.994v1.946Zm-44.556-.439h44.121v-1.07h-44.121v1.07Z" fill="#2C2C2C"/><path d="M146.799 21.057h-19.897V19.11h19.897v1.946Zm-19.46-.439h19.023v-1.07h-19.023v1.07Zm-1.902.439h-19.898V19.11h19.898v1.946Zm-19.459-.439H125v-1.07h-19.022v1.07Zm-31.648.439H29.332V19.11h44.996v1.946Zm-44.56-.439h44.12v-1.07H29.77v1.07Z" fill="#2C2C2C"/><path d="M72.494 21.057H52.596V19.11h19.898v1.946Zm-19.46-.439h19.023v-1.07H53.034v1.07Zm-1.901.439h-19.9V19.11h19.9v1.946Zm-19.46-.439h19.023v-1.07H31.673v1.07Zm225.928 131.423h-1.877v-44.996h1.877v44.996Zm-1.442-.437h1.005V107.48h-1.005v44.124Z" fill="#2C2C2C"/><path d="M257.601 150.139h-1.877v-19.897h1.877v19.897Zm-1.442-.436h1.005v-19.024h-1.005v19.024Zm1.442-20.858h-1.877V108.88h1.877v19.965Zm-1.442-.435h1.005v-19.093h-1.005v19.093Zm1.442-50.676h-1.877V32.74h1.877v44.994Zm-1.442-.437h1.005V33.178h-1.005v44.12Z" fill="#2C2C2C"/><path d="M257.601 75.899h-1.877V55.935h1.877v19.964Zm-1.442-.439h1.005V56.372h-1.005V75.46Zm1.442-20.923h-1.877V34.639h1.877v19.898Zm-1.442-.439h1.005V35.076h-1.005v19.022ZM237.811 19.55h-44.994v-5.42h44.994v5.42Zm-44.557-.438h44.121V14.57h-44.121v4.543Zm-44.622.438h-44.994v-5.42h44.994v5.42Zm-44.556-.438h44.121V14.57h-44.121v4.543Zm-29.616.438H29.337v-5.42H74.46v5.42Zm-44.687-.438h44.25V14.57h-44.25v4.543Zm232.808 132.929h-5.417v-44.996h5.417v44.996Zm-4.982-.437h4.545V107.48h-4.545v44.124Z" fill="#2C2C2C"/><path d="M262.581 77.734h-5.417V32.74h5.417v44.994Zm-4.982-.437h4.545V33.178h-4.545v44.12ZM77.845 121.089h-2.49v48.097h2.49v-48.097Zm28.962 0h-2.424v48.097h2.424v-48.097Zm49.798 0h-2.489v48.097h2.489v-48.097Zm12.909 0h-2.491v48.097h2.491v-48.097Zm-2.492 33.681h-10.417v2.031h10.417v-2.031Zm-12.907 11.4h-47.308v3.016h47.308v-3.016Z" fill="#2C2C2C"/><path d="M169.514 118.665h-25.555v2.424h25.555v-2.424Zm-45.343 0h-23.522v2.424h23.522v-2.424Zm-43.311 0h-5.505v2.424h5.505v-2.424Zm88.654-1.768h-2.491v1.768h2.491v-1.768Zm0-67.82h-2.491v47.506h2.491V49.077Z" fill="#2C2C2C"/><path d="M167.023 92.65h-20.836v2.49h20.836v-2.49Zm-41.149 0H26.472v2.49h99.402v-2.49ZM26.47 24.31H6.685v30.928H26.47V24.31Zm76.144 144.876h-27.26v12.385h27.26v-12.385Zm-73.063 6.158H17.169v27.26H29.55v-27.26Zm222.919-6.158H102.614v6.162H252.47v-6.162Z" fill="#2C2C2C"/><path d="M26.475 49.077h-6.227v126.267h6.227V49.077ZM173.183 24.31h-19.789v24.77h19.789V24.31ZM80.336 179.982h-4.981v28.321h4.981v-28.321Z" fill="#2C2C2C"/><path d="M77.255 197.623h-5.57v4.981h5.57v-4.981Zm-34.07 0h-15.77v4.981h15.77v-4.981ZM193.038 13.17h-44.622v11.14h44.622V13.17Zm-89.178 0H74.24v11.14h29.62V13.17ZM0 24.311h29.551V13.17H0m263.608 0h-1.507v19.787h1.507V13.17Zm-2.487 2.423h-8.649v17.365h8.649V15.593Z" fill="#2C2C2C"/><path d="M262.099 14.613h-.982V32.96h.982V14.613Zm.002-1.443h-24.507v1.44h24.507v-1.44Zm-4.72 2.426h-19.789v8.715h19.789v-8.715Z" fill="#2C2C2C"/><path d="M261.119 14.613h-23.525v.98h23.525v-.98Zm2.49 137.206H252.47v29.752h11.139v-29.752Zm0-74.303H252.47v29.749h11.139v-29.75Z" fill="#2C2C2C"/></svg>