<svg width="37" height="38" viewBox="0 0 37 38" fill="none" xmlns="http://www.w3.org/2000/svg">
<path d="M19.2292 21.0139L13.1535 28.2243L15.577 8.45239L28.2233 23.8459L19.2292 21.0139ZM3.91124 10.4812C-0.517971 18.5411 2.42353 28.659 10.4803 33.0882C18.5386 37.5159 28.6581 34.5775 33.0888 26.5176C37.5165 18.4594 34.575 8.33985 26.5182 3.91064C18.4584 -0.515479 8.34044 2.42448 3.91124 10.4812ZM34.7091 27.4103C29.7881 36.3627 18.5416 39.6326 9.58919 34.7101C0.638278 29.7891 -2.63005 18.5441 2.29095 9.59169C7.2104 0.63769 18.4569 -2.63064 27.4093 2.2919C36.3618 7.21135 39.6301 18.4578 34.7091 27.4103Z" fill="#404F43"/>
</svg>
