<svg width="14" height="20" viewBox="0 0 14 20" fill="none" xmlns="http://www.w3.org/2000/svg">
<path d="M4.69532 19.75C4.69532 19.75 -1.10668 17.7302 0.546316 11.2518C1.70957 7.54825 4.20482 6.97675 6.23282 3.35425C6.25532 5.15425 4.82882 6.997 4.82882 6.997C4.82882 6.997 9.48557 3.481 8.35982 0.25C13.6631 4.14775 10.2101 7.8655 10.2101 7.8655C10.2101 7.8655 11.5916 6.74275 13.1291 6.67975C11.1686 10.8205 14.5331 11.6777 13.5753 15.2897C12.6176 18.9017 9.43082 19.7493 9.43082 19.7493C9.43082 19.7493 11.4468 18.097 11.8263 15.745C11.0126 17.0793 10.1658 17.3335 10.1658 17.3335C10.1658 17.3335 10.3376 16.102 10.0218 14.569C9.68357 12.9317 8.62907 12.2815 8.98457 9.34675C8.98457 9.34675 4.88582 12.7682 6.81257 16.9517C6.81257 16.9517 4.36157 15.4375 4.47332 12.9595C1.73207 16.4447 4.69532 19.75 4.69532 19.75Z" fill="#FC622E"/>
</svg>
