<svg viewBox="0 0 32 32" xmlns="http://www.w3.org/2000/svg">
<path d="M28.812 0H17H15H3.187C1.427 0 0 1.427 0 3.187V7.432V9.432V22.568V24.568V28.814C0 30.573 1.427 32 3.187 32H15H17H28.812C30.573 32 32 30.573 32 28.812V24.568V22.568V9.432V7.432V3.187C32 1.427 30.573 0 28.812 0ZM16 18.718C14.502 18.718 13.282 17.499 13.282 16C13.282 14.501 14.502 13.282 16 13.282C17.499 13.282 18.718 14.501 18.718 16C18.718 17.499 17.499 18.718 16 18.718ZM2 9.745C4.646 10.594 6.568 13.075 6.568 16C6.568 18.925 4.646 21.406 2 22.255V9.745ZM3.187 30C2.532 30 2 29.468 2 28.812V24.323C5.762 23.419 8.568 20.035 8.568 16C8.568 11.965 5.762 8.581 2 7.677V3.187C2 2.532 2.532 2 3.187 2H15V11.394C12.878 11.855 11.282 13.743 11.282 16C11.282 18.257 12.878 20.146 15 20.605V30H3.187ZM30 22.255C27.354 21.406 25.432 18.925 25.432 16C25.432 13.075 27.356 10.594 30 9.745V22.255ZM23.432 16C23.432 20.035 26.241 23.419 30 24.323V28.812C30 29.468 29.468 30 28.812 30H17V20.605C19.122 20.144 20.718 18.256 20.718 16C20.718 13.744 19.122 11.854 17 11.394V2H28.812C29.468 2 30 2.532 30 3.187V7.677C26.238 8.581 23.432 11.965 23.432 16Z"/>
</svg>
