<svg viewBox="0 0 34 36" xmlns="http://www.w3.org/2000/svg">
<path d="M30.608 8.9529C27.491 6.0229 23.195 5.8999 21.627 5.9659C21.637 5.8389 21.665 5.7169 21.665 5.5859C21.665 3.0099 19.576 0.920898 17 0.920898C14.424 0.920898 12.335 3.0099 12.335 5.5859C12.335 5.7169 12.362 5.8389 12.373 5.9669C10.803 5.9019 6.508 6.0239 3.392 8.9529C1.141 11.0679 0 14.1629 0 18.1519V19.4939C0 20.8449 1.262 21.9419 2.813 21.9419C2.858 21.9419 2.902 21.9319 2.947 21.9299L4.662 31.9109C4.864 33.0069 5.822 35.0779 7.994 35.0779H25.968C28.14 35.0779 29.097 33.0069 29.302 31.8979L31.015 21.9259C31.073 21.9289 31.128 21.9409 31.187 21.9409C32.738 21.9409 34 20.8429 34 19.4929V18.1509C34 14.1629 32.858 11.0679 30.608 8.9529ZM17 2.9209C18.47 2.9209 19.665 4.1159 19.665 5.5859C19.665 7.0559 18.47 8.2509 17 8.2509C15.53 8.2509 14.335 7.0559 14.335 5.5859C14.335 4.1159 15.53 2.9209 17 2.9209ZM27.333 31.5479C27.33 31.5639 27.021 33.0789 25.968 33.0789H22.887C23.053 32.6919 23.147 32.2669 23.147 31.8209V25.5169C23.147 24.9639 22.699 24.5169 22.147 24.5169C21.594 24.5169 21.147 24.9639 21.147 25.5169V31.8209C21.147 32.4829 20.608 33.0209 19.946 33.0209H14.055C13.393 33.0209 12.854 32.4829 12.854 31.8209V25.5169C12.854 24.9639 12.406 24.5169 11.854 24.5169C11.301 24.5169 10.854 24.9639 10.854 25.5169V31.8209C10.854 32.2669 10.947 32.6919 11.113 33.0789H7.995C6.944 33.0789 6.641 31.6049 6.632 31.5599L4.85 21.1889C4.851 21.1879 4.852 21.1869 4.853 21.1869L6.888 19.2499C6.89 19.2479 6.892 19.2459 6.895 19.2429C7.231 18.9819 7.918 18.9979 8.228 19.2729C8.234 19.2779 8.24 19.2829 8.246 19.2889L10.215 21.1659C10.228 21.1799 10.242 21.1929 10.256 21.2059C11.316 22.1529 13.194 22.1789 14.311 21.1849L16.317 19.2729C16.634 18.9919 17.341 18.9859 17.671 19.2579L19.719 21.2069C20.783 22.1549 22.688 22.1519 23.748 21.2059C23.763 21.1919 23.777 21.1789 23.791 21.1649L25.758 19.2869C25.764 19.2819 25.77 19.2769 25.776 19.2719C26.086 18.9969 26.775 18.9829 27.109 19.2409C27.112 19.2439 27.114 19.2469 27.117 19.2489L29.122 21.1549L27.333 31.5479ZM32 19.4939C32 19.6729 31.676 19.9419 31.187 19.9419C30.918 19.9419 30.663 19.8569 30.528 19.7379L28.548 17.8539C28.525 17.8289 28.499 17.8029 28.473 17.7799C27.428 16.8489 25.569 16.8299 24.498 17.7329C24.47 17.7539 24.442 17.7779 24.417 17.8029L22.402 19.7259C22.076 19.9989 21.338 19.9739 21.071 19.7379L19.067 17.8289C19.05 17.8119 19.034 17.7959 19.015 17.7799C17.951 16.8329 16.076 16.8089 14.962 17.8019L12.954 19.7149C12.638 19.9959 11.924 19.9999 11.6 19.7269L9.583 17.8019C9.557 17.7779 9.53 17.7549 9.502 17.7339C8.433 16.8309 6.575 16.8479 5.528 17.7789C5.501 17.8019 5.475 17.8279 5.451 17.8539L3.497 19.7139C3.336 19.8569 3.08 19.9419 2.812 19.9419C2.323 19.9419 1.999 19.6719 1.999 19.4939V18.1519C1.999 14.7369 2.928 12.1319 4.76 10.4099C7.46 7.8719 11.351 7.9029 12.483 7.9729C12.655 7.9849 12.812 7.9409 12.958 7.8729C13.76 9.2849 15.26 10.2499 17 10.2499C18.741 10.2499 20.241 9.2849 21.043 7.8709C21.189 7.9379 21.346 7.9829 21.516 7.9729C22.643 7.9009 26.537 7.8719 29.239 10.4099C31.07 12.1329 32 14.7369 32 18.1519V19.4939Z"/>
<path d="M12.5879 12.8269C12.0349 12.8269 11.5879 13.2739 11.5879 13.8269V15.1559C11.5879 15.7089 12.0349 16.1559 12.5879 16.1559C13.1399 16.1559 13.5879 15.7089 13.5879 15.1559V13.8269C13.5879 13.2739 13.1399 12.8269 12.5879 12.8269Z"/>
<path d="M21.4131 12.8269C20.8601 12.8269 20.4131 13.2739 20.4131 13.8269V15.1559C20.4131 15.7089 20.8601 16.1559 21.4131 16.1559C21.9651 16.1559 22.4131 15.7089 22.4131 15.1559V13.8269C22.4131 13.2739 21.9651 12.8269 21.4131 12.8269Z"/>
</svg>
