<svg viewBox="0 0 34 32" xmlns="http://www.w3.org/2000/svg">
<path d="M33 8.61194H27.459L24.775 1.33294C24.584 0.813943 24.007 0.549943 23.49 0.739943C22.972 0.930943 22.707 1.50694 22.898 2.02394L25.328 8.61194H8.674L11.103 2.02394C11.293 1.50594 11.029 0.930943 10.51 0.739943C9.994 0.549943 9.418 0.813943 9.226 1.33294L6.541 8.61194H1C0.448 8.61194 0 9.05894 0 9.61194V14.2339C0 14.7869 0.448 15.2339 1 15.2339H2.33L3.924 27.2549C4.281 29.9539 5.69 31.3219 8.107 31.3219H25.895C28.313 31.3219 29.719 29.9539 30.078 27.2539L31.671 15.2329H33C33.553 15.2329 34 14.7859 34 14.2329V9.61094C34 9.05994 33.553 8.61194 33 8.61194ZM28.095 26.9919C27.836 28.9409 27.092 29.3229 25.895 29.3229H8.106C6.908 29.3229 6.165 28.9409 5.906 26.9929L4.347 15.2339H29.653L28.095 26.9919ZM32 13.2339H2V10.6119H32V13.2339Z"/>
<path d="M10.6182 26.8349C11.1702 26.8349 11.6182 26.3879 11.6182 25.8349V18.4559C11.6182 17.9029 11.1702 17.4559 10.6182 17.4559C10.0662 17.4559 9.61816 17.9029 9.61816 18.4559V25.8349C9.61816 26.3879 10.0662 26.8349 10.6182 26.8349Z"/>
<path d="M17 26.8349C17.553 26.8349 18 26.3879 18 25.8349V18.4559C18 17.9029 17.553 17.4559 17 17.4559C16.448 17.4559 16 17.9029 16 18.4559V25.8349C16 26.3879 16.448 26.8349 17 26.8349Z"/>
<path d="M23.3828 26.8349C23.9358 26.8349 24.3828 26.3879 24.3828 25.8349V18.4559C24.3828 17.9029 23.9358 17.4559 23.3828 17.4559C22.8298 17.4559 22.3828 17.9029 22.3828 18.4559V25.8349C22.3828 26.3879 22.8298 26.8349 23.3828 26.8349Z"/>
</svg>
