<svg viewBox="0 0 34 34" xmlns="http://www.w3.org/2000/svg">
<path d="M32.5 0H25.301C23.268 0 21.472 1.036 20.414 2.608C19.355 1.036 17.56 0 15.526 0H8.327C7.775 0 7.327 0.447 7.327 1V14.986C7.327 15.137 7.367 15.278 7.427 15.406L0.5 18.642L4.286 20.411C4.218 20.546 4.17 20.693 4.17 20.855V28.239C4.17 31.469 8.444 34.001 13.899 34.001C19.355 34.001 23.629 31.47 23.629 28.239V24.73C24.148 24.482 24.716 24.351 25.3 24.351H32.5C33.052 24.351 33.5 23.903 33.5 23.351V1C33.5 0.447 33.052 0 32.5 0ZM9.327 2H15.526C17.67 2 19.414 3.744 19.414 5.888V14.815L14.055 12.312L9.327 14.52V2ZM14.055 14.519L22.884 18.642L14.055 22.765L5.227 18.642L14.055 14.519ZM13.899 32C9.344 32 6.17 30.018 6.17 28.238V21.29L14.055 24.973L21.63 21.435V28.239C21.63 30.018 18.455 32 13.899 32ZM31.5 22.352H25.301C24.731 22.352 24.168 22.434 23.63 22.593V20.968C23.63 20.817 23.591 20.677 23.53 20.548L27.61 18.642L21.314 15.702C21.375 15.573 21.414 15.433 21.414 15.282V5.888C21.414 3.744 23.157 2 25.301 2H31.5V22.352Z"/>
</svg>