<svg viewBox="0 0 34 34" xmlns="http://www.w3.org/2000/svg">
<path d="M29.84 12.945H29.584V12.503C29.584 8.871 28.008 5.607 25.51 3.319C25.481 3.289 25.465 3.252 25.431 3.224C25.412 3.209 25.389 3.205 25.369 3.193C23.143 1.215 20.214 0 16.998 0C10.058 0 4.41101 5.608 4.41101 12.503V12.945H4.15701C1.86301 12.945 -0.00399358 14.799 6.41545e-06 17.165C0.0600064 17.836 0.688006 23.728 4.15701 23.728H4.61101C5.67501 29.645 10.851 34 16.998 34C23.144 34 28.318 29.645 29.384 23.729H29.84C33.305 23.729 33.936 17.837 34 17.077C34 14.799 32.134 12.945 29.84 12.945ZM29.84 21.74H28.518C28.006 21.74 27.577 22.125 27.523 22.629C26.948 27.979 22.423 32.014 16.999 32.014C11.573 32.014 7.04801 27.979 6.47301 22.629C6.41901 22.125 5.96601 21.74 5.45401 21.74H4.15701C2.93401 21.74 2.14401 18.646 1.99601 17.076C1.99601 15.894 2.96601 14.931 4.15701 14.931H5.41101C5.96301 14.931 6.41101 14.487 6.41101 13.938V12.502C6.41101 6.703 11.16 1.985 16.997 1.985C19.392 1.985 21.597 2.789 23.372 4.126C18.358 9.795 12.905 10.541 10.729 10.585C10.176 10.597 9.73801 11.051 9.74901 11.599C9.76001 12.14 10.206 12.572 10.749 12.572C10.756 12.572 10.763 12.572 10.77 12.572C13.212 12.522 19.317 11.701 24.845 5.469C26.54 7.334 27.583 9.796 27.583 12.502V13.938C27.583 14.487 28.068 14.931 28.62 14.931H29.839C31.029 14.931 31.999 15.894 32.003 16.988C31.854 18.646 31.066 21.74 29.84 21.74Z"/>
<path d="M12.7861 19.02C13.3381 19.02 13.7861 18.577 13.7861 18.027V16.685C13.7861 16.136 13.3381 15.692 12.7861 15.692C12.2341 15.692 11.7861 16.136 11.7861 16.685V18.027C11.7861 18.576 12.2341 19.02 12.7861 19.02Z"/>
<path d="M21.21 15.691C20.658 15.691 20.21 16.135 20.21 16.684V18.026C20.21 18.576 20.658 19.019 21.21 19.019C21.762 19.019 22.21 18.576 22.21 18.026V16.684C22.21 16.136 21.762 15.691 21.21 15.691Z"/>
<path d="M21.2101 23.236H12.7861C12.2341 23.236 11.7861 23.681 11.7861 24.23C11.7861 27.085 14.1241 29.408 16.9981 29.408C19.8721 29.408 22.2101 27.086 22.2101 24.23C22.2101 23.682 21.7621 23.236 21.2101 23.236ZM16.9981 27.42C15.5761 27.42 14.3671 26.498 13.9451 25.223H20.0501C19.6291 26.498 18.4201 27.42 16.9981 27.42Z"/>
</svg>