<svg viewBox="0 0 34 34" xmlns="http://www.w3.org/2000/svg">
<path d="M33 15.1741H31.759V2.54511C31.759 1.40911 30.835 0.485107 29.7 0.485107H4.3C3.164 0.485107 2.24 1.40911 2.24 2.54511V15.1741H1C0.447 15.1741 0 15.6221 0 16.1741C0 16.7271 0.447 17.1741 1 17.1741H3.24C3.793 17.1741 4.24 16.7271 4.24 16.1741L4.28 7.04811H16V20.5861H4.3C3.715 20.5861 3.24 21.0611 3.24 21.6461V29.5001V30.3381V32.4561C3.24 33.0411 3.715 33.5161 4.3 33.5161H7.256C7.841 33.5161 8.315 33.0411 8.315 32.4561V31.3971H25.685V32.4561C25.685 33.0411 26.16 33.5161 26.745 33.5161H29.7C30.285 33.5161 30.759 33.0411 30.759 32.4561V30.3381V29.5001V21.6461C30.759 21.0611 30.285 20.5861 29.7 20.5861H18V7.04811H29.759V16.1741C29.759 16.7271 30.207 17.1741 30.759 17.1741H33C33.552 17.1741 34 16.7271 34 16.1741C34 15.6221 33.552 15.1741 33 15.1741ZM28.759 22.5861V29.4991V30.3371V31.5151H27.685V31.3971C27.685 30.2931 26.789 29.3971 25.685 29.3971H8.315C7.211 29.3971 6.315 30.2931 6.315 31.3971V31.5151H5.24V30.3371V29.4991V22.5861H28.759ZM4.288 5.04811L4.3 2.48611L29.759 2.54611V5.04911H4.288V5.04811Z"/>
<path d="M12.7529 27.7852H21.2459C21.7989 27.7852 22.2459 27.3382 22.2459 26.7852C22.2459 26.2332 21.7989 25.7852 21.2459 25.7852H12.7529C12.1999 25.7852 11.7529 26.2332 11.7529 26.7852C11.7529 27.3382 12.1999 27.7852 12.7529 27.7852Z"/>
<path d="M7.93359 25.7122H9.47759C10.0306 25.7122 10.4776 25.2642 10.4776 24.7122C10.4776 24.1592 10.0306 23.7122 9.47759 23.7122H7.93359C7.38059 23.7122 6.93359 24.1592 6.93359 24.7122C6.93359 25.2642 7.38059 25.7122 7.93359 25.7122Z"/>
<path d="M24.5225 25.7122H26.0665C26.6185 25.7122 27.0665 25.2642 27.0665 24.7122C27.0665 24.1592 26.6185 23.7122 26.0665 23.7122H24.5225C23.9695 23.7122 23.5225 24.1592 23.5225 24.7122C23.5225 25.2642 23.9705 25.7122 24.5225 25.7122Z"/>
</svg>