<svg viewBox="0 0 35 34" xmlns="http://www.w3.org/2000/svg">
<path d="M34.611 31.8719C27.8 26.6069 21.625 24.1699 16.501 23.1999C17.315 21.6649 18.531 19.9179 19.918 18.1399C20.842 18.4289 22.289 18.7799 23.928 18.7799C28.573 18.7799 34.643 15.9509 33.946 0.842937V0.335938C12.006 4.98894 16.74 14.5679 18.314 16.9489C17.344 18.1959 16.444 19.4379 15.697 20.6179C14.113 13.9999 8.38204 9.02894 8.11204 8.79894C7.69204 8.43994 7.06104 8.48794 6.70204 8.90794C6.34304 9.32794 6.39205 9.95894 6.81105 10.3179C6.85705 10.3569 9.97804 13.0659 12.12 16.9569C10.801 17.4219 8.30804 17.9999 6.31504 16.6959C3.90704 15.1209 2.78004 11.0949 3.03604 5.02694C8.01504 5.46494 13.027 9.13894 13.08 9.17894C13.523 9.50694 14.15 9.41494 14.478 8.97094C14.807 8.52794 14.715 7.90194 14.271 7.57294C14.019 7.38494 8.02604 2.98394 2.08905 2.98394C1.56205 2.98394 1.12504 3.39394 1.09104 3.91994C0.612044 11.4029 2.00004 16.2649 5.21904 18.3699C6.50704 19.2119 7.90204 19.4929 9.19304 19.4929C10.729 19.4929 12.11 19.0959 12.987 18.7689C13.523 20.0499 13.915 21.4149 14.043 22.8319C6.59204 22.0219 1.88604 24.2699 1.55204 24.4359C1.05804 24.6829 0.857045 25.2839 1.10304 25.7779C1.34904 26.2719 1.95004 26.4729 2.44404 26.2269C2.57404 26.1609 15.776 19.8399 33.386 33.4529C33.568 33.5949 33.782 33.6619 33.997 33.6619C34.296 33.6619 34.591 33.5279 34.788 33.2729C35.129 32.8379 35.049 32.2089 34.611 31.8719ZM19.056 10.5329C19.856 8.25594 22.789 5.15094 31.998 2.83894C32.033 8.50794 30.965 12.6249 28.877 14.8129C27.631 16.1189 25.965 16.7809 23.928 16.7809C22.938 16.7809 22.014 16.6239 21.283 16.4459C25.539 11.3069 30.574 6.43494 30.652 6.35994C31.05 5.97694 31.062 5.34394 30.679 4.94594C30.296 4.54994 29.661 4.53794 29.265 4.92094C28.943 5.23194 23.931 10.0819 19.648 15.2829C19.076 14.2299 18.392 12.4239 19.056 10.5329Z"/>
<path d="M1.68278 29.4849C1.15978 29.6599 0.876784 30.2259 1.05178 30.7499C1.22678 31.2739 1.79378 31.5539 2.31678 31.3829C2.42278 31.3479 12.9458 27.9419 20.6608 33.4759C20.8388 33.6019 21.0418 33.6639 21.2428 33.6639C21.5548 33.6639 21.8618 33.5179 22.0568 33.2469C22.3788 32.7979 22.2758 32.1729 21.8268 31.8509C13.2678 25.7119 2.15179 29.3279 1.68278 29.4849Z"/>
</svg>
