<svg width="24" height="15" viewBox="0 0 24 15" fill="none" xmlns="http://www.w3.org/2000/svg">
<path d="M18.8384 12.917V14.5836H23.2137V14.2086H21.4637V4.66675H18.832V5.0417H18.8384V10.8334V12.917Z" fill="white"/>
<path d="M17.9739 14.2944C17.5375 14.5666 17.0185 14.542 16.6297 14.542C15.6921 14.542 15.713 13.2085 15.713 12.7711V4.66675H11.3379V5.0417H13.0879V11.0211C13.0879 11.9794 13.1295 15.0003 16.1504 15.0003C16.9067 15.0003 17.4687 14.7477 17.8872 14.3851L17.9739 14.2944Z" fill="white"/>
<path d="M5.10055 8.26606V0.579368V0H0V0.374949H2.18743V14.2085H0V14.5834H5.10055V8.26606Z" fill="white"/>
<path d="M11.338 14.5832V9.2085H10.963C10.9252 11.1713 10.0153 14.0575 7.02539 14.5832H11.338Z" fill="white"/>
</svg>
