<svg width="40" height="37" viewBox="0 0 40 37" fill="none" xmlns="http://www.w3.org/2000/svg">
<path d="M1 35.083H39" stroke="#2C2C2C" stroke-width="2" stroke-miterlimit="10" stroke-linecap="round" stroke-linejoin="round"/>
<path d="M26.0026 18.7261C26.0026 17.6701 24.8396 16.8151 23.4036 16.8151C22.0886 16.8151 21.0136 17.5361 20.8416 18.4681C20.8306 18.5011 20.8066 18.5311 20.8066 18.5661V30.3721C20.8066 30.6741 21.2406 30.9181 21.7746 30.9181H23.5506C24.0846 30.9181 24.5176 30.6741 24.5176 30.3721V20.4451C25.3926 20.1381 26.0026 19.4851 26.0026 18.7261Z" stroke="#2C2C2C" stroke-width="2" stroke-miterlimit="10" stroke-linecap="round" stroke-linejoin="round"/>
<path d="M3.05469 18.7261C3.05469 17.6701 4.21769 16.8151 5.65369 16.8151C6.96869 16.8151 8.04369 17.5361 8.21569 18.4681C8.22669 18.5011 8.25069 18.5311 8.25069 18.5661V30.3721C8.25069 30.6741 7.81669 30.9181 7.28269 30.9181H5.50669C4.97269 30.9181 4.53969 30.6741 4.53969 30.3721V20.4451C3.66469 20.1381 3.05469 19.4851 3.05469 18.7261Z" stroke="#2C2C2C" stroke-width="2" stroke-miterlimit="10" stroke-linecap="round" stroke-linejoin="round"/>
<path d="M8.25977 29.6881H20.7938" stroke="#2C2C2C" stroke-width="2" stroke-miterlimit="10" stroke-linejoin="round"/>
<path d="M20.803 24.003C20.803 24.304 20.506 24.548 20.142 24.548H8.91295C8.54795 24.548 8.25195 24.304 8.25195 24.003V21.591C8.25195 21.29 8.54795 21.046 8.91295 21.046H20.142C20.506 21.046 20.803 21.29 20.803 21.591V24.003Z" stroke="#2C2C2C" stroke-width="2" stroke-miterlimit="10" stroke-linejoin="round"/>
<path d="M6.73828 16.8311V15.6721C6.73828 13.8451 8.41628 12.3621 10.4853 12.3621H18.5663C20.6363 12.3621 22.3143 13.8441 22.3143 15.6721V16.8311" stroke="#2C2C2C" stroke-width="2" stroke-miterlimit="10" stroke-linejoin="round"/>
<path d="M36.5664 11.75H28.3164L29.3164 1H35.5664L36.5664 11.75Z" fill="#C4DDC9" stroke="#2C2C2C" stroke-width="2" stroke-miterlimit="10" stroke-linecap="round" stroke-linejoin="round"/>
<path d="M32.4395 11.771V27.771" stroke="#2C2C2C" stroke-width="2" stroke-miterlimit="10" stroke-linecap="round" stroke-linejoin="round"/>
<path d="M30.4727 30.917H34.4097" stroke="#2C2C2C" stroke-width="2" stroke-miterlimit="10" stroke-linecap="round" stroke-linejoin="round"/>
</svg>
