<svg width="40" height="37" viewBox="0 0 40 37" fill="none" xmlns="http://www.w3.org/2000/svg">
<path d="M1 35.166H39" stroke="#2C2C2C" stroke-width="2" stroke-miterlimit="10" stroke-linecap="round" stroke-linejoin="round"/>
<path d="M34.3747 24.74H25.3027V30.958H34.3747V24.74Z" stroke="#2C2C2C" stroke-width="2" stroke-miterlimit="10" stroke-linecap="round" stroke-linejoin="round"/>
<path d="M26.8066 24.7399V22.4719C26.8066 20.7969 28.1636 19.4399 29.8386 19.4399C31.5136 19.4399 32.8706 20.7969 32.8706 22.4719V24.7399" stroke="#2C2C2C" stroke-width="2" stroke-miterlimit="10" stroke-linecap="round" stroke-linejoin="round"/>
<path d="M20.376 31C18.823 31 17.325 30.764 15.916 30.326C9.81 28.427 5.375 22.731 5.375 16C5.375 7.716 12.091 1 20.376 1C28.66 1 35.376 7.716 35.376 16" stroke="#2C2C2C" stroke-width="2" stroke-miterlimit="10" stroke-linecap="round" stroke-linejoin="round"/>
<path d="M18.4355 19.881V12.12L26.2186 16L18.4355 19.881Z" fill="#C4DDC9" stroke="#2C2C2C" stroke-width="2" stroke-miterlimit="10" stroke-linecap="round" stroke-linejoin="round"/>
</svg>
