<svg width="40" height="37" viewBox="0 0 40 37" fill="none" xmlns="http://www.w3.org/2000/svg">
<path d="M1 35.083H39" stroke="#2C2C2C" stroke-width="2" stroke-miterlimit="10" stroke-linecap="round" stroke-linejoin="round"/>
<path d="M6.00201 24.433C7.61469 24.433 8.92203 23.1257 8.92203 21.513C8.92203 19.9003 7.61469 18.593 6.00201 18.593C4.38934 18.593 3.08203 19.9003 3.08203 21.513C3.08203 23.1257 4.38934 24.433 6.00201 24.433Z" stroke="#2C2C2C" stroke-width="2" stroke-miterlimit="10"/>
<path d="M34.8321 30.8361C35.9842 30.8361 36.9181 29.9021 36.9181 28.7501C36.9181 27.598 35.9842 26.6641 34.8321 26.6641C33.68 26.6641 32.7461 27.598 32.7461 28.7501C32.7461 29.9021 33.68 30.8361 34.8321 30.8361Z" fill="#C4DDC9" stroke="#2C2C2C" stroke-width="2" stroke-miterlimit="10"/>
<path d="M30.4083 9.344C32.7125 9.344 34.5803 7.47613 34.5803 5.172C34.5803 2.86787 32.7125 1 30.4083 1C28.1042 1 26.2363 2.86787 26.2363 5.172C26.2363 7.47613 28.1042 9.344 30.4083 9.344Z" fill="#C4DDC9" stroke="#2C2C2C" stroke-width="2" stroke-miterlimit="10"/>
<path d="M19.794 22.6041C21.637 22.6041 23.131 21.11 23.131 19.2671C23.131 17.4241 21.637 15.9301 19.794 15.9301C17.9511 15.9301 16.457 17.4241 16.457 19.2671C16.457 21.11 17.9511 22.6041 19.794 22.6041Z" stroke="#2C2C2C" stroke-width="2" stroke-miterlimit="10"/>
<path d="M9.89569 12.7519C13.1216 12.7519 15.7367 10.1368 15.7367 6.91095C15.7367 3.68505 13.1216 1.06995 9.89569 1.06995C6.6698 1.06995 4.05469 3.68505 4.05469 6.91095C4.05469 10.1368 6.6698 12.7519 9.89569 12.7519Z" fill="#C4DDC9" stroke="#2C2C2C" stroke-width="2" stroke-miterlimit="10"/>
<path d="M16.5195 20.224L8.85352 20.68" stroke="#2C2C2C" stroke-width="2" stroke-miterlimit="10"/>
<path d="M13.8418 11.255L17.5028 16.746" stroke="#2C2C2C" stroke-width="2" stroke-miterlimit="10"/>
<path d="M22.498 21.25L33.0981 27.478" stroke="#2C2C2C" stroke-width="2" stroke-miterlimit="10"/>
<path d="M27.6183 8.35803L22.0273 16.719" stroke="#2C2C2C" stroke-width="2" stroke-miterlimit="10"/>
</svg>
