<svg width="40" height="37" viewBox="0 0 40 37" fill="none" xmlns="http://www.w3.org/2000/svg">
<path d="M1 35.083H39" stroke="#2C2C2C" stroke-width="2" stroke-miterlimit="10" stroke-linecap="round" stroke-linejoin="round"/>
<path d="M6.55696 14.662C6.54696 14.498 6.54297 14.333 6.54297 14.167C6.54297 9.381 10.423 5.5 15.209 5.5C16.377 5.5 17.492 5.731 18.51 6.151" stroke="#2C2C2C" stroke-width="2" stroke-miterlimit="10" stroke-linecap="round" stroke-linejoin="round"/>
<path d="M21.541 20.083C19.96 21.776 17.7069 22.834 15.2079 22.834C14.4909 22.834 13.794 22.747 13.127 22.582" stroke="#2C2C2C" stroke-width="2" stroke-miterlimit="10" stroke-linecap="round" stroke-linejoin="round"/>
<path d="M38.126 11.417C38.126 17.169 33.462 21.834 27.709 21.834C25.453 21.834 23.365 21.117 21.66 19.898C19.015 18.009 17.292 14.914 17.293 11.417C17.293 5.664 21.957 1 27.709 1C33.462 1 38.126 5.664 38.126 11.417Z" fill="#C4DDC9" stroke="#2C2C2C" stroke-width="2" stroke-miterlimit="10" stroke-linecap="round" stroke-linejoin="round"/>
<path d="M13.375 20.417C13.375 21.163 13.233 21.876 12.975 22.53C12.132 24.66 10.055 26.167 7.625 26.167C4.45 26.167 1.875 23.592 1.875 20.417C1.875 17.242 4.45 14.667 7.625 14.667C10.8 14.667 13.375 17.242 13.375 20.417Z" stroke="#2C2C2C" stroke-width="2" stroke-miterlimit="10" stroke-linecap="round" stroke-linejoin="round"/>
<path d="M27.707 11.417V31" stroke="#2C2C2C" stroke-width="2" stroke-miterlimit="10" stroke-linecap="round" stroke-linejoin="round"/>
<path d="M7.61523 20.422V31" stroke="#2C2C2C" stroke-width="2" stroke-miterlimit="10" stroke-linecap="round" stroke-linejoin="round"/>
</svg>
