<svg xmlns="http://www.w3.org/2000/svg" viewBox="0 0 11.6 12.8">
<path class="st0" d="M0.5,9.5C0,9.7,0,10,0,10.2c0,0.2,0,0.4,0,0.6c0,0.2,0.1,0.5,0.4,0.8c0.3,0.3,1.1,1.1,2.6,1.1c1.5,0,3-1.1,3.2-1.3c0.2-0.2,3.4-2.2,4.7-5.4c1-2.6,0.8-3.2,0.8-3.8c-0.1-0.6-0.7-1.9-1.5-2.1C9.4,0,8.8,0,8.7,0C8.5,0.1,8.4,0.3,8.3,0.6C8.1,1,7.4,2.5,7.3,2.8C7.2,3.1,7.1,3.3,7.4,3.5c0.3,0.2,1,0.8,1.2,1c0.2,0.2,0.2,0.4,0.1,0.7C8.6,5.5,8.3,6.5,7.2,7.7C6.4,8.6,5.4,9.3,5.1,9.4c-0.3,0.2-0.5,0-0.6-0.1C4.3,9.2,4.1,9,3.9,8.8C3.7,8.7,3.6,8.6,3.4,8.5C3.2,8.4,3,8.5,2.8,8.5C2.7,8.6,1.2,9.2,0.5,9.5z"/>
</svg>
