<svg width="15" height="19" viewBox="0 0 15 19" fill="none" xmlns="http://www.w3.org/2000/svg">
<path d="M15 7.58715C15 13.1701 7.50112 19 7.50112 19C7.50112 19 0 13.1704 0 7.58715C0 3.39741 3.35817 0 7.5008 0C11.6418 0.000324459 15 3.39741 15 7.58715Z" fill="#404F43"/>
<path d="M3.85886 8.9808C3.50823 8.63036 3.33301 8.19341 3.33301 7.67004C3.33301 7.14668 3.50823 6.70982 3.85886 6.35929C4.2094 6.00875 4.64635 5.83344 5.16962 5.83344C5.69298 5.83344 6.12984 6.00875 6.48047 6.35929C6.83101 6.70982 7.00632 7.14677 7.00632 7.67004C7.00632 8.19341 6.83101 8.63036 6.48047 8.9808C6.12994 9.33143 5.69298 9.50675 5.16962 9.50675C4.64635 9.50675 4.2094 9.33143 3.85886 8.9808ZM4.21867 6.7189C3.96372 6.97394 3.8363 7.29093 3.8363 7.66995C3.8363 8.04907 3.96372 8.36615 4.21867 8.62099C4.47361 8.87603 4.7906 9.00346 5.16971 9.00346C5.54883 9.00346 5.86581 8.87603 6.12076 8.62099C6.3757 8.36615 6.50313 8.04916 6.50313 7.66995C6.50313 7.29093 6.3757 6.97394 6.12076 6.7189C5.86581 6.46396 5.54883 6.33654 5.16971 6.33654C4.7906 6.33654 4.47352 6.46396 4.21867 6.7189Z" fill="white"/>
<path d="M7.95049 9.50666H7.42578V5.83325H8.49622L9.54582 9.50666L10.5953 5.83325H11.6659V9.50666H11.1412V5.83325L10.0916 9.50666H8.99999L7.95049 5.83325V9.50666Z" fill="white"/>
</svg>
