<svg width="135" height="175" viewBox="0 0 135 175" fill="none" xmlns="http://www.w3.org/2000/svg">
<path d="M72.5308 154.031L73.6825 152.822L78.7448 157.656L78.1104 158.322L73.4174 153.84L76.2622 160.263L75.345 161.226L68.8256 158.705L73.5038 163.16L72.8693 163.826L67.8001 158.999L68.9517 157.79L75.4302 160.368L72.5308 154.031ZM78.7855 150.015L79.7303 149.023L83.5249 152.637L82.9112 153.281L79.5727 150.102L80.8216 155.475L79.8769 156.467L76.0822 152.854L76.6959 152.209L80.0344 155.388L78.7855 150.015ZM83.3842 145.186L84.0186 144.52L87.8133 148.133L87.1789 148.799L85.6074 147.303C85.1801 147.955 84.7825 148.474 84.4147 148.86C83.4447 149.879 82.53 149.979 81.6706 149.16L80.5844 148.126L81.2119 147.467L82.2185 148.426C82.513 148.706 82.8082 148.821 83.104 148.772C83.3951 148.718 83.7176 148.504 84.0716 148.133C84.4026 147.785 84.7335 147.336 85.0643 146.786L83.3842 145.186ZM88.0189 140.319L88.7085 139.595L91.3099 145.317C91.5832 145.89 91.7052 146.347 91.6758 146.687C91.6464 147.028 91.4386 147.4 91.0524 147.806C90.8915 147.975 90.7301 148.125 90.5683 148.256L90.0541 147.767C90.2065 147.636 90.3517 147.498 90.4896 147.353C90.7103 147.121 90.8299 146.904 90.8486 146.7C90.8672 146.497 90.7966 146.214 90.6368 145.85L90.4274 145.388L90.1033 145.728L84.6674 143.838L85.357 143.114L90.2819 144.932L88.0189 140.319ZM91.3655 136.631C91.8942 136.075 92.4956 135.797 93.1699 135.794C93.8441 135.792 94.4903 136.085 95.1082 136.674C95.7262 137.262 96.0505 137.893 96.0811 138.567C96.1117 139.24 95.8626 139.855 95.3339 140.41C95.0075 140.752 94.6456 140.992 94.2481 141.129C93.8504 141.257 93.4474 141.265 93.0392 141.152L95.2334 143.241L94.599 143.908L89.3559 138.915L89.9421 138.299L90.7749 139.092C90.6089 138.667 90.5797 138.244 90.6872 137.821C90.79 137.394 91.0161 136.998 91.3655 136.631ZM94.6405 140.108C95.0405 139.688 95.2249 139.229 95.1938 138.73C95.1626 138.221 94.9248 137.755 94.4807 137.333C94.0365 136.91 93.5621 136.697 93.0575 136.695C92.5527 136.684 92.1003 136.889 91.7003 137.309C91.2957 137.733 91.1114 138.198 91.1473 138.701C91.1784 139.2 91.416 139.661 91.8601 140.084C92.3043 140.507 92.7788 140.724 93.2836 140.736C93.7836 140.742 94.2359 140.533 94.6405 140.108ZM96.6926 131.211L97.6373 130.218L101.432 133.832L100.818 134.477L97.4798 131.297L98.7287 136.671L97.784 137.663L93.9893 134.049L94.603 133.405L97.9415 136.584L96.6926 131.211ZM101.546 126.113L102.174 125.454L105.969 129.068L105.341 129.727L103.676 128.141L101.393 130.538L103.058 132.124L102.424 132.79L98.6294 129.177L99.2638 128.51L100.85 130.021L103.132 127.624L101.546 126.113ZM109.211 123.067C109.586 123.563 109.729 124.099 109.64 124.676C109.55 125.245 109.264 125.782 108.781 126.289C108.183 126.917 107.538 127.251 106.846 127.291C106.154 127.322 105.491 127.037 104.859 126.434C104.226 125.832 103.911 125.187 103.913 124.498C103.91 123.805 104.203 123.15 104.792 122.532C105.265 122.034 105.781 121.725 106.339 121.603C106.897 121.48 107.426 121.588 107.924 121.925L107.368 122.61C107.024 122.402 106.668 122.34 106.303 122.424C105.937 122.508 105.605 122.707 105.306 123.021C104.915 123.432 104.733 123.884 104.759 124.378C104.785 124.873 105.028 125.339 105.486 125.775C105.945 126.212 106.422 126.431 106.917 126.434C107.417 126.431 107.867 126.219 108.267 125.799C108.575 125.476 108.757 125.125 108.814 124.746C108.871 124.368 108.782 124.007 108.547 123.663L109.211 123.067ZM114.115 120.513L110.877 120.578L110.208 121.281L111.874 122.867L111.24 123.533L107.445 119.919L108.079 119.253L109.694 120.791L110.356 120.096L110.272 116.95L111.058 116.125L111.014 119.811L114.95 119.637L114.115 120.513ZM114.445 112.569L115.39 111.577L119.184 115.19L118.57 115.835L115.232 112.656L116.481 118.029L115.536 119.021L111.741 115.407L112.355 114.763L115.694 117.942L114.445 112.569ZM118.241 107.045C118.231 107.403 118.049 107.768 117.695 108.14C117.341 108.512 116.985 108.712 116.628 108.739C116.27 108.757 115.934 108.631 115.621 108.361L116.056 107.904C116.233 108.046 116.431 108.119 116.648 108.123C116.87 108.123 117.091 108.006 117.311 107.775C117.532 107.543 117.635 107.319 117.62 107.102C117.61 106.881 117.532 106.682 117.386 106.507L117.821 106.051C118.106 106.35 118.247 106.681 118.241 107.045ZM119.085 107.696L120.03 106.704L123.824 110.317L123.211 110.962L119.872 107.783L121.121 113.156L120.176 114.148L116.382 110.535L116.995 109.89L120.334 113.069L119.085 107.696ZM77.6337 168.626L81.1301 164.954L84.9248 168.568L84.2972 169.227L81.0456 166.13L78.8113 168.477L82.0629 171.573L81.4284 172.239L77.6337 168.626ZM84.1419 161.617C84.6706 161.062 85.2721 160.783 85.9463 160.781C86.6206 160.779 87.2667 161.072 87.8847 161.66C88.5026 162.249 88.8269 162.88 88.8575 163.553C88.8881 164.227 88.6391 164.841 88.1104 165.396C87.784 165.739 87.422 165.979 87.0246 166.116C86.6269 166.244 86.2239 166.251 85.8156 166.139L88.0099 168.228L87.3754 168.894L82.1324 163.901L82.7186 163.286L83.5514 164.079C83.3854 163.654 83.3561 163.23 83.4637 162.808C83.5664 162.381 83.7925 161.984 84.1419 161.617ZM87.4169 165.095C87.8169 164.675 88.0014 164.215 87.9703 163.716C87.939 163.208 87.7013 162.742 87.2571 162.319C86.813 161.896 86.3386 161.684 85.834 161.682C85.3292 161.671 84.8767 161.875 84.4768 162.295C84.0722 162.72 83.8879 163.184 83.9237 163.688C83.9548 164.187 84.1924 164.648 84.6366 165.071C85.0807 165.494 85.5552 165.711 86.0601 165.722C86.5601 165.729 87.0124 165.52 87.4169 165.095ZM90.4428 161.888C89.7318 161.929 89.0673 161.656 88.4493 161.067C87.8313 160.479 87.5254 159.828 87.5316 159.116C87.5378 158.404 87.8397 157.734 88.4373 157.107C89.0396 156.474 89.694 156.14 90.4004 156.104C91.1114 156.063 91.7759 156.336 92.3939 156.925C93.0118 157.513 93.3177 158.164 93.3116 158.876C93.31 159.583 93.0081 160.253 92.4058 160.886C91.8082 161.513 91.1538 161.847 90.4428 161.888ZM88.3709 159.018C88.3974 159.522 88.6327 159.985 89.0768 160.408C89.521 160.831 89.9978 161.046 90.5072 161.052C91.0164 161.049 91.4779 160.83 91.8917 160.396C92.3008 159.966 92.4945 159.497 92.4726 158.988C92.4459 158.475 92.2105 158.007 91.7663 157.584C91.3222 157.161 90.8455 156.951 90.3363 156.954C89.8223 156.952 89.3607 157.166 88.9515 157.596C88.5377 158.031 88.3442 158.505 88.3709 159.018ZM97.314 152.962C97.6892 153.457 97.832 153.994 97.7424 154.571C97.6525 155.139 97.3662 155.677 96.8835 156.184C96.2858 156.811 95.6409 157.145 94.9487 157.186C94.2563 157.217 93.5939 156.931 92.9614 156.329C92.329 155.727 92.0138 155.081 92.0158 154.393C92.013 153.7 92.3058 153.044 92.8943 152.426C93.3678 151.929 93.8837 151.619 94.4418 151.497C95 151.375 95.5284 151.482 96.027 151.819L95.4709 152.505C95.1262 152.296 94.7711 152.234 94.4053 152.319C94.0396 152.403 93.7073 152.602 93.4085 152.916C93.0177 153.326 92.8354 153.779 92.8616 154.273C92.8879 154.768 93.1303 155.233 93.589 155.67C94.0476 156.107 94.5245 156.326 95.0197 156.328C95.5195 156.325 95.9693 156.114 96.3693 155.694C96.6773 155.37 96.8597 155.019 96.9165 154.641C96.9733 154.262 96.8843 153.901 96.6495 153.558L97.314 152.962ZM95.5475 149.814L99.0439 146.142L102.839 149.756L102.211 150.415L98.9595 147.319L96.7251 149.665L99.9767 152.761L99.3422 153.428L95.5475 149.814ZM105.679 143.177L105.773 143.266L102.553 146.648C103.015 147.024 103.481 147.187 103.951 147.138C104.421 147.088 104.857 146.854 105.257 146.434C105.542 146.134 105.725 145.826 105.807 145.508C105.893 145.185 105.886 144.883 105.785 144.603L106.428 144.014C106.651 144.447 106.707 144.915 106.597 145.418C106.482 145.916 106.194 146.406 105.735 146.889C105.109 147.545 104.449 147.906 103.752 147.97C103.056 148.025 102.382 147.742 101.73 147.121C101.083 146.505 100.77 145.848 100.79 145.149C100.811 144.451 101.118 143.79 101.711 143.168C102.318 142.53 102.956 142.208 103.625 142.201C104.295 142.185 104.979 142.51 105.679 143.177ZM102.189 143.623C101.821 144.009 101.626 144.431 101.604 144.889C101.578 145.342 101.749 145.786 102.118 146.22L104.711 143.498C104.311 143.144 103.885 142.978 103.433 142.998C102.98 143.019 102.566 143.227 102.189 143.623ZM111.114 141.066L107.876 141.131L107.207 141.833L108.873 143.419L108.239 144.085L104.444 140.472L105.078 139.806L106.693 141.343L107.355 140.648L107.271 137.503L108.057 136.677L108.013 140.363L111.949 140.189L111.114 141.066ZM111.886 132.656L112.429 133.174L110.988 134.687L114.24 137.784L113.605 138.45L110.354 135.353L108.912 136.867L108.369 136.35L111.886 132.656Z" fill="#2C2C2C"/>
<mask id="mask0_4_20866" style="mask-type:luminance" maskUnits="userSpaceOnUse" x="0" y="0" width="90" height="147">
<path d="M46.695 0L42.407 4.898L45.353 7.949L20.136 51.271L12.203 54.115L0 82.39L25.017 118.084L54.915 146.763L69.864 130.593L52.475 113.475L61.933 69.068L90 40.593L46.695 0Z" fill="white"/>
</mask>
<g mask="url(#mask0_4_20866)">
<path d="M-5.90906 2.41998H97.3819" stroke="#C4DDC9" stroke-miterlimit="10"/>
</g>
<mask id="mask1_4_20866" style="mask-type:luminance" maskUnits="userSpaceOnUse" x="0" y="0" width="90" height="147">
<path d="M46.695 0L42.407 4.898L45.353 7.949L20.136 51.271L12.203 54.115L0 82.39L25.017 118.084L54.915 146.763L69.864 130.593L52.475 113.475L61.933 69.068L90 40.593L46.695 0Z" fill="white"/>
</mask>
<g mask="url(#mask1_4_20866)">
<path d="M-5.90906 4.41998H97.3819" stroke="#C4DDC9" stroke-miterlimit="10"/>
</g>
<mask id="mask2_4_20866" style="mask-type:luminance" maskUnits="userSpaceOnUse" x="0" y="0" width="90" height="147">
<path d="M46.695 0L42.407 4.898L45.353 7.949L20.136 51.271L12.203 54.115L0 82.39L25.017 118.084L54.915 146.763L69.864 130.593L52.475 113.475L61.933 69.068L90 40.593L46.695 0Z" fill="white"/>
</mask>
<g mask="url(#mask2_4_20866)">
<path d="M-5.90906 6.41998H97.3819" stroke="#C4DDC9" stroke-miterlimit="10"/>
</g>
<mask id="mask3_4_20866" style="mask-type:luminance" maskUnits="userSpaceOnUse" x="0" y="0" width="90" height="147">
<path d="M46.695 0L42.407 4.898L45.353 7.949L20.136 51.271L12.203 54.115L0 82.39L25.017 118.084L54.915 146.763L69.864 130.593L52.475 113.475L61.933 69.068L90 40.593L46.695 0Z" fill="white"/>
</mask>
<g mask="url(#mask3_4_20866)">
<path d="M-5.90906 8.41998H97.3819" stroke="#C4DDC9" stroke-miterlimit="10"/>
</g>
<mask id="mask4_4_20866" style="mask-type:luminance" maskUnits="userSpaceOnUse" x="0" y="0" width="90" height="147">
<path d="M46.695 0L42.407 4.898L45.353 7.949L20.136 51.271L12.203 54.115L0 82.39L25.017 118.084L54.915 146.763L69.864 130.593L52.475 113.475L61.933 69.068L90 40.593L46.695 0Z" fill="white"/>
</mask>
<g mask="url(#mask4_4_20866)">
<path d="M-5.90906 10.42H97.3819" stroke="#C4DDC9" stroke-miterlimit="10"/>
</g>
<mask id="mask5_4_20866" style="mask-type:luminance" maskUnits="userSpaceOnUse" x="0" y="0" width="90" height="147">
<path d="M46.695 0L42.407 4.898L45.353 7.949L20.136 51.271L12.203 54.115L0 82.39L25.017 118.084L54.915 146.763L69.864 130.593L52.475 113.475L61.933 69.068L90 40.593L46.695 0Z" fill="white"/>
</mask>
<g mask="url(#mask5_4_20866)">
<path d="M-5.90906 12.42H97.3819" stroke="#C4DDC9" stroke-miterlimit="10"/>
</g>
<mask id="mask6_4_20866" style="mask-type:luminance" maskUnits="userSpaceOnUse" x="0" y="0" width="90" height="147">
<path d="M46.695 0L42.407 4.898L45.353 7.949L20.136 51.271L12.203 54.115L0 82.39L25.017 118.084L54.915 146.763L69.864 130.593L52.475 113.475L61.933 69.068L90 40.593L46.695 0Z" fill="white"/>
</mask>
<g mask="url(#mask6_4_20866)">
<path d="M-5.90906 14.42H97.3819" stroke="#C4DDC9" stroke-miterlimit="10"/>
</g>
<mask id="mask7_4_20866" style="mask-type:luminance" maskUnits="userSpaceOnUse" x="0" y="0" width="90" height="147">
<path d="M46.695 0L42.407 4.898L45.353 7.949L20.136 51.271L12.203 54.115L0 82.39L25.017 118.084L54.915 146.763L69.864 130.593L52.475 113.475L61.933 69.068L90 40.593L46.695 0Z" fill="white"/>
</mask>
<g mask="url(#mask7_4_20866)">
<path d="M-5.90906 16.42H97.3819" stroke="#C4DDC9" stroke-miterlimit="10"/>
</g>
<mask id="mask8_4_20866" style="mask-type:luminance" maskUnits="userSpaceOnUse" x="0" y="0" width="90" height="147">
<path d="M46.695 0L42.407 4.898L45.353 7.949L20.136 51.271L12.203 54.115L0 82.39L25.017 118.084L54.915 146.763L69.864 130.593L52.475 113.475L61.933 69.068L90 40.593L46.695 0Z" fill="white"/>
</mask>
<g mask="url(#mask8_4_20866)">
<path d="M-5.90906 18.42H97.3819" stroke="#C4DDC9" stroke-miterlimit="10"/>
</g>
<mask id="mask9_4_20866" style="mask-type:luminance" maskUnits="userSpaceOnUse" x="0" y="0" width="90" height="147">
<path d="M46.695 0L42.407 4.898L45.353 7.949L20.136 51.271L12.203 54.115L0 82.39L25.017 118.084L54.915 146.763L69.864 130.593L52.475 113.475L61.933 69.068L90 40.593L46.695 0Z" fill="white"/>
</mask>
<g mask="url(#mask9_4_20866)">
<path d="M-5.90906 20.42H97.3819" stroke="#C4DDC9" stroke-miterlimit="10"/>
</g>
<mask id="mask10_4_20866" style="mask-type:luminance" maskUnits="userSpaceOnUse" x="0" y="0" width="90" height="147">
<path d="M46.695 0L42.407 4.898L45.353 7.949L20.136 51.271L12.203 54.115L0 82.39L25.017 118.084L54.915 146.763L69.864 130.593L52.475 113.475L61.933 69.068L90 40.593L46.695 0Z" fill="white"/>
</mask>
<g mask="url(#mask10_4_20866)">
<path d="M-5.90906 22.42H97.3819" stroke="#C4DDC9" stroke-miterlimit="10"/>
</g>
<mask id="mask11_4_20866" style="mask-type:luminance" maskUnits="userSpaceOnUse" x="0" y="0" width="90" height="147">
<path d="M46.695 0L42.407 4.898L45.353 7.949L20.136 51.271L12.203 54.115L0 82.39L25.017 118.084L54.915 146.763L69.864 130.593L52.475 113.475L61.933 69.068L90 40.593L46.695 0Z" fill="white"/>
</mask>
<g mask="url(#mask11_4_20866)">
<path d="M-5.90906 24.42H97.3819" stroke="#C4DDC9" stroke-miterlimit="10"/>
</g>
<mask id="mask12_4_20866" style="mask-type:luminance" maskUnits="userSpaceOnUse" x="0" y="0" width="90" height="147">
<path d="M46.695 0L42.407 4.898L45.353 7.949L20.136 51.271L12.203 54.115L0 82.39L25.017 118.084L54.915 146.763L69.864 130.593L52.475 113.475L61.933 69.068L90 40.593L46.695 0Z" fill="white"/>
</mask>
<g mask="url(#mask12_4_20866)">
<path d="M-5.90906 26.42H97.3819" stroke="#C4DDC9" stroke-miterlimit="10"/>
</g>
<mask id="mask13_4_20866" style="mask-type:luminance" maskUnits="userSpaceOnUse" x="0" y="0" width="90" height="147">
<path d="M46.695 0L42.407 4.898L45.353 7.949L20.136 51.271L12.203 54.115L0 82.39L25.017 118.084L54.915 146.763L69.864 130.593L52.475 113.475L61.933 69.068L90 40.593L46.695 0Z" fill="white"/>
</mask>
<g mask="url(#mask13_4_20866)">
<path d="M-5.90906 28.42H97.3819" stroke="#C4DDC9" stroke-miterlimit="10"/>
</g>
<mask id="mask14_4_20866" style="mask-type:luminance" maskUnits="userSpaceOnUse" x="0" y="0" width="90" height="147">
<path d="M46.695 0L42.407 4.898L45.353 7.949L20.136 51.271L12.203 54.115L0 82.39L25.017 118.084L54.915 146.763L69.864 130.593L52.475 113.475L61.933 69.068L90 40.593L46.695 0Z" fill="white"/>
</mask>
<g mask="url(#mask14_4_20866)">
<path d="M-5.90906 30.42H97.3819" stroke="#C4DDC9" stroke-miterlimit="10"/>
</g>
<mask id="mask15_4_20866" style="mask-type:luminance" maskUnits="userSpaceOnUse" x="0" y="0" width="90" height="147">
<path d="M46.695 0L42.407 4.898L45.353 7.949L20.136 51.271L12.203 54.115L0 82.39L25.017 118.084L54.915 146.763L69.864 130.593L52.475 113.475L61.933 69.068L90 40.593L46.695 0Z" fill="white"/>
</mask>
<g mask="url(#mask15_4_20866)">
<path d="M-5.90906 32.42H97.3819" stroke="#C4DDC9" stroke-miterlimit="10"/>
</g>
<mask id="mask16_4_20866" style="mask-type:luminance" maskUnits="userSpaceOnUse" x="0" y="0" width="90" height="147">
<path d="M46.695 0L42.407 4.898L45.353 7.949L20.136 51.271L12.203 54.115L0 82.39L25.017 118.084L54.915 146.763L69.864 130.593L52.475 113.475L61.933 69.068L90 40.593L46.695 0Z" fill="white"/>
</mask>
<g mask="url(#mask16_4_20866)">
<path d="M-5.90906 34.42H97.3819" stroke="#C4DDC9" stroke-miterlimit="10"/>
</g>
<mask id="mask17_4_20866" style="mask-type:luminance" maskUnits="userSpaceOnUse" x="0" y="0" width="90" height="147">
<path d="M46.695 0L42.407 4.898L45.353 7.949L20.136 51.271L12.203 54.115L0 82.39L25.017 118.084L54.915 146.763L69.864 130.593L52.475 113.475L61.933 69.068L90 40.593L46.695 0Z" fill="white"/>
</mask>
<g mask="url(#mask17_4_20866)">
<path d="M-5.90906 36.42H97.3819" stroke="#C4DDC9" stroke-miterlimit="10"/>
</g>
<mask id="mask18_4_20866" style="mask-type:luminance" maskUnits="userSpaceOnUse" x="0" y="0" width="90" height="147">
<path d="M46.695 0L42.407 4.898L45.353 7.949L20.136 51.271L12.203 54.115L0 82.39L25.017 118.084L54.915 146.763L69.864 130.593L52.475 113.475L61.933 69.068L90 40.593L46.695 0Z" fill="white"/>
</mask>
<g mask="url(#mask18_4_20866)">
<path d="M-5.90906 38.42H97.3819" stroke="#C4DDC9" stroke-miterlimit="10"/>
</g>
<mask id="mask19_4_20866" style="mask-type:luminance" maskUnits="userSpaceOnUse" x="0" y="0" width="90" height="147">
<path d="M46.695 0L42.407 4.898L45.353 7.949L20.136 51.271L12.203 54.115L0 82.39L25.017 118.084L54.915 146.763L69.864 130.593L52.475 113.475L61.933 69.068L90 40.593L46.695 0Z" fill="white"/>
</mask>
<g mask="url(#mask19_4_20866)">
<path d="M-5.90906 40.42H97.3819" stroke="#C4DDC9" stroke-miterlimit="10"/>
</g>
<mask id="mask20_4_20866" style="mask-type:luminance" maskUnits="userSpaceOnUse" x="0" y="0" width="90" height="147">
<path d="M46.695 0L42.407 4.898L45.353 7.949L20.136 51.271L12.203 54.115L0 82.39L25.017 118.084L54.915 146.763L69.864 130.593L52.475 113.475L61.933 69.068L90 40.593L46.695 0Z" fill="white"/>
</mask>
<g mask="url(#mask20_4_20866)">
<path d="M-5.90906 42.42H97.3819" stroke="#C4DDC9" stroke-miterlimit="10"/>
</g>
<mask id="mask21_4_20866" style="mask-type:luminance" maskUnits="userSpaceOnUse" x="0" y="0" width="90" height="147">
<path d="M46.695 0L42.407 4.898L45.353 7.949L20.136 51.271L12.203 54.115L0 82.39L25.017 118.084L54.915 146.763L69.864 130.593L52.475 113.475L61.933 69.068L90 40.593L46.695 0Z" fill="white"/>
</mask>
<g mask="url(#mask21_4_20866)">
<path d="M-5.90906 44.42H97.3819" stroke="#C4DDC9" stroke-miterlimit="10"/>
</g>
<mask id="mask22_4_20866" style="mask-type:luminance" maskUnits="userSpaceOnUse" x="0" y="0" width="90" height="147">
<path d="M46.695 0L42.407 4.898L45.353 7.949L20.136 51.271L12.203 54.115L0 82.39L25.017 118.084L54.915 146.763L69.864 130.593L52.475 113.475L61.933 69.068L90 40.593L46.695 0Z" fill="white"/>
</mask>
<g mask="url(#mask22_4_20866)">
<path d="M-5.90906 46.42H97.3819" stroke="#C4DDC9" stroke-miterlimit="10"/>
</g>
<mask id="mask23_4_20866" style="mask-type:luminance" maskUnits="userSpaceOnUse" x="0" y="0" width="90" height="147">
<path d="M46.695 0L42.407 4.898L45.353 7.949L20.136 51.271L12.203 54.115L0 82.39L25.017 118.084L54.915 146.763L69.864 130.593L52.475 113.475L61.933 69.068L90 40.593L46.695 0Z" fill="white"/>
</mask>
<g mask="url(#mask23_4_20866)">
<path d="M-5.90906 48.42H97.3819" stroke="#C4DDC9" stroke-miterlimit="10"/>
</g>
<mask id="mask24_4_20866" style="mask-type:luminance" maskUnits="userSpaceOnUse" x="0" y="0" width="90" height="147">
<path d="M46.695 0L42.407 4.898L45.353 7.949L20.136 51.271L12.203 54.115L0 82.39L25.017 118.084L54.915 146.763L69.864 130.593L52.475 113.475L61.933 69.068L90 40.593L46.695 0Z" fill="white"/>
</mask>
<g mask="url(#mask24_4_20866)">
<path d="M-5.90906 50.42H97.3819" stroke="#C4DDC9" stroke-miterlimit="10"/>
</g>
<mask id="mask25_4_20866" style="mask-type:luminance" maskUnits="userSpaceOnUse" x="0" y="0" width="90" height="147">
<path d="M46.695 0L42.407 4.898L45.353 7.949L20.136 51.271L12.203 54.115L0 82.39L25.017 118.084L54.915 146.763L69.864 130.593L52.475 113.475L61.933 69.068L90 40.593L46.695 0Z" fill="white"/>
</mask>
<g mask="url(#mask25_4_20866)">
<path d="M-5.90906 52.42H97.3819" stroke="#C4DDC9" stroke-miterlimit="10"/>
</g>
<mask id="mask26_4_20866" style="mask-type:luminance" maskUnits="userSpaceOnUse" x="0" y="0" width="90" height="147">
<path d="M46.695 0L42.407 4.898L45.353 7.949L20.136 51.271L12.203 54.115L0 82.39L25.017 118.084L54.915 146.763L69.864 130.593L52.475 113.475L61.933 69.068L90 40.593L46.695 0Z" fill="white"/>
</mask>
<g mask="url(#mask26_4_20866)">
<path d="M-5.90906 54.42H97.3819" stroke="#C4DDC9" stroke-miterlimit="10"/>
</g>
<mask id="mask27_4_20866" style="mask-type:luminance" maskUnits="userSpaceOnUse" x="0" y="0" width="90" height="147">
<path d="M46.695 0L42.407 4.898L45.353 7.949L20.136 51.271L12.203 54.115L0 82.39L25.017 118.084L54.915 146.763L69.864 130.593L52.475 113.475L61.933 69.068L90 40.593L46.695 0Z" fill="white"/>
</mask>
<g mask="url(#mask27_4_20866)">
<path d="M-5.90906 56.42H97.3819" stroke="#C4DDC9" stroke-miterlimit="10"/>
</g>
<mask id="mask28_4_20866" style="mask-type:luminance" maskUnits="userSpaceOnUse" x="0" y="0" width="90" height="147">
<path d="M46.695 0L42.407 4.898L45.353 7.949L20.136 51.271L12.203 54.115L0 82.39L25.017 118.084L54.915 146.763L69.864 130.593L52.475 113.475L61.933 69.068L90 40.593L46.695 0Z" fill="white"/>
</mask>
<g mask="url(#mask28_4_20866)">
<path d="M-5.90906 58.42H97.3819" stroke="#C4DDC9" stroke-miterlimit="10"/>
</g>
<mask id="mask29_4_20866" style="mask-type:luminance" maskUnits="userSpaceOnUse" x="0" y="0" width="90" height="147">
<path d="M46.695 0L42.407 4.898L45.353 7.949L20.136 51.271L12.203 54.115L0 82.39L25.017 118.084L54.915 146.763L69.864 130.593L52.475 113.475L61.933 69.068L90 40.593L46.695 0Z" fill="white"/>
</mask>
<g mask="url(#mask29_4_20866)">
<path d="M-5.90906 60.42H97.3819" stroke="#C4DDC9" stroke-miterlimit="10"/>
</g>
<mask id="mask30_4_20866" style="mask-type:luminance" maskUnits="userSpaceOnUse" x="0" y="0" width="90" height="147">
<path d="M46.695 0L42.407 4.898L45.353 7.949L20.136 51.271L12.203 54.115L0 82.39L25.017 118.084L54.915 146.763L69.864 130.593L52.475 113.475L61.933 69.068L90 40.593L46.695 0Z" fill="white"/>
</mask>
<g mask="url(#mask30_4_20866)">
<path d="M-5.90906 62.42H97.3819" stroke="#C4DDC9" stroke-miterlimit="10"/>
</g>
<mask id="mask31_4_20866" style="mask-type:luminance" maskUnits="userSpaceOnUse" x="0" y="0" width="90" height="147">
<path d="M46.695 0L42.407 4.898L45.353 7.949L20.136 51.271L12.203 54.115L0 82.39L25.017 118.084L54.915 146.763L69.864 130.593L52.475 113.475L61.933 69.068L90 40.593L46.695 0Z" fill="white"/>
</mask>
<g mask="url(#mask31_4_20866)">
<path d="M-5.90906 64.42H97.3819" stroke="#C4DDC9" stroke-miterlimit="10"/>
</g>
<mask id="mask32_4_20866" style="mask-type:luminance" maskUnits="userSpaceOnUse" x="0" y="0" width="90" height="147">
<path d="M46.695 0L42.407 4.898L45.353 7.949L20.136 51.271L12.203 54.115L0 82.39L25.017 118.084L54.915 146.763L69.864 130.593L52.475 113.475L61.933 69.068L90 40.593L46.695 0Z" fill="white"/>
</mask>
<g mask="url(#mask32_4_20866)">
<path d="M-5.90906 66.42H97.3819" stroke="#C4DDC9" stroke-miterlimit="10"/>
</g>
<mask id="mask33_4_20866" style="mask-type:luminance" maskUnits="userSpaceOnUse" x="0" y="0" width="90" height="147">
<path d="M46.695 0L42.407 4.898L45.353 7.949L20.136 51.271L12.203 54.115L0 82.39L25.017 118.084L54.915 146.763L69.864 130.593L52.475 113.475L61.933 69.068L90 40.593L46.695 0Z" fill="white"/>
</mask>
<g mask="url(#mask33_4_20866)">
<path d="M-5.90906 68.42H97.3819" stroke="#C4DDC9" stroke-miterlimit="10"/>
</g>
<mask id="mask34_4_20866" style="mask-type:luminance" maskUnits="userSpaceOnUse" x="0" y="0" width="90" height="147">
<path d="M46.695 0L42.407 4.898L45.353 7.949L20.136 51.271L12.203 54.115L0 82.39L25.017 118.084L54.915 146.763L69.864 130.593L52.475 113.475L61.933 69.068L90 40.593L46.695 0Z" fill="white"/>
</mask>
<g mask="url(#mask34_4_20866)">
<path d="M-5.90906 70.42H97.3819" stroke="#C4DDC9" stroke-miterlimit="10"/>
</g>
<mask id="mask35_4_20866" style="mask-type:luminance" maskUnits="userSpaceOnUse" x="0" y="0" width="90" height="147">
<path d="M46.695 0L42.407 4.898L45.353 7.949L20.136 51.271L12.203 54.115L0 82.39L25.017 118.084L54.915 146.763L69.864 130.593L52.475 113.475L61.933 69.068L90 40.593L46.695 0Z" fill="white"/>
</mask>
<g mask="url(#mask35_4_20866)">
<path d="M-5.90906 72.42H97.3819" stroke="#C4DDC9" stroke-miterlimit="10"/>
</g>
<mask id="mask36_4_20866" style="mask-type:luminance" maskUnits="userSpaceOnUse" x="0" y="0" width="90" height="147">
<path d="M46.695 0L42.407 4.898L45.353 7.949L20.136 51.271L12.203 54.115L0 82.39L25.017 118.084L54.915 146.763L69.864 130.593L52.475 113.475L61.933 69.068L90 40.593L46.695 0Z" fill="white"/>
</mask>
<g mask="url(#mask36_4_20866)">
<path d="M-5.90906 74.42H97.3819" stroke="#C4DDC9" stroke-miterlimit="10"/>
</g>
<mask id="mask37_4_20866" style="mask-type:luminance" maskUnits="userSpaceOnUse" x="0" y="0" width="90" height="147">
<path d="M46.695 0L42.407 4.898L45.353 7.949L20.136 51.271L12.203 54.115L0 82.39L25.017 118.084L54.915 146.763L69.864 130.593L52.475 113.475L61.933 69.068L90 40.593L46.695 0Z" fill="white"/>
</mask>
<g mask="url(#mask37_4_20866)">
<path d="M-5.90906 76.42H97.3819" stroke="#C4DDC9" stroke-miterlimit="10"/>
</g>
<mask id="mask38_4_20866" style="mask-type:luminance" maskUnits="userSpaceOnUse" x="0" y="0" width="90" height="147">
<path d="M46.695 0L42.407 4.898L45.353 7.949L20.136 51.271L12.203 54.115L0 82.39L25.017 118.084L54.915 146.763L69.864 130.593L52.475 113.475L61.933 69.068L90 40.593L46.695 0Z" fill="white"/>
</mask>
<g mask="url(#mask38_4_20866)">
<path d="M-5.90906 78.42H97.3819" stroke="#C4DDC9" stroke-miterlimit="10"/>
</g>
<mask id="mask39_4_20866" style="mask-type:luminance" maskUnits="userSpaceOnUse" x="0" y="0" width="90" height="147">
<path d="M46.695 0L42.407 4.898L45.353 7.949L20.136 51.271L12.203 54.115L0 82.39L25.017 118.084L54.915 146.763L69.864 130.593L52.475 113.475L61.933 69.068L90 40.593L46.695 0Z" fill="white"/>
</mask>
<g mask="url(#mask39_4_20866)">
<path d="M-5.90906 80.42H97.3819" stroke="#C4DDC9" stroke-miterlimit="10"/>
</g>
<mask id="mask40_4_20866" style="mask-type:luminance" maskUnits="userSpaceOnUse" x="0" y="0" width="90" height="147">
<path d="M46.695 0L42.407 4.898L45.353 7.949L20.136 51.271L12.203 54.115L0 82.39L25.017 118.084L54.915 146.763L69.864 130.593L52.475 113.475L61.933 69.068L90 40.593L46.695 0Z" fill="white"/>
</mask>
<g mask="url(#mask40_4_20866)">
<path d="M-5.90906 82.42H97.3819" stroke="#C4DDC9" stroke-miterlimit="10"/>
</g>
<mask id="mask41_4_20866" style="mask-type:luminance" maskUnits="userSpaceOnUse" x="0" y="0" width="90" height="147">
<path d="M46.695 0L42.407 4.898L45.353 7.949L20.136 51.271L12.203 54.115L0 82.39L25.017 118.084L54.915 146.763L69.864 130.593L52.475 113.475L61.933 69.068L90 40.593L46.695 0Z" fill="white"/>
</mask>
<g mask="url(#mask41_4_20866)">
<path d="M-5.90906 84.42H97.3819" stroke="#C4DDC9" stroke-miterlimit="10"/>
</g>
<mask id="mask42_4_20866" style="mask-type:luminance" maskUnits="userSpaceOnUse" x="0" y="0" width="90" height="147">
<path d="M46.695 0L42.407 4.898L45.353 7.949L20.136 51.271L12.203 54.115L0 82.39L25.017 118.084L54.915 146.763L69.864 130.593L52.475 113.475L61.933 69.068L90 40.593L46.695 0Z" fill="white"/>
</mask>
<g mask="url(#mask42_4_20866)">
<path d="M-5.90906 86.42H97.3819" stroke="#C4DDC9" stroke-miterlimit="10"/>
</g>
<mask id="mask43_4_20866" style="mask-type:luminance" maskUnits="userSpaceOnUse" x="0" y="0" width="90" height="147">
<path d="M46.695 0L42.407 4.898L45.353 7.949L20.136 51.271L12.203 54.115L0 82.39L25.017 118.084L54.915 146.763L69.864 130.593L52.475 113.475L61.933 69.068L90 40.593L46.695 0Z" fill="white"/>
</mask>
<g mask="url(#mask43_4_20866)">
<path d="M-5.90906 88.42H97.3819" stroke="#C4DDC9" stroke-miterlimit="10"/>
</g>
<mask id="mask44_4_20866" style="mask-type:luminance" maskUnits="userSpaceOnUse" x="0" y="0" width="90" height="147">
<path d="M46.695 0L42.407 4.898L45.353 7.949L20.136 51.271L12.203 54.115L0 82.39L25.017 118.084L54.915 146.763L69.864 130.593L52.475 113.475L61.933 69.068L90 40.593L46.695 0Z" fill="white"/>
</mask>
<g mask="url(#mask44_4_20866)">
<path d="M-5.90906 90.42H97.3819" stroke="#C4DDC9" stroke-miterlimit="10"/>
</g>
<mask id="mask45_4_20866" style="mask-type:luminance" maskUnits="userSpaceOnUse" x="0" y="0" width="90" height="147">
<path d="M46.695 0L42.407 4.898L45.353 7.949L20.136 51.271L12.203 54.115L0 82.39L25.017 118.084L54.915 146.763L69.864 130.593L52.475 113.475L61.933 69.068L90 40.593L46.695 0Z" fill="white"/>
</mask>
<g mask="url(#mask45_4_20866)">
<path d="M-5.90906 92.42H97.3819" stroke="#C4DDC9" stroke-miterlimit="10"/>
</g>
<mask id="mask46_4_20866" style="mask-type:luminance" maskUnits="userSpaceOnUse" x="0" y="0" width="90" height="147">
<path d="M46.695 0L42.407 4.898L45.353 7.949L20.136 51.271L12.203 54.115L0 82.39L25.017 118.084L54.915 146.763L69.864 130.593L52.475 113.475L61.933 69.068L90 40.593L46.695 0Z" fill="white"/>
</mask>
<g mask="url(#mask46_4_20866)">
<path d="M-5.90906 94.42H97.3819" stroke="#C4DDC9" stroke-miterlimit="10"/>
</g>
<mask id="mask47_4_20866" style="mask-type:luminance" maskUnits="userSpaceOnUse" x="0" y="0" width="90" height="147">
<path d="M46.695 0L42.407 4.898L45.353 7.949L20.136 51.271L12.203 54.115L0 82.39L25.017 118.084L54.915 146.763L69.864 130.593L52.475 113.475L61.933 69.068L90 40.593L46.695 0Z" fill="white"/>
</mask>
<g mask="url(#mask47_4_20866)">
<path d="M-5.90906 96.42H97.3819" stroke="#C4DDC9" stroke-miterlimit="10"/>
</g>
<mask id="mask48_4_20866" style="mask-type:luminance" maskUnits="userSpaceOnUse" x="0" y="0" width="90" height="147">
<path d="M46.695 0L42.407 4.898L45.353 7.949L20.136 51.271L12.203 54.115L0 82.39L25.017 118.084L54.915 146.763L69.864 130.593L52.475 113.475L61.933 69.068L90 40.593L46.695 0Z" fill="white"/>
</mask>
<g mask="url(#mask48_4_20866)">
<path d="M-5.90906 98.42H97.3819" stroke="#C4DDC9" stroke-miterlimit="10"/>
</g>
<mask id="mask49_4_20866" style="mask-type:luminance" maskUnits="userSpaceOnUse" x="0" y="0" width="90" height="147">
<path d="M46.695 0L42.407 4.898L45.353 7.949L20.136 51.271L12.203 54.115L0 82.39L25.017 118.084L54.915 146.763L69.864 130.593L52.475 113.475L61.933 69.068L90 40.593L46.695 0Z" fill="white"/>
</mask>
<g mask="url(#mask49_4_20866)">
<path d="M-5.90906 100.42H97.3819" stroke="#C4DDC9" stroke-miterlimit="10"/>
</g>
<mask id="mask50_4_20866" style="mask-type:luminance" maskUnits="userSpaceOnUse" x="0" y="0" width="90" height="147">
<path d="M46.695 0L42.407 4.898L45.353 7.949L20.136 51.271L12.203 54.115L0 82.39L25.017 118.084L54.915 146.763L69.864 130.593L52.475 113.475L61.933 69.068L90 40.593L46.695 0Z" fill="white"/>
</mask>
<g mask="url(#mask50_4_20866)">
<path d="M-5.90906 102.42H97.3819" stroke="#C4DDC9" stroke-miterlimit="10"/>
</g>
<mask id="mask51_4_20866" style="mask-type:luminance" maskUnits="userSpaceOnUse" x="0" y="0" width="90" height="147">
<path d="M46.695 0L42.407 4.898L45.353 7.949L20.136 51.271L12.203 54.115L0 82.39L25.017 118.084L54.915 146.763L69.864 130.593L52.475 113.475L61.933 69.068L90 40.593L46.695 0Z" fill="white"/>
</mask>
<g mask="url(#mask51_4_20866)">
<path d="M-5.90906 104.42H97.3819" stroke="#C4DDC9" stroke-miterlimit="10"/>
</g>
<mask id="mask52_4_20866" style="mask-type:luminance" maskUnits="userSpaceOnUse" x="0" y="0" width="90" height="147">
<path d="M46.695 0L42.407 4.898L45.353 7.949L20.136 51.271L12.203 54.115L0 82.39L25.017 118.084L54.915 146.763L69.864 130.593L52.475 113.475L61.933 69.068L90 40.593L46.695 0Z" fill="white"/>
</mask>
<g mask="url(#mask52_4_20866)">
<path d="M-5.90906 106.42H97.3819" stroke="#C4DDC9" stroke-miterlimit="10"/>
</g>
<mask id="mask53_4_20866" style="mask-type:luminance" maskUnits="userSpaceOnUse" x="0" y="0" width="90" height="147">
<path d="M46.695 0L42.407 4.898L45.353 7.949L20.136 51.271L12.203 54.115L0 82.39L25.017 118.084L54.915 146.763L69.864 130.593L52.475 113.475L61.933 69.068L90 40.593L46.695 0Z" fill="white"/>
</mask>
<g mask="url(#mask53_4_20866)">
<path d="M-5.90906 108.42H97.3819" stroke="#C4DDC9" stroke-miterlimit="10"/>
</g>
<mask id="mask54_4_20866" style="mask-type:luminance" maskUnits="userSpaceOnUse" x="0" y="0" width="90" height="147">
<path d="M46.695 0L42.407 4.898L45.353 7.949L20.136 51.271L12.203 54.115L0 82.39L25.017 118.084L54.915 146.763L69.864 130.593L52.475 113.475L61.933 69.068L90 40.593L46.695 0Z" fill="white"/>
</mask>
<g mask="url(#mask54_4_20866)">
<path d="M-5.90906 110.42H97.3819" stroke="#C4DDC9" stroke-miterlimit="10"/>
</g>
<mask id="mask55_4_20866" style="mask-type:luminance" maskUnits="userSpaceOnUse" x="0" y="0" width="90" height="147">
<path d="M46.695 0L42.407 4.898L45.353 7.949L20.136 51.271L12.203 54.115L0 82.39L25.017 118.084L54.915 146.763L69.864 130.593L52.475 113.475L61.933 69.068L90 40.593L46.695 0Z" fill="white"/>
</mask>
<g mask="url(#mask55_4_20866)">
<path d="M-5.90906 112.42H97.3819" stroke="#C4DDC9" stroke-miterlimit="10"/>
</g>
<mask id="mask56_4_20866" style="mask-type:luminance" maskUnits="userSpaceOnUse" x="0" y="0" width="90" height="147">
<path d="M46.695 0L42.407 4.898L45.353 7.949L20.136 51.271L12.203 54.115L0 82.39L25.017 118.084L54.915 146.763L69.864 130.593L52.475 113.475L61.933 69.068L90 40.593L46.695 0Z" fill="white"/>
</mask>
<g mask="url(#mask56_4_20866)">
<path d="M-5.90906 114.42H97.3819" stroke="#C4DDC9" stroke-miterlimit="10"/>
</g>
<mask id="mask57_4_20866" style="mask-type:luminance" maskUnits="userSpaceOnUse" x="0" y="0" width="90" height="147">
<path d="M46.695 0L42.407 4.898L45.353 7.949L20.136 51.271L12.203 54.115L0 82.39L25.017 118.084L54.915 146.763L69.864 130.593L52.475 113.475L61.933 69.068L90 40.593L46.695 0Z" fill="white"/>
</mask>
<g mask="url(#mask57_4_20866)">
<path d="M-5.90906 116.42H97.3819" stroke="#C4DDC9" stroke-miterlimit="10"/>
</g>
<mask id="mask58_4_20866" style="mask-type:luminance" maskUnits="userSpaceOnUse" x="0" y="0" width="90" height="147">
<path d="M46.695 0L42.407 4.898L45.353 7.949L20.136 51.271L12.203 54.115L0 82.39L25.017 118.084L54.915 146.763L69.864 130.593L52.475 113.475L61.933 69.068L90 40.593L46.695 0Z" fill="white"/>
</mask>
<g mask="url(#mask58_4_20866)">
<path d="M-5.90906 118.42H97.3819" stroke="#C4DDC9" stroke-miterlimit="10"/>
</g>
<mask id="mask59_4_20866" style="mask-type:luminance" maskUnits="userSpaceOnUse" x="0" y="0" width="90" height="147">
<path d="M46.695 0L42.407 4.898L45.353 7.949L20.136 51.271L12.203 54.115L0 82.39L25.017 118.084L54.915 146.763L69.864 130.593L52.475 113.475L61.933 69.068L90 40.593L46.695 0Z" fill="white"/>
</mask>
<g mask="url(#mask59_4_20866)">
<path d="M-5.90906 120.42H97.3819" stroke="#C4DDC9" stroke-miterlimit="10"/>
</g>
<mask id="mask60_4_20866" style="mask-type:luminance" maskUnits="userSpaceOnUse" x="0" y="0" width="90" height="147">
<path d="M46.695 0L42.407 4.898L45.353 7.949L20.136 51.271L12.203 54.115L0 82.39L25.017 118.084L54.915 146.763L69.864 130.593L52.475 113.475L61.933 69.068L90 40.593L46.695 0Z" fill="white"/>
</mask>
<g mask="url(#mask60_4_20866)">
<path d="M-5.90906 122.42H97.3819" stroke="#C4DDC9" stroke-miterlimit="10"/>
</g>
<mask id="mask61_4_20866" style="mask-type:luminance" maskUnits="userSpaceOnUse" x="0" y="0" width="90" height="147">
<path d="M46.695 0L42.407 4.898L45.353 7.949L20.136 51.271L12.203 54.115L0 82.39L25.017 118.084L54.915 146.763L69.864 130.593L52.475 113.475L61.933 69.068L90 40.593L46.695 0Z" fill="white"/>
</mask>
<g mask="url(#mask61_4_20866)">
<path d="M-5.90906 124.42H97.3819" stroke="#C4DDC9" stroke-miterlimit="10"/>
</g>
<mask id="mask62_4_20866" style="mask-type:luminance" maskUnits="userSpaceOnUse" x="0" y="0" width="90" height="147">
<path d="M46.695 0L42.407 4.898L45.353 7.949L20.136 51.271L12.203 54.115L0 82.39L25.017 118.084L54.915 146.763L69.864 130.593L52.475 113.475L61.933 69.068L90 40.593L46.695 0Z" fill="white"/>
</mask>
<g mask="url(#mask62_4_20866)">
<path d="M-5.90906 126.42H97.3819" stroke="#C4DDC9" stroke-miterlimit="10"/>
</g>
<mask id="mask63_4_20866" style="mask-type:luminance" maskUnits="userSpaceOnUse" x="0" y="0" width="90" height="147">
<path d="M46.695 0L42.407 4.898L45.353 7.949L20.136 51.271L12.203 54.115L0 82.39L25.017 118.084L54.915 146.763L69.864 130.593L52.475 113.475L61.933 69.068L90 40.593L46.695 0Z" fill="white"/>
</mask>
<g mask="url(#mask63_4_20866)">
<path d="M-5.90906 128.42H97.3819" stroke="#C4DDC9" stroke-miterlimit="10"/>
</g>
<mask id="mask64_4_20866" style="mask-type:luminance" maskUnits="userSpaceOnUse" x="0" y="0" width="90" height="147">
<path d="M46.695 0L42.407 4.898L45.353 7.949L20.136 51.271L12.203 54.115L0 82.39L25.017 118.084L54.915 146.763L69.864 130.593L52.475 113.475L61.933 69.068L90 40.593L46.695 0Z" fill="white"/>
</mask>
<g mask="url(#mask64_4_20866)">
<path d="M-5.90906 130.42H97.3819" stroke="#C4DDC9" stroke-miterlimit="10"/>
</g>
<mask id="mask65_4_20866" style="mask-type:luminance" maskUnits="userSpaceOnUse" x="0" y="0" width="90" height="147">
<path d="M46.695 0L42.407 4.898L45.353 7.949L20.136 51.271L12.203 54.115L0 82.39L25.017 118.084L54.915 146.763L69.864 130.593L52.475 113.475L61.933 69.068L90 40.593L46.695 0Z" fill="white"/>
</mask>
<g mask="url(#mask65_4_20866)">
<path d="M-5.90906 132.42H97.3819" stroke="#C4DDC9" stroke-miterlimit="10"/>
</g>
<mask id="mask66_4_20866" style="mask-type:luminance" maskUnits="userSpaceOnUse" x="0" y="0" width="90" height="147">
<path d="M46.695 0L42.407 4.898L45.353 7.949L20.136 51.271L12.203 54.115L0 82.39L25.017 118.084L54.915 146.763L69.864 130.593L52.475 113.475L61.933 69.068L90 40.593L46.695 0Z" fill="white"/>
</mask>
<g mask="url(#mask66_4_20866)">
<path d="M-5.90906 134.42H97.3819" stroke="#C4DDC9" stroke-miterlimit="10"/>
</g>
<mask id="mask67_4_20866" style="mask-type:luminance" maskUnits="userSpaceOnUse" x="0" y="0" width="90" height="147">
<path d="M46.695 0L42.407 4.898L45.353 7.949L20.136 51.271L12.203 54.115L0 82.39L25.017 118.084L54.915 146.763L69.864 130.593L52.475 113.475L61.933 69.068L90 40.593L46.695 0Z" fill="white"/>
</mask>
<g mask="url(#mask67_4_20866)">
<path d="M-5.90906 136.42H97.3819" stroke="#C4DDC9" stroke-miterlimit="10"/>
</g>
<mask id="mask68_4_20866" style="mask-type:luminance" maskUnits="userSpaceOnUse" x="0" y="0" width="90" height="147">
<path d="M46.695 0L42.407 4.898L45.353 7.949L20.136 51.271L12.203 54.115L0 82.39L25.017 118.084L54.915 146.763L69.864 130.593L52.475 113.475L61.933 69.068L90 40.593L46.695 0Z" fill="white"/>
</mask>
<g mask="url(#mask68_4_20866)">
<path d="M-5.90906 138.42H97.3819" stroke="#C4DDC9" stroke-miterlimit="10"/>
</g>
<mask id="mask69_4_20866" style="mask-type:luminance" maskUnits="userSpaceOnUse" x="0" y="0" width="90" height="147">
<path d="M46.695 0L42.407 4.898L45.353 7.949L20.136 51.271L12.203 54.115L0 82.39L25.017 118.084L54.915 146.763L69.864 130.593L52.475 113.475L61.933 69.068L90 40.593L46.695 0Z" fill="white"/>
</mask>
<g mask="url(#mask69_4_20866)">
<path d="M-5.90906 140.42H97.3819" stroke="#C4DDC9" stroke-miterlimit="10"/>
</g>
<mask id="mask70_4_20866" style="mask-type:luminance" maskUnits="userSpaceOnUse" x="0" y="0" width="90" height="147">
<path d="M46.695 0L42.407 4.898L45.353 7.949L20.136 51.271L12.203 54.115L0 82.39L25.017 118.084L54.915 146.763L69.864 130.593L52.475 113.475L61.933 69.068L90 40.593L46.695 0Z" fill="white"/>
</mask>
<g mask="url(#mask70_4_20866)">
<path d="M-5.90906 142.42H97.3819" stroke="#C4DDC9" stroke-miterlimit="10"/>
</g>
<mask id="mask71_4_20866" style="mask-type:luminance" maskUnits="userSpaceOnUse" x="0" y="0" width="90" height="147">
<path d="M46.695 0L42.407 4.898L45.353 7.949L20.136 51.271L12.203 54.115L0 82.39L25.017 118.084L54.915 146.763L69.864 130.593L52.475 113.475L61.933 69.068L90 40.593L46.695 0Z" fill="white"/>
</mask>
<g mask="url(#mask71_4_20866)">
<path d="M-5.90906 144.42H97.3819" stroke="#C4DDC9" stroke-miterlimit="10"/>
</g>
<path d="M75.2566 34.3856L50.8525 28.8868L45.3536 53.2919L69.7577 58.7906L75.2566 34.3856Z" fill="white" stroke="#2C2C2C" stroke-miterlimit="10"/>
<path d="M38.4412 59.6151L14.0371 54.1139L8.53609 78.517L32.9402 84.0182L38.4412 59.6151Z" fill="white" stroke="#2C2C2C" stroke-width="4" stroke-miterlimit="10"/>
</svg>
