<svg width="277" height="209" viewBox="0 0 277 209" fill="none" xmlns="http://www.w3.org/2000/svg">
<path d="M147.432 12.5138H146.973V12.7773H147.432V12.5138Z" fill="#2C2C2C"/>
<path d="M105.365 12.5138H104.84V12.7773H105.365V12.5138Z" fill="#2C2C2C"/>
<path d="M147.956 11.6636H146.579V12.1233H147.956V11.6636Z" fill="#2C2C2C"/>
<path d="M147.956 10.42H146.579V10.9423H147.956V10.42Z" fill="#2C2C2C"/>
<path d="M147.956 9.17438H146.579V9.69825H147.956V9.17438Z" fill="#2C2C2C"/>
<path d="M147.956 7.92761H146.579V8.45148H147.956V7.92761Z" fill="#2C2C2C"/>
<path d="M147.956 6.68195H146.579V7.20905H147.956V6.68195Z" fill="#2C2C2C"/>
<path d="M147.956 5.43835H146.579V5.96227H147.956V5.43835Z" fill="#2C2C2C"/>
<path d="M147.956 4.25897H146.579V4.71693H147.956V4.25897Z" fill="#2C2C2C"/>
<path d="M147.956 3.01489H146.579V3.47128H147.956V3.01489Z" fill="#2C2C2C"/>
<path d="M147.956 1.76788H146.579V2.22751H147.956V1.76788Z" fill="#2C2C2C"/>
<path d="M147.956 0.523499H146.449V0.981503H147.956V0.523499Z" fill="#2C2C2C"/>
<path d="M146.185 0H145.727V1.50741H146.185V0Z" fill="#2C2C2C"/>
<path d="M144.94 0H144.482V1.50741H144.94V0Z" fill="#2C2C2C"/>
<path d="M143.696 0H143.238V1.50741H143.696V0Z" fill="#2C2C2C"/>
<path d="M142.518 0H141.993V1.50741H142.518V0Z" fill="#2C2C2C"/>
<path d="M141.271 0H140.749V1.50741H141.271V0Z" fill="#2C2C2C"/>
<path d="M140.028 0H139.503V1.50741H140.028V0Z" fill="#2C2C2C"/>
<path d="M138.783 0H138.259V1.50741H138.783V0Z" fill="#2C2C2C"/>
<path d="M137.538 0H137.014V1.50741H137.538V0Z" fill="#2C2C2C"/>
<path d="M136.291 0H135.833V1.50741H136.291V0Z" fill="#2C2C2C"/>
<path d="M135.048 0H134.587V1.50741H135.048V0Z" fill="#2C2C2C"/>
<path d="M133.803 0H133.345V1.50741H133.803V0Z" fill="#2C2C2C"/>
<path d="M132.558 0H132.1V1.50741H132.558V0Z" fill="#2C2C2C"/>
<path d="M131.38 0H130.856V1.50741H131.38V0Z" fill="#2C2C2C"/>
<path d="M130.134 0H129.61V1.50741H130.134V0Z" fill="#2C2C2C"/>
<path d="M128.891 0H128.367V1.50741H128.891V0Z" fill="#2C2C2C"/>
<path d="M127.645 0H127.121V1.50741H127.645V0Z" fill="#2C2C2C"/>
<path d="M126.4 0H125.874V1.50741H126.4V0Z" fill="#2C2C2C"/>
<path d="M125.156 0H124.632V1.50741H125.156V0Z" fill="#2C2C2C"/>
<path d="M123.909 0H123.449V1.50741H123.909V0Z" fill="#2C2C2C"/>
<path d="M122.664 0H122.206V1.50741H122.664V0Z" fill="#2C2C2C"/>
<path d="M121.421 0H120.961V1.50741H121.421V0Z" fill="#2C2C2C"/>
<path d="M120.172 0H119.716V1.50741H120.172V0Z" fill="#2C2C2C"/>
<path d="M118.995 0H118.471V1.50741H118.995V0Z" fill="#2C2C2C"/>
<path d="M117.751 0H117.225V1.50741H117.751V0Z" fill="#2C2C2C"/>
<path d="M116.505 0H115.981V1.50741H116.505V0Z" fill="#2C2C2C"/>
<path d="M115.26 0H114.736V1.50741H115.26V0Z" fill="#2C2C2C"/>
<path d="M114.014 0H113.492V1.50741H114.014V0Z" fill="#2C2C2C"/>
<path d="M112.771 0H112.312V1.50741H112.771V0Z" fill="#2C2C2C"/>
<path d="M111.523 0H111.065V1.50741H111.523V0Z" fill="#2C2C2C"/>
<path d="M110.281 0H109.82V1.50741H110.281V0Z" fill="#2C2C2C"/>
<path d="M109.033 0H108.576V1.50741H109.033V0Z" fill="#2C2C2C"/>
<path d="M107.789 0H107.331V1.50741H107.789V0Z" fill="#2C2C2C"/>
<path d="M106.609 0H106.085V1.50741H106.609V0Z" fill="#2C2C2C"/>
<path d="M105.365 0H104.84V1.50741H105.365V0Z" fill="#2C2C2C"/>
<path d="M105.822 1.76788H104.383V2.22751H105.822V1.76788Z" fill="#2C2C2C"/>
<path d="M105.822 3.01489H104.383V3.47128H105.822V3.01489Z" fill="#2C2C2C"/>
<path d="M105.822 4.25897H104.383V4.71693H105.822V4.25897Z" fill="#2C2C2C"/>
<path d="M105.822 5.43835H104.383V5.96227H105.822V5.43835Z" fill="#2C2C2C"/>
<path d="M105.822 6.68195H104.383V7.20905H105.822V6.68195Z" fill="#2C2C2C"/>
<path d="M105.822 7.92761H104.383V8.45148H105.822V7.92761Z" fill="#2C2C2C"/>
<path d="M105.822 9.17438H104.383V9.69825H105.822V9.17438Z" fill="#2C2C2C"/>
<path d="M105.822 10.42H104.383V10.9423H105.822V10.42Z" fill="#2C2C2C"/>
<path d="M105.822 11.6636H104.383V12.1233H105.822V11.6636Z" fill="#2C2C2C"/>
<path d="M264.197 76.0746H263.936V76.531H264.197V76.0746Z" fill="#2C2C2C"/>
<path d="M264.197 33.9419H263.936V34.4658H264.197V33.9419Z" fill="#2C2C2C"/>
<path d="M265.048 75.5487H264.592V77.0561H265.048V75.5487Z" fill="#2C2C2C"/>
<path d="M266.293 75.5487H265.835V77.0561H266.293V75.5487Z" fill="#2C2C2C"/>
<path d="M267.539 75.5487H267.081V77.0561H267.539V75.5487Z" fill="#2C2C2C"/>
<path d="M268.783 75.5487H268.325V77.0561H268.783V75.5487Z" fill="#2C2C2C"/>
<path d="M270.028 75.5487H269.504V77.0561H270.028V75.5487Z" fill="#2C2C2C"/>
<path d="M271.275 75.5487H270.751V77.0561H271.275V75.5487Z" fill="#2C2C2C"/>
<path d="M272.52 75.5487H271.993V77.0561H272.52V75.5487Z" fill="#2C2C2C"/>
<path d="M273.764 75.5487H273.24V77.0561H273.764V75.5487Z" fill="#2C2C2C"/>
<path d="M275.01 75.5487H274.486V77.0561H275.01V75.5487Z" fill="#2C2C2C"/>
<path d="M276.188 75.5487H275.731V77.0561H276.188V75.5487Z" fill="#2C2C2C"/>
<path d="M276.714 74.8289H275.207V75.2853H276.714V74.8289Z" fill="#2C2C2C"/>
<path d="M276.714 73.5836H275.207V74.0416H276.714V73.5836Z" fill="#2C2C2C"/>
<path d="M276.714 72.3379H275.207V72.7959H276.714V72.3379Z" fill="#2C2C2C"/>
<path d="M276.714 71.0942H275.207V71.618H276.714V71.0942Z" fill="#2C2C2C"/>
<path d="M276.714 69.8505H275.207V70.3744H276.714V69.8505Z" fill="#2C2C2C"/>
<path d="M276.714 68.6049H275.207V69.1287H276.714V68.6049Z" fill="#2C2C2C"/>
<path d="M276.714 67.3596H275.207V67.8835H276.714V67.3596Z" fill="#2C2C2C"/>
<path d="M276.714 66.1122H275.207V66.6361H276.714V66.1122Z" fill="#2C2C2C"/>
<path d="M276.714 64.8702H275.207V65.3941H276.714V64.8702Z" fill="#2C2C2C"/>
<path d="M276.714 63.6893H275.207V64.1488H276.714V63.6893Z" fill="#2C2C2C"/>
<path d="M276.714 62.4437H275.207V62.9033H276.714V62.4437Z" fill="#2C2C2C"/>
<path d="M276.714 61.1998H275.207V61.6595H276.714V61.1998Z" fill="#2C2C2C"/>
<path d="M276.714 59.9545H275.207V60.4125H276.714V59.9545Z" fill="#2C2C2C"/>
<path d="M276.714 58.709H275.207V59.2329H276.714V58.709Z" fill="#2C2C2C"/>
<path d="M276.714 57.4668H275.207V57.9907H276.714V57.4668Z" fill="#2C2C2C"/>
<path d="M276.714 56.22H275.207V56.7438H276.714V56.22Z" fill="#2C2C2C"/>
<path d="M276.714 54.9741H275.207V55.498H276.714V54.9741Z" fill="#2C2C2C"/>
<path d="M276.714 53.729H275.207V54.2513H276.714V53.729Z" fill="#2C2C2C"/>
<path d="M276.714 52.5508H275.207V53.0088H276.714V52.5508Z" fill="#2C2C2C"/>
<path d="M276.714 51.3055H275.207V51.7651H276.714V51.3055Z" fill="#2C2C2C"/>
<path d="M276.714 50.0618H275.207V50.5182H276.714V50.0618Z" fill="#2C2C2C"/>
<path d="M276.714 48.8162H275.207V49.2742H276.714V48.8162Z" fill="#2C2C2C"/>
<path d="M276.714 47.5709H275.207V48.0289H276.714V47.5709Z" fill="#2C2C2C"/>
<path d="M276.714 46.3237H275.207V46.8508H276.714V46.3237Z" fill="#2C2C2C"/>
<path d="M276.714 45.0798H275.207V45.6053H276.714V45.0798Z" fill="#2C2C2C"/>
<path d="M276.714 43.8347H275.207V44.3585H276.714V43.8347Z" fill="#2C2C2C"/>
<path d="M276.714 42.5905H275.207V43.1128H276.714V42.5905Z" fill="#2C2C2C"/>
<path d="M276.714 41.3436H275.207V41.8675H276.714V41.3436Z" fill="#2C2C2C"/>
<path d="M276.714 40.1655H275.207V40.6235H276.714V40.1655Z" fill="#2C2C2C"/>
<path d="M276.714 38.9202H275.207V39.3781H276.714V38.9202Z" fill="#2C2C2C"/>
<path d="M276.714 37.6766H275.207V38.1346H276.714V37.6766Z" fill="#2C2C2C"/>
<path d="M276.714 36.4309H275.207V36.8889H276.714V36.4309Z" fill="#2C2C2C"/>
<path d="M276.714 35.1839H275.207V35.7094H276.714V35.1839Z" fill="#2C2C2C"/>
<path d="M276.714 33.9419H275.207V34.4658H276.714V33.9419Z" fill="#2C2C2C"/>
<path d="M275.01 33.4194H274.486V34.9252H275.01V33.4194Z" fill="#2C2C2C"/>
<path d="M273.764 33.4194H273.24V34.9252H273.764V33.4194Z" fill="#2C2C2C"/>
<path d="M272.52 33.4194H271.993V34.9252H272.52V33.4194Z" fill="#2C2C2C"/>
<path d="M271.275 33.4194H270.751V34.9252H271.275V33.4194Z" fill="#2C2C2C"/>
<path d="M270.028 33.4194H269.504V34.9252H270.028V33.4194Z" fill="#2C2C2C"/>
<path d="M268.783 33.4194H268.325V34.9252H268.783V33.4194Z" fill="#2C2C2C"/>
<path d="M267.539 33.4194H267.081V34.9252H267.539V33.4194Z" fill="#2C2C2C"/>
<path d="M266.293 33.4194H265.835V34.9252H266.293V33.4194Z" fill="#2C2C2C"/>
<path d="M265.048 33.4194H264.592V34.9252H265.048V33.4194Z" fill="#2C2C2C"/>
<path d="M225.266 87.6128H225.223" stroke="#2C2C2C" stroke-width="0.272" stroke-miterlimit="10" stroke-linecap="round"/>
<path d="M223.9 87.6129H213.093C211.06 87.6129 211.06 87.6129 211.06 84.934V40.3041C211.06 37.6268 211.06 37.6268 213.093 37.6268H224.561" stroke="#2C2C2C" stroke-width="0.272" stroke-miterlimit="10" stroke-linecap="round" stroke-dasharray="0.05 0.82"/>
<path d="M225.223 37.6268H225.264" stroke="#2C2C2C" stroke-width="0.272" stroke-miterlimit="10" stroke-linecap="round"/>
<path d="M248.175 87.158V71.5812C248.175 71.2727 247.925 71.022 247.615 71.022H226.526C226.216 71.022 225.963 71.271 225.963 71.5812V87.158C225.963 87.4666 226.214 87.7172 226.526 87.7172H230.273V86.7C230.273 86.2259 230.712 85.8402 231.257 85.8402H234.855C234.768 85.8097 234.752 85.731 234.802 85.5928C234.863 85.4208 234.939 85.2456 235.037 85.0914C235.371 84.5578 235.496 83.9649 235.613 83.3622C235.75 82.6744 236.17 80.7685 236.341 80.0887C236.515 79.417 236.433 78.7453 237.012 78.3034C237.176 78.1812 237.486 78.1089 237.764 77.9595C238.122 77.765 238.055 77.4564 237.773 77.6348C237.571 77.765 237.203 77.953 236.933 78.1041C236.928 77.7297 236.906 77.3038 236.918 76.8795C236.93 76.4906 237.01 76.4504 237.362 76.6449C237.765 76.8683 238.186 76.9904 238.651 77.021C239.057 77.0499 239.466 77.1077 239.867 77.1817C240.814 77.3552 241.616 77.7441 242.021 78.6874C242.103 78.9333 242.26 78.8015 242.185 78.5476C242.117 78.3275 241.754 77.9514 241.665 77.757C242.03 77.7473 242.839 77.9948 243.184 77.9948C243.395 77.9948 243.456 78.0768 243.388 78.2744C243.329 78.4528 243.244 78.6312 243.147 78.7951C242.848 79.2788 242.697 79.8123 242.607 80.3635C242.422 81.5109 241.855 83.8572 241.506 84.966C241.339 85.4995 241.238 86.0427 241.278 86.6068C241.293 86.7964 241.277 86.9924 241.253 87.1805C241.246 87.203 241.238 87.219 241.233 87.2367C241.439 87.5196 241.788 87.7172 242.201 87.7172H245.198H247.615C247.923 87.7172 248.175 87.4666 248.175 87.158Z" stroke="#2C2C2C" stroke-width="0.272" stroke-miterlimit="10"/>
<path d="M248.176 71.5813V87.1581C248.176 87.4667 247.925 87.719 247.615 87.719H244.02C243.71 87.719 243.458 87.4683 243.458 87.1581V71.5813C243.458 71.2728 243.708 71.0189 244.02 71.0189H247.615C247.923 71.0189 248.176 71.2712 248.176 71.5813Z" stroke="#2C2C2C" stroke-width="0.272" stroke-miterlimit="10"/>
<path d="M239.659 77.0901V71.022" stroke="#2C2C2C" stroke-width="0.272" stroke-miterlimit="10"/>
<path d="M245.2 87.7187H242.201C241.787 87.7187 241.441 87.521 241.232 87.2366C241.197 87.3426 241.11 87.3844 240.98 87.304C240.813 87.2028 240.642 87.1032 240.485 86.9859C240.192 86.7657 239.916 86.5311 239.622 86.3109C239.532 86.2434 239.439 86.1535 239.341 86.0844C239.154 85.9558 238.862 86.0651 239.537 86.507C239.599 86.5456 239.929 86.7978 240.027 86.875C239.087 86.8155 237.849 86.6565 237.027 86.327C236.369 86.0651 235.72 85.7919 234.986 85.8513C234.929 85.8561 234.888 85.8513 234.856 85.8401H231.256C230.713 85.8401 230.274 86.2242 230.274 86.6982V89.0541C230.274 89.5298 230.713 89.9139 231.256 89.9139H245.2V87.7187V87.7187Z" stroke="#2C2C2C" stroke-width="0.272" stroke-miterlimit="10"/>
<path d="M248.176 53.7628V38.1876C248.176 37.8775 247.925 37.6268 247.615 37.6268H245.198V37.63H242.201C241.79 37.63 241.446 37.8244 241.237 38.104C241.242 38.1201 241.248 38.1298 241.253 38.1475C241.277 38.3355 241.291 38.5299 241.279 38.7196C241.238 39.2869 241.34 39.8252 241.507 40.3619C241.855 41.4707 242.421 43.8138 242.608 44.9628C242.698 45.5156 242.849 46.0459 243.147 46.5329C243.246 46.6968 243.329 46.8719 243.389 47.0535C243.456 47.2479 243.39 47.3653 243.184 47.3331C242.76 47.2608 242.375 47.301 242.013 47.3894C241.836 46.6743 241.651 45.9961 241.508 45.5349C241.341 44.9982 241.24 44.4582 241.28 43.8925C241.295 43.7013 241.279 43.5084 241.254 43.3204C241.232 43.1694 241.136 43.1002 240.98 43.1951C240.812 43.2979 240.642 43.3959 240.486 43.5149C240.195 43.735 239.917 43.9681 239.623 44.1898C239.533 44.2557 239.439 44.3473 239.344 44.4132C239.156 44.5418 238.863 44.4341 239.538 43.9921C239.601 43.952 239.93 43.6997 240.028 43.6241C239.088 43.682 237.851 43.8411 237.026 44.1706C236.74 44.2847 236.456 44.3971 236.165 44.4855C235.969 43.6354 235.717 42.4703 235.615 41.9641C235.498 41.3647 235.374 40.7685 235.039 40.2382C234.94 40.0807 234.867 39.9087 234.804 39.7352C234.764 39.6211 234.772 39.5472 234.826 39.507H231.259C230.714 39.507 230.275 39.1229 230.275 38.6489V37.6268H226.528C226.218 37.6268 225.965 37.8759 225.965 38.1876V53.7628C225.965 54.0713 226.216 54.3236 226.528 54.3236H247.617C247.924 54.322 248.176 54.0713 248.176 53.7628Z" stroke="#2C2C2C" stroke-width="0.272" stroke-miterlimit="10"/>
<path d="M248.176 38.1843V53.7611C248.176 54.0712 247.925 54.3235 247.615 54.3235H244.02C243.71 54.3235 243.458 54.0728 243.458 53.7611V38.1843C243.458 37.8774 243.708 37.6235 244.02 37.6235H247.615C247.923 37.6251 248.176 37.8774 248.176 38.1843Z" stroke="#2C2C2C" stroke-width="0.272" stroke-miterlimit="10"/>
<path d="M239.659 54.3217V53.4363" stroke="#2C2C2C" stroke-width="0.272" stroke-miterlimit="10"/>
<path d="M234.987 39.4732C235.722 39.5327 236.371 39.261 237.027 38.9975C237.853 38.6681 239.088 38.5074 240.029 38.4511C239.93 38.5283 239.601 38.7773 239.538 38.8191C238.863 39.2611 239.156 39.3687 239.344 39.2402C239.439 39.1743 239.534 39.0843 239.625 39.0168C239.916 38.7967 240.196 38.5604 240.487 38.3402C240.644 38.2245 240.813 38.1249 240.98 38.0221C241.116 37.9385 241.208 37.9883 241.239 38.104C241.447 37.8244 241.791 37.63 242.203 37.63H245.2V35.4332H231.259C230.714 35.4332 230.274 35.8156 230.274 36.2897V38.6472C230.274 39.1213 230.714 39.5069 231.259 39.5069H234.825C234.86 39.4812 234.91 39.4668 234.987 39.4732Z" stroke="#2C2C2C" stroke-width="0.272" stroke-miterlimit="10"/>
<path d="M248.175 54.8826V70.4593C248.175 70.7679 247.925 71.0202 247.615 71.0202H226.526C226.216 71.0202 225.963 70.7695 225.963 70.4593V54.8826C225.963 54.574 226.214 54.3234 226.526 54.3234H247.615C247.923 54.3234 248.175 54.574 248.175 54.8826Z" stroke="#2C2C2C" stroke-width="0.272" stroke-miterlimit="10"/>
<path d="M248.176 54.8826V70.4593C248.176 70.7679 247.925 71.0202 247.615 71.0202H244.02C243.71 71.0202 243.458 70.7695 243.458 70.4593V54.8826C243.458 54.574 243.708 54.3234 244.02 54.3234H247.615C247.923 54.3234 248.176 54.574 248.176 54.8826Z" stroke="#2C2C2C" stroke-width="0.272" stroke-miterlimit="10"/>
<path d="M239.659 71.0202V54.3234" stroke="#2C2C2C" stroke-width="0.272" stroke-miterlimit="10"/>
<path d="M236.934 78.1024C237.203 77.9497 237.571 77.7633 237.772 77.6316C238.053 77.4548 238.12 77.7633 237.764 77.9545C237.486 78.1056 237.174 78.1779 237.012 78.3C236.431 78.742 236.515 79.4137 236.343 80.0855C236.168 80.7636 235.75 82.6728 235.613 83.3606C235.495 83.96 235.369 84.5578 235.037 85.0881C234.938 85.2439 234.866 85.4175 234.804 85.5895C234.734 85.7791 234.786 85.8691 234.985 85.8498C235.72 85.7903 236.367 86.0636 237.024 86.3271C237.849 86.6566 239.086 86.8172 240.026 86.8735C239.927 86.7947 239.599 86.5473 239.536 86.5055C238.861 86.0636 239.155 85.9543 239.342 86.0812C239.438 86.1503 239.531 86.2387 239.623 86.3078C239.914 86.528 240.192 86.7626 240.486 86.9828C240.64 87.1001 240.811 87.1997 240.979 87.3009C241.132 87.3974 241.23 87.3283 241.251 87.1772C241.278 86.9876 241.291 86.7947 241.28 86.6035C241.238 86.0378 241.341 85.4978 241.508 84.9627C241.853 83.8523 242.422 81.5077 242.607 80.3603C242.697 79.8074 242.85 79.2771 243.147 78.7902C243.247 78.6279 243.327 78.4495 243.39 78.2695C243.456 78.0751 243.395 77.9931 243.184 77.9915C242.84 77.9915 242.03 77.744 241.664 77.7537C241.755 77.9481 242.119 78.3226 242.184 78.5443C242.262 78.7982 242.103 78.9316 242.021 78.6825C241.614 77.7408 240.814 77.3551 239.867 77.1784C239.465 77.1028 239.056 77.0434 238.649 77.0176C238.186 76.9871 237.765 76.8634 237.362 76.6416C237.008 76.4456 236.93 76.4874 236.918 76.8763C236.905 77.2989 236.928 77.7264 236.934 78.1024Z" stroke="#2C2C2C" stroke-width="0.272" stroke-miterlimit="10"/>
<path d="M237.025 44.1704C237.849 43.8394 239.086 43.6819 240.027 43.624C239.927 43.6995 239.599 43.9502 239.536 43.992C238.863 44.4339 239.154 44.5417 239.342 44.4131C239.438 44.3472 239.532 44.2588 239.623 44.1897C239.914 43.9679 240.192 43.7349 240.485 43.5147C240.642 43.3958 240.811 43.2962 240.98 43.1949C241.132 43.1001 241.23 43.1676 241.251 43.3203C241.277 43.5067 241.291 43.7028 241.28 43.8924C241.238 44.4597 241.341 44.998 241.507 45.5348C241.651 45.996 241.834 46.6741 242.011 47.3893C242.376 47.3025 242.762 47.2607 243.183 47.333C243.39 47.3668 243.454 47.2478 243.387 47.0534C243.326 46.8718 243.244 46.6951 243.146 46.5327C242.849 46.0458 242.696 45.5155 242.606 44.9627C242.423 43.8153 241.852 41.4706 241.505 40.3618C241.34 39.825 241.237 39.2835 241.278 38.721C241.291 38.5298 241.275 38.3353 241.249 38.1457C241.229 37.9947 241.131 37.9288 240.978 38.022C240.811 38.1232 240.64 38.2229 240.483 38.3402C240.19 38.5619 239.912 38.7966 239.622 39.0167C239.53 39.0842 239.437 39.1742 239.34 39.2401C239.152 39.3686 238.862 39.2626 239.535 38.8191C239.598 38.7789 239.925 38.5282 240.025 38.451C239.085 38.5073 237.847 38.6664 237.023 38.9974C236.367 39.261 235.718 39.5326 234.984 39.4731C234.785 39.4555 234.733 39.5438 234.801 39.7334C234.863 39.907 234.937 40.0806 235.035 40.2365C235.369 40.7668 235.493 41.363 235.612 41.964C235.713 42.467 235.966 43.6337 236.16 44.4838C236.454 44.397 236.74 44.2845 237.025 44.1704Z" stroke="#2C2C2C" stroke-width="0.272" stroke-miterlimit="10"/>
<path d="M236.934 52.3967C237.203 52.5478 237.571 52.7358 237.772 52.8643C238.053 53.0459 238.12 52.7358 237.764 52.543C237.486 52.3903 237.174 52.3212 237.012 52.1959C236.431 51.7555 236.515 51.0838 236.343 50.412C236.168 49.7339 235.75 47.8248 235.613 47.137C235.495 46.5376 235.369 45.9414 235.037 45.4095C234.938 45.2552 234.866 45.0816 234.804 44.9064C234.734 44.7184 234.786 44.6301 234.985 44.6477C235.72 44.7056 236.367 44.4356 237.024 44.172C237.849 43.8426 239.086 43.6819 240.026 43.6256C239.927 43.7012 239.599 43.9519 239.536 43.9937C238.861 44.4356 239.155 44.5432 239.342 44.4147C239.438 44.3488 239.531 44.2588 239.623 44.1897C239.914 43.9712 240.192 43.7349 240.486 43.5164C240.64 43.3975 240.811 43.2994 240.979 43.1966C241.132 43.1018 241.23 43.1693 241.251 43.3203C241.278 43.5099 241.291 43.7044 241.28 43.8956C241.238 44.4597 241.341 45.0012 241.508 45.5364C241.853 46.6452 242.422 48.9899 242.607 50.1389C242.697 50.6917 242.85 51.2236 243.147 51.7089C243.247 51.8728 243.327 52.0512 243.39 52.2296C243.456 52.424 243.395 52.506 243.184 52.5076C242.84 52.5076 242.03 52.7551 241.664 52.7455C241.755 52.551 242.119 52.1766 242.184 51.9548C242.262 51.7009 242.103 51.5691 242.021 51.8166C241.614 52.7599 240.814 53.1456 239.867 53.3224C239.465 53.3947 239.056 53.4542 238.649 53.4799C238.186 53.512 237.765 53.6357 237.362 53.8591C237.008 54.0536 236.93 54.0134 236.918 53.6245C236.905 53.197 236.928 52.7728 236.934 52.3967Z" stroke="#2C2C2C" stroke-width="0.272" stroke-miterlimit="10"/>
<path d="M180.586 49.0796H173.185V43.0661V35.2753V29.2619H180.586V35.2753V43.0661V49.0796Z" stroke="#2C2C2C" stroke-width="0.272" stroke-miterlimit="10" stroke-linejoin="round"/>
<path d="M180.612 49.0796H179.876V43.0661V35.2753V29.2619H180.612V35.2753V49.0796ZM180.612 49.0796V43.0661V49.0796Z" stroke="#2C2C2C" stroke-width="0.272" stroke-miterlimit="10" stroke-linejoin="round"/>
<path d="M179.876 49.0798H180.612H179.876Z" stroke="#2C2C2C" stroke-width="0.272" stroke-miterlimit="10" stroke-linejoin="round"/>
<path d="M179.876 49.0798H180.612H179.876Z" stroke="#2C2C2C" stroke-width="0.272" stroke-miterlimit="10" stroke-linejoin="round"/>
<path d="M179.876 39.171H180.612H179.876Z" stroke="#2C2C2C" stroke-width="0.272" stroke-miterlimit="10" stroke-linejoin="round"/>
<path d="M179.876 29.2635H180.612H179.876Z" stroke="#2C2C2C" stroke-width="0.272" stroke-miterlimit="10" stroke-linejoin="round"/>
<path d="M180.614 49.0782H169.469V93.6567H180.614V49.0782Z" stroke="#2C2C2C" stroke-width="0.272" stroke-miterlimit="10" stroke-linejoin="round"/>
<path d="M171.854 52.6343H170.742V77.3999H171.854V52.6343Z" stroke="#2C2C2C" stroke-width="0.272" stroke-miterlimit="10" stroke-linejoin="round"/>
<path d="M169.647 69.3282V60.639L170.764 53.9973V76.0326L169.647 69.3282Z" stroke="#2C2C2C" stroke-width="0.272" stroke-miterlimit="10" stroke-linejoin="round"/>
<path d="M171.3 59.2697V54.4246" stroke="#2C2C2C" stroke-width="0.272" stroke-miterlimit="10" stroke-linejoin="round"/>
<path d="M101.367 25.4889H76.6016V26.6025H101.367V25.4889Z" stroke="#2C2C2C" stroke-width="0.272" stroke-miterlimit="10" stroke-linejoin="round"/>
<path d="M84.6721 24.3926H93.3612L100.003 25.5111H77.9692L84.6721 24.3926Z" stroke="#2C2C2C" stroke-width="0.272" stroke-miterlimit="10" stroke-linejoin="round"/>
<path d="M94.73 26.0465H99.5751" stroke="#2C2C2C" stroke-width="0.272" stroke-miterlimit="10" stroke-linejoin="round"/>
<path d="M26.7759 125.323H41.6343V130.48V169.694V174.854H26.7759V169.694V130.48V125.323Z" stroke="#2C2C2C" stroke-width="0.272" stroke-miterlimit="10" stroke-linejoin="round"/>
<path d="M40.9561 125.323H41.6342V126.612V136.415V137.705H40.9561V136.415V126.612V125.323Z" stroke="#2C2C2C" stroke-width="0.272" stroke-miterlimit="10" stroke-linejoin="round"/>
<path d="M40.9561 150.087H41.6342V148.8V138.994V137.705H40.9561V138.994V148.8V150.087Z" stroke="#2C2C2C" stroke-width="0.272" stroke-miterlimit="10" stroke-linejoin="round"/>
<path d="M40.9561 162.469H41.6342V161.182V151.376V150.087H40.9561V151.376V161.182V162.469Z" stroke="#2C2C2C" stroke-width="0.272" stroke-miterlimit="10" stroke-linejoin="round"/>
<path d="M40.9561 174.851H41.6342V173.564V163.759V162.469H40.9561V163.759V173.564V174.851Z" stroke="#2C2C2C" stroke-width="0.272" stroke-miterlimit="10" stroke-linejoin="round"/>
<path d="M35.6192 149.367C36.0515 149.367 36.4019 149.709 36.4019 150.133C36.4019 150.554 36.0499 150.897 35.6192 150.897C35.3043 150.897 35.0343 150.712 34.9057 150.448C34.7868 150.207 34.6293 150.132 34.5007 150.122C34.3224 150.109 34.1809 150.244 34.1247 150.363C34.0958 150.423 34.0604 150.505 34.0604 150.505L32.2509 155.303C32.0468 155.698 31.4346 155.557 31.4346 155.115V145.058C31.4346 144.617 32.0468 144.475 32.2509 144.87L33.9206 149.422" stroke="#2C2C2C" stroke-width="0.272" stroke-miterlimit="10" stroke-linejoin="round"/>
<path d="M35.5615 152.975V157.905" stroke="#2C2C2C" stroke-width="0.272" stroke-miterlimit="10" stroke-linejoin="round"/>
<path d="M35.5615 142.269V147.202" stroke="#2C2C2C" stroke-width="0.272" stroke-miterlimit="10" stroke-linejoin="round"/>
<path d="M36.6815 95.111H26.7759V124.83H36.6815V95.111Z" stroke="#2C2C2C" stroke-width="0.272" stroke-miterlimit="10" stroke-linejoin="round"/>
<path d="M37.0337 99.6944V100.371" stroke="#2C2C2C" stroke-width="0.272" stroke-miterlimit="10" stroke-linejoin="round"/>
<path d="M36.6816 100.033H37.0352" stroke="#2C2C2C" stroke-width="0.272" stroke-miterlimit="10" stroke-linejoin="round"/>
<path d="M37.0337 109.579V110.257" stroke="#2C2C2C" stroke-width="0.272" stroke-miterlimit="10" stroke-linejoin="round"/>
<path d="M36.6816 109.918H37.0352" stroke="#2C2C2C" stroke-width="0.272" stroke-miterlimit="10" stroke-linejoin="round"/>
<path d="M37.0337 119.466V120.144" stroke="#2C2C2C" stroke-width="0.272" stroke-miterlimit="10" stroke-linejoin="round"/>
<path d="M36.6816 119.804H37.0352" stroke="#2C2C2C" stroke-width="0.272" stroke-miterlimit="10" stroke-linejoin="round"/>
<path d="M33.1945 103.861C33.0724 104.335 33.2009 105.033 32.6642 105.639C32.0262 106.362 31.1568 106.641 30.7245 106.257C30.2923 105.876 30.4578 104.98 31.0974 104.257C31.6277 103.655 32.3316 103.689 32.7831 103.508C33.0836 103.385 33.1977 102.868 33.5175 102.506C34.1555 101.783 34.5509 101.087 34.959 101.451C35.3672 101.814 34.7276 102.29 34.088 103.013C33.7731 103.373 33.2733 103.548 33.1945 103.861Z" stroke="#2C2C2C" stroke-width="0.272" stroke-miterlimit="10" stroke-linejoin="round"/>
<path d="M64.8559 81.3679H52.4707V92.5126H64.8559V81.3679Z" stroke="#2C2C2C" stroke-width="0.272" stroke-miterlimit="10" stroke-linejoin="round"/>
<path d="M58.2015 87.801L61.9805 89.248L63.8683 84.3179L60.0893 82.8709L58.2015 87.801Z" stroke="#2C2C2C" stroke-width="0.272" stroke-miterlimit="10" stroke-linejoin="round"/>
<path d="M59.0211 82.949L55.9229 83.8425" stroke="#2C2C2C" stroke-width="0.272" stroke-miterlimit="10" stroke-linejoin="round"/>
<path d="M123.057 81.3679H110.672V92.5126H123.057V81.3679Z" stroke="#2C2C2C" stroke-width="0.272" stroke-miterlimit="10" stroke-linejoin="round"/>
<path d="M112.378 83.3399L113.705 82.9445C113.768 82.9237 113.836 82.9622 113.856 83.0265L114.698 85.8564C114.716 85.9223 114.681 85.9882 114.615 86.0091L113.289 86.4029C113.225 86.4221 113.157 86.3867 113.14 86.3209L112.296 83.4909C112.277 83.4266 112.315 83.3592 112.378 83.3399Z" stroke="#2C2C2C" stroke-width="0.272" stroke-miterlimit="10" stroke-linejoin="round"/>
<path d="M118.438 91.4889C120.328 91.4889 121.86 89.9571 121.86 88.0676C121.86 86.178 120.328 84.6462 118.438 84.6462C116.549 84.6462 115.017 86.178 115.017 88.0676C115.017 89.9571 116.549 91.4889 118.438 91.4889Z" stroke="#2C2C2C" stroke-width="0.272" stroke-miterlimit="10" stroke-linejoin="round"/>
<path d="M118.439 89.7742C119.381 89.7742 120.145 89.0101 120.145 88.0676C120.145 87.125 119.381 86.361 118.439 86.361C117.496 86.361 116.732 87.125 116.732 88.0676C116.732 89.0101 117.496 89.7742 118.439 89.7742Z" stroke="#2C2C2C" stroke-width="0.272" stroke-miterlimit="10" stroke-linejoin="round"/>
<path d="M118.438 88.5318C118.695 88.5318 118.902 88.3239 118.902 88.0674C118.902 87.8109 118.695 87.603 118.438 87.603C118.182 87.603 117.974 87.8109 117.974 88.0674C117.974 88.3239 118.182 88.5318 118.438 88.5318Z" stroke="#2C2C2C" stroke-width="0.272" stroke-miterlimit="10" stroke-linejoin="round"/>
<path d="M117.231 89.2729L119.645 86.8607" stroke="#2C2C2C" stroke-width="0.272" stroke-miterlimit="10" stroke-linejoin="round"/>
<path d="M117.231 86.8607L119.645 89.2729" stroke="#2C2C2C" stroke-width="0.272" stroke-miterlimit="10" stroke-linejoin="round"/>
<path d="M57.0938 91.4907C58.9842 91.4907 60.5167 89.9582 60.5167 88.0678C60.5167 86.1773 58.9842 84.6448 57.0938 84.6448C55.2034 84.6448 53.6709 86.1773 53.6709 88.0678C53.6709 89.9582 55.2034 91.4907 57.0938 91.4907Z" stroke="#2C2C2C" stroke-width="0.272" stroke-miterlimit="10" stroke-linejoin="round"/>
<path d="M57.0943 89.7742C58.0369 89.7742 58.801 89.0101 58.801 88.0676C58.801 87.125 58.0369 86.361 57.0943 86.361C56.1518 86.361 55.3877 87.125 55.3877 88.0676C55.3877 89.0101 56.1518 89.7742 57.0943 89.7742Z" stroke="#2C2C2C" stroke-width="0.272" stroke-miterlimit="10" stroke-linejoin="round"/>
<path d="M57.0938 88.5318C57.3503 88.5318 57.5583 88.3239 57.5583 88.0674C57.5583 87.8109 57.3503 87.603 57.0938 87.603C56.8373 87.603 56.6294 87.8109 56.6294 88.0674C56.6294 88.3239 56.8373 88.5318 57.0938 88.5318Z" stroke="#2C2C2C" stroke-width="0.272" stroke-miterlimit="10" stroke-linejoin="round"/>
<path d="M55.8872 89.2729L58.3009 86.8607" stroke="#2C2C2C" stroke-width="0.272" stroke-miterlimit="10" stroke-linejoin="round"/>
<path d="M55.8872 86.8607L58.3009 89.2729" stroke="#2C2C2C" stroke-width="0.272" stroke-miterlimit="10" stroke-linejoin="round"/>
<path d="M107.639 41.7921H67.8914C66.2152 41.7921 64.8589 43.1419 64.8589 44.802V90.3512C64.8589 90.8252 65.2446 91.2077 65.7219 91.2077H109.809C110.288 91.2077 110.675 90.8252 110.675 90.3512V44.802C110.673 43.1403 109.315 41.7921 107.639 41.7921Z" stroke="#2C2C2C" stroke-width="0.272" stroke-miterlimit="10" stroke-linejoin="round"/>
<path d="M109.449 91.2076H66.0898C65.7508 91.2076 65.4775 90.936 65.4775 90.605V44.585C65.4775 43.3894 66.461 42.4187 67.6775 42.4187H107.856C109.068 42.4187 110.054 43.3894 110.054 44.585V90.6114C110.053 90.9408 109.783 91.2076 109.449 91.2076Z" stroke="#2C2C2C" stroke-width="0.272" stroke-miterlimit="10" stroke-linejoin="round"/>
<path d="M110.4 92.5608H65.1276C64.9765 92.5608 64.856 92.3792 64.856 92.1574V91.5387C64.856 91.3153 64.9765 91.1337 65.1276 91.1337H110.4C110.55 91.1337 110.672 91.3153 110.672 91.5387V92.1574C110.672 92.3792 110.55 92.5608 110.4 92.5608Z" stroke="#2C2C2C" stroke-width="0.272" stroke-miterlimit="10" stroke-linejoin="round"/>
<path d="M89.0512 80.6962L89.175 86.8141C88.5868 88.9466 89.1653 90.0506 91.5517 89.5493L103.373 89.6634C105.883 89.9719 107.315 89.5782 107.495 88.3681C107.485 85.8114 107.472 83.253 107.461 80.6962H89.0512V80.6962Z" stroke="#2C2C2C" stroke-width="0.272" stroke-miterlimit="10" stroke-linejoin="round"/>
<path d="M68.0474 80.6962C68.1197 83.4426 68.1952 86.2115 68.2708 88.9595C67.8658 89.9799 69.9372 90.0266 72.134 90.0234C75.0941 89.9607 80.439 89.8964 83.3992 89.8337C86.6405 89.6071 86.4059 89.162 86.4091 88.7313C86.4091 86.0315 86.4123 83.3944 86.4123 80.6962H68.0474Z" stroke="#2C2C2C" stroke-width="0.272" stroke-miterlimit="10" stroke-linejoin="round"/>
<path d="M65.4875 79.5678C65.4875 80.2171 66.4758 80.6333 67.1716 80.6333H108.882C109.513 80.6333 110.053 80.0998 110.053 79.4505V70.3275C110.053 71.4235 109.134 72.4633 108.028 72.3138C96.199 70.7373 81.1703 70.5782 67.959 72.3138C65.8105 72.5983 65.4746 70.6843 65.4746 70.6843L65.4875 79.5678Z" stroke="#2C2C2C" stroke-width="0.272" stroke-miterlimit="10" stroke-linejoin="round"/>
<path d="M105.5 74.4722C105.5 74.4722 103.39 77.3584 100.279 77.4693" stroke="#2C2C2C" stroke-width="0.272" stroke-miterlimit="10" stroke-linejoin="round"/>
<path d="M82.3594 72.7672C82.3594 72.7672 70.985 75.7273 68.0972 79.1727" stroke="#2C2C2C" stroke-width="0.272" stroke-miterlimit="10" stroke-linejoin="round"/>
<path d="M90.5425 73.188C90.5425 73.188 98.4297 71.9136 85.3599 78.8463" stroke="#2C2C2C" stroke-width="0.272" stroke-miterlimit="10" stroke-linejoin="round"/>
<path d="M167.025 92.6508H152.165V88.1158V53.6132V49.0782H167.025V53.6132V88.1158V92.6508Z" stroke="#2C2C2C" stroke-width="0.272" stroke-miterlimit="10" stroke-linejoin="round"/>
<path d="M152.841 92.6507H152.167V91.5177V82.8928V81.7583H152.841V82.8928V91.5177V92.6507Z" stroke="#2C2C2C" stroke-width="0.272" stroke-miterlimit="10" stroke-linejoin="round"/>
<path d="M152.841 70.8643H152.167V71.9972V80.6236V81.7598H152.841V80.6236V71.9972V70.8643Z" stroke="#2C2C2C" stroke-width="0.272" stroke-miterlimit="10" stroke-linejoin="round"/>
<path d="M152.841 59.9706H152.167V61.1052V69.73V70.8646H152.841V69.73V61.1052V59.9706Z" stroke="#2C2C2C" stroke-width="0.272" stroke-miterlimit="10" stroke-linejoin="round"/>
<path d="M152.841 49.0798H152.167V50.2127V58.8375V59.9705H152.841V58.8375V50.2127V49.0798Z" stroke="#2C2C2C" stroke-width="0.272" stroke-miterlimit="10" stroke-linejoin="round"/>
<path d="M161.582 70.0575C162.014 70.0575 162.363 70.3998 162.363 70.8241C162.363 71.2451 162.013 71.5874 161.582 71.5874C161.266 71.5874 160.997 71.3993 160.869 71.139C160.748 70.8963 160.591 70.8192 160.464 70.8128C160.282 70.7999 160.144 70.9349 160.086 71.0538C160.057 71.1101 160.022 71.1953 160.022 71.1953L158.212 75.9938C158.008 76.3891 157.397 76.2477 157.397 75.8042V65.7491C157.397 65.3072 158.008 65.1657 158.212 65.5611L159.88 70.1105" stroke="#2C2C2C" stroke-width="0.272" stroke-miterlimit="10" stroke-linejoin="round"/>
<path d="M161.522 73.6641V78.596" stroke="#2C2C2C" stroke-width="0.272" stroke-miterlimit="10" stroke-linejoin="round"/>
<path d="M161.522 62.9579V67.8898" stroke="#2C2C2C" stroke-width="0.272" stroke-miterlimit="10" stroke-linejoin="round"/>
<path d="M146.568 37.4449H146.567H146.568Z" stroke="#2C2C2C" stroke-width="0.272" stroke-miterlimit="10" stroke-linejoin="round"/>
<path d="M145.743 36.0101C146.367 34.8081 147.246 33.7908 148.297 32.9937C148.031 32.8089 147.747 32.645 147.44 32.51C147.07 32.3445 146.688 32.2352 146.305 32.1677C146.211 33.479 146.021 34.7807 145.733 36.0599C145.738 36.0422 145.741 36.0278 145.743 36.0101Z" stroke="#2C2C2C" stroke-width="0.272" stroke-miterlimit="10" stroke-linejoin="round"/>
<path d="M147.083 37.4352C148.087 37.9688 149 38.6228 149.826 39.3797C149.879 39.2785 149.932 39.1756 149.98 39.0712C150.345 38.2468 150.463 37.3758 150.374 36.5417C149.342 37.0512 148.226 37.3645 147.083 37.4352Z" stroke="#2C2C2C" stroke-width="0.272" stroke-miterlimit="10" stroke-linejoin="round"/>
<path d="M145.126 38.2855C145.128 38.2823 145.128 38.2791 145.128 38.2791C144.752 39.4587 144.288 40.6109 143.741 41.731C144.633 42.054 145.564 42.107 146.438 41.927C145.758 40.8214 145.305 39.5567 145.126 38.2855Z" stroke="#2C2C2C" stroke-width="0.272" stroke-miterlimit="10" stroke-linejoin="round"/>
<path d="M146.905 38.5906C147.156 39.6095 147.273 40.6492 147.236 41.697C147.982 41.4045 148.66 40.9337 149.197 40.3118C148.384 39.865 147.611 39.2977 146.905 38.5906Z" stroke="#2C2C2C" stroke-width="0.272" stroke-miterlimit="10" stroke-linejoin="round"/>
<path d="M142.995 38.9218C142.434 39.2174 141.837 39.4842 141.228 39.7156C141.493 40.1399 141.829 40.5223 142.216 40.8534C142.462 39.9454 142.798 39.3396 142.995 38.9218Z" stroke="#2C2C2C" stroke-width="0.272" stroke-miterlimit="10" stroke-linejoin="round"/>
<path d="M147.376 35.8492C148.334 35.7641 149.298 35.7688 150.252 35.8588C150.056 35.0618 149.664 34.3209 149.102 33.7054C148.488 34.3868 147.908 35.102 147.376 35.8492Z" stroke="#2C2C2C" stroke-width="0.272" stroke-miterlimit="10" stroke-linejoin="round"/>
<path d="M142.282 34.7565C142.065 34.4479 141.861 34.1297 141.668 33.8035C141.456 34.0509 141.266 34.321 141.103 34.6118C141.488 34.6343 141.877 34.6793 142.282 34.7565Z" stroke="#2C2C2C" stroke-width="0.272" stroke-miterlimit="10" stroke-linejoin="round"/>
<path d="M141.091 36.9084C140.888 36.8537 140.681 36.7814 140.474 36.7123C140.464 36.8441 140.458 36.9758 140.459 37.1076C140.668 37.0353 140.879 36.9694 141.091 36.9084Z" stroke="#2C2C2C" stroke-width="0.272" stroke-miterlimit="10" stroke-linejoin="round"/>
<path d="M141.649 37.7165C141.266 37.7133 140.882 37.7004 140.503 37.6827C140.537 37.9575 140.593 38.2275 140.672 38.4911C140.958 38.197 141.273 37.927 141.649 37.7165Z" stroke="#2C2C2C" stroke-width="0.272" stroke-miterlimit="10" stroke-linejoin="round"/>
<path d="M144.31 34.6265C144.268 34.5413 144.236 34.4787 144.236 34.4787C144.055 33.7539 143.984 33.0227 144.001 32.3011C143.662 32.4008 143.336 32.5406 143.024 32.7157C143.521 33.2991 143.947 33.9451 144.3 34.6265H144.31Z" stroke="#2C2C2C" stroke-width="0.272" stroke-miterlimit="10" stroke-linejoin="round"/>
<path d="M145.743 36.0099C145.738 36.0292 145.735 36.0469 145.73 36.0662C146.272 35.9649 146.822 35.8974 147.373 35.8476C148.531 34.2277 149.88 32.7525 151.394 31.462C148.951 32.1306 146.908 33.7633 145.743 36.0099Z" stroke="#2C2C2C" stroke-width="0.272" stroke-miterlimit="10" stroke-linejoin="round"/>
<path d="M146.569 37.4451C146.703 37.8212 146.807 38.2069 146.905 38.5909C148.252 39.9408 149.846 40.8006 151.488 41.2313C150.343 39.6162 148.832 38.366 147.085 37.4371C146.913 37.4452 146.741 37.4467 146.569 37.4451Z" stroke="#2C2C2C" stroke-width="0.272" stroke-miterlimit="10" stroke-linejoin="round"/>
<path d="M145.404 37.3648C145.414 37.3294 145.422 37.2941 145.431 37.2603C145.337 37.6026 145.237 37.9481 145.129 38.2872C145.362 39.9537 146.06 41.6105 147.132 42.9074C147.419 41.0706 147.193 39.1952 146.571 37.4483C146.18 37.4451 145.791 37.4242 145.404 37.3648Z" stroke="#2C2C2C" stroke-width="0.272" stroke-miterlimit="10" stroke-linejoin="round"/>
<path d="M145.404 37.3646C147.477 37.6827 149.592 37.146 151.342 35.9922C149.499 35.682 147.567 35.7158 145.732 36.0709C145.633 36.5032 145.525 36.9355 145.404 37.3646Z" stroke="#2C2C2C" stroke-width="0.272" stroke-miterlimit="10" stroke-linejoin="round"/>
<path d="M142.995 38.9221C143.238 38.4914 143.693 37.8679 143.932 37.6044C143.177 37.6895 142.412 37.7185 141.648 37.7153C140.646 38.2793 139.972 39.176 139.551 40.2575C140.715 39.9586 141.926 39.4845 142.995 38.9221Z" stroke="#2C2C2C" stroke-width="0.272" stroke-miterlimit="10" stroke-linejoin="round"/>
<path d="M145.057 36.5325C142.582 38.4802 141.443 41.6541 142.126 44.5869C145.514 39.3994 146.949 33.1771 146.177 27.0303C144.281 29.023 143.566 31.8144 144.236 34.4772C144.236 34.4772 144.511 35.0059 144.71 35.5089C144.932 36.0681 145.057 36.5325 145.057 36.5325Z" stroke="#2C2C2C" stroke-width="0.272" stroke-miterlimit="10" stroke-linejoin="round"/>
<path d="M143.765 36.521C143.426 36.1723 142.708 35.3961 142.282 34.7533C140.527 34.4239 138.991 34.5958 137.48 35.1085C138.46 35.9473 139.837 36.5741 141.091 36.9067C141.883 36.6785 142.728 36.5243 143.765 36.521Z" stroke="#2C2C2C" stroke-width="0.272" stroke-miterlimit="10" stroke-linejoin="round"/>
<path d="M145.057 36.5322C144.319 33.9096 142.569 31.6759 140.176 30.371C140.922 32.9486 142.373 35.3479 144.396 37.114C144.396 37.114 144.631 36.8842 144.71 36.8151C144.796 36.7411 145.057 36.5322 145.057 36.5322Z" stroke="#2C2C2C" stroke-width="0.272" stroke-miterlimit="10" stroke-linejoin="round"/>
<path d="M144.397 37.1139C144.181 36.9259 143.968 36.7218 143.765 36.5209C141.87 36.5258 140.617 37.0288 139.158 37.588C140.737 37.7391 142.356 37.7792 143.932 37.6025C144.111 37.4016 144.397 37.1139 144.397 37.1139Z" stroke="#2C2C2C" stroke-width="0.272" stroke-miterlimit="10" stroke-linejoin="round"/>
<path d="M145.057 36.5322C145.057 36.5322 145.248 36.8617 145.512 36.9758" stroke="#2C2C2C" stroke-width="0.272" stroke-miterlimit="10" stroke-linejoin="round"/>
<path d="M242.262 106.719C242.239 104.793 241.495 102.88 240.028 101.412C238.561 99.9451 236.647 99.201 234.722 99.1785" stroke="#2C2C2C" stroke-width="0.272" stroke-miterlimit="22.926" stroke-linecap="round" stroke-linejoin="round"/>
<path d="M237.981 102.061L239.328 100.715" stroke="#2C2C2C" stroke-width="0.272" stroke-miterlimit="22.926" stroke-linecap="round" stroke-linejoin="round"/>
<path d="M239.385 103.466L240.734 102.117" stroke="#2C2C2C" stroke-width="0.272" stroke-miterlimit="22.926" stroke-linecap="round" stroke-linejoin="round"/>
<path d="M206.305 127.599C206.329 129.522 207.073 131.438 208.541 132.903C210.006 134.372 211.922 135.116 213.845 135.139" stroke="#2C2C2C" stroke-width="0.272" stroke-miterlimit="22.926" stroke-linecap="round" stroke-linejoin="round"/>
<path d="M210.586 132.256L209.239 133.602" stroke="#2C2C2C" stroke-width="0.272" stroke-miterlimit="22.926" stroke-linecap="round" stroke-linejoin="round"/>
<path d="M209.182 130.852L207.835 132.199" stroke="#2C2C2C" stroke-width="0.272" stroke-miterlimit="22.926" stroke-linecap="round" stroke-linejoin="round"/>
<path d="M238.746 110.577C238.489 110.837 238.209 111.06 237.915 111.258C236.416 107.8 233.643 105.028 230.184 103.527C230.381 103.234 230.606 102.956 230.863 102.696C233.041 100.52 236.568 100.52 238.744 102.696C240.92 104.873 240.92 108.401 238.746 110.577Z" stroke="#2C2C2C" stroke-width="0.272" stroke-miterlimit="10"/>
<path d="M218.385 130.79C218.187 131.082 217.962 131.36 217.704 131.619C215.528 133.795 212 133.795 209.824 131.619C207.648 129.443 207.648 125.916 209.824 123.738C210.083 123.481 210.361 123.254 210.655 123.06C212.153 126.518 214.925 129.289 218.385 130.79Z" stroke="#2C2C2C" stroke-width="0.272" stroke-miterlimit="10"/>
<path d="M213.845 99.1799C211.922 99.2024 210.005 99.9465 208.537 101.415C207.072 102.879 206.326 104.796 206.304 106.72" stroke="#2C2C2C" stroke-width="0.272" stroke-miterlimit="22.926" stroke-linecap="round" stroke-linejoin="round"/>
<path d="M209.186 103.461L207.84 102.113" stroke="#2C2C2C" stroke-width="0.272" stroke-miterlimit="22.926" stroke-linecap="round" stroke-linejoin="round"/>
<path d="M210.591 102.055L209.244 100.708" stroke="#2C2C2C" stroke-width="0.272" stroke-miterlimit="22.926" stroke-linecap="round" stroke-linejoin="round"/>
<path d="M234.724 135.137C236.647 135.114 238.563 134.37 240.03 132.901C241.497 131.436 242.241 129.519 242.265 127.593" stroke="#2C2C2C" stroke-width="0.272" stroke-miterlimit="22.926" stroke-linecap="round" stroke-linejoin="round"/>
<path d="M239.382 130.856L240.729 132.202" stroke="#2C2C2C" stroke-width="0.272" stroke-miterlimit="22.926" stroke-linecap="round" stroke-linejoin="round"/>
<path d="M237.978 132.259L239.324 133.605" stroke="#2C2C2C" stroke-width="0.272" stroke-miterlimit="22.926" stroke-linecap="round" stroke-linejoin="round"/>
<path d="M217.704 102.697C217.962 102.955 218.187 103.234 218.385 103.527C214.927 105.028 212.152 107.8 210.652 111.258C210.36 111.06 210.082 110.834 209.821 110.577C207.645 108.401 207.645 104.873 209.821 102.697C212 100.522 215.528 100.522 217.704 102.697Z" stroke="#2C2C2C" stroke-width="0.272" stroke-miterlimit="10"/>
<path d="M237.917 123.058C238.209 123.256 238.486 123.479 238.746 123.737C240.922 125.914 240.922 129.443 238.746 131.617C236.57 133.795 233.041 133.795 230.865 131.617C230.608 131.36 230.382 131.081 230.186 130.788C233.642 129.289 236.416 126.515 237.917 123.058Z" stroke="#2C2C2C" stroke-width="0.272" stroke-miterlimit="10"/>
<path d="M224.285 132.016C232.49 132.016 239.141 125.364 239.141 117.159C239.141 108.954 232.49 102.302 224.285 102.302C216.079 102.302 209.428 108.954 209.428 117.159C209.428 125.364 216.079 132.016 224.285 132.016Z" stroke="#2C2C2C" stroke-width="0.272" stroke-miterlimit="10"/>
<path d="M199.609 52.9962H218.575C218.808 52.9962 218.997 53.1858 218.997 53.4204V72.3864C218.997 72.621 218.808 72.8106 218.575 72.8106H199.609C199.374 72.8106 199.185 72.621 199.185 72.3864V53.4204C199.185 53.1858 199.374 52.9962 199.609 52.9962Z" stroke="#2C2C2C" stroke-width="0.272" stroke-miterlimit="10"/>
<path d="M215.037 68.4169C216.063 68.4169 216.895 67.5851 216.895 66.5591C216.895 65.5332 216.063 64.7015 215.037 64.7015C214.011 64.7015 213.18 65.5332 213.18 66.5591C213.18 67.5851 214.011 68.4169 215.037 68.4169Z" stroke="#2C2C2C" stroke-width="0.272" stroke-miterlimit="10"/>
<path d="M215.036 67.3931C215.497 67.3931 215.87 67.0197 215.87 66.559C215.87 66.0984 215.497 65.725 215.036 65.725C214.576 65.725 214.202 66.0984 214.202 66.559C214.202 67.0197 214.576 67.3931 215.036 67.3931Z" stroke="#2C2C2C" stroke-width="0.272" stroke-miterlimit="10"/>
<path d="M214.59 67.2984L214.421 67.5635" stroke="#2C2C2C" stroke-width="0.272" stroke-miterlimit="10"/>
<path d="M39.0117 24.5969H26.6377V67.7066H39.0117V24.5969Z" stroke="#2C2C2C" stroke-width="0.272" stroke-miterlimit="10"/>
<path d="M29.5673 44.9626C28.3444 45.2117 27.4268 46.2949 27.4268 47.5917C27.4268 48.8886 28.3492 49.9685 29.5705 50.2176L29.5673 44.9626Z" stroke="#2C2C2C" stroke-width="0.272" stroke-miterlimit="10"/>
<path d="M30.5994 50.2226C31.8448 49.9895 32.7897 48.9016 32.7897 47.5886C32.7865 46.2757 31.8416 45.1878 30.5962 44.9564L30.5994 50.2226Z" stroke="#2C2C2C" stroke-width="0.272" stroke-miterlimit="10"/>
<path d="M29.5737 54.0874L29.5625 41.0931C29.5625 40.8311 30.5926 39.6146 30.5926 39.875L30.6054 55.3039C30.6054 55.5642 29.5737 54.3493 29.5737 54.0874Z" stroke="#2C2C2C" stroke-width="0.272" stroke-miterlimit="10"/>
<path d="M29.5689 46.2758H29.0547V48.9065H29.5689V46.2758Z" stroke="#2C2C2C" stroke-width="0.272" stroke-miterlimit="10"/>
<path d="M35.0218 42.8238L36.8971 42.8206C37.0048 42.8206 37.0948 42.9106 37.0948 43.0182L37.1012 52.2489C37.1012 52.3566 37.0112 52.4466 36.9035 52.4466H35.0282C34.9221 52.4466 34.8321 52.3582 34.8321 52.2521L34.8257 43.0214C34.8257 42.9122 34.9157 42.8238 35.0218 42.8238Z" stroke="#2C2C2C" stroke-width="0.272" stroke-miterlimit="10"/>
<path d="M35.2514 40.317H36.6656C36.8215 40.317 36.9484 40.4455 36.95 40.5998V41.1687C36.95 41.3246 36.8215 41.4531 36.6656 41.4531L35.253 41.4563C35.0939 41.4563 34.9653 41.3278 34.9653 41.1703V40.6014C34.9653 40.4455 35.0939 40.3202 35.2514 40.317Z" stroke="#2C2C2C" stroke-width="0.272" stroke-miterlimit="10"/>
<path d="M46.2002 40.4132C46.2002 40.1079 46.4509 39.8556 46.7579 39.8556H52.1317C52.4386 39.8556 52.6893 40.1063 52.6893 40.4132C52.6893 40.7218 52.4402 40.9725 52.1317 40.9725H46.7579C46.4509 40.9725 46.2002 40.7234 46.2002 40.4132Z" stroke="#2C2C2C" stroke-width="0.272" stroke-miterlimit="10"/>
<path d="M46.2002 55.0274C46.2002 54.7189 46.4509 54.4682 46.7579 54.4682H52.1317C52.4386 54.4682 52.6893 54.7173 52.6893 55.0274C52.6893 55.3328 52.4402 55.5835 52.1317 55.5835H46.7579C46.4509 55.5835 46.2002 55.3328 46.2002 55.0274Z" stroke="#2C2C2C" stroke-width="0.272" stroke-miterlimit="10"/>
<path d="M50.9536 52.8949V42.5457C50.9536 42.1215 51.1223 41.739 51.3955 41.4562C51.0243 41.1557 50.5583 40.9725 50.0424 40.9725H44.7763C42.6325 40.9725 40.8921 42.7113 40.8921 44.8567V50.5856C40.8921 52.7294 42.6325 54.4682 44.7763 54.4682H50.0424C50.5567 54.4682 51.0227 54.285 51.3955 53.9877C51.124 53.7032 50.9536 53.3192 50.9536 52.8949Z" stroke="#2C2C2C" stroke-width="0.272" stroke-miterlimit="10"/>
<path d="M50.9536 52.8949V42.5457C50.9536 41.6764 51.6591 40.9725 52.5285 40.9725H53.2806C53.6936 40.9725 54.0278 41.3052 54.0278 41.7182V53.7225C54.0278 54.1371 53.6936 54.4698 53.2806 54.4698H52.5285C51.6607 54.4682 50.9536 53.7643 50.9536 52.8949Z" stroke="#2C2C2C" stroke-width="0.272" stroke-miterlimit="10"/>
<path d="M39.0198 67.7452H26.6377V75.2596V84.9932V92.5092H39.0198V84.9932V75.2596V67.7452Z" stroke="#2C2C2C" stroke-width="0.272" stroke-miterlimit="10" stroke-linejoin="round"/>
<path d="M39.0122 67.7452H38.3115V75.2612V84.9932V92.5092H39.0122V84.9932V67.7452ZM39.0122 67.7452V75.2612V67.7452Z" stroke="#2C2C2C" stroke-width="0.272" stroke-miterlimit="10" stroke-linejoin="round"/>
<path d="M38.3115 67.7452H39.0492H38.3115Z" stroke="#2C2C2C" stroke-width="0.272" stroke-miterlimit="10" stroke-linejoin="round"/>
<path d="M38.3115 67.7452H39.0492H38.3115Z" stroke="#2C2C2C" stroke-width="0.272" stroke-miterlimit="10" stroke-linejoin="round"/>
<path d="M38.3115 80.1273H39.0492H38.3115Z" stroke="#2C2C2C" stroke-width="0.272" stroke-miterlimit="10" stroke-linejoin="round"/>
<path d="M38.3115 92.5092H39.0492H38.3115Z" stroke="#2C2C2C" stroke-width="0.272" stroke-miterlimit="10" stroke-linejoin="round"/>
<path d="M221.522 154.286H206.662V169.145H221.522V154.286Z" stroke="#2C2C2C" stroke-width="0.272" stroke-miterlimit="10" stroke-linecap="round" stroke-linejoin="round"/>
<path d="M221.268 155.596H206.916V167.783H221.268V155.596Z" stroke="#2C2C2C" stroke-width="0.272" stroke-miterlimit="10" stroke-linecap="round" stroke-linejoin="round"/>
<path d="M210.848 166.408C212.259 166.408 213.403 165.264 213.403 163.853C213.403 162.441 212.259 161.298 210.848 161.298C209.437 161.298 208.293 162.441 208.293 163.853C208.293 165.264 209.437 166.408 210.848 166.408Z" stroke="#2C2C2C" stroke-width="0.272" stroke-miterlimit="10" stroke-linecap="round" stroke-linejoin="round"/>
<path d="M210.848 165.292C211.644 165.292 212.289 164.647 212.289 163.851C212.289 163.055 211.644 162.409 210.848 162.409C210.052 162.409 209.406 163.055 209.406 163.851C209.406 164.647 210.052 165.292 210.848 165.292Z" stroke="#2C2C2C" stroke-width="0.272" stroke-miterlimit="10" stroke-linecap="round" stroke-linejoin="round"/>
<path d="M217.728 166.408C218.922 166.408 219.891 165.44 219.891 164.245C219.891 163.05 218.922 162.082 217.728 162.082C216.533 162.082 215.564 163.05 215.564 164.245C215.564 165.44 216.533 166.408 217.728 166.408Z" stroke="#2C2C2C" stroke-width="0.272" stroke-miterlimit="10" stroke-linecap="round" stroke-linejoin="round"/>
<path d="M217.008 160.312C217.948 160.312 218.711 159.549 218.711 158.609C218.711 157.668 217.948 156.905 217.008 156.905C216.067 156.905 215.304 157.668 215.304 158.609C215.304 159.549 216.067 160.312 217.008 160.312Z" stroke="#2C2C2C" stroke-width="0.272" stroke-miterlimit="10" stroke-linecap="round" stroke-linejoin="round"/>
<path d="M210.029 160.312C210.969 160.312 211.732 159.549 211.732 158.609C211.732 157.668 210.969 156.905 210.029 156.905C209.088 156.905 208.325 157.668 208.325 158.609C208.325 159.549 209.088 160.312 210.029 160.312Z" stroke="#2C2C2C" stroke-width="0.272" stroke-miterlimit="10" stroke-linecap="round" stroke-linejoin="round"/>
<path d="M214.845 156.907H214.123V160.378H214.845" stroke="#2C2C2C" stroke-width="0.272" stroke-miterlimit="10" stroke-linecap="round" stroke-linejoin="round"/>
<path d="M219.169 156.907H219.891V160.378H219.169" stroke="#2C2C2C" stroke-width="0.272" stroke-miterlimit="10" stroke-linecap="round" stroke-linejoin="round"/>
<path d="M251.248 153.041H236.39V169.145H251.248V153.041Z" stroke="#2C2C2C" stroke-width="0.272" stroke-miterlimit="10" stroke-linecap="round" stroke-linejoin="round"/>
<path d="M251.207 154.898H236.43" stroke="#2C2C2C" stroke-width="0.272" stroke-miterlimit="10" stroke-linecap="round" stroke-linejoin="round"/>
<path d="M245.031 160.454L242.606 162.983" stroke="#2C2C2C" stroke-width="0.272" stroke-miterlimit="10" stroke-linecap="round" stroke-linejoin="round"/>
<path d="M245.031 162.983L242.606 160.454" stroke="#2C2C2C" stroke-width="0.272" stroke-miterlimit="10" stroke-linecap="round" stroke-linejoin="round"/>
<path d="M243.819 163.51V159.927" stroke="#2C2C2C" stroke-width="0.272" stroke-miterlimit="10" stroke-linecap="round" stroke-linejoin="round"/>
<path d="M242.079 161.719H245.558" stroke="#2C2C2C" stroke-width="0.272" stroke-miterlimit="10" stroke-linecap="round" stroke-linejoin="round"/>
<path d="M238.088 146.484C238.088 146.484 238.082 146.497 238.069 146.517" stroke="#2C2C2C" stroke-width="0.272" stroke-miterlimit="10" stroke-linecap="round"/>
<path d="M237.536 147.68C237.094 148.759 236.528 150.466 236.411 152.349" stroke="#2C2C2C" stroke-width="0.272" stroke-miterlimit="10" stroke-linecap="round" stroke-dasharray="0.05 0.8"/>
<path d="M236.39 152.996V153.04" stroke="#2C2C2C" stroke-width="0.272" stroke-miterlimit="10" stroke-linecap="round"/>
<path d="M251.248 153.041L251.208 153.021" stroke="#2C2C2C" stroke-width="0.272" stroke-miterlimit="10" stroke-linecap="round"/>
<path d="M250.088 152.462L238.688 146.781" stroke="#2C2C2C" stroke-width="0.272" stroke-miterlimit="10" stroke-linecap="round" stroke-dasharray="0.05 0.78"/>
<path d="M238.129 146.502L238.088 146.484" stroke="#2C2C2C" stroke-width="0.272" stroke-miterlimit="10" stroke-linecap="round"/>
<path d="M191.803 169.363H176.943C176.823 169.363 176.725 169.265 176.725 169.145V154.286C176.725 154.166 176.823 154.068 176.943 154.068H191.803C191.924 154.068 192.022 154.166 192.022 154.286V169.145C192.02 169.265 191.924 169.363 191.803 169.363ZM177.16 168.926H191.585V154.503H177.16V168.926Z" fill="#2C2C2C"/>
<path d="M190.584 168.722H178.163C177.71 168.722 177.34 168.354 177.34 167.897V156.724C177.34 156.269 177.708 155.899 178.163 155.899H190.584C191.037 155.899 191.406 156.267 191.406 156.724V167.897C191.406 168.354 191.037 168.722 190.584 168.722ZM178.163 156.337C177.951 156.337 177.777 156.51 177.777 156.724V167.897C177.777 168.111 177.951 168.285 178.163 168.285H190.584C190.796 168.285 190.969 168.111 190.969 167.897V156.724C190.969 156.51 190.796 156.337 190.584 156.337H178.163Z" fill="#2C2C2C"/>
<path d="M189.451 166.234H184.93C184.81 166.234 184.712 166.136 184.712 166.016C184.712 165.895 184.81 165.797 184.93 165.797H189.451C189.602 165.797 189.726 165.673 189.726 165.522V157.857C189.726 157.706 189.602 157.582 189.451 157.582H179.296C179.145 157.582 179.023 157.706 179.023 157.857V165.522C179.023 165.673 179.145 165.797 179.296 165.797H183.903C184.024 165.797 184.122 165.895 184.122 166.016C184.122 166.136 184.024 166.234 183.903 166.234H179.296C178.906 166.234 178.587 165.916 178.587 165.524V157.859C178.587 157.466 178.906 157.148 179.296 157.148H189.451C189.843 157.148 190.161 157.466 190.161 157.859V165.524C190.161 165.915 189.843 166.234 189.451 166.234Z" fill="#2C2C2C"/>
<path d="M184.887 168.327H183.903C183.783 168.327 183.685 168.229 183.685 168.108V165.619C183.685 165.498 183.783 165.4 183.903 165.4H184.099C184.22 165.4 184.318 165.498 184.318 165.619C184.318 165.731 184.231 165.824 184.122 165.837V167.889H184.67V165.837C184.551 165.834 184.456 165.738 184.456 165.619C184.456 165.498 184.554 165.4 184.674 165.4H184.888C185.009 165.4 185.107 165.498 185.107 165.619V168.108C185.105 168.23 185.007 168.327 184.887 168.327Z" fill="#2C2C2C"/>
<path d="M184.393 168.102C184.148 168.102 183.948 167.901 183.948 167.655V162.903C183.948 162.657 184.148 162.456 184.393 162.456C184.641 162.456 184.842 162.657 184.842 162.903V167.655C184.843 167.901 184.642 168.102 184.393 168.102ZM184.406 162.901L184.384 167.653L184.393 167.664C184.4 167.664 184.406 167.658 184.406 167.653V162.901Z" fill="#2C2C2C"/>
<path d="M176.945 169.363H169.515C169.395 169.363 169.297 169.265 169.297 169.145V154.286C169.297 154.166 169.395 154.068 169.515 154.068H176.945C177.065 154.068 177.163 154.166 177.163 154.286V169.145C177.162 169.265 177.065 169.363 176.945 169.363ZM169.732 168.926H176.726V154.503H169.732V168.926Z" fill="#2C2C2C"/>
<path d="M206.664 169.363H191.804C191.683 169.363 191.585 169.265 191.585 169.145V154.286C191.585 154.166 191.683 154.068 191.804 154.068H206.664C206.784 154.068 206.882 154.166 206.882 154.286V169.145C206.881 169.265 206.784 169.363 206.664 169.363ZM192.02 168.926H206.445V154.503H192.02V168.926Z" fill="#2C2C2C"/>
<path d="M236.38 169.363H221.522C221.401 169.363 221.303 169.265 221.303 169.145V154.286C221.303 154.166 221.401 154.068 221.522 154.068H236.38C236.501 154.068 236.599 154.166 236.599 154.286V169.145C236.599 169.265 236.501 169.363 236.38 169.363ZM221.74 168.926H236.163V154.503H221.74V168.926Z" fill="#2C2C2C"/>
<path d="M124.142 166.387H106.807C106.686 166.387 106.588 166.289 106.588 166.168V126.546C106.588 126.425 106.686 126.327 106.807 126.327H124.142C124.262 126.327 124.36 126.425 124.36 126.546V166.168C124.36 166.291 124.262 166.387 124.142 166.387ZM107.025 165.951H123.923V126.764H107.025V165.951Z" fill="#2C2C2C"/>
<path d="M115.475 161.158C115.012 161.158 114.636 160.783 114.636 160.32C114.636 159.857 115.012 159.483 115.475 159.483C115.936 159.483 116.312 159.857 116.312 160.32C116.312 160.783 115.936 161.158 115.475 161.158ZM115.475 159.922C115.253 159.922 115.073 160.102 115.073 160.322C115.073 160.542 115.253 160.722 115.475 160.722C115.695 160.722 115.875 160.542 115.875 160.322C115.875 160.102 115.695 159.922 115.475 159.922Z" fill="#2C2C2C"/>
<path d="M121.665 165.217H109.285C108.505 165.217 107.871 164.584 107.871 163.806V136.309C107.871 132.116 111.284 128.706 115.477 128.706C119.668 128.706 123.078 132.116 123.078 136.309V163.806C123.076 164.584 122.443 165.217 121.665 165.217ZM115.477 129.141C111.525 129.141 108.309 132.357 108.309 136.309V163.806C108.309 164.343 108.746 164.78 109.286 164.78H121.667C122.204 164.78 122.641 164.343 122.641 163.806V136.309C122.639 132.357 119.427 129.141 115.477 129.141Z" fill="#2C2C2C"/>
<path d="M154.186 138.926H149.611C145.769 138.926 143.188 136.22 143.188 132.193V131.597C143.188 127.568 145.769 124.863 149.611 124.863H154.186C154.307 124.863 154.405 124.961 154.405 125.082V138.709C154.405 138.83 154.309 138.926 154.186 138.926ZM149.613 125.299C145.478 125.299 143.625 128.463 143.625 131.597V132.193C143.625 135.326 145.476 138.491 149.613 138.491H153.969V125.299H149.613Z" fill="#2C2C2C"/>
<path d="M151.277 137.74H149.552C146.299 137.74 144.277 135.5 144.277 131.894C144.277 128.403 146.447 125.967 149.552 125.967H151.277C151.398 125.967 151.496 126.065 151.496 126.186V131.372C151.496 131.492 151.398 131.59 151.277 131.59C151.157 131.59 151.059 131.492 151.059 131.372V126.404H149.552C146.657 126.404 144.713 128.611 144.713 131.895C144.713 135.281 146.522 137.305 149.552 137.305H151.059V132.413C151.059 132.292 151.157 132.194 151.277 132.194C151.398 132.194 151.496 132.292 151.496 132.413V137.523C151.496 137.644 151.398 137.74 151.277 137.74Z" fill="#2C2C2C"/>
<path d="M151.551 132.63H149.449C149.09 132.63 148.83 132.331 148.83 131.92C148.83 131.548 149.057 131.171 149.487 131.171H152.576C152.672 131.171 152.756 131.233 152.785 131.327C152.814 131.418 152.777 131.518 152.697 131.571C152.235 131.879 151.924 132.19 151.74 132.517C151.702 132.588 151.631 132.63 151.551 132.63ZM149.489 131.608C149.315 131.608 149.269 131.812 149.269 131.92C149.269 131.949 149.274 132.194 149.449 132.194H151.425C151.552 131.992 151.723 131.797 151.932 131.608H149.489Z" fill="#2C2C2C"/>
<path d="M151.949 133.173C151.67 133.173 151.511 133.045 151.427 132.935C151.326 132.805 151.286 132.649 151.311 132.484C151.382 132.016 151.965 131.558 152.467 131.209C152.762 131 153.114 131.097 153.312 131.354L153.556 131.666C153.662 131.804 153.709 131.976 153.685 132.137C153.661 132.283 153.584 132.41 153.463 132.492C152.815 132.951 152.319 133.173 151.949 133.173ZM152.801 131.532C152.775 131.532 152.754 131.539 152.737 131.552C152.104 131.992 151.776 132.323 151.742 132.55C151.735 132.596 151.744 132.633 151.772 132.667C151.84 132.755 152.095 132.922 153.214 132.133C153.236 132.119 153.248 132.098 153.251 132.071C153.259 132.027 153.243 131.977 153.211 131.934L152.966 131.622C152.923 131.566 152.86 131.532 152.801 131.532Z" fill="#2C2C2C"/>
<path d="M96.0596 169.466H86.1668C86.0462 169.466 85.9482 169.368 85.9482 169.247V154.451C85.9482 152.95 87.1696 151.732 88.6689 151.732H93.559C95.0584 151.732 96.2797 152.952 96.2797 154.451V169.247C96.2797 169.369 96.1817 169.466 96.0596 169.466ZM86.3854 169.03H95.841V154.453C95.841 153.195 94.8173 152.169 93.559 152.169H88.6689C87.4106 152.169 86.387 153.195 86.387 154.453V169.03H86.3854Z" fill="#2C2C2C"/>
<path d="M95.1596 163.898H87.0716C86.4529 163.898 85.9482 163.396 85.9482 162.779C85.9482 162.659 86.0462 162.561 86.1668 162.561C86.2873 162.561 86.3854 162.659 86.3854 162.779C86.3854 163.155 86.6923 163.462 87.0699 163.462H95.158C95.534 163.462 95.8394 163.157 95.8394 162.779C95.8394 162.659 95.9374 162.561 96.0579 162.561C96.1785 162.561 96.2765 162.659 96.2765 162.779C96.2797 163.396 95.7767 163.898 95.1596 163.898Z" fill="#2C2C2C"/>
<path d="M96.0596 165.929H86.1668C86.0462 165.929 85.9482 165.831 85.9482 165.71C85.9482 165.59 86.0462 165.492 86.1668 165.492H96.0596C96.1801 165.492 96.2781 165.59 96.2781 165.71C96.2781 165.831 96.1817 165.929 96.0596 165.929Z" fill="#2C2C2C"/>
<path d="M145.832 166.387H135.939C135.818 166.387 135.72 166.289 135.72 166.168V151.372C135.72 149.872 136.94 148.653 138.439 148.653H143.331C144.832 148.653 146.05 149.873 146.05 151.372V166.168C146.05 166.29 145.952 166.387 145.832 166.387ZM136.157 165.951H145.613V151.374C145.613 150.116 144.588 149.091 143.329 149.091H138.438C137.179 149.091 136.157 150.116 136.157 151.374V165.951Z" fill="#2C2C2C"/>
<path d="M144.93 160.819H136.842C136.223 160.819 135.72 160.316 135.72 159.697C135.72 159.576 135.818 159.478 135.939 159.478C136.059 159.478 136.157 159.576 136.157 159.697C136.157 160.074 136.463 160.383 136.84 160.383H144.928C145.304 160.383 145.613 160.076 145.613 159.697C145.613 159.576 145.711 159.478 145.832 159.478C145.952 159.478 146.05 159.576 146.05 159.697C146.05 160.316 145.547 160.819 144.93 160.819Z" fill="#2C2C2C"/>
<path d="M145.832 162.85H135.937C135.817 162.85 135.719 162.751 135.719 162.631C135.719 162.51 135.817 162.412 135.937 162.412H145.832C145.952 162.412 146.05 162.51 146.05 162.631C146.05 162.751 145.952 162.85 145.832 162.85Z" fill="#2C2C2C"/>
<path d="M71.6856 198.06C71.4446 198.06 71.2485 197.864 71.2485 197.623V169.186C71.2485 168.945 71.4446 168.749 71.6856 168.749C71.9267 168.749 72.1228 168.945 72.1228 169.186V197.623C72.1212 197.864 71.9267 198.06 71.6856 198.06Z" fill="#2C2C2C"/>
<path d="M143.96 119.102C143.719 119.102 143.522 118.906 143.522 118.665V98.8105C143.522 98.5694 143.719 98.3734 143.96 98.3734C144.201 98.3734 144.397 98.5694 144.397 98.8105V118.665C144.398 118.906 144.202 119.102 143.96 119.102Z" fill="#2C2C2C"/>
<path d="M100.647 119.102C100.406 119.102 100.21 118.906 100.21 118.665V98.8105C100.21 98.5694 100.406 98.3734 100.647 98.3734C100.888 98.3734 101.084 98.5694 101.084 98.8105V118.665C101.084 118.906 100.888 119.102 100.647 119.102Z" fill="#2C2C2C"/>
<path d="M146.187 93.0876C145.946 93.0876 145.75 92.8916 145.75 92.6505V72.3379C145.75 72.0968 145.946 71.9008 146.187 71.9008C146.428 71.9008 146.624 72.0968 146.624 72.3379V92.6505C146.624 92.8916 146.428 93.0876 146.187 93.0876Z" fill="#2C2C2C"/>
<path d="M189.761 117.333H169.512C169.271 117.333 169.075 117.137 169.075 116.896C169.075 116.655 169.271 116.459 169.512 116.459H189.761C190.002 116.459 190.198 116.655 190.198 116.896C190.198 117.137 190.002 117.333 189.761 117.333Z" fill="#2C2C2C"/>
<path d="M43.0858 197.937C42.9652 197.937 42.8672 197.839 42.8672 197.719C42.8672 181.918 55.7522 169.064 71.5893 169.064C71.7099 169.064 71.8079 169.162 71.8079 169.282C71.8079 169.403 71.7099 169.501 71.5893 169.501C55.9933 169.501 43.3059 182.159 43.3059 197.72C43.3043 197.841 43.2063 197.937 43.0858 197.937Z" fill="#2C2C2C"/>
<path d="M189.761 117.113C189.64 117.113 189.542 117.015 189.542 116.894C189.542 105.851 180.556 96.8677 169.513 96.8677C169.392 96.8677 169.294 96.7696 169.294 96.6491C169.294 96.5285 169.392 96.4305 169.513 96.4305C180.797 96.4305 189.978 105.611 189.978 116.894C189.979 117.016 189.881 117.113 189.761 117.113Z" fill="#2C2C2C"/>
<path d="M124.238 118.848C124.118 118.848 124.02 118.75 124.02 118.63C124.02 107.599 132.995 98.6241 144.027 98.6241C144.147 98.6241 144.245 98.7221 144.245 98.8427C144.245 98.9632 144.147 99.0612 144.027 99.0612C133.236 99.0612 124.458 107.839 124.458 118.63C124.457 118.752 124.359 118.848 124.238 118.848Z" fill="#2C2C2C"/>
<path d="M80.8601 118.848C80.7396 118.848 80.6416 118.75 80.6416 118.63C80.6416 107.599 89.6168 98.6241 100.649 98.6241C100.769 98.6241 100.867 98.7221 100.867 98.8427C100.867 98.9632 100.769 99.0612 100.649 99.0612C89.8578 99.0612 81.0803 107.839 81.0803 118.63C81.0787 118.752 80.9807 118.848 80.8601 118.848Z" fill="#2C2C2C"/>
<path d="M125.874 92.8691C125.753 92.8691 125.655 92.7711 125.655 92.6506C125.655 81.3308 134.865 72.1194 146.186 72.1194C146.307 72.1194 146.405 72.2174 146.405 72.3379C146.405 72.4584 146.307 72.5565 146.186 72.5565C135.106 72.5565 126.094 81.5702 126.094 92.649C126.092 92.7711 125.994 92.8691 125.874 92.8691Z" fill="#2C2C2C"/>
<path d="M237.811 24.5296H192.817V20.6165H237.811V24.5296ZM193.254 24.0909H237.375V21.0536H193.254V24.0909Z" fill="#2C2C2C"/>
<path d="M148.632 24.5296H103.638V20.6165H148.632V24.5296ZM104.076 24.0909H148.197V21.0536H104.076V24.0909Z" fill="#2C2C2C"/>
<path d="M74.3293 24.5296H29.333V20.6165H74.3293V24.5296ZM29.7701 24.0909H73.8907V21.0536H29.7701V24.0909Z" fill="#2C2C2C"/>
<path d="M256.158 152.041H252.248V107.045H256.158V152.041ZM252.685 151.604H255.722V107.48H252.685V151.604Z" fill="#2C2C2C"/>
<path d="M256.158 77.7344H252.248V32.7397H256.158V77.7344ZM252.685 77.2973H255.722V33.1784H252.685V77.2973Z" fill="#2C2C2C"/>
<path d="M237.811 21.0569H192.817V19.1108H237.811V21.0569ZM193.254 20.6182H237.375V19.5479H193.254V20.6182Z" fill="#2C2C2C"/>
<path d="M235.913 21.0569H216.015V19.1108H235.913V21.0569ZM216.45 20.6182H235.476V19.5479H216.45V20.6182Z" fill="#2C2C2C"/>
<path d="M214.55 21.0569H194.652V19.1108H214.55V21.0569ZM195.089 20.6182H214.115V19.5479H195.089V20.6182Z" fill="#2C2C2C"/>
<path d="M148.632 21.0569H103.638V19.1108H148.632V21.0569ZM104.076 20.6182H148.197V19.5479H104.076V20.6182Z" fill="#2C2C2C"/>
<path d="M146.799 21.0569H126.902V19.1108H146.799V21.0569ZM127.339 20.6182H146.362V19.5479H127.339V20.6182Z" fill="#2C2C2C"/>
<path d="M125.437 21.0569H105.539V19.1108H125.437V21.0569ZM105.978 20.6182H125V19.5479H105.978V20.6182Z" fill="#2C2C2C"/>
<path d="M74.3293 21.0569H29.333V19.1108H74.3293V21.0569ZM29.7701 20.6182H73.8907V19.5479H29.7701V20.6182Z" fill="#2C2C2C"/>
<path d="M72.4937 21.0569H52.5957V19.1108H72.4937V21.0569ZM53.0344 20.6182H72.0566V19.5479H53.0344V20.6182Z" fill="#2C2C2C"/>
<path d="M51.1335 21.0569H31.2339V19.1108H51.1335V21.0569ZM31.6726 20.6182H50.6964V19.5479H31.6726V20.6182Z" fill="#2C2C2C"/>
<path d="M257.601 152.041H255.724V107.045H257.601V152.041ZM256.159 151.604H257.164V107.48H256.159V151.604Z" fill="#2C2C2C"/>
<path d="M257.601 150.139H255.724V130.242H257.601V150.139ZM256.159 149.703H257.164V130.679H256.159V149.703Z" fill="#2C2C2C"/>
<path d="M257.601 128.845H255.724V108.88H257.601V128.845ZM256.159 128.41H257.164V109.317H256.159V128.41Z" fill="#2C2C2C"/>
<path d="M257.601 77.7344H255.724V32.7397H257.601V77.7344ZM256.159 77.2973H257.164V33.1784H256.159V77.2973Z" fill="#2C2C2C"/>
<path d="M257.601 75.8989H255.724V55.935H257.601V75.8989ZM256.159 75.4602H257.164V56.3721H256.159V75.4602Z" fill="#2C2C2C"/>
<path d="M257.601 54.5369H255.724V34.6389H257.601V54.5369ZM256.159 54.0982H257.164V35.076H256.159V54.0982Z" fill="#2C2C2C"/>
<path d="M237.811 19.5492H192.817V14.1304H237.811V19.5492ZM193.254 19.1121H237.375V14.5691H193.254V19.1121Z" fill="#2C2C2C"/>
<path d="M148.632 19.5492H103.638V14.1304H148.632V19.5492ZM104.076 19.1121H148.197V14.5691H104.076V19.1121Z" fill="#2C2C2C"/>
<path d="M74.4608 19.5492H29.3359V14.1304H74.4608V19.5492ZM29.773 19.1121H74.0221V14.5691H29.773V19.1121Z" fill="#2C2C2C"/>
<path d="M262.581 152.041H257.164V107.045H262.581V152.041ZM257.599 151.604H262.144V107.48H257.599V151.604Z" fill="#2C2C2C"/>
<path d="M262.581 77.7344H257.164V32.7397H262.581V77.7344ZM257.599 77.2973H262.144V33.1784H257.599V77.2973Z" fill="#2C2C2C"/>
<path d="M77.8454 121.089H75.3545V169.186H77.8454V121.089Z" fill="#2C2C2C"/>
<path d="M106.807 121.089H104.383V169.186H106.807V121.089Z" fill="#2C2C2C"/>
<path d="M156.605 121.089H154.116V169.186H156.605V121.089Z" fill="#2C2C2C"/>
<path d="M169.514 121.089H167.023V169.186H169.514V121.089Z" fill="#2C2C2C"/>
<path d="M167.022 154.77H156.605V156.801H167.022V154.77Z" fill="#2C2C2C"/>
<path d="M154.115 166.17H106.807V169.186H154.115V166.17Z" fill="#2C2C2C"/>
<path d="M169.514 118.665H143.959V121.089H169.514V118.665Z" fill="#2C2C2C"/>
<path d="M124.171 118.665H100.649V121.089H124.171V118.665Z" fill="#2C2C2C"/>
<path d="M80.8601 118.665H75.3545V121.089H80.8601V118.665Z" fill="#2C2C2C"/>
<path d="M169.514 116.897H167.023V118.665H169.514V116.897Z" fill="#2C2C2C"/>
<path d="M169.514 49.0767H167.023V96.5832H169.514V49.0767Z" fill="#2C2C2C"/>
<path d="M167.023 92.6507H146.187V95.1399H167.023V92.6507Z" fill="#2C2C2C"/>
<path d="M125.874 92.6507H26.4722V95.1399H125.874V92.6507Z" fill="#2C2C2C"/>
<path d="M26.4707 24.3109H6.68359V55.2378H26.4707V24.3109Z" fill="#2C2C2C"/>
<path d="M102.614 169.186H75.3545V181.571H102.614V169.186Z" fill="#2C2C2C"/>
<path d="M29.551 175.344H17.1689V202.604H29.551V175.344Z" fill="#2C2C2C"/>
<path d="M252.47 169.186H102.614V175.348H252.47V169.186Z" fill="#2C2C2C"/>
<path d="M26.4752 49.0767H20.248V175.344H26.4752V49.0767Z" fill="#2C2C2C"/>
<path d="M173.183 24.3109H153.394V49.0797H173.183V24.3109Z" fill="#2C2C2C"/>
<path d="M80.3362 179.982H75.3545V208.303H80.3362V179.982Z" fill="#2C2C2C"/>
<path d="M77.2555 197.623H71.6855V202.604H77.2555V197.623Z" fill="#2C2C2C"/>
<path d="M43.1853 197.623H27.4141V202.604H43.1853V197.623Z" fill="#2C2C2C"/>
<path d="M193.038 13.1696H148.416V24.3111H193.038V13.1696Z" fill="#2C2C2C"/>
<path d="M103.86 13.1696H74.2407V24.3111H103.86V13.1696Z" fill="#2C2C2C"/>
<path d="M0 24.3111H29.5514V13.1696H0" fill="#2C2C2C"/>
<path d="M263.608 13.1696H262.101V32.9567H263.608V13.1696Z" fill="#2C2C2C"/>
<path d="M261.121 15.5929H252.472V32.9583H261.121V15.5929Z" fill="#2C2C2C"/>
<path d="M262.099 14.6127H261.117V32.96H262.099V14.6127Z" fill="#2C2C2C"/>
<path d="M262.101 13.1696H237.594V14.6095H262.101V13.1696Z" fill="#2C2C2C"/>
<path d="M257.381 15.5963H237.592V24.3111H257.381V15.5963Z" fill="#2C2C2C"/>
<path d="M261.119 14.6127H237.594V15.593H261.119V14.6127Z" fill="#2C2C2C"/>
<path d="M263.609 151.819H252.47V181.571H263.609V151.819Z" fill="#2C2C2C"/>
<path d="M263.609 77.5159H252.47V107.265H263.609V77.5159Z" fill="#2C2C2C"/>
</svg>
