<?xml version="1.0" encoding="utf-8"?><svg viewBox="0 0 43 40" xmlns="http://www.w3.org/2000/svg" xmlns:xlink="http://www.w3.org/1999/xlink"><style>:root>svg{display:none}:root>svg:target{display:block}</style><svg viewBox="-1 -1 11.1 18.7" id="image-arrow-right" xmlns="http://www.w3.org/2000/svg"><path d="M.7 16.7 0 16l7.6-7.6L0 .7.7 0l8.4 8.4z"/></svg><svg fill="none" viewBox="-1 -1 20 12" id="image-check" xmlns="http://www.w3.org/2000/svg"><path d="m1 1 8 8 8-8" stroke="#2C2C2C"/></svg><svg viewBox="-1 -1 27 27" id="image-close" xmlns="http://www.w3.org/2000/svg"><path d="M24.5 25c-.1 0-.3 0-.4-.1L.1.9C0 .7 0 .3.1.1s.5-.2.7 0l24 24c.2.2.2.5 0 .7 0 .2-.2.2-.3.2z"/><path d="M.5 25c-.1 0-.3 0-.4-.1-.2-.2-.2-.5 0-.7l24-24c.2-.2.5-.2.7 0s.2.5 0 .7l-24 24c0 .1-.2.1-.3.1z"/></svg><svg fill="none" viewBox="-1 -1 39 40" id="image-direction" xmlns="http://www.w3.org/2000/svg"><path d="m19.23 21.014-6.077 7.21 2.424-19.772 12.646 15.394-8.994-2.832ZM3.91 10.48c-4.429 8.06-1.487 18.178 6.57 22.607 8.058 4.428 18.177 1.49 22.608-6.57 4.428-8.059 1.486-18.178-6.57-22.607C18.458-.515 8.34 2.424 3.91 10.48Zm30.798 16.93c-4.92 8.952-16.167 12.222-25.12 7.3C.64 29.788-2.63 18.543 2.291 9.59 7.211.639 18.457-2.63 27.409 2.292c8.953 4.92 12.221 16.167 7.3 25.12Z" fill="#404F43"/></svg><svg viewBox="-1 -1 15 12.3" id="image-download" xmlns="http://www.w3.org/2000/svg"><path d="M6.5 7.2.1.9C0 .7 0 .3.1.1s.5-.2.7 0l5.6 5.6L12 .1c.2-.2.5-.2.7 0s.2.5 0 .7L6.5 7.2zM2 8.8h9v1.5H2z"/></svg><svg fill="none" viewBox="-1 -1 16 22" id="image-icon_fire" xmlns="http://www.w3.org/2000/svg"><path d="M4.695 19.75s-5.802-2.02-4.149-8.498C1.71 7.548 4.205 6.977 6.233 3.354c.022 1.8-1.404 3.643-1.404 3.643S9.486 3.481 8.359.25c5.304 3.898 1.851 7.615 1.851 7.615s1.382-1.122 2.92-1.185c-1.961 4.14 1.403 4.998.445 8.61-.957 3.612-4.144 4.46-4.144 4.46s2.016-1.653 2.395-4.005c-.813 1.334-1.66 1.589-1.66 1.589s.172-1.232-.144-2.765c-.338-1.637-1.393-2.288-1.037-5.222 0 0-4.1 3.421-2.172 7.605 0 0-2.451-1.515-2.34-3.993-2.74 3.486.222 6.791.222 6.791Z" fill="#FC622E"/></svg><svg viewBox="-1 -1 36 38" id="image-label-caffe" xmlns="http://www.w3.org/2000/svg"><path d="M30.608 8.953c-3.117-2.93-7.413-3.053-8.981-2.987.01-.127.038-.25.038-.38a4.666 4.666 0 0 0-9.33 0c0 .13.027.253.038.38-1.57-.064-5.865.058-8.981 2.987C1.141 11.068 0 14.163 0 18.152v1.342c0 1.35 1.262 2.448 2.813 2.448.045 0 .089-.01.134-.012l1.715 9.98c.202 1.097 1.16 3.168 3.332 3.168h17.974c2.172 0 3.129-2.071 3.334-3.18l1.713-9.972c.058.003.113.015.172.015 1.551 0 2.813-1.098 2.813-2.448V18.15c0-3.988-1.142-7.083-3.392-9.198ZM17 2.92a2.667 2.667 0 0 1 2.665 2.665A2.667 2.667 0 0 1 17 8.25a2.667 2.667 0 0 1-2.665-2.665A2.667 2.667 0 0 1 17 2.92Zm10.333 28.627c-.003.016-.312 1.53-1.365 1.53h-3.081c.166-.386.26-.811.26-1.257v-6.304a1 1 0 1 0-2 0v6.304c0 .662-.539 1.2-1.201 1.2h-5.891a1.202 1.202 0 0 1-1.201-1.2v-6.304a1 1 0 1 0-2 0v6.304c0 .446.093.87.259 1.258H7.995c-1.051 0-1.354-1.474-1.363-1.52L4.85 21.19l.003-.002 2.035-1.937.007-.007c.336-.261 1.023-.245 1.333.03l.018.016 1.969 1.877a.774.774 0 0 0 .041.04c1.06.947 2.938.973 4.055-.021l2.006-1.912c.317-.281 1.024-.287 1.354-.015l2.048 1.949c1.064.948 2.969.945 4.029-.001l.043-.041 1.967-1.878.018-.015c.31-.275.999-.29 1.333-.031l.008.008 2.005 1.906-1.789 10.393ZM32 19.494c0 .179-.324.448-.813.448-.269 0-.524-.085-.659-.204l-1.98-1.884a1.049 1.049 0 0 0-.075-.074c-1.045-.931-2.904-.95-3.975-.047a.767.767 0 0 0-.081.07l-2.015 1.923c-.326.273-1.064.248-1.331.012l-2.004-1.91c-.017-.016-.033-.032-.052-.048-1.064-.947-2.939-.971-4.053.022l-2.008 1.913c-.316.28-1.03.285-1.354.012l-2.017-1.925a1.041 1.041 0 0 0-.081-.068c-1.069-.903-2.927-.886-3.974.045a.909.909 0 0 0-.077.075l-1.954 1.86c-.161.143-.417.228-.685.228-.489 0-.813-.27-.813-.448v-1.342c0-3.415.929-6.02 2.761-7.742 2.7-2.538 6.591-2.507 7.723-2.437a.955.955 0 0 0 .475-.1C13.76 9.285 15.26 10.25 17 10.25c1.741 0 3.241-.965 4.043-2.38a.987.987 0 0 0 .473.103c1.127-.072 5.021-.101 7.723 2.437C31.07 12.133 32 14.737 32 18.152v1.342Z"/><path d="M12.588 12.827a1 1 0 0 0-1 1v1.329a1 1 0 1 0 2 0v-1.33a1 1 0 0 0-1-1ZM21.413 12.827a1 1 0 0 0-1 1v1.329a1 1 0 1 0 2 0v-1.33a1 1 0 0 0-1-1Z"/></svg><svg viewBox="-1 -1 34 34" id="image-label-fitness" xmlns="http://www.w3.org/2000/svg"><path d="M28.812 0H3.187A3.187 3.187 0 0 0 0 3.187V28.814A3.187 3.187 0 0 0 3.187 32h25.625A3.188 3.188 0 0 0 32 28.812V3.187A3.187 3.187 0 0 0 28.812 0ZM16 18.718A2.721 2.721 0 0 1 13.282 16 2.721 2.721 0 0 1 16 13.282 2.72 2.72 0 0 1 18.718 16 2.72 2.72 0 0 1 16 18.718ZM2 9.745c2.646.849 4.568 3.33 4.568 6.255S4.646 21.406 2 22.255V9.745ZM3.187 30A1.188 1.188 0 0 1 2 28.812v-4.489c3.762-.904 6.568-4.288 6.568-8.323S5.762 8.581 2 7.677v-4.49C2 2.532 2.532 2 3.187 2H15v9.394A4.723 4.723 0 0 0 11.282 16 4.72 4.72 0 0 0 15 20.605V30H3.187ZM30 22.255c-2.646-.849-4.568-3.33-4.568-6.255S27.356 10.594 30 9.745v12.51ZM23.432 16c0 4.035 2.809 7.419 6.568 8.323v4.489c0 .656-.532 1.188-1.188 1.188H17v-9.395A4.723 4.723 0 0 0 20.718 16 4.723 4.723 0 0 0 17 11.394V2h11.812C29.468 2 30 2.532 30 3.187v4.49c-3.762.904-6.568 4.288-6.568 8.323Z"/></svg><svg viewBox="-1 -1 36 36" id="image-label-kindergartens" xmlns="http://www.w3.org/2000/svg"><path d="M29.84 12.945h-.256v-.442c0-3.632-1.576-6.896-4.074-9.184-.029-.03-.045-.067-.079-.095-.019-.015-.042-.019-.062-.031A12.566 12.566 0 0 0 16.998 0C10.058 0 4.411 5.608 4.411 12.503v.442h-.254c-2.294 0-4.161 1.854-4.157 4.22.06.671.688 6.563 4.157 6.563h.454C5.675 29.645 10.851 34 16.998 34c6.146 0 11.32-4.355 12.386-10.271h.456c3.465 0 4.096-5.892 4.16-6.652 0-2.278-1.866-4.132-4.16-4.132Zm0 8.795h-1.322a1 1 0 0 0-.995.889c-.575 5.35-5.1 9.385-10.524 9.385-5.426 0-9.951-4.035-10.526-9.385-.054-.504-.507-.889-1.019-.889H4.157c-1.223 0-2.013-3.094-2.161-4.664 0-1.182.97-2.145 2.161-2.145h1.254c.552 0 1-.444 1-.993v-1.436c0-5.799 4.749-10.517 10.586-10.517 2.395 0 4.6.804 6.375 2.141-5.014 5.669-10.467 6.415-12.643 6.459a.998.998 0 0 0-.98 1.014.997.997 0 0 0 1 .973h.021c2.442-.05 8.547-.871 14.075-7.103 1.695 1.865 2.738 4.327 2.738 7.033v1.436c0 .549.485.993 1.037.993h1.219c1.19 0 2.16.963 2.164 2.057-.149 1.658-.937 4.752-2.163 4.752Z"/><path d="M12.786 19.02c.552 0 1-.443 1-.993v-1.342a.996.996 0 0 0-1-.993c-.552 0-1 .444-1 .993v1.342c0 .549.448.993 1 .993ZM21.21 15.691c-.552 0-1 .444-1 .993v1.342c0 .55.448.993 1 .993s1-.443 1-.993v-1.342a.997.997 0 0 0-1-.993ZM21.21 23.236h-8.424c-.552 0-1 .445-1 .994 0 2.855 2.338 5.178 5.212 5.178 2.874 0 5.212-2.322 5.212-5.178a.998.998 0 0 0-1-.994Zm-4.212 4.184a3.216 3.216 0 0 1-3.053-2.197h6.105a3.214 3.214 0 0 1-3.052 2.197Z"/></svg><svg viewBox="-1 -1 36 34" id="image-label-mall" xmlns="http://www.w3.org/2000/svg"><path d="M33 8.612h-5.541l-2.684-7.28a1 1 0 1 0-1.877.691l2.43 6.589H8.674l2.429-6.588a1 1 0 0 0-1.877-.691L6.541 8.612H1a1 1 0 0 0-1 1v4.622a1 1 0 0 0 1 1h1.33l1.594 12.02c.357 2.7 1.766 4.068 4.183 4.068h17.788c2.418 0 3.824-1.368 4.183-4.068l1.593-12.021H33a1 1 0 0 0 1-1V9.61a1 1 0 0 0-1-1Zm-4.905 18.38c-.259 1.949-1.003 2.33-2.2 2.33H8.106c-1.198 0-1.941-.381-2.2-2.33L4.347 15.235h25.306l-1.558 11.758ZM32 13.234H2v-2.622h30v2.622Z"/><path d="M10.618 26.835a1 1 0 0 0 1-1v-7.38a1 1 0 1 0-2 0v7.38a1 1 0 0 0 1 1ZM17 26.835a1 1 0 0 0 1-1v-7.38a1 1 0 1 0-2 0v7.38a1 1 0 0 0 1 1ZM23.383 26.835a1 1 0 0 0 1-1v-7.38a1 1 0 1 0-2 0v7.38a1 1 0 0 0 1 1Z"/></svg><svg viewBox="-1 -1 37 36" id="image-label-recreation" xmlns="http://www.w3.org/2000/svg"><path d="M34.611 31.872C27.8 26.607 21.625 24.17 16.501 23.2c.814-1.535 2.03-3.282 3.417-5.06.924.289 2.371.64 4.01.64 4.645 0 10.715-2.83 10.018-17.937V.336C12.006 4.989 16.74 14.568 18.314 16.949c-.97 1.247-1.87 2.489-2.617 3.669C14.113 14 8.382 9.028 8.112 8.798a1 1 0 1 0-1.301 1.52c.046.039 3.167 2.748 5.309 6.639-1.319.465-3.812 1.043-5.805-.261-2.408-1.575-3.535-5.601-3.279-11.67 4.979.439 9.991 4.113 10.044 4.153a1 1 0 0 0 1.191-1.606c-.252-.188-6.245-4.59-12.182-4.59a1 1 0 0 0-.998.937C.612 11.403 2 16.265 5.219 18.37c1.288.842 2.683 1.123 3.974 1.123 1.536 0 2.917-.397 3.794-.724.536 1.28.928 2.646 1.056 4.063-7.451-.81-12.157 1.438-12.491 1.604a1 1 0 0 0 .892 1.791c.13-.066 13.332-6.387 30.942 7.226a.997.997 0 0 0 1.402-.18.994.994 0 0 0-.177-1.401Zm-15.555-21.34c.8-2.276 3.733-5.381 12.942-7.693.035 5.669-1.033 9.786-3.121 11.974-1.246 1.306-2.912 1.968-4.949 1.968-.99 0-1.914-.157-2.645-.335 4.256-5.14 9.291-10.011 9.369-10.086a1 1 0 1 0-1.387-1.44c-.322.312-5.334 5.162-9.617 10.363-.572-1.053-1.256-2.86-.592-4.75Z"/><path d="M1.683 29.485a1 1 0 0 0 .634 1.898c.106-.035 10.629-3.441 18.344 2.093a1.002 1.002 0 0 0 1.166-1.625c-8.56-6.14-19.675-2.523-20.144-2.366Z"/></svg><svg viewBox="-1 -1 36 36" id="image-label-transport" xmlns="http://www.w3.org/2000/svg"><path d="M33 15.174h-1.241V2.545c0-1.136-.924-2.06-2.059-2.06H4.3c-1.136 0-2.06.924-2.06 2.06v12.63H1a1 1 0 1 0 0 2h2.24a1 1 0 0 0 1-1l.04-9.127H16v13.538H4.3a1.06 1.06 0 0 0-1.06 1.06v10.81c0 .585.475 1.06 1.06 1.06h2.956a1.06 1.06 0 0 0 1.059-1.06v-1.059h17.37v1.06c0 .584.475 1.06 1.06 1.06H29.7a1.06 1.06 0 0 0 1.059-1.06V21.645a1.06 1.06 0 0 0-1.059-1.06H18V7.048h11.759v9.126a1 1 0 0 0 1 1H33a1 1 0 1 0 0-2Zm-4.241 7.412v8.929h-1.074v-.118a2 2 0 0 0-2-2H8.315a2 2 0 0 0-2 2v.118H5.24v-8.929h23.519ZM4.288 5.048 4.3 2.486l25.459.06V5.05H4.288Z"/><path d="M12.753 27.785h8.493a1 1 0 1 0 0-2h-8.493a1 1 0 1 0 0 2ZM7.934 25.712h1.544a1 1 0 1 0 0-2H7.934a1 1 0 1 0 0 2ZM24.523 25.712h1.544a1 1 0 0 0 0-2h-1.544a1 1 0 1 0 0 2Z"/></svg><svg viewBox="-1 -1 36 36" id="image-label-university" xmlns="http://www.w3.org/2000/svg"><path d="M32.5 0h-7.199a5.886 5.886 0 0 0-4.887 2.608A5.888 5.888 0 0 0 15.526 0H8.327a1 1 0 0 0-1 1v13.986c0 .151.04.292.1.42L.5 18.642l3.786 1.769a.98.98 0 0 0-.116.444v7.384c0 3.23 4.274 5.762 9.729 5.762 5.456 0 9.73-2.531 9.73-5.762V24.73a3.867 3.867 0 0 1 1.671-.379h7.2a1 1 0 0 0 1-1V1a1 1 0 0 0-1-1ZM9.327 2h6.199a3.892 3.892 0 0 1 3.888 3.888v8.927l-5.359-2.503-4.728 2.208V2Zm4.728 12.519 8.829 4.123-8.829 4.123-8.828-4.123 8.828-4.123ZM13.899 32c-4.555 0-7.729-1.982-7.729-3.762V21.29l7.885 3.683 7.575-3.538v6.804c0 1.779-3.175 3.761-7.731 3.761ZM31.5 22.352h-6.199c-.57 0-1.133.082-1.671.241v-1.625a.976.976 0 0 0-.1-.42l4.08-1.906-6.296-2.94a.976.976 0 0 0 .1-.42V5.888A3.891 3.891 0 0 1 25.301 2H31.5v20.352Z"/></svg><svg fill="none" viewBox="-1 -1 29 29" id="image-list-grid" xmlns="http://www.w3.org/2000/svg"><path stroke="#2C2C2C" d="M.5.5h11v11H.5zM.5 15.5h11v11H.5zM15.5.5h11v11h-11zM15.5 15.5h11v11h-11z"/></svg><svg fill="none" viewBox="-1 -1 29 29" id="image-list-list" xmlns="http://www.w3.org/2000/svg"><path fill="#2C2C2C" stroke="#2C2C2C" d="M.5.5h26v6H.5zM.5 10.5h26v6H.5zM.5 20.5h26v6H.5z"/></svg><svg fill="none" viewBox="-1 -1 26 17" id="image-lu" xmlns="http://www.w3.org/2000/svg"><path d="M18.838 12.917v1.667h4.376v-.375h-1.75V4.667h-2.632v.375h.006v7.875ZM17.974 14.294c-.436.273-.956.248-1.344.248-.938 0-.917-1.333-.917-1.77V4.666h-4.375v.375h1.75v5.98c0 .957.042 3.978 3.062 3.978.757 0 1.319-.252 1.737-.615l.087-.09ZM5.1 8.266V0H0v.375h2.187v13.834H0v.374h5.1V8.266ZM11.338 14.583V9.21h-.375c-.038 1.962-.948 4.848-3.938 5.374h4.313Z" fill="#fff"/></svg><svg fill="none" viewBox="-1 -1 42 39" id="image-option-housing" xmlns="http://www.w3.org/2000/svg"><path fill="#C4DDC9" d="M25 13h11v19H25z"/><path d="M1 35.083h38M3.79 30.906V1h21.25v29.906M7.871 5.083h13.083M7.871 9.083h13.083M7.871 13.083h13.083M7.871 17.083h13.083M7.871 21.083h13.083M25.092 17.083h11.114M25.092 21.083h11.114M25.043 13.062H36.21v17.834" stroke="#2C2C2C" stroke-width="2" stroke-miterlimit="10" stroke-linecap="round" stroke-linejoin="round"/></svg><svg fill="none" viewBox="-1 -1 42 39" id="image-option-increased" xmlns="http://www.w3.org/2000/svg"><path d="m6 13 8 3.5V32H6V13Z" fill="#C4DDC9"/><path d="M1 35.083h38M24.152 15.917v15M24.152 12.427v.656M3.166 1l21 8.667L36.833 2M14.14 30.864V16.389l-8.058-3.326v17.854" stroke="#2C2C2C" stroke-width="2" stroke-miterlimit="10" stroke-linecap="round" stroke-linejoin="round"/></svg><svg fill="none" viewBox="-1 -1 42 39" id="image-option-infrastructure" xmlns="http://www.w3.org/2000/svg"><path d="M1 35.083h38" stroke="#2C2C2C" stroke-width="2" stroke-miterlimit="10" stroke-linecap="round" stroke-linejoin="round"/><path d="M6.002 24.433a2.92 2.92 0 1 0 0-5.84 2.92 2.92 0 0 0 0 5.84Z" stroke="#2C2C2C" stroke-width="2" stroke-miterlimit="10"/><path d="M34.832 30.836a2.086 2.086 0 1 0 0-4.172 2.086 2.086 0 0 0 0 4.172ZM30.408 9.344a4.172 4.172 0 1 0 0-8.344 4.172 4.172 0 0 0 0 8.344Z" fill="#C4DDC9" stroke="#2C2C2C" stroke-width="2" stroke-miterlimit="10"/><path d="M19.794 22.604a3.337 3.337 0 1 0 0-6.674 3.337 3.337 0 0 0 0 6.674Z" stroke="#2C2C2C" stroke-width="2" stroke-miterlimit="10"/><path d="M9.896 12.752a5.841 5.841 0 1 0 0-11.682 5.841 5.841 0 0 0 0 11.682Z" fill="#C4DDC9" stroke="#2C2C2C" stroke-width="2" stroke-miterlimit="10"/><path d="m16.52 20.224-7.666.456M13.842 11.255l3.66 5.491M22.498 21.25l10.6 6.228M27.618 8.358l-5.59 8.361" stroke="#2C2C2C" stroke-width="2" stroke-miterlimit="10"/></svg><svg fill="none" viewBox="-1 -1 43 39" id="image-option-parking" xmlns="http://www.w3.org/2000/svg"><path fill="#C4DDC9" d="M9 6h14v20H9z"/><path d="M1 35.083h38.001M14.35 17.072h2.268a3.031 3.031 0 1 0 0-6.064H14.35v9.984M35.001 31h-3.167V1h3.167M8.167 31H5V1h3.167M23.834 1h3.167v30h-3.167" stroke="#2C2C2C" stroke-width="2" stroke-miterlimit="10" stroke-linecap="round" stroke-linejoin="round"/></svg><svg fill="none" viewBox="-1 -1 42 39" id="image-option-roof" xmlns="http://www.w3.org/2000/svg"><path d="M1 35.083h38M26.003 18.726c0-1.056-1.163-1.91-2.6-1.91-1.314 0-2.39.72-2.561 1.652-.011.033-.035.063-.035.098v11.806c0 .302.434.546.968.546h1.776c.534 0 .967-.244.967-.546v-9.927c.875-.307 1.485-.96 1.485-1.719ZM3.055 18.726c0-1.056 1.163-1.91 2.599-1.91 1.315 0 2.39.72 2.562 1.652.01.033.035.063.035.098v11.806c0 .302-.434.546-.968.546H5.507c-.534 0-.967-.244-.967-.546v-9.927c-.875-.307-1.485-.96-1.485-1.719Z" stroke="#2C2C2C" stroke-width="2" stroke-miterlimit="10" stroke-linecap="round" stroke-linejoin="round"/><path d="M8.26 29.688h12.534M20.803 24.003c0 .301-.297.545-.661.545H8.913c-.365 0-.661-.244-.661-.545v-2.412c0-.301.296-.545.66-.545h11.23c.364 0 .661.244.661.545v2.412ZM6.738 16.831v-1.159c0-1.827 1.678-3.31 3.747-3.31h8.081c2.07 0 3.748 1.482 3.748 3.31v1.16" stroke="#2C2C2C" stroke-width="2" stroke-miterlimit="10" stroke-linejoin="round"/><path d="M36.566 11.75h-8.25l1-10.75h6.25l1 10.75Z" fill="#C4DDC9" stroke="#2C2C2C" stroke-width="2" stroke-miterlimit="10" stroke-linecap="round" stroke-linejoin="round"/><path d="M32.44 11.771v16M30.473 30.917h3.937" stroke="#2C2C2C" stroke-width="2" stroke-miterlimit="10" stroke-linecap="round" stroke-linejoin="round"/></svg><svg fill="none" viewBox="-1 -1 42 39" id="image-option-security" xmlns="http://www.w3.org/2000/svg"><path d="M1 35.166h38M34.375 24.74h-9.072v6.218h9.072V24.74ZM26.807 24.74v-2.268a3.031 3.031 0 1 1 6.064 0v2.268" stroke="#2C2C2C" stroke-width="2" stroke-miterlimit="10" stroke-linecap="round" stroke-linejoin="round"/><path d="M20.376 31c-1.553 0-3.051-.236-4.46-.674C9.81 28.427 5.375 22.731 5.375 16c0-8.284 6.716-15 15.001-15 8.284 0 15 6.716 15 15" stroke="#2C2C2C" stroke-width="2" stroke-miterlimit="10" stroke-linecap="round" stroke-linejoin="round"/><path d="M18.436 19.881V12.12L26.219 16l-7.784 3.881Z" fill="#C4DDC9" stroke="#2C2C2C" stroke-width="2" stroke-miterlimit="10" stroke-linecap="round" stroke-linejoin="round"/></svg><svg fill="none" viewBox="-1 -1 42 39" id="image-option-yard" xmlns="http://www.w3.org/2000/svg"><path d="M1 35.083h38M6.557 14.662A8.667 8.667 0 0 1 18.51 6.151M21.541 20.083a8.64 8.64 0 0 1-6.333 2.751 8.655 8.655 0 0 1-2.081-.252" stroke="#2C2C2C" stroke-width="2" stroke-miterlimit="10" stroke-linecap="round" stroke-linejoin="round"/><path d="M38.126 11.417c0 5.752-4.664 10.417-10.417 10.417-2.256 0-4.344-.717-6.049-1.936a10.397 10.397 0 0 1-4.367-8.481C17.293 5.664 21.957 1 27.709 1c5.753 0 10.417 4.664 10.417 10.417Z" fill="#C4DDC9" stroke="#2C2C2C" stroke-width="2" stroke-miterlimit="10" stroke-linecap="round" stroke-linejoin="round"/><path d="M13.375 20.417c0 .746-.142 1.459-.4 2.113a5.75 5.75 0 1 1 .4-2.113ZM27.707 11.417V31M7.615 20.422V31" stroke="#2C2C2C" stroke-width="2" stroke-miterlimit="10" stroke-linecap="round" stroke-linejoin="round"/></svg><svg viewBox="-1 -1 13.6 14.8" id="image-phone" xmlns="http://www.w3.org/2000/svg"><path class="axst0" d="M.5 9.5c-.5.2-.5.5-.5.7v.6c0 .2.1.5.4.8.3.3 1.1 1.1 2.6 1.1s3-1.1 3.2-1.3c.2-.2 3.4-2.2 4.7-5.4 1-2.6.8-3.2.8-3.8-.1-.6-.7-1.9-1.5-2.1C9.4 0 8.8 0 8.7 0c-.2.1-.3.3-.4.6-.2.4-.9 1.9-1 2.2-.1.3-.2.5.1.7.3.2 1 .8 1.2 1 .2.2.2.4.1.7-.1.3-.4 1.3-1.5 2.5-.8.9-1.8 1.6-2.1 1.7-.3.2-.5 0-.6-.1-.2-.1-.4-.3-.6-.5-.2-.1-.3-.2-.5-.3-.2-.1-.4 0-.6 0-.1.1-1.6.7-2.3 1z"/></svg><svg fill="none" viewBox="-1 -1 17 21" id="image-pin-om" xmlns="http://www.w3.org/2000/svg"><path d="M15 7.587C15 13.17 7.501 19 7.501 19S0 13.17 0 7.587C0 3.397 3.358 0 7.5 0 11.643 0 15 3.397 15 7.587Z" fill="#404F43"/><path d="M3.859 8.98c-.35-.35-.526-.787-.526-1.31s.175-.96.526-1.31c.35-.351.787-.527 1.31-.527.524 0 .96.176 1.311.526.351.35.526.788.526 1.311 0 .523-.175.96-.526 1.31-.35.351-.787.527-1.31.527-.524 0-.96-.176-1.311-.526Zm.36-2.261a1.291 1.291 0 0 0-.383.95c0 .38.128.697.383.952s.572.382.95.382c.38 0 .697-.127.952-.382a1.29 1.29 0 0 0 .382-.951c0-.38-.127-.696-.382-.951a1.291 1.291 0 0 0-.951-.382c-.38 0-.696.127-.951.382ZM7.95 9.507h-.524V5.833h1.07l1.05 3.674 1.05-3.674h1.07v3.674h-.525V5.833l-1.05 3.674H9L7.95 5.833v3.674Z" fill="#fff"/></svg><svg viewBox="-1 -1 24.2 11.5" id="image-slider-next" xmlns="http://www.w3.org/2000/svg"><path d="M17.2 9.5c-.1 0-.3 0-.4-.1-.2-.2-.2-.5 0-.7l3.9-3.9L16.8.9c-.2-.2-.2-.5 0-.7s.5-.2.7 0l4.6 4.6-4.6 4.6c0 .1-.1.1-.3.1z"/><path d="M21.4 5.2H.5C.2 5.2 0 5 0 4.8s.2-.5.5-.5h20.9c.3 0 .5.2.5.5s-.2.4-.5.4z"/></svg><svg viewBox="-1 -1 24.2 11.5" id="image-slider-prev" xmlns="http://www.w3.org/2000/svg"><path d="M5 9.5c-.1 0-.3 0-.4-.1L0 4.7 4.6.1c.2-.1.5-.1.7 0s.2.5 0 .7L1.4 4.7l3.9 3.9c.2.2.2.5 0 .7-.1.2-.2.2-.3.2z"/><path d="M21.7 5.2H.8c-.2 0-.5-.2-.5-.5s.2-.5.5-.5h20.9c.3 0 .5.2.5.5s-.2.5-.5.5z"/></svg><svg fill="none" viewBox="-1 -1 28 28" id="image-view-grid" xmlns="http://www.w3.org/2000/svg"><path stroke="#2C2C2C" d="M.5.5h11v11H.5zM14.5.5h11v11h-11zM14.5 14.5h11v11h-11zM.5 14.5h11v11H.5z"/></svg><svg fill="none" viewBox="-1 -1 28 28" id="image-view-grid-active" xmlns="http://www.w3.org/2000/svg"><path fill="#C4DDC9" d="M0 0h12v12H0zM14 0h12v12H14zM14 14h12v12H14zM0 14h12v12H0z"/></svg><svg fill="none" viewBox="-1 -1 28 28" id="image-view-list" xmlns="http://www.w3.org/2000/svg"><path stroke="#2C2C2C" d="M.5.5h25v5H.5zM.5 10.5h25v5H.5zM.5 20.5h25v5H.5z"/></svg><svg fill="none" viewBox="-1 -1 28 28" id="image-view-list-active" xmlns="http://www.w3.org/2000/svg"><path fill="#C4DDC9" stroke="#C4DDC9" d="M.5.5h25v5H.5zM.5 10.5h25v5H.5zM.5 20.5h25v5H.5z"/></svg></svg>