<svg width="238" height="22" viewBox="0 0 238 22" fill="none" xmlns="http://www.w3.org/2000/svg">
<path d="M237.095 5.567C237.095 8.641 234.602 11.133 231.528 11.133C228.454 11.133 225.961 8.641 225.961 5.567C225.961 2.492 228.454 0 231.528 0C234.602 0 237.095 2.492 237.095 5.567Z" fill="#00F500"/>
<path d="M171.208 18.714C168.368 18.714 166.135 16.481 166.135 13.576C166.135 10.674 168.368 8.44001 171.208 8.44001C174.047 8.44001 176.345 10.674 176.345 13.576C176.345 16.48 174.047 18.714 171.208 18.714ZM176.345 8.31202H175.739C174.623 6.30202 172.549 5.15302 170.156 5.15302C166.23 5.15302 162.594 8.82202 162.594 13.576C162.594 18.331 166.135 21.969 170.156 21.969C172.549 21.969 174.623 20.821 175.739 18.81H176.345V21.554H179.855V5.53602H176.345V8.31202ZM8.61401 18.714C5.77401 18.714 3.54102 16.481 3.54102 13.576C3.54102 10.674 5.77401 8.44001 8.61401 8.44001C11.454 8.44001 13.7521 10.674 13.7521 13.576C13.7521 16.48 11.454 18.714 8.61401 18.714ZM13.7521 8.31202H13.146C12.03 6.30202 9.95501 5.15302 7.56201 5.15302C3.63701 5.15302 0 8.82202 0 13.576C0 18.331 3.54101 21.969 7.56201 21.969C9.95501 21.969 12.03 20.821 13.146 18.81H13.7521V21.554H17.2611V5.53602H13.7521V8.31202ZM196.478 11.886H188.278V5.53602H184.768V21.554H188.278V15.204H196.478V21.554H199.988V5.53602H196.478V11.886ZM212.333 13.386L220.628 5.53602H215.842L208.41 12.875V5.53602H204.9V21.554H208.41V14.183L215.905 21.554H221.044L212.333 13.386ZM154.266 18.427H148.619V14.407H154.266C155.861 14.407 156.626 15.235 156.626 16.416C156.626 17.598 155.893 18.427 154.266 18.427ZM154.681 11.279H148.619V8.66302H158.893V5.53602H145.109V21.554H154.681C157.967 21.554 160.201 19.384 160.201 16.416C160.2 13.449 157.935 11.279 154.681 11.279ZM112.182 18.683C109.279 18.683 107.141 16.449 107.141 13.577C107.141 10.675 109.279 8.44102 112.182 8.44102C114.99 8.44102 117.223 10.675 117.223 13.577C117.223 16.448 115.054 18.683 112.182 18.683ZM112.182 5.15302C107.97 5.15302 104.556 8.05702 103.79 11.917H100.823V5.53602H97.3131V21.554H100.823V15.172H103.79C104.523 19.066 107.97 21.969 112.182 21.969C116.904 21.969 120.733 18.236 120.733 13.576C120.733 8.88702 116.872 5.15302 112.182 5.15302ZM122.009 8.85501H127.88V21.554H131.389V8.85501H137.26V5.53602H122.009V8.85501ZM83.3701 5.53602L76.5111 21.554H80.212L85.54 8.75902L90.868 21.554H94.729L87.8701 5.53602H83.3701ZM48.1781 8.44001C51.6241 8.44001 52.5811 11.088 52.5811 11.088H56.2821C56.2821 11.088 54.8141 5.15302 48.1781 5.15302C43.4251 5.15302 39.691 8.88602 39.691 13.576C39.691 18.299 43.4251 22 48.1781 22C54.8151 22 56.2821 16.065 56.2821 16.065H52.5811C52.5811 16.065 51.6241 18.713 48.1781 18.713C45.3701 18.713 43.265 16.48 43.265 13.575C43.265 10.674 45.3701 8.44001 48.1781 8.44001ZM31.396 18.395H25.7161V14.408H31.396C32.992 14.408 33.7571 15.236 33.7571 16.417C33.7571 17.598 33.023 18.395 31.396 18.395ZM31.811 11.279H25.7161V8.69501H36.0231V5.53602H22.207V21.554H31.811C35.065 21.554 37.3301 19.384 37.3301 16.416C37.3291 13.449 35.032 11.279 31.811 11.279ZM66.9401 18.683C63.9721 18.683 61.802 16.449 61.802 13.577C61.802 10.675 63.9721 8.44102 66.9401 8.44102C69.8101 8.44102 72.076 10.675 72.076 13.577C72.0751 16.448 69.8741 18.683 66.9401 18.683ZM66.9401 5.15302C62.0891 5.15302 58.2611 8.88602 58.2611 13.576C58.2611 18.235 62.0891 21.969 66.9401 21.969C71.7571 21.969 75.65 18.236 75.65 13.576C75.65 8.88702 71.6941 5.15302 66.9401 5.15302Z" fill="#FF5000"/>
</svg>
