<svg width="91" height="32" viewBox="0 0 91 32" fill="none" xmlns="http://www.w3.org/2000/svg">
<path d="M29.1772 0V0.00600004L26.3532 2.83V0H23.5292L18.8242 4.706V16.941H20.7062V5.647L24.4712 1.883V16.941H26.3532V5.647L30.1182 1.883V16.941H32.0002V0H29.1772Z" fill="#304048"/>
<path d="M5.64801 1.883V15.059H1.88397V5.647L5.64801 1.883ZM0.000976562 16.941H7.53101V0H4.70697L0 4.706L0.000976562 4.707V16.941Z" fill="#304048"/>
<path d="M11.296 1.883H15.0601V15.059H11.296V1.883ZM16.9431 0H9.41406V16.941H16.9431V0Z" fill="#304048"/>
<path d="M32.0029 18.824H0.00390625V20.706H32.0029V18.824Z" fill="#304048"/>
<path d="M11.295 28.235H1.883V24.47H11.295V28.235ZM0 22.588V32H1.883V30.117H13.177V22.588H0Z" fill="#304048"/>
<path d="M30.1176 28.235H24.4706V24.47H30.1176V28.235ZM16.9406 24.471H22.5876V28.236H16.9406V24.471ZM15.0586 22.588V30.117H22.5876V32H24.4696V30.117H31.9996V22.588H15.0586Z" fill="#304048"/>
<path d="M61.6584 17.369H60.0094V19.701H61.6584C62.3934 19.701 62.8334 19.237 62.8334 18.535C62.8334 17.846 62.3934 17.369 61.6584 17.369ZM61.7414 21.176H58.3594V12.707H63.9484V14.182H60.0094V15.894H61.7414C63.4384 15.894 64.4814 16.99 64.4814 18.536C64.4814 20.082 63.4504 21.176 61.7414 21.176Z" fill="#304048"/>
<path d="M69.5657 15.205L68.4987 18.285H70.5986L69.5657 15.205ZM71.5367 21.176L71.0377 19.678H68.0356L67.5247 21.176H65.8047L68.8777 12.707H70.1707L73.2557 21.176H71.5367Z" fill="#304048"/>
<path d="M79.4934 21.176V17.631H76.6344V21.176H74.9844V12.707H76.6344V16.168H79.4934V12.707H81.1434V21.176H79.4934Z" fill="#304048"/>
<path d="M83.7266 21.176V12.707H85.3766V16.728L88.1056 12.707H90.0756L87.2396 16.68L90.3596 21.176H88.3436L85.3766 16.75V21.176H83.7266Z" fill="#304048"/>
<path d="M47.0617 0.0039978H45.1797V31.996H47.0617V0.0039978Z" fill="#82C451"/>
</svg>
