<svg width="152" height="32" viewBox="0 0 152 32" fill="none" xmlns="http://www.w3.org/2000/svg">
<path d="M31.7223 16.01C31.7223 24.694 24.6793 31.741 16.0023 31.741C7.32526 31.741 0.28125 24.694 0.28125 16.01C0.28125 7.32701 7.32426 0.281006 16.0023 0.281006C24.6793 0.282006 31.7223 7.32801 31.7223 16.01Z" fill="white"/>
<path d="M0.54599 16.01C0.54599 7.481 7.477 0.543 16.004 0.543C24.512 0.543 31.442 7.481 31.442 16.01C31.442 24.524 24.512 31.456 16.004 31.456C7.477 31.456 0.54599 24.524 0.54599 16.01ZM0 16.01C0 24.825 7.17599 32.001 16.003 32.001C24.81 32.001 31.984 24.825 31.984 16.01C31.984 7.177 24.81 0 16.003 0C7.17599 0.001 0 7.177 0 16.01Z" fill="#1E3262"/>
<path d="M26.1851 14.376C26.0541 14.489 25.9221 14.581 25.7921 14.696C24.9081 15.37 23.4991 15.917 21.5651 16.425C17.5461 17.515 14.6321 17.664 11.3261 18.474C10.6701 18.642 9.99313 18.849 9.37513 19.113C9.99313 19.431 10.6691 19.715 11.3461 19.978C12.6981 19.583 13.3391 19.414 15.2891 19.095C16.0401 18.96 18.3321 18.548 19.9851 18.212C22.9741 17.571 27.3501 16.18 26.1851 14.376ZM24.2511 10.616C23.6091 10.337 22.8211 10.053 21.9781 9.829C21.6001 10.13 21.1701 10.391 20.5291 10.639C21.5841 10.824 22.3731 11.124 23.2721 11.37C23.4221 11.446 24.1351 10.79 24.2511 10.616ZM9.61814 14.62C13.5251 13.474 17.6201 13.118 21.7711 12.009C20.1561 11.577 19.2511 11.388 17.5461 11.597C15.0651 11.898 12.3231 12.421 9.97614 13.118C9.05414 13.4 4.22712 14.771 5.61912 16.687C5.62012 16.706 6.44314 15.542 9.61814 14.62ZM6.93213 21.196C6.91313 21.553 7.14014 21.874 7.60914 22.268C7.66514 22.079 7.76012 21.93 7.89112 21.743C7.57112 21.571 7.25113 21.405 6.93213 21.196ZM8.75513 21.03C9.05413 20.841 9.41011 20.671 9.80411 20.52C9.26111 20.274 8.67912 20.034 8.11512 19.77C7.85212 19.938 7.61012 20.108 7.42212 20.274C7.87112 20.54 8.30513 20.784 8.75513 21.03ZM23.7601 12.723C22.9731 13.099 21.8471 13.473 20.2311 13.869C18.8981 14.206 15.6671 14.676 12.1921 15.427C11.1031 15.672 8.11411 16.365 6.64911 17.606C7.06311 17.948 7.32513 18.02 7.77613 18.284C8.37713 17.889 9.20412 17.514 10.4261 17.192C12.5461 16.631 14.1441 16.387 16.0611 16.068C17.9571 15.783 21.5431 15.033 23.5161 14.317C24.1751 14.093 24.7751 13.793 25.2061 13.433C25.0751 13.286 23.7981 12.666 23.7601 12.723ZM24.9071 12.026C25.3001 12.215 25.6601 12.346 25.9961 12.591C26.2391 12.119 26.0881 11.819 25.5841 11.388C25.3771 11.633 25.1501 11.838 24.9071 12.026ZM6.74512 19.073C6.38712 18.887 6.16212 18.737 5.86112 18.548C5.71112 18.888 6.01412 19.261 6.31312 19.431C6.44312 19.3 6.61412 19.187 6.74512 19.073ZM23.3471 8.29C23.2721 8.553 22.9931 8.872 22.8041 9.079C23.3871 9.229 23.9881 9.452 24.5501 9.66C24.4751 9.133 23.8741 8.626 23.3471 8.29ZM4.97812 11.612C9.07312 8.944 13.6011 7.368 21.2631 8.702C21.6771 8.456 21.9201 8.212 22.0351 7.723C20.1181 7.03 18.0341 6.785 15.3491 6.821C12.9431 6.897 8.60414 7.798 6.27814 9.173L6.98914 8.289C8.60414 7.328 12.8301 6.071 16.0061 6.013C18.2391 5.958 19.3851 6.089 22.0531 6.802C21.8071 6.355 21.2631 6.127 20.4551 5.752C17.8831 4.605 13.0931 4.491 9.16913 6.238C9.65513 5.901 10.1441 5.598 10.7841 5.321C12.0771 4.717 14.2011 4.135 16.8491 4.191C18.9731 4.229 21.4901 4.962 23.0291 6.484C23.2901 6.801 23.4421 7.122 23.4981 7.368C24.7191 7.987 25.4321 8.569 25.8261 9.245C25.9961 9.602 26.0531 9.977 25.9761 10.41C26.4831 10.71 26.7291 10.973 26.9931 11.315C27.1591 11.596 27.2911 11.913 27.3301 12.2C27.3851 12.573 27.4221 13.005 27.0281 13.512C27.4421 13.721 27.7781 14.3 27.8191 14.547C28.0251 15.464 27.4231 16.367 26.6541 17.063C25.7511 17.852 23.7601 18.792 22.1451 19.208C18.9541 20.013 16.1171 20.354 13.8651 20.767C14.8781 21.011 16.2491 21.331 18.4851 21.331C23.2731 21.331 27.4991 19.075 27.4991 19.075C27.4991 19.075 27.4071 19.358 27.3111 19.622C24.2681 21.462 19.4431 22.231 17.3751 22.138C15.2901 22.042 13.5261 21.724 11.7981 21.199C11.2721 21.349 10.7461 21.519 10.2401 21.724C12.8701 22.927 14.8601 23.191 17.0951 23.359C19.3851 23.529 23.1811 22.982 26.3711 21.82C26.2211 21.972 26.1461 22.195 25.9971 22.328C24.3611 23.191 20.9081 24.057 19.1611 24.131C17.4321 24.207 15.3291 24.131 13.4881 23.791C11.9101 23.475 10.6131 22.982 9.26111 22.385C9.01811 22.569 8.90612 22.797 8.84812 23.061C14.1281 25.823 19.0471 25.879 24.6651 24.131L24.1551 24.619C17.9761 27.139 13.1501 26.16 9.41114 24.357C9.28114 24.298 9.13114 24.242 9.01914 24.168C9.37614 24.772 12.2291 26.856 15.4221 27.119C17.6221 27.307 20.3061 26.93 21.9031 26.293L20.9651 26.779C20.1941 27.156 18.1481 28.021 15.2911 27.834C11.4791 27.57 9.33613 25.879 8.37913 24.996C7.92713 24.58 7.72312 24.113 7.59012 23.529C6.72612 23.08 6.18112 22.607 5.73212 21.894C5.46912 21.499 5.52412 21.033 5.58112 20.634L5.69614 20.298C5.28114 19.995 4.84913 19.677 4.68113 19.36C4.30413 18.682 4.53213 18.096 4.79313 17.647C4.56613 17.383 4.35913 17.122 4.26813 16.857C4.15613 16.556 4.13712 16.253 4.17212 15.918C4.24712 15.355 4.54913 14.828 4.94413 14.376C5.76913 13.418 7.08713 12.666 9.31913 11.934C11.5181 11.201 12.4011 11.086 14.0541 10.71C15.9881 10.262 18.2981 10.111 20.2331 9.436C14.8401 8.497 9.24513 9.36 4.68113 12.496L4.97812 11.612Z" fill="#1E3262"/>
<path d="M52.1395 13.211L52.7595 17.495H51.5185L52.1395 13.211ZM47.3125 23.001H50.5985L51.0125 20.577H53.2845L53.6805 23.001H56.9665L54.1865 8.983H50.0935L47.3125 23.001Z" fill="#1E3262"/>
<path d="M60.0844 14.415C60.6094 14.415 61.5684 14.076 61.5684 13.043C61.5684 11.823 60.4614 11.745 60.1394 11.745C59.7654 11.745 59.0524 11.803 58.3564 12.141L58.3184 9.09401C59.4264 8.81301 60.2144 8.73801 61.1534 8.73801C63.8224 8.73801 65.0054 10.598 65.0054 12.421C65.0054 14.189 63.9894 15.257 62.9954 15.672V15.804C63.9534 16.107 65.2294 17.025 65.2294 19.168C65.2294 21.82 63.3894 23.283 61.0224 23.283C59.7634 23.265 58.9374 23.097 57.9414 22.553L57.9984 19.639C58.9194 20.034 59.5384 20.071 60.1584 20.071C61.2114 20.071 61.6224 19.3 61.6224 18.739C61.6224 17.948 61.1174 17.423 60.0084 17.423H58.6944V14.417H60.0844V14.415Z" fill="#1E3262"/>
<path d="M66.75 8.983H75.616V23.001H72.366V12.365H70V23.001H66.75V8.983Z" fill="#1E3262"/>
<path d="M80.7255 12.064H81.4965C82.2305 12.064 82.6995 12.516 82.6995 13.681C82.6995 15.184 81.9105 15.295 81.4965 15.295H80.7255V12.064ZM77.4766 23.001H80.7255V18.38H81.8165C85.0275 18.38 86.0236 15.485 86.0236 13.641C86.0236 11.838 84.8765 8.983 81.8165 8.983H77.4766V23.001Z" fill="#1E3262"/>
<path d="M92.0327 19.769C90.8857 19.769 90.3047 18.437 90.3047 15.974C90.3047 13.511 90.8847 12.179 92.0327 12.179C93.1807 12.179 93.7597 13.511 93.7597 15.974C93.7597 18.437 93.1807 19.769 92.0327 19.769ZM92.0327 23.171C95.8837 23.171 97.1777 19.562 97.1777 15.973C97.1777 12.386 95.8837 8.77802 92.0327 8.77802C88.1827 8.77802 86.8867 12.386 86.8867 15.973C86.8877 19.562 88.1837 23.171 92.0327 23.171Z" fill="#1E3262"/>
<path d="M114.515 20.183V17.009H114.985C115.379 17.009 116.393 17.027 116.393 18.474C116.393 19.941 115.378 20.183 114.985 20.183H114.515ZM111.34 23.001H115.209C116.053 23.001 119.566 22.644 119.585 18.396C119.585 14.829 116.862 14.208 115.097 14.208H114.515V12.348H118.816V8.98499H111.34V23.001Z" fill="#1E3262"/>
<path d="M131.27 8.983H134.443V14.038H136.717V8.983H139.89V23.001H136.717V17.384H134.443V23.001H131.27V8.983Z" fill="#1E3262"/>
<path d="M142.027 8.983H145.222L145.202 14.018H145.896L147.719 8.983H151.175L148.694 15.637L151.532 23.001H147.794L145.954 17.364H145.202L145.222 23.001H142.027V8.983Z" fill="#1E3262"/>
<path d="M41.0234 8.983H47.6874V12.477H44.3274V23.001H41.0234V8.983Z" fill="#1E3262"/>
<path d="M98.7383 8.983H101.5L103.938 12.291L106.401 8.983H109.144V23.001H105.892V14.45L103.938 16.893L101.987 14.45V23.001H98.7383V8.983Z" fill="#1E3262"/>
<path d="M125.052 13.249L125.653 17.515H124.431L125.052 13.249ZM120.207 23.019H123.513L123.909 20.597H126.18L126.575 23.019H129.881L127.102 9.00299H123.006L120.207 23.019Z" fill="#1E3262"/>
</svg>
