<svg width="138" height="32" viewBox="0 0 138 32" fill="none" xmlns="http://www.w3.org/2000/svg">
<path d="M77.6862 0L60.4102 2.257V7.369L77.6862 5.828V0Z" fill="#E4003A"/>
<path d="M24.8948 18.619C24.8948 21.723 25.8218 22.797 28.7908 22.797C31.7618 22.797 32.6718 21.717 32.6718 18.619C32.6718 15.522 31.7758 14.443 28.7908 14.443C25.8078 14.443 24.8948 15.502 24.8948 18.619ZM19.6758 18.574C19.6758 12.888 22.8347 10.288 28.7917 10.288C34.7487 10.288 37.9227 12.889 37.9227 18.574C37.9227 24.259 34.7837 26.952 28.7917 26.952C22.8007 26.952 19.6758 24.26 19.6758 18.574Z" fill="#00274F"/>
<path d="M74.4123 11.717L60.4062 2.26199V7.36399L64.7733 10.321L65.6323 10.823C64.0633 10.843 63.3113 11.161 62.5573 11.616C60.4003 12.917 59.2812 15.203 59.2812 18.577C59.2812 24.263 62.4203 26.954 68.3973 26.954C74.3763 26.954 77.5292 24.263 77.5292 18.577C77.5292 15.285 76.4633 13.035 74.4123 11.717ZM68.3973 22.797C65.4333 22.797 64.5013 21.717 64.5013 18.619C64.5013 15.522 65.4273 14.443 68.3973 14.443C71.3673 14.443 72.2783 15.502 72.2783 18.619C72.2783 21.738 71.3843 22.797 68.3973 22.797Z" fill="#00274F"/>
<path d="M10.688 10.268C7.86699 10.268 5.57498 12.008 5.00598 12.728V10.639H0V32H4.97498V24.402C5.55898 25.138 7.835 26.846 10.672 26.846C15.379 26.846 17.9709 24.292 17.9709 18.544C17.9709 12.796 15.383 10.268 10.688 10.268ZM8.90594 22.709C5.94195 22.709 5.00995 21.633 5.00995 18.533C5.00995 15.433 5.93594 14.356 8.90594 14.356C11.8759 14.356 12.785 15.418 12.785 18.533C12.785 21.648 11.8899 22.702 8.90594 22.702V22.709Z" fill="#00274F"/>
<path d="M111.758 10.646V16.446H105.154V10.646H100.148V26.342H105.154V20.462H111.758V26.342H116.765V10.646H111.758Z" fill="#00274F"/>
<path d="M79.2539 18.545C79.2539 24.288 81.8429 26.847 86.5539 26.847C89.3889 26.847 91.6649 25.139 92.2489 24.403V26.345H97.2249V10.629H92.2199V12.717C91.6479 12.008 89.3559 10.268 86.5359 10.268C81.8409 10.268 79.2539 12.812 79.2539 18.545ZM84.4379 18.522C84.4379 15.404 85.3329 14.345 88.3189 14.345C91.3059 14.345 92.2139 15.407 92.2139 18.522C92.2139 21.637 91.2879 22.699 88.3189 22.699C85.3499 22.699 84.4359 21.625 84.4359 18.522H84.4379Z" fill="#00274F"/>
<path d="M52.4459 20.543C52.0559 22.184 51.0089 22.797 48.7429 22.797C45.7799 22.797 44.848 21.717 44.848 18.619C44.848 15.522 45.7799 14.443 48.7429 14.443C51.0099 14.443 52.0559 15.054 52.4479 16.705L57.6679 16.31C56.8889 12.204 53.8319 10.294 48.7429 10.294C42.7869 10.294 39.6289 12.896 39.6289 18.581C39.6289 24.266 42.7679 26.958 48.7429 26.958C53.8289 26.958 56.8529 25.009 57.6519 20.942L52.4459 20.543Z" fill="#00274F"/>
<path d="M137.95 26.341L130.028 18.1L137.525 10.647H131.333L124.615 17.465V10.647H119.699V26.341H124.615V20.853V19.494V19.114L131.515 26.342H137.95V26.341Z" fill="#00274F"/>
</svg>
