<svg width="167" height="32" viewBox="0 0 167 32" fill="none" xmlns="http://www.w3.org/2000/svg">
<path d="M1.73828 12.418C2.41828 14.914 3.54432 15.84 5.26532 17.566C6.98632 19.291 8.58228 19.338 8.58228 26.955C8.58228 24.547 6.83032 22.943 5.26532 21.502C1.61732 18.145 1.94028 17.621 1.73828 12.418Z" fill="white"/>
<path d="M13.3922 31.799C20.6542 31.799 26.5801 25.77 26.5801 18.394C26.5801 11.008 20.6532 4.98999 13.3922 4.98999C6.13115 4.98999 0.203125 11.009 0.203125 18.394C0.203125 25.769 6.12815 31.799 13.3922 31.799Z" fill="#008952"/>
<path d="M36.0027 24.902H33.7617V11.678H38.8547C40.3067 11.678 41.3827 12.069 42.0847 12.846C42.7847 13.623 43.1357 14.542 43.1357 15.6C43.1357 16.811 42.7567 17.789 41.9987 18.538C41.2387 19.288 40.2757 19.661 39.1097 19.661H36.0027V24.902ZM36.0027 17.617H38.6547C39.3447 17.617 39.8746 17.435 40.2386 17.075C40.6056 16.711 40.7856 16.231 40.7856 15.629C40.7856 15.088 40.6177 14.625 40.2817 14.234C39.9427 13.847 39.3327 13.655 38.4537 13.655H36.0027V17.617ZM48.1587 25.107C46.7977 25.107 45.7587 24.585 45.0427 23.545C44.3247 22.503 43.9677 21.314 43.9677 19.97C43.9677 18.523 44.3636 17.318 45.1556 16.357C45.9496 15.394 46.9967 14.912 48.2977 14.912C49.5277 14.912 50.5417 15.382 51.3347 16.317C52.1247 17.254 52.5227 18.472 52.5227 19.97C52.5227 21.515 52.1127 22.755 51.2897 23.695C50.4617 24.634 49.4207 25.107 48.1587 25.107ZM48.2297 23.284C49.6257 23.284 50.3257 22.177 50.3257 19.962C50.3257 18.959 50.1577 18.17 49.8247 17.594C49.4897 17.015 48.9756 16.724 48.2856 16.724C47.5666 16.724 47.0357 17.026 46.6907 17.621C46.3447 18.219 46.1707 19.013 46.1707 20.002C46.1707 21.066 46.3547 21.88 46.7217 22.441C47.0887 23.004 47.5917 23.284 48.2297 23.284ZM59.7347 21.308L61.5227 21.503C61.2897 22.73 60.8446 23.636 60.1816 24.225C59.5196 24.814 58.7207 25.108 57.7847 25.108C56.5167 25.108 55.5406 24.615 54.8586 23.629C54.1746 22.644 53.8326 21.437 53.8326 20.008C53.8326 18.537 54.2066 17.319 54.9526 16.358C55.7006 15.395 56.6967 14.913 57.9407 14.913C59.9457 14.913 61.1397 16.038 61.5217 18.286L59.7336 18.548C59.5796 17.335 59.0157 16.726 58.0477 16.726C57.3457 16.726 56.8326 17.053 56.5156 17.71C56.1956 18.365 56.0366 19.159 56.0366 20.089C56.0366 21.077 56.2027 21.838 56.5347 22.373C56.8637 22.909 57.3276 23.181 57.9216 23.181C58.8326 23.179 59.4387 22.555 59.7347 21.308ZM68.4247 21.308L70.2117 21.503C69.9797 22.73 69.5337 23.636 68.8717 24.225C68.2097 24.814 67.4107 25.108 66.4757 25.108C65.2057 25.108 64.2297 24.615 63.5487 23.629C62.8637 22.644 62.5227 21.437 62.5227 20.008C62.5227 18.537 62.8957 17.319 63.6417 16.358C64.3917 15.395 65.3856 14.913 66.6296 14.913C68.6356 14.913 69.8287 16.038 70.2117 18.286L68.4247 18.548C68.2687 17.335 67.7057 16.726 66.7377 16.726C66.0357 16.726 65.5227 17.053 65.2057 17.71C64.8857 18.365 64.7267 19.159 64.7267 20.089C64.7267 21.077 64.8916 21.838 65.2236 22.373C65.5536 22.909 66.0167 23.181 66.6117 23.181C67.5227 23.179 68.1287 22.555 68.4247 21.308ZM77.6537 21.783L79.5306 22.054C79.2886 22.937 78.8137 23.667 78.1097 24.243C77.4037 24.818 76.5206 25.105 75.4576 25.105C74.1836 25.105 73.1566 24.649 72.3796 23.736C71.6026 22.827 71.2136 21.593 71.2136 20.036C71.2136 18.557 71.6057 17.335 72.3887 16.365C73.1717 15.395 74.2367 14.91 75.5767 14.91C76.8887 14.91 77.9016 15.389 78.6196 16.345C79.3356 17.302 79.6926 18.529 79.6926 20.027L79.6866 20.282H73.3737C73.3737 20.947 73.4327 21.478 73.5497 21.879C73.6687 22.279 73.9047 22.627 74.2557 22.924C74.6097 23.222 75.0487 23.37 75.5767 23.37C76.6027 23.371 77.2957 22.842 77.6537 21.783ZM77.5256 18.857C77.5186 18.152 77.3217 17.578 76.9287 17.13C76.5367 16.687 76.0547 16.462 75.4757 16.462C74.9047 16.462 74.4287 16.671 74.0457 17.087C73.6627 17.503 73.4397 18.092 73.3707 18.857H77.5256ZM80.1777 24.902L83.1187 15.117H85.5697L88.4287 24.902H86.2627L84.1847 16.833L81.8617 24.902H80.1777ZM89.5957 24.902V15.117H91.6727V18.691H94.0986C95.1496 18.691 95.9197 18.994 96.4147 19.593C96.9087 20.193 97.1577 20.941 97.1577 21.829C97.1577 22.811 96.8897 23.569 96.3517 24.1C95.8137 24.633 95.0617 24.901 94.0977 24.901H89.5957V24.902ZM91.6727 23.187H93.6876C94.1976 23.187 94.5646 23.08 94.7856 22.862C95.0056 22.647 95.1177 22.297 95.1177 21.81C95.1177 20.805 94.6396 20.299 93.6876 20.299H91.6727V23.187ZM105.712 24.902H103.346L101.396 21.338L99.2627 24.902H97.4777L100.538 19.865L97.8896 15.117H100.266L101.78 17.994L103.503 15.117H105.241L102.645 19.359L105.712 24.902ZM110.314 25.107C108.952 25.107 107.914 24.585 107.199 23.545C106.48 22.503 106.123 21.314 106.123 19.97C106.123 18.523 106.519 17.318 107.311 16.357C108.103 15.394 109.152 14.912 110.451 14.912C111.683 14.912 112.697 15.382 113.489 16.317C114.279 17.254 114.677 18.472 114.677 19.97C114.677 21.515 114.266 22.755 113.442 23.695C112.618 24.634 111.576 25.107 110.314 25.107ZM110.385 23.284C111.781 23.284 112.481 22.177 112.481 19.962C112.481 18.959 112.314 18.17 111.981 17.594C111.644 17.015 111.132 16.724 110.441 16.724C109.723 16.724 109.192 17.026 108.845 17.621C108.501 18.219 108.327 19.013 108.327 20.002C108.327 21.066 108.51 21.88 108.877 22.441C109.245 23.004 109.748 23.284 110.385 23.284ZM118.566 20.619V19.1C119.561 19.1 120.189 18.969 120.444 18.705C120.698 18.443 120.826 18.141 120.826 17.792C120.826 17.422 120.705 17.121 120.459 16.89C120.217 16.659 119.875 16.543 119.43 16.543C118.479 16.543 117.91 17.025 117.729 17.994L115.833 17.637C116.24 15.822 117.49 14.912 119.586 14.912C120.716 14.912 121.573 15.166 122.154 15.669C122.739 16.172 123.031 16.81 123.031 17.578C123.031 18.558 122.462 19.267 121.327 19.7C122.645 20.074 123.302 20.857 123.302 22.054C123.302 22.923 122.984 23.651 122.35 24.234C121.716 24.815 120.804 25.107 119.614 25.107C117.428 25.107 116.094 24.107 115.616 22.111L117.528 21.754C117.777 22.915 118.411 23.496 119.43 23.496C119.953 23.496 120.363 23.36 120.656 23.086C120.951 22.812 121.099 22.441 121.099 21.976C121.099 21.628 120.996 21.337 120.798 21.11C120.596 20.881 120.341 20.743 120.027 20.693C119.716 20.643 119.228 20.619 118.566 20.619ZM125.205 24.902V11.678H133.531V14.053H128.064V16.94H130.16C131.248 16.94 132.11 17.049 132.744 17.273C133.379 17.495 133.894 17.922 134.296 18.547C134.696 19.174 134.899 19.945 134.899 20.861C134.899 22.133 134.532 23.126 133.802 23.837C133.069 24.548 132.049 24.902 130.737 24.902H125.205ZM128.064 22.402H130.307C130.835 22.402 131.243 22.256 131.53 21.963C131.812 21.668 131.955 21.281 131.955 20.805C131.955 19.777 131.327 19.264 130.071 19.264H128.066V22.403H128.064V22.402ZM144.644 24.902H142.013C141.926 24.515 141.885 24.006 141.885 23.371C141.421 24.068 140.962 24.531 140.505 24.764C140.044 24.993 139.525 25.108 138.941 25.108C138.08 25.108 137.383 24.857 136.851 24.361C136.32 23.865 136.055 23.193 136.055 22.353C136.055 21.742 136.207 21.176 136.519 20.661C136.83 20.144 137.327 19.737 138.014 19.443C138.699 19.149 139.952 18.93 141.767 18.788V18.226C141.767 17.277 141.32 16.804 140.427 16.804C139.472 16.804 138.941 17.277 138.832 18.226L136.328 17.975C136.49 16.864 136.985 16.077 137.811 15.611C138.639 15.148 139.572 14.913 140.616 14.913C141.245 14.913 141.833 14.993 142.386 15.148C142.94 15.303 143.368 15.536 143.679 15.846C143.987 16.153 144.199 16.484 144.307 16.827C144.416 17.175 144.472 17.775 144.472 18.633V23.071C144.472 23.924 144.529 24.535 144.644 24.902ZM141.768 20.213C139.865 20.414 138.916 21.024 138.916 22.045C138.916 22.386 139.016 22.684 139.214 22.931C139.416 23.179 139.7 23.305 140.072 23.305C140.551 23.305 140.952 23.093 141.279 22.67C141.602 22.246 141.766 21.724 141.766 21.106L141.768 20.213ZM146.711 24.902V15.117H149.426V18.642H152.252V15.117H154.966V24.902H152.252V20.746H149.426V24.902H146.711ZM163.11 18.48L166.279 24.902H163.437L161.297 20.534L159.91 22.092V24.903H157.195V15.118H159.91V17.557C159.91 17.951 159.9 18.528 159.876 19.285C160.087 18.954 160.346 18.62 160.649 18.276L163.426 15.118H165.942L163.11 18.48Z" fill="#008952"/>
<path d="M13.3909 4.78699C6.01493 4.78899 0 10.898 0 18.393C0 25.878 6.01393 31.998 13.3909 31.999C20.7679 31.998 26.782 25.878 26.783 18.393C26.782 10.898 20.7679 4.78899 13.3909 4.78699ZM10.937 27.443V31.357C10.476 31.267 10.023 31.152 9.58099 31.013V19.186H11.5209C12.0249 19.186 12.375 19.289 12.58 19.484C12.785 19.678 12.878 20.028 12.878 20.532V26.098C12.878 26.601 12.785 26.951 12.58 27.146C12.272 27.454 11.7069 27.454 11.2339 27.454C11.1309 27.443 11.029 27.443 10.937 27.443ZM13.3909 31.596C12.7559 31.596 12.1319 31.549 11.5209 31.459V28.02C12.4169 28.02 13.002 27.713 13.279 27.101V30.536C13.279 30.957 13.343 31.313 13.476 31.597C13.448 31.595 13.4199 31.596 13.3909 31.596ZM17.0889 23.489H15.754V20.438H15.179V30.73H15.754V24.064H17.0889V30.535C17.0889 30.735 17.073 30.909 17.043 31.061C16.105 31.343 15.121 31.519 14.108 31.576C13.877 31.302 13.842 30.883 13.842 30.535V20.633C13.842 20.119 13.9459 19.76 14.1409 19.555C14.3349 19.35 14.685 19.247 15.178 19.247C15.681 19.247 16.42 19.175 16.801 19.555C16.996 19.76 17.088 20.119 17.088 20.633V23.489H17.0889ZM21.362 28.802C20.91 29.161 20.432 29.49 19.935 29.788V24.125H19.329V30.128C18.868 30.37 18.391 30.585 17.9 30.772V24.29C17.9 23.694 18.045 23.242 18.65 23.036L17.982 19.369H19.329L19.555 23.375H19.7189L19.946 19.369H21.363L20.603 23.036C21.24 23.263 21.363 23.653 21.363 24.29V28.802H21.362ZM17.665 23.023V20.746L18.065 22.791C17.898 22.85 17.768 22.929 17.665 23.023ZM21.836 23.396C21.728 23.132 21.537 22.917 21.199 22.792L21.836 19.497V23.396ZM26.252 20.227C26.244 20.288 26.236 20.348 26.227 20.407H24.043V20.942H24.373C24.999 20.923 25.703 20.915 26.044 21.374C25.76 22.613 25.303 23.787 24.701 24.867V22.01H24.044V25.926C23.604 26.568 23.108 27.168 22.566 27.72C22.543 27.744 22.517 27.768 22.493 27.792V19.339H26.252V20.227ZM17.285 18.805L17.415 19.468C17.121 18.931 16.568 18.662 15.754 18.662H15.18C14.201 18.662 13.606 19.052 13.382 19.827C13.172 19.015 12.553 18.61 11.524 18.61H8.99701V30.814C7.18501 30.148 5.55797 29.082 4.21997 27.721C1.86597 25.327 0.406982 22.028 0.406982 18.394C0.406982 14.756 1.86597 11.456 4.21997 9.06399C6.57397 6.67199 9.81898 5.19299 13.394 5.19299C16.968 5.19299 20.2129 6.67299 22.5679 9.06399C24.9219 11.457 26.3799 14.756 26.3799 18.394C26.3799 18.532 26.378 18.669 26.374 18.806H17.2859V18.805H17.285ZM10.937 26.293H11.5209V20.335H10.937V26.293Z" fill="white"/>
<path d="M2.20361 11.225L2.22461 11.655L2.28656 12.066L2.38861 12.457L2.50159 12.837L2.65656 13.196L2.83057 13.546L3.01556 13.885L3.23157 14.203L3.45758 14.511L3.71356 14.819L4.2486 15.415L4.81256 15.971L5.39856 16.535L5.97357 17.09L6.54858 17.654L7.07257 18.24L7.33057 18.549L7.56555 18.855L7.78162 19.175L7.96655 19.514L8.15161 19.862L8.29456 20.232L8.40857 20.602L8.5116 21.003L8.56262 21.403L8.59363 21.835L8.57263 25.44L8.55261 25.01L8.4906 24.599L8.3866 24.207L8.27563 23.827L8.13062 23.469L7.94556 23.109L7.7616 22.78L7.54456 22.451L7.31958 22.143L7.06256 21.835L6.52856 21.25L5.96259 20.674L5.38861 20.13L4.80261 19.575L4.2276 19L3.70361 18.404L3.44757 18.117L3.20959 17.788L3.00458 17.47L2.82056 17.131L2.64661 16.781L2.48059 16.422L2.36859 16.042L2.27557 15.651L2.21356 15.24L2.18359 14.81L2.20361 11.225Z" fill="white"/>
<path d="M1.60864 15.785L1.63965 16.243L1.70062 16.672L1.81366 17.09L1.93762 17.489L2.11163 17.878L2.29663 18.246L2.50165 18.605L2.73865 18.943L2.98462 19.272L3.26166 19.602L3.84766 20.219L4.46265 20.816L5.11163 21.416L5.73865 22.004L6.35364 22.602L6.93964 23.219L7.21661 23.548L7.46259 23.877L7.69965 24.215L7.9057 24.573L8.11066 24.943L8.26459 25.331L8.38666 25.73L8.50165 26.148L8.56268 26.577L8.59369 27.035L8.57269 30.853L8.54169 30.394L8.48065 29.966L8.37665 29.547L8.24469 29.147L8.08966 28.76L7.8847 28.391L7.68964 28.032L7.45367 27.693L7.19666 27.365L6.91864 27.035L6.34363 26.418L5.71661 25.811L5.08966 25.222L4.45367 24.634L3.82666 24.025L3.25165 23.398L2.96362 23.089L2.71765 22.751L2.48065 22.401L2.27563 22.054L2.09064 21.675L1.91663 21.296L1.79364 20.888L1.69067 20.479L1.62866 20.051L1.59766 19.582L1.60864 15.785Z" fill="white"/>
<path d="M26.2122 13.699H17.7722C17.6892 13.488 17.5572 13.352 17.4102 13.352C17.2632 13.352 17.1312 13.488 17.0482 13.699H16.7441C16.6601 13.488 16.5292 13.352 16.3822 13.352C16.2342 13.352 16.1032 13.488 16.0192 13.699H15.7842C15.9662 13.453 16.0721 13.156 16.0721 12.838C16.0721 11.986 15.4632 11.296 14.5402 11.296C13.6152 11.296 12.8672 11.986 12.8672 12.838C12.8672 13.227 13.1592 13.583 13.2562 13.848C13.1022 13.881 12.9862 14.019 12.9862 14.184C12.9862 14.358 13.1172 14.501 13.2852 14.524C13.1932 14.851 12.8672 15.095 12.8672 15.617C12.8672 16.468 13.6152 17.158 14.5402 17.158C15.4632 17.158 16.0721 16.468 16.0721 15.617C16.0721 15.297 15.9662 15.001 15.7842 14.755H16.0192C16.1032 14.966 16.2342 15.101 16.3822 15.101C16.5292 15.101 16.6601 14.966 16.7441 14.755H17.0482C17.1302 14.966 17.2632 15.101 17.4102 15.101C17.5572 15.101 17.6892 14.966 17.7722 14.755H23.9692V15.103H23.6782V15.798H23.9692L24.2422 16.179L23.6782 16.095V17.026H24.2422V16.605H25.0782V17.026H25.6422V16.095L25.0782 16.179L25.3531 15.798H25.6422V15.103H25.3531V14.755H26.2112C26.4302 14.755 26.6082 14.573 26.6082 14.351V14.105C26.6102 13.881 26.4312 13.699 26.2122 13.699ZM14.8162 13.59C15.0802 13.599 15.2922 13.873 15.2922 14.213C15.2922 14.552 15.0802 14.826 14.8162 14.836L14.6732 15.174C15.0412 15.174 15.4612 15.221 15.4612 15.653C15.4612 16.173 15.1252 16.594 14.5382 16.594C13.9512 16.594 13.4752 16.172 13.4752 15.653C13.4752 15.246 13.6242 15.186 14.0322 15.053L13.9132 14.813L14.1761 14.575C14.0291 14.513 13.9261 14.367 13.9261 14.198C13.9261 14.028 14.0291 13.883 14.1761 13.821L13.9492 13.647L14.0322 13.399C13.6252 13.266 13.4762 13.206 13.4762 12.799C13.4762 12.278 13.9522 11.857 14.5392 11.857C15.1252 11.857 15.4612 12.279 15.4612 12.799C15.4612 13.231 15.1022 13.277 14.6732 13.277L14.8162 13.59Z" fill="#FFCA38"/>
<path d="M12.7969 15.616C12.7989 15.106 13.0899 14.842 13.1959 14.574C13.0329 14.517 12.9178 14.365 12.9178 14.183C12.9178 14.013 13.0198 13.869 13.1638 13.803C13.0528 13.56 12.7989 13.222 12.7969 12.837C12.7979 11.941 13.5829 11.226 14.5419 11.224C15.5039 11.226 16.1449 11.951 16.1459 12.837C16.1459 13.124 16.0628 13.394 15.9188 13.626H15.9739C16.0639 13.429 16.2009 13.284 16.3839 13.28C16.5679 13.284 16.7038 13.428 16.7928 13.626H17.0029C17.0909 13.429 17.2299 13.284 17.4119 13.28C17.5949 13.284 17.7319 13.428 17.8209 13.626H26.2148V13.698V13.768H17.7258L17.7079 13.724C17.6299 13.525 17.5109 13.419 17.4119 13.423C17.3109 13.419 17.1938 13.525 17.1158 13.724L17.0969 13.768H16.6969L16.6788 13.724C16.6018 13.525 16.4829 13.419 16.3829 13.423C16.2839 13.419 16.1649 13.525 16.0869 13.724L16.0679 13.768H15.6428L15.7258 13.655C15.8998 13.421 16.0009 13.139 16.0009 12.837C15.9979 12.02 15.4249 11.368 14.5399 11.366C13.6499 11.367 12.9379 12.03 12.9369 12.837C12.9339 13.191 13.2139 13.539 13.3229 13.822L13.3499 13.898L13.2709 13.915C13.1489 13.943 13.0569 14.052 13.0569 14.183C13.0569 14.321 13.1608 14.434 13.2938 14.452L13.3749 14.463L13.3539 14.543C13.2449 14.903 12.9339 15.126 12.9369 15.615C12.9379 16.422 13.6489 17.084 14.5399 17.084C15.4249 17.082 15.9969 16.432 16.0009 15.615C16.0009 15.31 15.8988 15.031 15.7258 14.797L15.6428 14.682H16.0679L16.0859 14.728C16.1649 14.927 16.2829 15.033 16.3829 15.03C16.4829 15.033 16.6008 14.927 16.6788 14.728L16.6969 14.682H17.0969L17.1158 14.728C17.1938 14.926 17.3119 15.033 17.4119 15.03C17.5109 15.033 17.6299 14.927 17.7079 14.728L17.7258 14.682H24.0419V15.172H23.7529V15.725H24.0068L24.4019 16.272L23.7539 16.176V16.953H24.1749V16.531H25.1528V16.953H25.5748V16.176L24.9259 16.272L25.3198 15.725H25.5759V15.172H25.2859V14.682H26.2169C26.3949 14.682 26.5418 14.534 26.5428 14.35V14.103C26.5428 13.918 26.3949 13.77 26.2169 13.77V13.699V13.628C26.4759 13.628 26.6859 13.843 26.6859 14.103V14.35C26.6859 14.612 26.4759 14.826 26.2169 14.826H25.4288V15.031H25.7189V15.869H25.3949L25.2408 16.082L25.7198 16.012V17.096H25.0129V16.675H24.3209V17.096H23.6139V16.01L24.0929 16.08L23.9398 15.867H23.6149V15.029H23.9049V14.824H17.8259C17.7369 15.022 17.5999 15.167 17.4169 15.17C17.2329 15.167 17.0969 15.023 17.0079 14.824H16.7988C16.7098 15.022 16.5719 15.167 16.3889 15.17C16.2059 15.167 16.0689 15.023 15.9799 14.824H15.9249C16.0679 15.056 16.1499 15.326 16.1499 15.615C16.1489 16.5 15.5079 17.225 14.5459 17.227C13.5819 17.227 12.7969 16.511 12.7969 15.616ZM14.5419 16.666C13.9219 16.666 13.4079 16.219 13.4069 15.653C13.4059 15.443 13.4468 15.299 13.5538 15.198C13.6478 15.113 13.7698 15.066 13.9338 15.011L13.8279 14.796L14.0569 14.587C13.9349 14.501 13.8569 14.358 13.8569 14.197C13.8569 14.039 13.9318 13.9 14.0488 13.811L13.8658 13.672L13.9438 13.443C13.7748 13.387 13.6488 13.34 13.5538 13.254C13.4458 13.153 13.4049 13.009 13.4069 12.8C13.4079 12.234 13.9209 11.787 14.5419 11.786C14.8529 11.786 15.1039 11.899 15.2749 12.085C15.4459 12.271 15.5349 12.524 15.5349 12.8C15.5389 13.035 15.4269 13.194 15.2609 13.266C15.1259 13.327 14.9619 13.343 14.7869 13.348L14.8658 13.523C15.1588 13.564 15.3658 13.865 15.3658 14.212C15.3658 14.562 15.1589 14.86 14.8679 14.901L14.7828 15.104C14.9388 15.11 15.0989 15.126 15.2369 15.186C15.4069 15.255 15.5389 15.411 15.5349 15.653C15.5349 15.928 15.4459 16.181 15.2749 16.367C15.1049 16.552 14.8518 16.666 14.5438 16.666C14.5428 16.666 14.5429 16.666 14.5419 16.666ZM13.5488 12.8C13.5498 12.997 13.5829 13.086 13.6519 13.151C13.7199 13.217 13.8519 13.266 14.0559 13.331L14.1239 13.352L14.0339 13.622L14.3169 13.838L14.2039 13.887C14.0829 13.939 13.9979 14.059 13.9979 14.199C13.9979 14.339 14.0829 14.459 14.2039 14.511L14.3069 14.555L14.0018 14.831L14.1339 15.098L14.0559 15.123C13.8519 15.187 13.7199 15.238 13.6519 15.304C13.5839 15.367 13.5498 15.457 13.5488 15.655C13.5498 16.13 13.9869 16.525 14.5399 16.526C15.0889 16.522 15.3878 16.145 15.3918 15.655C15.3888 15.464 15.3118 15.381 15.1788 15.319C15.0458 15.261 14.8569 15.247 14.6759 15.247H14.5679L14.7709 14.768L14.8159 14.767C15.0269 14.763 15.2219 14.527 15.2219 14.214C15.2219 13.902 15.0269 13.667 14.8159 13.663L14.8179 13.592L14.8829 13.562L14.8179 13.592L14.8159 13.663L14.7719 13.661L14.5648 13.208H14.6749C14.8859 13.208 15.0748 13.194 15.1998 13.137C15.3208 13.077 15.3879 12.997 15.3909 12.802C15.3859 12.311 15.0878 11.933 14.5388 11.93C13.9878 11.929 13.5498 12.326 13.5488 12.8Z" fill="white"/>
<path d="M8.80859 16.166V18.277L11.9536 15.189V13.094L8.80859 16.166Z" fill="#FFCA38"/>
<path d="M8.73438 16.165V16.135L12.0214 12.924V15.219L8.73438 18.448V16.165ZM8.87634 18.107L11.8783 15.159V13.263L8.87634 16.196V18.107Z" fill="white"/>
<path d="M8.80859 8.44701V10.561L11.9536 7.47301V5.37701L8.80859 8.44701Z" fill="#FFCA38"/>
<path d="M8.73438 8.44699V8.41799L12.0214 5.20599V7.50099L8.73438 10.73V8.44699ZM8.87634 10.391L11.8783 7.44199V5.54499L8.87634 8.47799V10.391Z" fill="white"/>
<path d="M6.28516 4.447V0H6.62317V0.115V0H6.76416V4.447H6.28516Z" fill="white"/>
<path d="M8.80859 11.021V13.133L11.9536 10.045V7.94901L8.80859 11.021Z" fill="#FFCA38"/>
<path d="M8.73438 11.021V10.991L12.0214 7.78V10.075L8.73438 13.304V11.021ZM8.87634 12.963L11.8783 10.014V8.119L8.87634 11.051V12.963Z" fill="white"/>
<path d="M7.34766 5.279V0H7.68561V0.115V0H7.82867V5.279H7.34766Z" fill="white"/>
<path d="M6.62567 0.11499H6.42969V4.33299H6.62567V0.11499Z" fill="#FFCA38"/>
<path d="M7.68713 0.11499H7.49219V5.16399H7.68713V0.11499Z" fill="#FFCA38"/>
<path d="M8.41406 5.828V0H8.75208V0.115V0H8.89404V5.828H8.41406Z" fill="white"/>
<path d="M8.80859 13.593V15.705L11.9536 12.617V10.521L8.80859 13.593Z" fill="#FFCA38"/>
<path d="M8.73438 13.593V13.563L12.0214 10.352V12.647L8.73438 15.876V13.593ZM8.87634 15.535L11.8783 12.587V10.691L8.87634 13.623V15.535Z" fill="white"/>
<path d="M8.75171 0.11499H8.55469V5.71299H8.75171V0.11499Z" fill="#FFCA38"/>
<path d="M9.47656 5.381V0H9.8136V0.115V0H9.95752V5.381H9.47656Z" fill="white"/>
<path d="M8.50043 16.166V18.277L5.35547 15.189V13.094L8.50043 16.166Z" fill="#FFCA38"/>
<path d="M5.28516 15.22V12.925L8.55212 16.114L8.5011 16.166L8.55212 16.114L8.57312 16.135V18.447L5.28516 15.22ZM5.42712 15.159L8.4292 18.107V16.195L5.42712 13.262V15.159Z" fill="white"/>
<path d="M10.5391 4.557V0H10.8861V0.115V0H11.0291V4.557H10.5391Z" fill="white"/>
<path d="M9.81519 0.11499H9.62109V5.26699H9.81519V0.11499Z" fill="#FFCA38"/>
<path d="M11.543 3.781V0H11.8799V0.115V0H12.0229V3.781H11.543Z" fill="white"/>
<path d="M10.8885 0.11499H10.6836V4.44099H10.8885V0.11499Z" fill="#FFCA38"/>
<path d="M11.8785 0.11499H11.6836V3.66599H11.8785V0.11499Z" fill="#FFCA38"/>
<path d="M8.50043 8.44701V10.561L5.35547 7.47301V5.37701L8.50043 8.44701Z" fill="#FFCA38"/>
<path d="M5.28516 7.502V5.207L8.55212 8.396L8.5011 8.448L8.55212 8.396L8.57312 8.417V10.729L5.28516 7.502ZM5.42712 7.441L8.4292 10.39V8.477L5.42712 5.544V7.441Z" fill="white"/>
<path d="M8.50043 11.021V13.133L5.35547 10.045V7.94901L8.50043 11.021Z" fill="#FFCA38"/>
<path d="M5.28516 10.074V7.77899L8.55212 10.968L8.5011 11.02L8.55212 10.968L8.57312 10.989V13.301L5.28516 10.074ZM5.42712 10.014L8.4292 12.963V11.051L5.42712 8.11799V10.014Z" fill="white"/>
<path d="M8.50043 13.593V15.705L5.35547 12.617V10.521L8.50043 13.593Z" fill="#FFCA38"/>
<path d="M5.28516 12.646V10.351L8.55212 13.54L8.5011 13.592L8.55212 13.54L8.57312 13.561V15.873L5.28516 12.646ZM5.42712 12.586L8.4292 15.535V13.623L5.42712 10.69V12.586Z" fill="white"/>
<path d="M5.28516 3.757V0H5.63312V0.115V0H5.77612V3.757H5.28516Z" fill="white"/>
<path d="M5.63074 0.11499H5.42578V3.64299H5.63074V0.11499Z" fill="#FFCA38"/>
<path d="M8.80859 5.87499V7.98699L11.9536 4.89899V2.80499L8.80859 5.87499Z" fill="#FFCA38"/>
<path d="M8.73438 5.875V5.846L12.0214 2.634V4.929L8.73438 8.158V5.875ZM8.87634 7.817L11.8783 4.869V2.974L8.87634 5.905V7.817Z" fill="white"/>
<path d="M8.50043 5.87499V7.98699L5.35547 4.89899V2.80499L8.50043 5.87499Z" fill="#FFCA38"/>
<path d="M5.28516 4.93001V2.63501L8.55115 5.82401L8.5011 5.87501L8.55115 5.82401L8.57214 5.84501V8.15701L5.28516 4.93001ZM5.42712 4.86901L8.4292 7.81701V5.90601L5.42712 2.97301V4.86901Z" fill="white"/>
</svg>
