<svg width="209" height="32" viewBox="0 0 209 32" fill="none" xmlns="http://www.w3.org/2000/svg">
<path d="M93.3755 9.58399L97.7335 6.36899H83.1445V25.633H97.7335V22.415H87.3125V17.498H96.2165V14.282H87.3125V9.58399H93.3755Z" fill="#21A038"/>
<path d="M72.1233 13.873H67.0703V9.58401H75.1543L79.5113 6.36801H62.9023V25.632H71.5863C76.4493 25.632 79.2603 23.425 79.2603 19.577C79.2593 15.891 76.7333 13.873 72.1233 13.873ZM71.4283 22.415H67.0703V17.088H71.4283C74.0803 17.088 75.3123 17.972 75.3123 19.769C75.3123 21.564 73.9863 22.415 71.4283 22.415Z" fill="#21A038"/>
<path d="M109.543 6.36899H101.617V25.633H105.785V20.178H109.575C114.628 20.178 117.785 17.53 117.785 13.273C117.785 9.01799 114.628 6.36899 109.543 6.36899ZM109.449 16.962H105.754V9.58499H109.449C112.132 9.58499 113.585 10.91 113.585 13.273C113.585 15.638 112.131 16.962 109.449 16.962Z" fill="#21A038"/>
<path d="M55.7686 21.47C54.6636 22.069 53.4316 22.385 52.1686 22.385C48.4106 22.385 45.6956 19.705 45.6956 16.017C45.6956 12.329 48.4106 9.64801 52.1686 9.64801C53.5266 9.61701 54.8536 10.058 55.9586 10.846L58.9586 8.63901L58.7696 8.45101C57.0326 6.90601 54.6956 6.11801 52.0436 6.11801C49.1696 6.11801 46.5486 7.09601 44.6546 8.86101C42.7596 10.689 41.6866 13.242 41.7486 15.892C41.7176 18.572 42.7596 21.158 44.6546 23.048C46.6436 24.907 49.2966 25.948 52.0116 25.885C55.0116 25.885 57.6326 24.846 59.4006 22.954L56.7166 20.967L55.7686 21.47Z" fill="#21A038"/>
<path d="M167.901 6.39999V25.665H172.069V17.782H180.943V25.665H185.111V6.39999H180.943V14.315H172.069V6.39999H167.901ZM160.732 25.665H165.122L156.974 6.39999H152.744L144.438 25.665H148.636L150.311 21.786H159.154L160.732 25.665ZM151.575 18.57L154.796 10.845L157.827 18.57H151.575ZM194.458 17.876H197.047L203.427 25.633H208.794L200.27 15.669L207.721 6.36899H202.952L196.763 14.629H194.458V6.36899H190.29V25.633H194.458V17.876ZM130.671 13.904V9.61599H141.566V6.39999H126.504V25.665H135.189C140.051 25.665 142.861 23.456 142.861 19.61C142.861 15.922 140.335 13.904 135.725 13.904H130.671ZM130.671 22.447V17.119H135.027C137.681 17.119 138.913 18.002 138.913 19.799C138.913 21.597 137.616 22.48 135.027 22.48H130.671V22.447Z" fill="#21A038"/>
<path d="M28.7031 6.24301C29.4611 7.22101 30.0921 8.29201 30.6301 9.42801L16.0401 20.178L9.91406 16.332V11.728L16.0091 15.542L28.7031 6.24301Z" fill="#21A038"/>
<path d="M3.694 16.0163C3.694 15.7953 3.694 15.6063 3.726 15.3853L0.0310001 15.1964C0.0310001 15.4494 0 15.7324 0 15.9844C0 20.3974 1.8 24.4023 4.706 27.3023L7.327 24.6863C5.083 22.4794 3.694 19.4213 3.694 16.0163Z" fill="url(#paint0_linear_24_992)"/>
<path d="M16.0081 3.72033C16.2291 3.72033 16.4191 3.72033 16.6401 3.75133L16.8291 0.0623344C16.5771 0.0623344 16.2921 0.0303345 16.0391 0.0303345C11.6191 0.0303345 7.60812 1.82733 4.70312 4.72833L7.32413 7.34433C9.53513 5.10833 12.6291 3.72033 16.0081 3.72033Z" fill="url(#paint1_linear_24_992)"/>
<path d="M16.0075 28.3113C15.7865 28.3113 15.5975 28.3113 15.3765 28.2813L15.1875 31.9693C15.4395 31.9693 15.7245 31.9993 15.9765 31.9993C20.3975 31.9993 24.4085 30.2023 27.3135 27.3023L24.6915 24.6863C22.4825 26.9563 19.4195 28.3113 16.0075 28.3113Z" fill="url(#paint2_linear_24_992)"/>
<path d="M22.9587 5.864L26.0857 3.563C23.3387 1.356 19.8327 0 16.0117 0V3.689C18.6017 3.721 21.0017 4.509 22.9587 5.864Z" fill="url(#paint3_linear_24_992)"/>
<path d="M32.0532 16.017C32.0532 15.039 31.9592 14.093 31.8012 13.148L28.3592 15.7C28.3592 15.796 28.3592 15.922 28.3592 16.016C28.3592 19.642 26.7792 22.888 24.2852 25.126L26.7792 27.868C30.0012 24.971 32.0532 20.714 32.0532 16.017Z" fill="#21A038"/>
<path d="M16.0097 28.312C12.3787 28.312 9.12572 26.737 6.88372 24.247L4.13672 26.737C7.07372 29.982 11.3057 32 16.0097 32V28.312Z" fill="url(#paint4_linear_24_992)"/>
<path d="M7.769 6.90499L5.274 4.16199C2.021 7.09399 0 11.318 0 16.016H3.695C3.695 12.422 5.274 9.14299 7.769 6.90499Z" fill="url(#paint5_linear_24_992)"/>
<defs>
<linearGradient id="paint0_linear_24_992" x1="4.39471" y1="26.812" x2="0.624682" y2="15.9319" gradientUnits="userSpaceOnUse">
<stop offset="0.1444" stop-color="#F2E913"/>
<stop offset="0.3037" stop-color="#E7E518"/>
<stop offset="0.5823" stop-color="#CADB26"/>
<stop offset="0.891" stop-color="#A3CD39"/>
</linearGradient>
<linearGradient id="paint1_linear_24_992" x1="5.7715" y1="4.42346" x2="15.3537" y2="0.778372" gradientUnits="userSpaceOnUse">
<stop offset="0.0592" stop-color="#0FA8E0"/>
<stop offset="0.5385" stop-color="#0099F9"/>
<stop offset="0.9234" stop-color="#0291EB"/>
</linearGradient>
<linearGradient id="paint2_linear_24_992" x1="14.9339" y1="28.8101" x2="26.3574" y2="26.2333" gradientUnits="userSpaceOnUse">
<stop offset="0.1226" stop-color="#A3CD39"/>
<stop offset="0.2846" stop-color="#86C339"/>
<stop offset="0.8693" stop-color="#21A038"/>
</linearGradient>
<linearGradient id="paint3_linear_24_992" x1="15.2531" y1="2.44427" x2="24.7532" y2="5.37141" gradientUnits="userSpaceOnUse">
<stop offset="0.0566" stop-color="#0291EB"/>
<stop offset="0.79" stop-color="#0C8ACB"/>
</linearGradient>
<linearGradient id="paint4_linear_24_992" x1="5.11429" y1="27.221" x2="15.3104" y2="31.0238" gradientUnits="userSpaceOnUse">
<stop offset="0.1324" stop-color="#F2E913"/>
<stop offset="0.2977" stop-color="#EBE716"/>
<stop offset="0.5306" stop-color="#D9E01F"/>
<stop offset="0.8023" stop-color="#BBD62D"/>
<stop offset="0.9829" stop-color="#A3CD39"/>
</linearGradient>
<linearGradient id="paint5_linear_24_992" x1="2.92903" y1="16.5053" x2="7.00661" y2="5.9155" gradientUnits="userSpaceOnUse">
<stop offset="0.0698" stop-color="#A3CD39"/>
<stop offset="0.2599" stop-color="#81C55F"/>
<stop offset="0.9216" stop-color="#0FA8E0"/>
</linearGradient>
</defs>
</svg>
