<svg width="91" height="32" viewBox="0 0 91 32" fill="none" xmlns="http://www.w3.org/2000/svg">
<path d="M26.177 4.263H4.65997L6.20898 0H27.727L26.177 4.263ZM25.402 6.395H3.875L2.32498 10.658H23.842L25.402 6.395ZM23.077 12.77H1.54999L0 17.032H21.498L23.077 12.77Z" fill="#009FDF"/>
<path d="M77.4485 27.698H81.3235C82.4415 27.832 83.5535 27.4 84.2885 26.545C84.8195 25.85 85.0876 24.988 85.0446 24.113C85.1176 22.983 84.6196 21.891 83.7166 21.207C82.9976 20.736 82.1425 20.519 81.2845 20.588H77.4485V27.698ZM72.3615 31.99V6.395H89.0155L87.5526 10.686H77.4485V16.354H81.5656C84.8885 16.354 86.6135 17.149 87.8045 18.166C89.5305 19.693 90.4616 21.928 90.3326 24.23C90.4655 26.715 89.3316 29.1 87.3195 30.566C85.7206 31.67 84.0456 31.98 80.6346 31.98L72.3615 31.99ZM57.6165 31.99V10.676H50.2155V6.395H70.7635L69.3005 10.686H62.7516V32L57.6165 31.99ZM37.1065 16.645H40.0125C40.6075 16.686 41.2046 16.639 41.7856 16.509C43.0306 16.112 43.8345 14.905 43.7235 13.602C43.8905 12.302 43.0576 11.082 41.7856 10.764C41.1506 10.617 40.4985 10.558 39.8475 10.59H37.1055V16.645H37.1065ZM37.1065 21.072V27.785H40.6526C41.6296 27.897 42.6125 27.627 43.3945 27.029C44.1245 26.353 44.5155 25.388 44.4605 24.394C44.4755 23.611 44.2375 22.843 43.7825 22.205C43.0265 21.236 42.0965 21.053 40.5075 21.053L37.1065 21.072ZM45.3026 18.369V18.456C46.1666 18.789 46.9736 19.252 47.6956 19.832C49.1756 21.061 49.9815 22.92 49.8655 24.84C49.8655 28.338 48.0056 30.867 44.9536 31.622C43.7366 31.92 42.4835 32.04 41.2325 31.98H32.0195V6.395H40.2155C41.5175 6.347 42.8195 6.467 44.0905 6.752C47.0545 7.547 49.0025 9.592 49.0025 12.817C49.0515 14.372 48.4595 15.878 47.3655 16.983C46.7905 17.567 46.1056 18.031 45.3506 18.349L45.3026 18.369Z" fill="#0A2973"/>
</svg>
