<svg width="135" height="175" viewBox="0 0 135 175" fill="none" xmlns="http://www.w3.org/2000/svg"><path d="m72.53 154.031 1.153-1.209 5.062 4.834-.635.666-4.693-4.482 2.845 6.423-.917.963-6.52-2.521 4.679 4.455-.635.666-5.069-4.827 1.152-1.209 6.478 2.578-2.9-6.337Zm6.255-4.016.945-.992 3.795 3.614-.614.644-3.338-3.179 1.249 5.373-.945.992-3.795-3.613.614-.645 3.338 3.179-1.249-5.373Zm4.6-4.829.634-.666 3.794 3.613-.634.666-1.572-1.496c-.427.652-.825 1.171-1.192 1.557-.97 1.019-1.885 1.119-2.744.3l-1.087-1.034.628-.659 1.007.959c.294.28.59.395.885.346.291-.054.614-.268.968-.639.33-.348.662-.797.992-1.347l-1.68-1.6Zm4.634-4.867.69-.724 2.6 5.722c.274.573.396 1.03.367 1.37-.03.341-.237.713-.624 1.119a5.12 5.12 0 0 1-.484.45l-.514-.489a5.98 5.98 0 0 0 .436-.414c.22-.232.34-.449.359-.653.018-.203-.052-.486-.212-.85l-.21-.462-.324.34-5.436-1.89.69-.724 4.925 1.818-2.263-4.613Zm3.346-3.688c.53-.556 1.13-.834 1.805-.837.674-.002 1.32.291 1.938.88.618.588.942 1.219.973 1.893.03.673-.218 1.288-.747 1.843a2.727 2.727 0 0 1-1.086.719c-.398.128-.8.136-1.209.023l2.194 2.089-.634.667-5.243-4.993.586-.616.833.793a2.035 2.035 0 0 1-.088-1.271c.103-.427.33-.823.678-1.19Zm3.276 3.477c.4-.42.584-.879.553-1.378-.031-.509-.27-.975-.713-1.397-.444-.423-.919-.636-1.423-.638-.505-.011-.958.194-1.358.614-.404.424-.589.889-.553 1.392.031.499.269.96.713 1.383.444.423.919.64 1.424.652.5.006.952-.203 1.356-.628Zm2.052-8.897.944-.993 3.795 3.614-.614.645-3.338-3.18 1.249 5.374-.945.992-3.795-3.614.614-.644 3.339 3.179-1.25-5.373Zm4.853-5.098.628-.659 3.795 3.614-.628.659-1.665-1.586-2.283 2.397 1.665 1.586-.634.666-3.795-3.613.635-.667 1.586 1.511 2.282-2.397-1.586-1.511Zm7.665-3.046c.375.496.518 1.032.429 1.609-.09.569-.376 1.106-.859 1.613-.598.628-1.243.962-1.935 1.002-.692.031-1.355-.254-1.987-.857-.633-.602-.948-1.247-.946-1.936-.003-.693.29-1.348.879-1.966.473-.498.989-.807 1.547-.929.558-.123 1.087-.015 1.585.322l-.556.685c-.344-.208-.7-.27-1.065-.186-.366.084-.698.283-.997.597-.391.411-.573.863-.547 1.357.026.495.269.961.727 1.397.459.437.936.656 1.431.659.5-.003.95-.215 1.35-.635.308-.323.49-.674.547-1.053.057-.378-.032-.739-.267-1.083l.664-.596Zm4.904-2.554-3.238.065-.669.703 1.666 1.586-.634.666-3.795-3.614.634-.666 1.615 1.538.662-.695-.084-3.146.786-.825-.044 3.686 3.936-.174-.835.876Zm.33-7.944.945-.992 3.794 3.613-.614.645-3.338-3.179 1.249 5.373-.945.992-3.795-3.614.614-.644 3.339 3.179-1.249-5.373Zm3.796-5.524c-.01.358-.192.723-.546 1.095-.354.372-.71.572-1.067.599-.358.018-.694-.108-1.007-.378l.435-.457a.953.953 0 0 0 .592.219c.222 0 .443-.117.663-.348.221-.232.324-.456.309-.673a.977.977 0 0 0-.234-.595l.435-.456c.285.299.426.63.42.994Zm.844.651.945-.992 3.794 3.613-.613.645-3.339-3.179 1.249 5.373-.945.992-3.794-3.613.613-.645 3.339 3.179-1.249-5.373Zm-41.451 60.93 3.496-3.672 3.795 3.614-.628.659-3.251-3.097-2.235 2.347 3.252 3.096-.635.666-3.794-3.613Zm6.508-7.009c.529-.555 1.13-.834 1.804-.836.675-.002 1.32.291 1.939.879.618.589.942 1.22.972 1.893.031.674-.218 1.288-.747 1.843a2.72 2.72 0 0 1-1.085.72 2.078 2.078 0 0 1-1.21.023l2.195 2.089-.635.666-5.243-4.993.587-.615.832.793a2.035 2.035 0 0 1-.087-1.271c.102-.427.329-.824.678-1.191Zm3.275 3.478c.4-.42.584-.88.553-1.379-.031-.508-.269-.974-.713-1.397-.444-.423-.918-.635-1.423-.637-.505-.011-.957.193-1.357.613-.405.425-.59.889-.553 1.393.03.499.268.96.713 1.383.444.423.918.64 1.423.651.5.007.952-.202 1.357-.627Zm3.026-3.207c-.711.041-1.376-.232-1.994-.821-.618-.588-.924-1.239-.917-1.951.006-.712.308-1.382.905-2.009.603-.633 1.257-.967 1.963-1.003.711-.041 1.376.232 1.994.821.618.588.924 1.239.918 1.951-.002.707-.304 1.377-.906 2.01-.598.627-1.252.961-1.963 1.002Zm-2.072-2.87c.026.504.262.967.706 1.39.444.423.92.638 1.43.644.51-.003.97-.222 1.385-.656.409-.43.603-.899.58-1.408-.026-.513-.261-.981-.706-1.404-.444-.423-.92-.633-1.43-.63-.514-.002-.975.212-1.385.642-.413.435-.607.909-.58 1.422Zm8.943-6.056c.375.495.518 1.032.428 1.609-.09.568-.376 1.106-.859 1.613-.597.627-1.242.961-1.934 1.002-.693.031-1.355-.255-1.988-.857-.632-.602-.947-1.248-.945-1.936-.003-.693.29-1.349.878-1.967.474-.497.99-.807 1.548-.929s1.086-.015 1.585.322l-.556.686a1.385 1.385 0 0 0-1.066-.186c-.365.084-.698.283-.996.597-.391.41-.574.863-.547 1.357.026.495.268.96.727 1.397.459.437.936.656 1.43.658.5-.003.95-.214 1.35-.634.308-.324.49-.675.547-1.053.057-.379-.032-.74-.266-1.083l.664-.596Zm-1.766-3.148 3.496-3.672 3.795 3.614-.628.659-3.251-3.096-2.235 2.346 3.252 3.096-.635.667-3.794-3.614Zm10.131-6.637.094.089-3.22 3.382c.462.376.928.539 1.398.49.47-.05.906-.284 1.306-.704.285-.3.468-.608.55-.926a1.487 1.487 0 0 0-.022-.905l.643-.589c.223.433.279.901.169 1.404-.115.498-.403.988-.862 1.471-.626.656-1.286 1.017-1.983 1.081-.696.055-1.37-.228-2.022-.849-.647-.616-.96-1.273-.94-1.972.021-.698.328-1.359.921-1.981.607-.638 1.245-.96 1.914-.967.67-.016 1.354.309 2.054.976Zm-3.49.446c-.368.386-.563.808-.585 1.266-.026.453.145.897.514 1.331l2.593-2.722c-.4-.354-.826-.52-1.278-.5-.453.021-.867.229-1.244.625Zm8.925-2.557-3.238.065-.669.702 1.666 1.586-.634.666-3.795-3.613.634-.666 1.615 1.537.662-.695-.084-3.145.786-.826-.044 3.686 3.936-.174-.835.877Zm.772-8.41.543.518-1.441 1.513 3.252 3.097-.635.666-3.251-3.097-1.442 1.514-.543-.517 3.517-3.694Z" fill="#2C2C2C"/><mask id="a" style="mask-type:luminance" maskUnits="userSpaceOnUse" x="0" y="0" width="90" height="147"><path d="m46.695 0-4.288 4.898 2.946 3.051-25.217 43.322-7.933 2.844L0 82.39l25.017 35.694 29.898 28.679 14.949-16.17-17.389-17.118 9.458-44.407L90 40.593 46.695 0Z" fill="#fff"/></mask><g mask="url(#a)"><path d="M-5.91 2.42H97.383" stroke="#C4DDC9" stroke-miterlimit="10"/></g><mask id="b" style="mask-type:luminance" maskUnits="userSpaceOnUse" x="0" y="0" width="90" height="147"><path d="m46.695 0-4.288 4.898 2.946 3.051-25.217 43.322-7.933 2.844L0 82.39l25.017 35.694 29.898 28.679 14.949-16.17-17.389-17.118 9.458-44.407L90 40.593 46.695 0Z" fill="#fff"/></mask><g mask="url(#b)"><path d="M-5.91 4.42H97.383" stroke="#C4DDC9" stroke-miterlimit="10"/></g><mask id="c" style="mask-type:luminance" maskUnits="userSpaceOnUse" x="0" y="0" width="90" height="147"><path d="m46.695 0-4.288 4.898 2.946 3.051-25.217 43.322-7.933 2.844L0 82.39l25.017 35.694 29.898 28.679 14.949-16.17-17.389-17.118 9.458-44.407L90 40.593 46.695 0Z" fill="#fff"/></mask><g mask="url(#c)"><path d="M-5.91 6.42H97.383" stroke="#C4DDC9" stroke-miterlimit="10"/></g><mask id="d" style="mask-type:luminance" maskUnits="userSpaceOnUse" x="0" y="0" width="90" height="147"><path d="m46.695 0-4.288 4.898 2.946 3.051-25.217 43.322-7.933 2.844L0 82.39l25.017 35.694 29.898 28.679 14.949-16.17-17.389-17.118 9.458-44.407L90 40.593 46.695 0Z" fill="#fff"/></mask><g mask="url(#d)"><path d="M-5.91 8.42H97.383" stroke="#C4DDC9" stroke-miterlimit="10"/></g><mask id="e" style="mask-type:luminance" maskUnits="userSpaceOnUse" x="0" y="0" width="90" height="147"><path d="m46.695 0-4.288 4.898 2.946 3.051-25.217 43.322-7.933 2.844L0 82.39l25.017 35.694 29.898 28.679 14.949-16.17-17.389-17.118 9.458-44.407L90 40.593 46.695 0Z" fill="#fff"/></mask><g mask="url(#e)"><path d="M-5.91 10.42H97.383" stroke="#C4DDC9" stroke-miterlimit="10"/></g><mask id="f" style="mask-type:luminance" maskUnits="userSpaceOnUse" x="0" y="0" width="90" height="147"><path d="m46.695 0-4.288 4.898 2.946 3.051-25.217 43.322-7.933 2.844L0 82.39l25.017 35.694 29.898 28.679 14.949-16.17-17.389-17.118 9.458-44.407L90 40.593 46.695 0Z" fill="#fff"/></mask><g mask="url(#f)"><path d="M-5.91 12.42H97.383" stroke="#C4DDC9" stroke-miterlimit="10"/></g><mask id="g" style="mask-type:luminance" maskUnits="userSpaceOnUse" x="0" y="0" width="90" height="147"><path d="m46.695 0-4.288 4.898 2.946 3.051-25.217 43.322-7.933 2.844L0 82.39l25.017 35.694 29.898 28.679 14.949-16.17-17.389-17.118 9.458-44.407L90 40.593 46.695 0Z" fill="#fff"/></mask><g mask="url(#g)"><path d="M-5.91 14.42H97.383" stroke="#C4DDC9" stroke-miterlimit="10"/></g><mask id="h" style="mask-type:luminance" maskUnits="userSpaceOnUse" x="0" y="0" width="90" height="147"><path d="m46.695 0-4.288 4.898 2.946 3.051-25.217 43.322-7.933 2.844L0 82.39l25.017 35.694 29.898 28.679 14.949-16.17-17.389-17.118 9.458-44.407L90 40.593 46.695 0Z" fill="#fff"/></mask><g mask="url(#h)"><path d="M-5.91 16.42H97.383" stroke="#C4DDC9" stroke-miterlimit="10"/></g><mask id="i" style="mask-type:luminance" maskUnits="userSpaceOnUse" x="0" y="0" width="90" height="147"><path d="m46.695 0-4.288 4.898 2.946 3.051-25.217 43.322-7.933 2.844L0 82.39l25.017 35.694 29.898 28.679 14.949-16.17-17.389-17.118 9.458-44.407L90 40.593 46.695 0Z" fill="#fff"/></mask><g mask="url(#i)"><path d="M-5.91 18.42H97.383" stroke="#C4DDC9" stroke-miterlimit="10"/></g><mask id="j" style="mask-type:luminance" maskUnits="userSpaceOnUse" x="0" y="0" width="90" height="147"><path d="m46.695 0-4.288 4.898 2.946 3.051-25.217 43.322-7.933 2.844L0 82.39l25.017 35.694 29.898 28.679 14.949-16.17-17.389-17.118 9.458-44.407L90 40.593 46.695 0Z" fill="#fff"/></mask><g mask="url(#j)"><path d="M-5.91 20.42H97.383" stroke="#C4DDC9" stroke-miterlimit="10"/></g><mask id="k" style="mask-type:luminance" maskUnits="userSpaceOnUse" x="0" y="0" width="90" height="147"><path d="m46.695 0-4.288 4.898 2.946 3.051-25.217 43.322-7.933 2.844L0 82.39l25.017 35.694 29.898 28.679 14.949-16.17-17.389-17.118 9.458-44.407L90 40.593 46.695 0Z" fill="#fff"/></mask><g mask="url(#k)"><path d="M-5.91 22.42H97.383" stroke="#C4DDC9" stroke-miterlimit="10"/></g><mask id="l" style="mask-type:luminance" maskUnits="userSpaceOnUse" x="0" y="0" width="90" height="147"><path d="m46.695 0-4.288 4.898 2.946 3.051-25.217 43.322-7.933 2.844L0 82.39l25.017 35.694 29.898 28.679 14.949-16.17-17.389-17.118 9.458-44.407L90 40.593 46.695 0Z" fill="#fff"/></mask><g mask="url(#l)"><path d="M-5.91 24.42H97.383" stroke="#C4DDC9" stroke-miterlimit="10"/></g><mask id="m" style="mask-type:luminance" maskUnits="userSpaceOnUse" x="0" y="0" width="90" height="147"><path d="m46.695 0-4.288 4.898 2.946 3.051-25.217 43.322-7.933 2.844L0 82.39l25.017 35.694 29.898 28.679 14.949-16.17-17.389-17.118 9.458-44.407L90 40.593 46.695 0Z" fill="#fff"/></mask><g mask="url(#m)"><path d="M-5.91 26.42H97.383" stroke="#C4DDC9" stroke-miterlimit="10"/></g><mask id="n" style="mask-type:luminance" maskUnits="userSpaceOnUse" x="0" y="0" width="90" height="147"><path d="m46.695 0-4.288 4.898 2.946 3.051-25.217 43.322-7.933 2.844L0 82.39l25.017 35.694 29.898 28.679 14.949-16.17-17.389-17.118 9.458-44.407L90 40.593 46.695 0Z" fill="#fff"/></mask><g mask="url(#n)"><path d="M-5.91 28.42H97.383" stroke="#C4DDC9" stroke-miterlimit="10"/></g><mask id="o" style="mask-type:luminance" maskUnits="userSpaceOnUse" x="0" y="0" width="90" height="147"><path d="m46.695 0-4.288 4.898 2.946 3.051-25.217 43.322-7.933 2.844L0 82.39l25.017 35.694 29.898 28.679 14.949-16.17-17.389-17.118 9.458-44.407L90 40.593 46.695 0Z" fill="#fff"/></mask><g mask="url(#o)"><path d="M-5.91 30.42H97.383" stroke="#C4DDC9" stroke-miterlimit="10"/></g><mask id="p" style="mask-type:luminance" maskUnits="userSpaceOnUse" x="0" y="0" width="90" height="147"><path d="m46.695 0-4.288 4.898 2.946 3.051-25.217 43.322-7.933 2.844L0 82.39l25.017 35.694 29.898 28.679 14.949-16.17-17.389-17.118 9.458-44.407L90 40.593 46.695 0Z" fill="#fff"/></mask><g mask="url(#p)"><path d="M-5.91 32.42H97.383" stroke="#C4DDC9" stroke-miterlimit="10"/></g><mask id="q" style="mask-type:luminance" maskUnits="userSpaceOnUse" x="0" y="0" width="90" height="147"><path d="m46.695 0-4.288 4.898 2.946 3.051-25.217 43.322-7.933 2.844L0 82.39l25.017 35.694 29.898 28.679 14.949-16.17-17.389-17.118 9.458-44.407L90 40.593 46.695 0Z" fill="#fff"/></mask><g mask="url(#q)"><path d="M-5.91 34.42H97.383" stroke="#C4DDC9" stroke-miterlimit="10"/></g><mask id="r" style="mask-type:luminance" maskUnits="userSpaceOnUse" x="0" y="0" width="90" height="147"><path d="m46.695 0-4.288 4.898 2.946 3.051-25.217 43.322-7.933 2.844L0 82.39l25.017 35.694 29.898 28.679 14.949-16.17-17.389-17.118 9.458-44.407L90 40.593 46.695 0Z" fill="#fff"/></mask><g mask="url(#r)"><path d="M-5.91 36.42H97.383" stroke="#C4DDC9" stroke-miterlimit="10"/></g><mask id="s" style="mask-type:luminance" maskUnits="userSpaceOnUse" x="0" y="0" width="90" height="147"><path d="m46.695 0-4.288 4.898 2.946 3.051-25.217 43.322-7.933 2.844L0 82.39l25.017 35.694 29.898 28.679 14.949-16.17-17.389-17.118 9.458-44.407L90 40.593 46.695 0Z" fill="#fff"/></mask><g mask="url(#s)"><path d="M-5.91 38.42H97.383" stroke="#C4DDC9" stroke-miterlimit="10"/></g><mask id="t" style="mask-type:luminance" maskUnits="userSpaceOnUse" x="0" y="0" width="90" height="147"><path d="m46.695 0-4.288 4.898 2.946 3.051-25.217 43.322-7.933 2.844L0 82.39l25.017 35.694 29.898 28.679 14.949-16.17-17.389-17.118 9.458-44.407L90 40.593 46.695 0Z" fill="#fff"/></mask><g mask="url(#t)"><path d="M-5.91 40.42H97.383" stroke="#C4DDC9" stroke-miterlimit="10"/></g><mask id="u" style="mask-type:luminance" maskUnits="userSpaceOnUse" x="0" y="0" width="90" height="147"><path d="m46.695 0-4.288 4.898 2.946 3.051-25.217 43.322-7.933 2.844L0 82.39l25.017 35.694 29.898 28.679 14.949-16.17-17.389-17.118 9.458-44.407L90 40.593 46.695 0Z" fill="#fff"/></mask><g mask="url(#u)"><path d="M-5.91 42.42H97.383" stroke="#C4DDC9" stroke-miterlimit="10"/></g><mask id="v" style="mask-type:luminance" maskUnits="userSpaceOnUse" x="0" y="0" width="90" height="147"><path d="m46.695 0-4.288 4.898 2.946 3.051-25.217 43.322-7.933 2.844L0 82.39l25.017 35.694 29.898 28.679 14.949-16.17-17.389-17.118 9.458-44.407L90 40.593 46.695 0Z" fill="#fff"/></mask><g mask="url(#v)"><path d="M-5.91 44.42H97.383" stroke="#C4DDC9" stroke-miterlimit="10"/></g><mask id="w" style="mask-type:luminance" maskUnits="userSpaceOnUse" x="0" y="0" width="90" height="147"><path d="m46.695 0-4.288 4.898 2.946 3.051-25.217 43.322-7.933 2.844L0 82.39l25.017 35.694 29.898 28.679 14.949-16.17-17.389-17.118 9.458-44.407L90 40.593 46.695 0Z" fill="#fff"/></mask><g mask="url(#w)"><path d="M-5.91 46.42H97.383" stroke="#C4DDC9" stroke-miterlimit="10"/></g><mask id="x" style="mask-type:luminance" maskUnits="userSpaceOnUse" x="0" y="0" width="90" height="147"><path d="m46.695 0-4.288 4.898 2.946 3.051-25.217 43.322-7.933 2.844L0 82.39l25.017 35.694 29.898 28.679 14.949-16.17-17.389-17.118 9.458-44.407L90 40.593 46.695 0Z" fill="#fff"/></mask><g mask="url(#x)"><path d="M-5.91 48.42H97.383" stroke="#C4DDC9" stroke-miterlimit="10"/></g><mask id="y" style="mask-type:luminance" maskUnits="userSpaceOnUse" x="0" y="0" width="90" height="147"><path d="m46.695 0-4.288 4.898 2.946 3.051-25.217 43.322-7.933 2.844L0 82.39l25.017 35.694 29.898 28.679 14.949-16.17-17.389-17.118 9.458-44.407L90 40.593 46.695 0Z" fill="#fff"/></mask><g mask="url(#y)"><path d="M-5.91 50.42H97.383" stroke="#C4DDC9" stroke-miterlimit="10"/></g><mask id="z" style="mask-type:luminance" maskUnits="userSpaceOnUse" x="0" y="0" width="90" height="147"><path d="m46.695 0-4.288 4.898 2.946 3.051-25.217 43.322-7.933 2.844L0 82.39l25.017 35.694 29.898 28.679 14.949-16.17-17.389-17.118 9.458-44.407L90 40.593 46.695 0Z" fill="#fff"/></mask><g mask="url(#z)"><path d="M-5.91 52.42H97.383" stroke="#C4DDC9" stroke-miterlimit="10"/></g><mask id="A" style="mask-type:luminance" maskUnits="userSpaceOnUse" x="0" y="0" width="90" height="147"><path d="m46.695 0-4.288 4.898 2.946 3.051-25.217 43.322-7.933 2.844L0 82.39l25.017 35.694 29.898 28.679 14.949-16.17-17.389-17.118 9.458-44.407L90 40.593 46.695 0Z" fill="#fff"/></mask><g mask="url(#A)"><path d="M-5.91 54.42H97.383" stroke="#C4DDC9" stroke-miterlimit="10"/></g><mask id="B" style="mask-type:luminance" maskUnits="userSpaceOnUse" x="0" y="0" width="90" height="147"><path d="m46.695 0-4.288 4.898 2.946 3.051-25.217 43.322-7.933 2.844L0 82.39l25.017 35.694 29.898 28.679 14.949-16.17-17.389-17.118 9.458-44.407L90 40.593 46.695 0Z" fill="#fff"/></mask><g mask="url(#B)"><path d="M-5.91 56.42H97.383" stroke="#C4DDC9" stroke-miterlimit="10"/></g><mask id="C" style="mask-type:luminance" maskUnits="userSpaceOnUse" x="0" y="0" width="90" height="147"><path d="m46.695 0-4.288 4.898 2.946 3.051-25.217 43.322-7.933 2.844L0 82.39l25.017 35.694 29.898 28.679 14.949-16.17-17.389-17.118 9.458-44.407L90 40.593 46.695 0Z" fill="#fff"/></mask><g mask="url(#C)"><path d="M-5.91 58.42H97.383" stroke="#C4DDC9" stroke-miterlimit="10"/></g><mask id="D" style="mask-type:luminance" maskUnits="userSpaceOnUse" x="0" y="0" width="90" height="147"><path d="m46.695 0-4.288 4.898 2.946 3.051-25.217 43.322-7.933 2.844L0 82.39l25.017 35.694 29.898 28.679 14.949-16.17-17.389-17.118 9.458-44.407L90 40.593 46.695 0Z" fill="#fff"/></mask><g mask="url(#D)"><path d="M-5.91 60.42H97.383" stroke="#C4DDC9" stroke-miterlimit="10"/></g><mask id="E" style="mask-type:luminance" maskUnits="userSpaceOnUse" x="0" y="0" width="90" height="147"><path d="m46.695 0-4.288 4.898 2.946 3.051-25.217 43.322-7.933 2.844L0 82.39l25.017 35.694 29.898 28.679 14.949-16.17-17.389-17.118 9.458-44.407L90 40.593 46.695 0Z" fill="#fff"/></mask><g mask="url(#E)"><path d="M-5.91 62.42H97.383" stroke="#C4DDC9" stroke-miterlimit="10"/></g><mask id="F" style="mask-type:luminance" maskUnits="userSpaceOnUse" x="0" y="0" width="90" height="147"><path d="m46.695 0-4.288 4.898 2.946 3.051-25.217 43.322-7.933 2.844L0 82.39l25.017 35.694 29.898 28.679 14.949-16.17-17.389-17.118 9.458-44.407L90 40.593 46.695 0Z" fill="#fff"/></mask><g mask="url(#F)"><path d="M-5.91 64.42H97.383" stroke="#C4DDC9" stroke-miterlimit="10"/></g><mask id="G" style="mask-type:luminance" maskUnits="userSpaceOnUse" x="0" y="0" width="90" height="147"><path d="m46.695 0-4.288 4.898 2.946 3.051-25.217 43.322-7.933 2.844L0 82.39l25.017 35.694 29.898 28.679 14.949-16.17-17.389-17.118 9.458-44.407L90 40.593 46.695 0Z" fill="#fff"/></mask><g mask="url(#G)"><path d="M-5.91 66.42H97.383" stroke="#C4DDC9" stroke-miterlimit="10"/></g><mask id="H" style="mask-type:luminance" maskUnits="userSpaceOnUse" x="0" y="0" width="90" height="147"><path d="m46.695 0-4.288 4.898 2.946 3.051-25.217 43.322-7.933 2.844L0 82.39l25.017 35.694 29.898 28.679 14.949-16.17-17.389-17.118 9.458-44.407L90 40.593 46.695 0Z" fill="#fff"/></mask><g mask="url(#H)"><path d="M-5.91 68.42H97.383" stroke="#C4DDC9" stroke-miterlimit="10"/></g><mask id="I" style="mask-type:luminance" maskUnits="userSpaceOnUse" x="0" y="0" width="90" height="147"><path d="m46.695 0-4.288 4.898 2.946 3.051-25.217 43.322-7.933 2.844L0 82.39l25.017 35.694 29.898 28.679 14.949-16.17-17.389-17.118 9.458-44.407L90 40.593 46.695 0Z" fill="#fff"/></mask><g mask="url(#I)"><path d="M-5.91 70.42H97.383" stroke="#C4DDC9" stroke-miterlimit="10"/></g><mask id="J" style="mask-type:luminance" maskUnits="userSpaceOnUse" x="0" y="0" width="90" height="147"><path d="m46.695 0-4.288 4.898 2.946 3.051-25.217 43.322-7.933 2.844L0 82.39l25.017 35.694 29.898 28.679 14.949-16.17-17.389-17.118 9.458-44.407L90 40.593 46.695 0Z" fill="#fff"/></mask><g mask="url(#J)"><path d="M-5.91 72.42H97.383" stroke="#C4DDC9" stroke-miterlimit="10"/></g><mask id="K" style="mask-type:luminance" maskUnits="userSpaceOnUse" x="0" y="0" width="90" height="147"><path d="m46.695 0-4.288 4.898 2.946 3.051-25.217 43.322-7.933 2.844L0 82.39l25.017 35.694 29.898 28.679 14.949-16.17-17.389-17.118 9.458-44.407L90 40.593 46.695 0Z" fill="#fff"/></mask><g mask="url(#K)"><path d="M-5.91 74.42H97.383" stroke="#C4DDC9" stroke-miterlimit="10"/></g><mask id="L" style="mask-type:luminance" maskUnits="userSpaceOnUse" x="0" y="0" width="90" height="147"><path d="m46.695 0-4.288 4.898 2.946 3.051-25.217 43.322-7.933 2.844L0 82.39l25.017 35.694 29.898 28.679 14.949-16.17-17.389-17.118 9.458-44.407L90 40.593 46.695 0Z" fill="#fff"/></mask><g mask="url(#L)"><path d="M-5.91 76.42H97.383" stroke="#C4DDC9" stroke-miterlimit="10"/></g><mask id="M" style="mask-type:luminance" maskUnits="userSpaceOnUse" x="0" y="0" width="90" height="147"><path d="m46.695 0-4.288 4.898 2.946 3.051-25.217 43.322-7.933 2.844L0 82.39l25.017 35.694 29.898 28.679 14.949-16.17-17.389-17.118 9.458-44.407L90 40.593 46.695 0Z" fill="#fff"/></mask><g mask="url(#M)"><path d="M-5.91 78.42H97.383" stroke="#C4DDC9" stroke-miterlimit="10"/></g><mask id="N" style="mask-type:luminance" maskUnits="userSpaceOnUse" x="0" y="0" width="90" height="147"><path d="m46.695 0-4.288 4.898 2.946 3.051-25.217 43.322-7.933 2.844L0 82.39l25.017 35.694 29.898 28.679 14.949-16.17-17.389-17.118 9.458-44.407L90 40.593 46.695 0Z" fill="#fff"/></mask><g mask="url(#N)"><path d="M-5.91 80.42H97.383" stroke="#C4DDC9" stroke-miterlimit="10"/></g><mask id="O" style="mask-type:luminance" maskUnits="userSpaceOnUse" x="0" y="0" width="90" height="147"><path d="m46.695 0-4.288 4.898 2.946 3.051-25.217 43.322-7.933 2.844L0 82.39l25.017 35.694 29.898 28.679 14.949-16.17-17.389-17.118 9.458-44.407L90 40.593 46.695 0Z" fill="#fff"/></mask><g mask="url(#O)"><path d="M-5.91 82.42H97.383" stroke="#C4DDC9" stroke-miterlimit="10"/></g><mask id="P" style="mask-type:luminance" maskUnits="userSpaceOnUse" x="0" y="0" width="90" height="147"><path d="m46.695 0-4.288 4.898 2.946 3.051-25.217 43.322-7.933 2.844L0 82.39l25.017 35.694 29.898 28.679 14.949-16.17-17.389-17.118 9.458-44.407L90 40.593 46.695 0Z" fill="#fff"/></mask><g mask="url(#P)"><path d="M-5.91 84.42H97.383" stroke="#C4DDC9" stroke-miterlimit="10"/></g><mask id="Q" style="mask-type:luminance" maskUnits="userSpaceOnUse" x="0" y="0" width="90" height="147"><path d="m46.695 0-4.288 4.898 2.946 3.051-25.217 43.322-7.933 2.844L0 82.39l25.017 35.694 29.898 28.679 14.949-16.17-17.389-17.118 9.458-44.407L90 40.593 46.695 0Z" fill="#fff"/></mask><g mask="url(#Q)"><path d="M-5.91 86.42H97.383" stroke="#C4DDC9" stroke-miterlimit="10"/></g><mask id="R" style="mask-type:luminance" maskUnits="userSpaceOnUse" x="0" y="0" width="90" height="147"><path d="m46.695 0-4.288 4.898 2.946 3.051-25.217 43.322-7.933 2.844L0 82.39l25.017 35.694 29.898 28.679 14.949-16.17-17.389-17.118 9.458-44.407L90 40.593 46.695 0Z" fill="#fff"/></mask><g mask="url(#R)"><path d="M-5.91 88.42H97.383" stroke="#C4DDC9" stroke-miterlimit="10"/></g><mask id="S" style="mask-type:luminance" maskUnits="userSpaceOnUse" x="0" y="0" width="90" height="147"><path d="m46.695 0-4.288 4.898 2.946 3.051-25.217 43.322-7.933 2.844L0 82.39l25.017 35.694 29.898 28.679 14.949-16.17-17.389-17.118 9.458-44.407L90 40.593 46.695 0Z" fill="#fff"/></mask><g mask="url(#S)"><path d="M-5.91 90.42H97.383" stroke="#C4DDC9" stroke-miterlimit="10"/></g><mask id="T" style="mask-type:luminance" maskUnits="userSpaceOnUse" x="0" y="0" width="90" height="147"><path d="m46.695 0-4.288 4.898 2.946 3.051-25.217 43.322-7.933 2.844L0 82.39l25.017 35.694 29.898 28.679 14.949-16.17-17.389-17.118 9.458-44.407L90 40.593 46.695 0Z" fill="#fff"/></mask><g mask="url(#T)"><path d="M-5.91 92.42H97.383" stroke="#C4DDC9" stroke-miterlimit="10"/></g><mask id="U" style="mask-type:luminance" maskUnits="userSpaceOnUse" x="0" y="0" width="90" height="147"><path d="m46.695 0-4.288 4.898 2.946 3.051-25.217 43.322-7.933 2.844L0 82.39l25.017 35.694 29.898 28.679 14.949-16.17-17.389-17.118 9.458-44.407L90 40.593 46.695 0Z" fill="#fff"/></mask><g mask="url(#U)"><path d="M-5.91 94.42H97.383" stroke="#C4DDC9" stroke-miterlimit="10"/></g><mask id="V" style="mask-type:luminance" maskUnits="userSpaceOnUse" x="0" y="0" width="90" height="147"><path d="m46.695 0-4.288 4.898 2.946 3.051-25.217 43.322-7.933 2.844L0 82.39l25.017 35.694 29.898 28.679 14.949-16.17-17.389-17.118 9.458-44.407L90 40.593 46.695 0Z" fill="#fff"/></mask><g mask="url(#V)"><path d="M-5.91 96.42H97.383" stroke="#C4DDC9" stroke-miterlimit="10"/></g><mask id="W" style="mask-type:luminance" maskUnits="userSpaceOnUse" x="0" y="0" width="90" height="147"><path d="m46.695 0-4.288 4.898 2.946 3.051-25.217 43.322-7.933 2.844L0 82.39l25.017 35.694 29.898 28.679 14.949-16.17-17.389-17.118 9.458-44.407L90 40.593 46.695 0Z" fill="#fff"/></mask><g mask="url(#W)"><path d="M-5.91 98.42H97.383" stroke="#C4DDC9" stroke-miterlimit="10"/></g><mask id="X" style="mask-type:luminance" maskUnits="userSpaceOnUse" x="0" y="0" width="90" height="147"><path d="m46.695 0-4.288 4.898 2.946 3.051-25.217 43.322-7.933 2.844L0 82.39l25.017 35.694 29.898 28.679 14.949-16.17-17.389-17.118 9.458-44.407L90 40.593 46.695 0Z" fill="#fff"/></mask><g mask="url(#X)"><path d="M-5.91 100.42H97.383" stroke="#C4DDC9" stroke-miterlimit="10"/></g><mask id="Y" style="mask-type:luminance" maskUnits="userSpaceOnUse" x="0" y="0" width="90" height="147"><path d="m46.695 0-4.288 4.898 2.946 3.051-25.217 43.322-7.933 2.844L0 82.39l25.017 35.694 29.898 28.679 14.949-16.17-17.389-17.118 9.458-44.407L90 40.593 46.695 0Z" fill="#fff"/></mask><g mask="url(#Y)"><path d="M-5.91 102.42H97.383" stroke="#C4DDC9" stroke-miterlimit="10"/></g><mask id="Z" style="mask-type:luminance" maskUnits="userSpaceOnUse" x="0" y="0" width="90" height="147"><path d="m46.695 0-4.288 4.898 2.946 3.051-25.217 43.322-7.933 2.844L0 82.39l25.017 35.694 29.898 28.679 14.949-16.17-17.389-17.118 9.458-44.407L90 40.593 46.695 0Z" fill="#fff"/></mask><g mask="url(#Z)"><path d="M-5.91 104.42H97.383" stroke="#C4DDC9" stroke-miterlimit="10"/></g><mask id="aa" style="mask-type:luminance" maskUnits="userSpaceOnUse" x="0" y="0" width="90" height="147"><path d="m46.695 0-4.288 4.898 2.946 3.051-25.217 43.322-7.933 2.844L0 82.39l25.017 35.694 29.898 28.679 14.949-16.17-17.389-17.118 9.458-44.407L90 40.593 46.695 0Z" fill="#fff"/></mask><g mask="url(#aa)"><path d="M-5.91 106.42H97.383" stroke="#C4DDC9" stroke-miterlimit="10"/></g><mask id="ab" style="mask-type:luminance" maskUnits="userSpaceOnUse" x="0" y="0" width="90" height="147"><path d="m46.695 0-4.288 4.898 2.946 3.051-25.217 43.322-7.933 2.844L0 82.39l25.017 35.694 29.898 28.679 14.949-16.17-17.389-17.118 9.458-44.407L90 40.593 46.695 0Z" fill="#fff"/></mask><g mask="url(#ab)"><path d="M-5.91 108.42H97.383" stroke="#C4DDC9" stroke-miterlimit="10"/></g><mask id="ac" style="mask-type:luminance" maskUnits="userSpaceOnUse" x="0" y="0" width="90" height="147"><path d="m46.695 0-4.288 4.898 2.946 3.051-25.217 43.322-7.933 2.844L0 82.39l25.017 35.694 29.898 28.679 14.949-16.17-17.389-17.118 9.458-44.407L90 40.593 46.695 0Z" fill="#fff"/></mask><g mask="url(#ac)"><path d="M-5.91 110.42H97.383" stroke="#C4DDC9" stroke-miterlimit="10"/></g><mask id="ad" style="mask-type:luminance" maskUnits="userSpaceOnUse" x="0" y="0" width="90" height="147"><path d="m46.695 0-4.288 4.898 2.946 3.051-25.217 43.322-7.933 2.844L0 82.39l25.017 35.694 29.898 28.679 14.949-16.17-17.389-17.118 9.458-44.407L90 40.593 46.695 0Z" fill="#fff"/></mask><g mask="url(#ad)"><path d="M-5.91 112.42H97.383" stroke="#C4DDC9" stroke-miterlimit="10"/></g><mask id="ae" style="mask-type:luminance" maskUnits="userSpaceOnUse" x="0" y="0" width="90" height="147"><path d="m46.695 0-4.288 4.898 2.946 3.051-25.217 43.322-7.933 2.844L0 82.39l25.017 35.694 29.898 28.679 14.949-16.17-17.389-17.118 9.458-44.407L90 40.593 46.695 0Z" fill="#fff"/></mask><g mask="url(#ae)"><path d="M-5.91 114.42H97.383" stroke="#C4DDC9" stroke-miterlimit="10"/></g><mask id="af" style="mask-type:luminance" maskUnits="userSpaceOnUse" x="0" y="0" width="90" height="147"><path d="m46.695 0-4.288 4.898 2.946 3.051-25.217 43.322-7.933 2.844L0 82.39l25.017 35.694 29.898 28.679 14.949-16.17-17.389-17.118 9.458-44.407L90 40.593 46.695 0Z" fill="#fff"/></mask><g mask="url(#af)"><path d="M-5.91 116.42H97.383" stroke="#C4DDC9" stroke-miterlimit="10"/></g><mask id="ag" style="mask-type:luminance" maskUnits="userSpaceOnUse" x="0" y="0" width="90" height="147"><path d="m46.695 0-4.288 4.898 2.946 3.051-25.217 43.322-7.933 2.844L0 82.39l25.017 35.694 29.898 28.679 14.949-16.17-17.389-17.118 9.458-44.407L90 40.593 46.695 0Z" fill="#fff"/></mask><g mask="url(#ag)"><path d="M-5.91 118.42H97.383" stroke="#C4DDC9" stroke-miterlimit="10"/></g><mask id="ah" style="mask-type:luminance" maskUnits="userSpaceOnUse" x="0" y="0" width="90" height="147"><path d="m46.695 0-4.288 4.898 2.946 3.051-25.217 43.322-7.933 2.844L0 82.39l25.017 35.694 29.898 28.679 14.949-16.17-17.389-17.118 9.458-44.407L90 40.593 46.695 0Z" fill="#fff"/></mask><g mask="url(#ah)"><path d="M-5.91 120.42H97.383" stroke="#C4DDC9" stroke-miterlimit="10"/></g><mask id="ai" style="mask-type:luminance" maskUnits="userSpaceOnUse" x="0" y="0" width="90" height="147"><path d="m46.695 0-4.288 4.898 2.946 3.051-25.217 43.322-7.933 2.844L0 82.39l25.017 35.694 29.898 28.679 14.949-16.17-17.389-17.118 9.458-44.407L90 40.593 46.695 0Z" fill="#fff"/></mask><g mask="url(#ai)"><path d="M-5.91 122.42H97.383" stroke="#C4DDC9" stroke-miterlimit="10"/></g><mask id="aj" style="mask-type:luminance" maskUnits="userSpaceOnUse" x="0" y="0" width="90" height="147"><path d="m46.695 0-4.288 4.898 2.946 3.051-25.217 43.322-7.933 2.844L0 82.39l25.017 35.694 29.898 28.679 14.949-16.17-17.389-17.118 9.458-44.407L90 40.593 46.695 0Z" fill="#fff"/></mask><g mask="url(#aj)"><path d="M-5.91 124.42H97.383" stroke="#C4DDC9" stroke-miterlimit="10"/></g><mask id="ak" style="mask-type:luminance" maskUnits="userSpaceOnUse" x="0" y="0" width="90" height="147"><path d="m46.695 0-4.288 4.898 2.946 3.051-25.217 43.322-7.933 2.844L0 82.39l25.017 35.694 29.898 28.679 14.949-16.17-17.389-17.118 9.458-44.407L90 40.593 46.695 0Z" fill="#fff"/></mask><g mask="url(#ak)"><path d="M-5.91 126.42H97.383" stroke="#C4DDC9" stroke-miterlimit="10"/></g><mask id="al" style="mask-type:luminance" maskUnits="userSpaceOnUse" x="0" y="0" width="90" height="147"><path d="m46.695 0-4.288 4.898 2.946 3.051-25.217 43.322-7.933 2.844L0 82.39l25.017 35.694 29.898 28.679 14.949-16.17-17.389-17.118 9.458-44.407L90 40.593 46.695 0Z" fill="#fff"/></mask><g mask="url(#al)"><path d="M-5.91 128.42H97.383" stroke="#C4DDC9" stroke-miterlimit="10"/></g><mask id="am" style="mask-type:luminance" maskUnits="userSpaceOnUse" x="0" y="0" width="90" height="147"><path d="m46.695 0-4.288 4.898 2.946 3.051-25.217 43.322-7.933 2.844L0 82.39l25.017 35.694 29.898 28.679 14.949-16.17-17.389-17.118 9.458-44.407L90 40.593 46.695 0Z" fill="#fff"/></mask><g mask="url(#am)"><path d="M-5.91 130.42H97.383" stroke="#C4DDC9" stroke-miterlimit="10"/></g><mask id="an" style="mask-type:luminance" maskUnits="userSpaceOnUse" x="0" y="0" width="90" height="147"><path d="m46.695 0-4.288 4.898 2.946 3.051-25.217 43.322-7.933 2.844L0 82.39l25.017 35.694 29.898 28.679 14.949-16.17-17.389-17.118 9.458-44.407L90 40.593 46.695 0Z" fill="#fff"/></mask><g mask="url(#an)"><path d="M-5.91 132.42H97.383" stroke="#C4DDC9" stroke-miterlimit="10"/></g><mask id="ao" style="mask-type:luminance" maskUnits="userSpaceOnUse" x="0" y="0" width="90" height="147"><path d="m46.695 0-4.288 4.898 2.946 3.051-25.217 43.322-7.933 2.844L0 82.39l25.017 35.694 29.898 28.679 14.949-16.17-17.389-17.118 9.458-44.407L90 40.593 46.695 0Z" fill="#fff"/></mask><g mask="url(#ao)"><path d="M-5.91 134.42H97.383" stroke="#C4DDC9" stroke-miterlimit="10"/></g><mask id="ap" style="mask-type:luminance" maskUnits="userSpaceOnUse" x="0" y="0" width="90" height="147"><path d="m46.695 0-4.288 4.898 2.946 3.051-25.217 43.322-7.933 2.844L0 82.39l25.017 35.694 29.898 28.679 14.949-16.17-17.389-17.118 9.458-44.407L90 40.593 46.695 0Z" fill="#fff"/></mask><g mask="url(#ap)"><path d="M-5.91 136.42H97.383" stroke="#C4DDC9" stroke-miterlimit="10"/></g><mask id="aq" style="mask-type:luminance" maskUnits="userSpaceOnUse" x="0" y="0" width="90" height="147"><path d="m46.695 0-4.288 4.898 2.946 3.051-25.217 43.322-7.933 2.844L0 82.39l25.017 35.694 29.898 28.679 14.949-16.17-17.389-17.118 9.458-44.407L90 40.593 46.695 0Z" fill="#fff"/></mask><g mask="url(#aq)"><path d="M-5.91 138.42H97.383" stroke="#C4DDC9" stroke-miterlimit="10"/></g><mask id="ar" style="mask-type:luminance" maskUnits="userSpaceOnUse" x="0" y="0" width="90" height="147"><path d="m46.695 0-4.288 4.898 2.946 3.051-25.217 43.322-7.933 2.844L0 82.39l25.017 35.694 29.898 28.679 14.949-16.17-17.389-17.118 9.458-44.407L90 40.593 46.695 0Z" fill="#fff"/></mask><g mask="url(#ar)"><path d="M-5.91 140.42H97.383" stroke="#C4DDC9" stroke-miterlimit="10"/></g><mask id="as" style="mask-type:luminance" maskUnits="userSpaceOnUse" x="0" y="0" width="90" height="147"><path d="m46.695 0-4.288 4.898 2.946 3.051-25.217 43.322-7.933 2.844L0 82.39l25.017 35.694 29.898 28.679 14.949-16.17-17.389-17.118 9.458-44.407L90 40.593 46.695 0Z" fill="#fff"/></mask><g mask="url(#as)"><path d="M-5.91 142.42H97.383" stroke="#C4DDC9" stroke-miterlimit="10"/></g><mask id="at" style="mask-type:luminance" maskUnits="userSpaceOnUse" x="0" y="0" width="90" height="147"><path d="m46.695 0-4.288 4.898 2.946 3.051-25.217 43.322-7.933 2.844L0 82.39l25.017 35.694 29.898 28.679 14.949-16.17-17.389-17.118 9.458-44.407L90 40.593 46.695 0Z" fill="#fff"/></mask><g mask="url(#at)"><path d="M-5.91 144.42H97.383" stroke="#C4DDC9" stroke-miterlimit="10"/></g><path d="m75.257 34.386-24.405-5.5-5.498 24.406 24.404 5.499 5.499-24.405Z" fill="#fff" stroke="#2C2C2C" stroke-miterlimit="10"/><path d="m38.441 59.615-24.404-5.501-5.5 24.403 24.403 5.501 5.501-24.403Z" fill="#fff" stroke="#2C2C2C" stroke-width="4" stroke-miterlimit="10"/></svg>